<?xml version="1.0" standalone="no"?>
<!-- Licensee: vincent le moign (#23482) - http://vllg.com -->
<!DOCTYPE svg PUBLIC "-//W3C//DTD SVG 1.1//EN" "http://www.w3.org/Graphics/SVG/1.1/DTD/svg11.dtd" ><svg version="1.1" xmlns="http://www.w3.org/2000/svg"><defs><font horiz-adv-x="0" id="font"><font-face ascent="750" bbox="-231 -180 1403 828" cap-height="680" descent="-250" font-family="Brooklyn Bold" font-stretch="normal" font-style="normal" font-weight="600" units-per-em="1000" x-height="500" /><missing-glyph d="M50 66V613L323 340ZM457 340 730 613V66ZM390 273 663 0H116ZM116 680H663L390 407Z" horiz-adv-x="780" /><glyph glyph-name=".null" horiz-adv-x="0" /><glyph d="M204 680H423L621 0H482L438 149H189L145 0H6ZM222 265H405L320 556H307Z" glyph-name="A" horiz-adv-x="627" unicode="A" /><glyph d="M204 680H868V556H496L522 409H791V285H544L573 124H868V0H455L428 149H189L145 0H6ZM222 265H408L356 556H307Z" glyph-name="AE" horiz-adv-x="914" unicode="&#198;" /><glyph d="M204 680H423L621 0H482L438 149H189L145 0H6ZM222 265H405L320 556H307ZM242 708 342 808H493L393 708Z" glyph-name="Aacute" horiz-adv-x="627" unicode="&#193;" /><glyph d="M204 680H423L621 0H482L438 149H189L145 0H6ZM135 754V808H241V798L254 785H374L387 798V808H493V754L447 708H181ZM222 265H405L320 556H307Z" glyph-name="Abreve" horiz-adv-x="627" unicode="&#258;" /><glyph d="M204 680H423L621 0H482L438 149H189L145 0H6ZM222 265H405L320 556H307ZM122 708 222 808H406L506 708H355L314 749L273 708Z" glyph-name="Acircumflex" horiz-adv-x="627" unicode="&#194;" /><glyph d="M204 680H423L621 0H482L438 149H189L145 0H6ZM222 265H405L320 556H307ZM163 708 137 734V782L163 808H265L291 782V734L265 708ZM363 708 337 734V782L363 808H465L491 782V734L465 708Z" glyph-name="Adieresis" horiz-adv-x="627" unicode="&#196;" /><glyph d="M204 680H423L621 0H482L438 149H189L145 0H6ZM222 265H405L320 556H307ZM135 808H286L386 708H235Z" glyph-name="Agrave" horiz-adv-x="627" unicode="&#192;" /><glyph d="M204 680H423L621 0H482L438 149H189L145 0H6ZM154 803H473V713H154ZM222 265H405L320 556H307Z" glyph-name="Amacron" horiz-adv-x="627" unicode="&#256;" /><glyph d="M320 556H307L145 0H6L204 680H423L621 0H482Z" glyph-name="Anocross" horiz-adv-x="627" unicode="&#59185;" /><glyph d="M648 -160H513L469 -116V-48L499 -17L482 0L438 149H189L145 0H6L204 680H423L621 0L570 -51V-65L581 -76H648ZM222 265H405L320 556H307Z" glyph-name="Aogonek" horiz-adv-x="627" unicode="&#260;" /><glyph d="M194 645V759L243 808H384L433 759V645L621 0H482L438 149H189L145 0H6ZM222 265H405L320 556H307ZM348 733H279L269 723V690L279 680H348L358 690V723Z" glyph-name="Aring" horiz-adv-x="627" unicode="&#197;" /><glyph d="M204 680H423L621 0H482L438 149H189L145 0H6ZM222 265H405L320 556H307ZM493 754 448 709 248 725 241 718V708H135V762L180 807L380 791L387 798V808H493Z" glyph-name="Atilde" horiz-adv-x="627" unicode="&#195;" /><glyph d="M204 680H423L621 0H482L438 149H189L145 0H6ZM222 265H405L320 556H307ZM54 556 28 582V654L54 680H126L152 654V582L126 556ZM501 556 475 582V654L501 680H572L598 654V582L572 556Z" glyph-name="Aumlaut" horiz-adv-x="627" unicode="&#61814;" /><glyph d="M56 680H428L546 562V421L483 358L568 273V124L444 0H56ZM372 412 409 449V519L372 556H193V412ZM386 124 431 169V243L386 288H193V124Z" glyph-name="B" horiz-adv-x="614" unicode="B" /><glyph d="M183 169 228 124H494V0H170L46 124V556L170 680H494V556H228L183 511Z" glyph-name="C" horiz-adv-x="531" unicode="C" /><glyph d="M183 169 228 124H494V0H170L46 124V556L170 680H494V556H228L183 511ZM235 708 335 808H486L386 708Z" glyph-name="Cacute" horiz-adv-x="531" unicode="&#262;" /><glyph d="M183 169 228 124H494V0H170L46 124V556L170 680H494V556H228L183 511ZM499 808 399 708H215L115 808H266L307 767L348 808Z" glyph-name="Ccaron" horiz-adv-x="531" unicode="&#268;" /><glyph d="M234 -78H268L279 -67V-53L268 -42L304 -7L366 -67V-117L323 -160H234ZM183 169 228 124H494V0H170L46 124V556L170 680H494V556H228L183 511Z" glyph-name="Ccedilla" horiz-adv-x="531" unicode="&#199;" /><glyph d="M183 169 228 124H494V0H170L46 124V556L170 680H494V556H228L183 511ZM115 708 215 808H400L500 708H349L307 749L266 708Z" glyph-name="Ccircumflex" horiz-adv-x="531" unicode="&#264;" /><glyph d="M183 169 228 124H494V0H170L46 124V556L170 680H494V556H228L183 511ZM256 708 230 734V782L256 808H358L384 782V734L358 708Z" glyph-name="Cdotaccent" horiz-adv-x="531" unicode="&#266;" /><glyph d="M446 680 570 556V124L446 0H56V680ZM433 511 388 556H193V124H388L433 169Z" glyph-name="D" horiz-adv-x="616" unicode="D" /><glyph d="M446 680 570 556V124L446 0H56V680ZM433 511 388 556H193V124H388L433 169ZM486 808 386 708H202L102 808H253L294 767L335 808Z" glyph-name="Dcaron" horiz-adv-x="616" unicode="&#270;" /><glyph d="M25 404H110V680H500L624 556V124L500 0H110V290H25ZM487 511 442 556H247V404H400V290H247V124H442L487 169Z" glyph-name="Dcroat" horiz-adv-x="670" unicode="&#272;" /><glyph d="M543 680V556H193V409H466V285H193V124H543V0H56V680Z" glyph-name="E" horiz-adv-x="589" unicode="E" /><glyph d="M543 680V556H193V409H466V285H193V124H543V0H56V680ZM230 708 330 808H481L381 708Z" glyph-name="Eacute" horiz-adv-x="589" unicode="&#201;" /><glyph d="M543 680V556H193V409H466V285H193V124H543V0H56V680ZM122 754V808H228V798L241 785H361L374 798V808H480V754L434 708H168Z" glyph-name="Ebreve" horiz-adv-x="589" unicode="&#276;" /><glyph d="M543 680V556H193V409H466V285H193V124H543V0H56V680ZM494 808 394 708H210L110 808H261L302 767L343 808Z" glyph-name="Ecaron" horiz-adv-x="589" unicode="&#282;" /><glyph d="M543 680V556H193V409H466V285H193V124H543V0H56V680ZM109 708 209 808H394L494 708H343L301 749L260 708Z" glyph-name="Ecircumflex" horiz-adv-x="589" unicode="&#202;" /><glyph d="M543 680V556H193V409H466V285H193V124H543V0H56V680ZM148 708 121 736V781L148 808H247L275 781V736L247 708ZM355 708 328 736V781L355 808H454L482 781V736L454 708Z" glyph-name="Edieresis" horiz-adv-x="589" unicode="&#203;" /><glyph d="M543 680V556H193V409H466V285H193V124H543V0H56V680ZM250 708 224 734V782L250 808H352L378 782V734L352 708Z" glyph-name="Edotaccent" horiz-adv-x="589" unicode="&#278;" /><glyph d="M543 680V556H193V409H466V285H193V124H543V0H56V680ZM125 808H276L376 708H225Z" glyph-name="Egrave" horiz-adv-x="589" unicode="&#200;" /><glyph d="M543 680V556H193V409H466V285H193V124H543V0H56V680ZM142 803H460V713H142Z" glyph-name="Emacron" horiz-adv-x="589" unicode="&#274;" /><glyph d="M193 0H56V680H208L486 214L479 680H616V-63L519 -160H406V-36H454L474 -16L186 466Z" glyph-name="Eng" horiz-adv-x="673" unicode="&#330;" /><glyph d="M570 -160H435L391 -116V-48L439 0H56V680H543V556H193V409H466V285H193V124H543V0L492 -51V-65L503 -76H570Z" glyph-name="Eogonek" horiz-adv-x="589" unicode="&#280;" /><glyph d="M228 556 188 516V0H51V561L170 680H570V543L441 393L595 348L665 278V119L546 0H270V124H488L528 164V227L517 238L295 303V422L410 556Z" glyph-name="Eszett" horiz-adv-x="696" unicode="&#7838;" /><glyph d="M25 404H110V680H500L624 556V124L500 0H110V290H25ZM487 511 442 556H247V404H400V290H247V124H442L487 169Z" glyph-name="Eth" horiz-adv-x="670" unicode="&#208;" /><glyph d="M403 364H261V316H382L349 239H261V154L291 124H339L369 154V202H506V102L404 0H226L124 102V239H43V316H124V364H43V441H124V578L226 680H404L506 578V478H369V526L339 556H291L261 526V441H436Z" glyph-name="Euro" horiz-adv-x="560" unicode="&#8364;" /><glyph d="M403 314H261V276H382L349 199H261V154L291 124H339L369 154V172H506V102L404 0H226L124 102V199H43V276H124V314H43V391H124V488L226 590H404L506 488V418H369V436L339 466H291L261 436V391H436Z" glyph-name="Euro.smcp" horiz-adv-x="560" unicode="&#63111;" /><glyph d="M528 680V556H193V389H451V265H193V0H56V680Z" glyph-name="F" horiz-adv-x="563" unicode="F" /><glyph d="M567 111 456 0H170L46 124V556L170 680H552V556H228L183 511V169L228 124H398L430 156V285H309V409H567Z" glyph-name="G" horiz-adv-x="613" unicode="G" /><glyph d="M567 111 456 0H170L46 124V556L170 680H552V556H228L183 511V169L228 124H398L430 156V285H309V409H567ZM130 754V808H236V798L249 785H369L382 798V808H488V754L442 708H176Z" glyph-name="Gbreve" horiz-adv-x="613" unicode="&#286;" /><glyph d="M567 111 456 0H170L46 124V556L170 680H552V556H228L183 511V169L228 124H398L430 156V285H309V409H567ZM117 708 217 808H402L502 708H351L309 749L268 708Z" glyph-name="Gcircumflex" horiz-adv-x="613" unicode="&#284;" /><glyph d="M567 111 456 0H170L46 124V556L170 680H552V556H228L183 511V169L228 124H398L430 156V285H309V409H567ZM264 -160 280 -132 245 -97V-58L280 -23H338L373 -58V-109L344 -160Z" glyph-name="Gcommaaccent" horiz-adv-x="613" unicode="&#290;" /><glyph d="M567 111 456 0H170L46 124V556L170 680H552V556H228L183 511V169L228 124H398L430 156V285H309V409H567ZM258 708 232 734V782L258 808H360L386 782V734L360 708Z" glyph-name="Gdotaccent" horiz-adv-x="613" unicode="&#288;" /><glyph d="M193 680V409H460V680H597V0H460V285H193V0H56V680Z" glyph-name="H" horiz-adv-x="653" unicode="H" /><glyph d="M193 680V600H460V680H597V0H460V285H193V0H56V680ZM460 409V490H193V409Z" glyph-name="Hbar" horiz-adv-x="653" unicode="&#294;" /><glyph d="M193 680V409H460V680H597V0H460V285H193V0H56V680ZM134 708 234 808H419L519 708H368L326 749L285 708Z" glyph-name="Hcircumflex" horiz-adv-x="653" unicode="&#292;" /><glyph d="M195 680V0H58V680Z" glyph-name="I" horiz-adv-x="253" unicode="I" /><glyph d="M188 680V305H51V680ZM490 111 379 0H162L51 111V237H188V156L220 124H321L353 156V680H490Z" glyph-name="IJ" horiz-adv-x="541" unicode="&#306;" /><glyph d="M195 680V0H58V680ZM54 708 154 808H305L205 708Z" glyph-name="Iacute" horiz-adv-x="252" unicode="&#205;" /><glyph d="M195 680V0H58V680ZM-53 754V808H53V798L66 785H186L199 798V808H305V754L259 708H-7Z" glyph-name="Ibreve" horiz-adv-x="252" unicode="&#300;" /><glyph d="M195 680V0H58V680ZM-66 708 34 808H218L318 708H167L126 749L85 708Z" glyph-name="Icircumflex" horiz-adv-x="252" unicode="&#206;" /><glyph d="M195 680V0H58V680ZM167 708 140 736V781L167 808H266L294 781V736L266 708ZM-14 708 -41 736V781L-14 808H85L113 781V736L85 708Z" glyph-name="Idieresis" horiz-adv-x="252" unicode="&#207;" /><glyph d="M195 680V0H58V680ZM77 708 49 736V781L77 808H176L203 781V736L176 708Z" glyph-name="Idotaccent" horiz-adv-x="252" unicode="&#304;" /><glyph d="M195 680V0H58V680ZM-53 808H98L198 708H47Z" glyph-name="Igrave" horiz-adv-x="252" unicode="&#204;" /><glyph d="M195 680V0H58V680ZM-33 803H285V713H-33Z" glyph-name="Imacron" horiz-adv-x="252" unicode="&#298;" /><glyph d="M222 -160H87L43 -116V-48L74 -16L58 0V680H195V0L144 -51V-65L155 -76H222Z" glyph-name="Iogonek" horiz-adv-x="252" unicode="&#302;" /><glyph d="M195 680V0H58V680ZM305 754 260 709 60 725 53 718V708H-53V762L-8 807L192 791L199 798V808H305Z" glyph-name="Itilde" horiz-adv-x="252" unicode="&#296;" /><glyph d="M465 111 354 0H137L26 111V240H163V156L195 124H296L328 156V680H465Z" glyph-name="J" horiz-adv-x="516" unicode="J" /><glyph d="M465 111 354 0H137L26 111V240H163V156L195 124H296L328 156V680H465ZM204 708 304 808H488L588 708H437L396 749L355 708Z" glyph-name="Jcircumflex" horiz-adv-x="516" unicode="&#308;" /><glyph d="M614 0H451L271 287H193V0H56V680H193V413H272L440 680H603L390 350Z" glyph-name="K" horiz-adv-x="624" unicode="K" /><glyph d="M614 0H451L271 287H193V0H56V680H193V413H272L440 680H603L390 350ZM261 -160 277 -132 242 -97V-58L277 -23H335L370 -58V-109L341 -160Z" glyph-name="Kcommaaccent" horiz-adv-x="624" unicode="&#310;" /><glyph d="M193 680V124H488V0H56V680Z" glyph-name="L" horiz-adv-x="511" unicode="L" /><glyph d="M193 680V124H488V0H56V680ZM52 708 152 808H303L203 708Z" glyph-name="Lacute" horiz-adv-x="511" unicode="&#313;" /><glyph d="M193 680V124H488V0H56V680ZM290 535V700H396L367 535Z" glyph-name="Lcaron" horiz-adv-x="511" unicode="&#317;" /><glyph d="M193 680V124H488V0H56V680ZM225 -160 241 -132 206 -97V-58L241 -23H299L334 -58V-109L305 -160Z" glyph-name="Lcommaaccent" horiz-adv-x="511" unicode="&#315;" /><glyph d="M193 680V124H488V0H56V680ZM338 270 303 305V389L338 424H422L457 389V305L422 270Z" glyph-name="Ldot" horiz-adv-x="511" unicode="&#319;" /><glyph d="M247 680V408L430 510V393L247 291V124H542V0H110V214L27 168V285L110 331V680Z" glyph-name="Lslash" horiz-adv-x="565" unicode="&#321;" /><glyph d="M319 82 193 496V0H56V680H285L402 261L519 680H748V0H611V496L485 82Z" glyph-name="M" horiz-adv-x="804" unicode="M" /><glyph d="M193 0H56V680H208L486 214L479 680H616V0H464L186 466Z" glyph-name="N" horiz-adv-x="673" unicode="N" /><glyph d="M193 0H56V680H208L486 214L479 680H616V0H464L186 466ZM264 708 364 808H515L415 708Z" glyph-name="Nacute" horiz-adv-x="673" unicode="&#323;" /><glyph d="M193 0H56V680H208L486 214L479 680H616V0H464L186 466ZM528 808 428 708H244L144 808H295L336 767L377 808Z" glyph-name="Ncaron" horiz-adv-x="673" unicode="&#327;" /><glyph d="M193 0H56V680H208L486 214L479 680H616V0H464L186 466ZM291 -160 307 -132 272 -97V-58L307 -23H365L400 -58V-109L371 -160Z" glyph-name="Ncommaaccent" horiz-adv-x="673" unicode="&#325;" /><glyph d="M193 0H56V680H208L486 214L479 680H616V0H464L186 466ZM515 754 470 709 270 725 263 718V708H157V762L202 807L402 791L409 798V808H515Z" glyph-name="Ntilde" horiz-adv-x="673" unicode="&#209;" /><glyph d="M170 680H443L567 556V124L443 0H170L46 124V556ZM430 511 385 556H228L183 511V169L228 124H385L430 169Z" glyph-name="O" horiz-adv-x="613" unicode="O" /><glyph d="M876 680V556H550V409H799V285H550V124H876V0H170L46 124V556L170 680ZM183 169 228 124H413V556H228L183 511Z" glyph-name="OE" horiz-adv-x="922" unicode="&#338;" /><glyph d="M170 680H443L567 556V124L443 0H170L46 124V556ZM430 511 385 556H228L183 511V169L228 124H385L430 169ZM235 708 335 808H486L386 708Z" glyph-name="Oacute" horiz-adv-x="613" unicode="&#211;" /><glyph d="M170 680H443L567 556V124L443 0H170L46 124V556ZM430 511 385 556H228L183 511V169L228 124H385L430 169ZM128 754V808H234V798L247 785H367L380 798V808H486V754L440 708H174Z" glyph-name="Obreve" horiz-adv-x="613" unicode="&#334;" /><glyph d="M170 680H443L567 556V124L443 0H170L46 124V556ZM430 511 385 556H228L183 511V169L228 124H385L430 169ZM114 708 214 808H399L499 708H348L306 749L265 708Z" glyph-name="Ocircumflex" horiz-adv-x="613" unicode="&#212;" /><glyph d="M170 680H443L567 556V124L443 0H170L46 124V556ZM430 511 385 556H228L183 511V169L228 124H385L430 169ZM156 708 130 734V782L156 808H258L284 782V734L258 708ZM356 708 330 734V782L356 808H458L484 782V734L458 708Z" glyph-name="Odieresis" horiz-adv-x="613" unicode="&#214;" /><glyph d="M170 680H443L567 556V124L443 0H170L46 124V556ZM430 511 385 556H228L183 511V169L228 124H385L430 169ZM128 808H279L379 708H228Z" glyph-name="Ograve" horiz-adv-x="613" unicode="&#210;" /><glyph d="M170 680H443L567 556V124L443 0H170L46 124V556ZM430 511 385 556H228L183 511V169L228 124H385L430 169ZM145 708 245 808H396L296 708ZM325 708 425 808H576L476 708Z" glyph-name="Ohungarumlaut" horiz-adv-x="613" unicode="&#336;" /><glyph d="M170 680H443L567 556V124L443 0H170L46 124V556ZM430 511 385 556H228L183 511V169L228 124H385L430 169ZM148 803H466V713H148Z" glyph-name="Omacron" horiz-adv-x="613" unicode="&#332;" /><glyph d="M80 90 46 124V556L170 680H443L489 633L525 680H601L533 590L567 556V124L443 0H170L123 46L88 0H12ZM183 226 411 529 385 556H228L183 511ZM430 453 201 150 228 124H385L430 169Z" glyph-name="Oslash" horiz-adv-x="613" unicode="&#216;" /><glyph d="M170 680H443L567 556V124L443 0H170L46 124V556ZM430 511 385 556H228L183 511V169L228 124H385L430 169ZM486 754 441 709 241 725 234 718V708H128V762L173 807L373 791L380 798V808H486Z" glyph-name="Otilde" horiz-adv-x="613" unicode="&#213;" /><glyph d="M170 680H443L567 556V124L443 0H170L46 124V556ZM430 511 385 556H228L183 511V169L228 124H385L430 169ZM46 594V654L72 680H132ZM481 680H541L567 654V594Z" glyph-name="Oumlaut" horiz-adv-x="613" unicode="&#61815;" /><glyph d="M193 556V331H381L426 376V511L381 556ZM193 207V0H56V680H439L563 556V331L439 207Z" glyph-name="P" horiz-adv-x="599" unicode="P" /><glyph d="M331 0H170L46 124V556L170 680H443L567 556V124L468 25L572 -120H417ZM228 556 183 511V169L228 124H385L430 169V511L385 556Z" glyph-name="Q" horiz-adv-x="608" unicode="Q" /><glyph d="M56 0V680H439L563 556V368L451 257L582 0H436L312 244H193V0ZM193 556V368H381L426 413V511L381 556Z" glyph-name="R" horiz-adv-x="608" unicode="R" /><glyph d="M56 0V680H439L563 556V368L451 257L582 0H436L312 244H193V0ZM193 556V368H381L426 413V511L381 556ZM214 708 314 808H465L365 708Z" glyph-name="Racute" horiz-adv-x="608" unicode="&#340;" /><glyph d="M56 0V680H439L563 556V368L451 257L582 0H436L312 244H193V0ZM193 556V368H381L426 413V511L381 556ZM488 808 388 708H204L104 808H255L296 767L337 808Z" glyph-name="Rcaron" horiz-adv-x="608" unicode="&#344;" /><glyph d="M56 0V680H439L563 556V368L451 257L582 0H436L312 244H193V0ZM193 556V368H381L426 413V511L381 556ZM255 -160 271 -132 236 -97V-58L271 -23H329L364 -58V-109L335 -160Z" glyph-name="Rcommaaccent" horiz-adv-x="608" unicode="&#342;" /><glyph d="M520 556H222L182 516V447L193 436L460 358L530 288V119L411 0H45V124H353L393 164V237L382 248L115 326L45 396V561L164 680H520Z" glyph-name="S" horiz-adv-x="561" unicode="S" /><glyph d="M515 556H222L182 516V445L193 434L460 356L530 286V119L411 0H35V124H353L393 164V235L382 246L115 324L45 394V561L164 680H515ZM215 708 315 808H466L366 708Z" glyph-name="Sacute" horiz-adv-x="561" unicode="&#346;" /><glyph d="M515 556H222L182 516V445L193 434L460 356L530 286V119L411 0H35V124H353L393 164V235L382 246L115 324L45 394V561L164 680H515ZM479 808 379 708H195L95 808H246L287 767L328 808Z" glyph-name="Scaron" horiz-adv-x="561" unicode="&#352;" /><glyph d="M202 -78H237L247 -67V-53L237 -42L273 -7L334 -67V-117L291 -160H202ZM515 556H222L182 516V445L193 434L460 356L530 286V119L411 0H35V124H353L393 164V235L382 246L115 324L45 394V561L164 680H515Z" glyph-name="Scedilla" horiz-adv-x="561" unicode="&#350;" /><glyph d="M515 556H222L182 516V445L193 434L460 356L530 286V119L411 0H35V124H353L393 164V235L382 246L115 324L45 394V561L164 680H515ZM95 708 195 808H380L480 708H329L287 749L246 708Z" glyph-name="Scircumflex" horiz-adv-x="561" unicode="&#348;" /><glyph d="M515 556H222L182 516V445L193 434L460 356L530 286V119L411 0H35V124H353L393 164V235L382 246L115 324L45 394V561L164 680H515ZM224 -160 240 -132 205 -97V-58L240 -23H298L333 -58V-109L304 -160Z" glyph-name="Scommaaccent" horiz-adv-x="561" unicode="&#536;" /><glyph d="M26 680H563V556H363V0H226V556H26Z" glyph-name="T" horiz-adv-x="589" unicode="T" /><glyph d="M98 393H226V556H26V680H563V556H363V393H491V279H363V0H226V279H98Z" glyph-name="Tbar" horiz-adv-x="589" unicode="&#358;" /><glyph d="M26 680H563V556H363V0H226V556H26ZM487 808 387 708H203L103 808H254L295 767L336 808Z" glyph-name="Tcaron" horiz-adv-x="589" unicode="&#356;" /><glyph d="M249 -160 265 -132 230 -97V-58L265 -23H323L358 -58V-109L329 -160ZM26 680H563V556H363V0H226V556H26Z" glyph-name="Tcommaaccent" horiz-adv-x="589" unicode="&#354;" /><glyph d="M193 680V556H439L563 432V248L439 124H193V0H56V680ZM193 432V248H381L426 293V387L381 432Z" glyph-name="Thorn" horiz-adv-x="599" unicode="&#222;" /><glyph d="M429 49 175 -10 51 114V680H188V163L233 118L429 163V680H566V0H429Z" glyph-name="U" horiz-adv-x="623" unicode="U" /><glyph d="M429 49 175 -10 51 114V680H188V163L233 118L429 163V680H566V0H429ZM237 708 337 808H488L388 708Z" glyph-name="Uacute" horiz-adv-x="623" unicode="&#218;" /><glyph d="M429 49 175 -10 51 114V680H188V163L233 118L429 163V680H566V0H429ZM130 754V808H236V798L249 785H369L382 798V808H488V754L442 708H176Z" glyph-name="Ubreve" horiz-adv-x="623" unicode="&#364;" /><glyph d="M429 49 175 -10 51 114V680H188V163L233 118L429 163V680H566V0H429ZM117 708 217 808H401L501 708H350L309 749L268 708Z" glyph-name="Ucircumflex" horiz-adv-x="623" unicode="&#219;" /><glyph d="M429 49 175 -10 51 114V680H188V163L233 118L429 163V680H566V0H429ZM358 708 332 734V782L358 808H460L486 782V734L460 708ZM158 708 132 734V782L158 808H260L286 782V734L260 708Z" glyph-name="Udieresis" horiz-adv-x="623" unicode="&#220;" /><glyph d="M429 49 175 -10 51 114V680H188V163L233 118L429 163V680H566V0H429ZM130 808H281L381 708H230Z" glyph-name="Ugrave" horiz-adv-x="623" unicode="&#217;" /><glyph d="M429 49 175 -10 51 114V680H188V163L233 118L429 163V680H566V0H429ZM327 708 427 808H578L478 708ZM147 708 247 808H398L298 708Z" glyph-name="Uhungarumlaut" horiz-adv-x="623" unicode="&#368;" /><glyph d="M429 49 175 -10 51 114V680H188V163L233 118L429 163V680H566V0H429ZM150 803H468V713H150Z" glyph-name="Umacron" horiz-adv-x="623" unicode="&#362;" /><glyph d="M429 49 175 -10 51 114V680H188V163L233 118L429 163V680H566V0L515 -51V-65L526 -76H593V-160H458L414 -116V-48L445 -16L429 0Z" glyph-name="Uogonek" horiz-adv-x="623" unicode="&#370;" /><glyph d="M429 49 175 -10 51 114V680H188V163L233 118L429 163V680H566V0H429ZM365 605H252L203 654V759L252 808H365L414 759V654ZM329 733H288L278 723V690L288 680H329L339 690V723Z" glyph-name="Uring" horiz-adv-x="623" unicode="&#366;" /><glyph d="M429 49 175 -10 51 114V680H188V163L233 118L429 163V680H566V0H429ZM488 754 443 709 243 725 236 718V708H130V762L175 807L375 791L382 798V808H488Z" glyph-name="Utilde" horiz-adv-x="623" unicode="&#360;" /><glyph d="M429 49 175 -10 51 114V680H188V163L233 118L429 163V680H566V0H429ZM232 556 206 582V654L232 680H274L300 654V582L274 556ZM344 556 318 582V654L344 680H385L411 654V582L385 556Z" glyph-name="Uumlaut" horiz-adv-x="623" unicode="&#61816;" /><glyph d="M482 680H621L423 0H204L6 680H145L307 124H320Z" glyph-name="V" horiz-adv-x="627" unicode="V" /><glyph d="M758 0H543L444 545H440L341 0H126L23 680H162L238 136H242L347 680H537L642 136H646L722 680H861Z" glyph-name="W" horiz-adv-x="884" unicode="W" /><glyph d="M758 0H543L444 545H440L341 0H126L23 680H162L238 136H242L347 680H537L642 136H646L722 680H861ZM370 708 470 808H621L521 708Z" glyph-name="Wacute" horiz-adv-x="884" unicode="&#7810;" /><glyph d="M758 0H543L444 545H440L341 0H126L23 680H162L238 136H242L347 680H537L642 136H646L722 680H861ZM250 708 350 808H535L635 708H484L442 749L401 708Z" glyph-name="Wcircumflex" horiz-adv-x="884" unicode="&#372;" /><glyph d="M758 0H543L444 545H440L341 0H126L23 680H162L238 136H242L347 680H537L642 136H646L722 680H861ZM491 708 465 734V782L491 808H593L619 782V734L593 708ZM291 708 265 734V782L291 808H393L419 782V734L393 708Z" glyph-name="Wdieresis" horiz-adv-x="884" unicode="&#7812;" /><glyph d="M758 0H543L444 545H440L341 0H126L23 680H162L238 136H242L347 680H537L642 136H646L722 680H861ZM263 808H414L514 708H363Z" glyph-name="Wgrave" horiz-adv-x="884" unicode="&#7808;" /><glyph d="M641 680 426 351 656 0H490L341 239L192 0H26L256 351L41 680H207L341 464L475 680Z" glyph-name="X" horiz-adv-x="683" unicode="X" /><glyph d="M391 214V0H247V214L-8 680H146L317 349H321L492 680H646Z" glyph-name="Y" horiz-adv-x="638" unicode="Y" /><glyph d="M391 214V0H247V214L-8 680H146L317 349H321L492 680H646ZM247 708 347 808H498L398 708Z" glyph-name="Yacute" horiz-adv-x="638" unicode="&#221;" /><glyph d="M391 214V0H247V214L-8 680H146L317 349H321L492 680H646ZM127 708 227 808H411L511 708H360L319 749L278 708Z" glyph-name="Ycircumflex" horiz-adv-x="638" unicode="&#374;" /><glyph d="M391 214V0H247V214L-8 680H146L317 349H321L492 680H646ZM368 708 342 734V782L368 808H470L496 782V734L470 708ZM168 708 142 734V782L168 808H270L296 782V734L270 708Z" glyph-name="Ydieresis" horiz-adv-x="638" unicode="&#376;" /><glyph d="M46 556V680H564V543L206 124H564V0H46V137L404 556Z" glyph-name="Z" horiz-adv-x="610" unicode="Z" /><glyph d="M46 556V680H564V543L206 124H564V0H46V137L404 556ZM229 708 329 808H480L380 708Z" glyph-name="Zacute" horiz-adv-x="610" unicode="&#377;" /><glyph d="M46 556V680H564V543L206 124H564V0H46V137L404 556ZM493 808 393 708H209L109 808H260L301 767L342 808Z" glyph-name="Zcaron" horiz-adv-x="610" unicode="&#381;" /><glyph d="M46 556V680H564V543L206 124H564V0H46V137L404 556ZM250 708 224 734V782L250 808H352L378 782V734L352 708Z" glyph-name="Zdotaccent" horiz-adv-x="610" unicode="&#379;" /><glyph d="M46 93V230L111 295L328 324V338L290 376H76V500H348L465 383V0H329V37L149 -10ZM195 206 183 194V148L219 112L328 141V224Z" glyph-name="a" horiz-adv-x="511" unicode="a" /><glyph d="M362 500H499V0H362V42L164 -10L41 113V387L164 510L362 458ZM178 162 221 119 362 156V344L221 381L178 338Z" glyph-name="a.school" horiz-adv-x="550" unicode="&#57681;" /><glyph d="M207 590H413L606 0H464L430 104H189L156 0H14ZM227 220H392L313 466H307Z" glyph-name="a.smcp" horiz-adv-x="620" unicode="&#57857;" /><glyph d="M46 93V230L111 295L328 324V338L290 376H76V500H348L465 383V0H329V37L149 -10ZM190 534 310 700H447L325 534ZM195 206 183 194V148L219 112L328 141V224Z" glyph-name="aacute" horiz-adv-x="511" unicode="&#225;" /><glyph d="M362 500H499V0H362V42L164 -10L41 113V387L164 510L362 458ZM178 162 221 119 362 156V344L221 381L178 338ZM202 534 322 700H459L337 534Z" glyph-name="aacute.school" horiz-adv-x="550" unicode="&#57683;" /><glyph d="M207 590H413L606 0H464L430 104H189L156 0H14ZM227 220H392L313 466H307ZM238 618 338 718H489L389 618Z" glyph-name="aacute.smcp" horiz-adv-x="620" unicode="&#57889;" /><glyph d="M46 93V230L111 295L328 324V338L290 376H76V500H348L465 383V0H329V37L149 -10ZM328 651V700H435V601L368 534H144L77 601V700H184V651L206 629H306ZM195 206 183 194V148L219 112L328 141V224Z" glyph-name="abreve" horiz-adv-x="511" unicode="&#259;" /><glyph d="M362 500H499V0H362V42L164 -10L41 113V387L164 510L362 458ZM340 651V700H447V601L380 534H156L89 601V700H196V651L218 629H318ZM178 162 221 119 362 156V344L221 381L178 338Z" glyph-name="abreve.school" horiz-adv-x="550" unicode="&#57690;" /><glyph d="M207 590H413L606 0H464L430 104H189L156 0H14ZM131 664V718H237V708L250 695H370L383 708V718H489V664L443 618H177ZM227 220H392L313 466H307Z" glyph-name="abreve.smcp" horiz-adv-x="620" unicode="&#57897;" /><glyph d="M46 93V230L111 295L328 324V338L290 376H76V500H348L465 383V0H329V37L149 -10ZM60 534 175 700H337L452 534H318L256 621L194 534ZM195 206 183 194V148L219 112L328 141V224Z" glyph-name="acircumflex" horiz-adv-x="511" unicode="&#226;" /><glyph d="M362 500H499V0H362V42L164 -10L41 113V387L164 510L362 458ZM178 162 221 119 362 156V344L221 381L178 338ZM72 534 187 700H349L464 534H330L268 621L206 534Z" glyph-name="acircumflex.school" horiz-adv-x="550" unicode="&#57684;" /><glyph d="M207 590H413L606 0H464L430 104H189L156 0H14ZM118 618 218 718H402L502 618H351L310 659L269 618ZM227 220H392L313 466H307Z" glyph-name="acircumflex.smcp" horiz-adv-x="620" unicode="&#57891;" /><glyph d="M200 534 320 700H457L335 534Z" glyph-name="acute" horiz-adv-x="532" unicode="&#180;" /><glyph d="M254 708 354 808H505L405 708Z" glyph-name="acute.cap" horiz-adv-x="652" unicode="&#58402;" /><glyph d="M46 93V230L111 295L328 324V338L290 376H76V500H348L465 383V0H329V37L149 -10ZM314 540 279 575V659L314 694H398L433 659V575L398 540ZM114 540 79 575V659L114 694H198L233 659V575L198 540ZM195 206 183 194V148L219 112L328 141V224Z" glyph-name="adieresis" horiz-adv-x="511" unicode="&#228;" /><glyph d="M362 500H499V0H362V42L164 -10L41 113V387L164 510L362 458ZM178 162 221 119 362 156V344L221 381L178 338ZM126 540 91 575V659L126 694H210L245 659V575L210 540ZM326 540 291 575V659L326 694H410L445 659V575L410 540Z" glyph-name="adieresis.school" horiz-adv-x="550" unicode="&#57685;" /><glyph d="M207 590H413L606 0H464L430 104H189L156 0H14ZM227 220H392L313 466H307ZM359 618 333 644V692L359 718H461L487 692V644L461 618ZM159 618 133 644V692L159 718H261L287 692V644L261 618Z" glyph-name="adieresis.smcp" horiz-adv-x="620" unicode="&#57892;" /><glyph d="M46 93V218L130 302H328V338L290 376H76V500H338L397 442L455 500H637L754 383V198H465V162L503 124H741V0H455L398 56L149 -10ZM203 198 183 178V148L219 112L328 141V198ZM465 302H617V338L579 376H503L465 338Z" glyph-name="ae" horiz-adv-x="794" unicode="&#230;" /><glyph d="M207 590H842V466H483L501 364H773V240H522L543 124H842V0H426L408 104H189L156 0H14ZM227 220H388L345 466H307Z" glyph-name="ae.smcp" horiz-adv-x="888" unicode="&#57905;" /><glyph d="M46 93V230L111 295L328 324V338L290 376H76V500H348L465 383V0H329V37L149 -10ZM65 700H202L322 534H187ZM195 206 183 194V148L219 112L328 141V224Z" glyph-name="agrave" horiz-adv-x="511" unicode="&#224;" /><glyph d="M362 500H499V0H362V42L164 -10L41 113V387L164 510L362 458ZM178 162 221 119 362 156V344L221 381L178 338ZM77 700H214L334 534H199Z" glyph-name="agrave.school" horiz-adv-x="550" unicode="&#57682;" /><glyph d="M207 590H413L606 0H464L430 104H189L156 0H14ZM227 220H392L313 466H307ZM131 718H282L382 618H231Z" glyph-name="agrave.smcp" horiz-adv-x="620" unicode="&#57890;" /><glyph d="M46 93V230L111 295L328 324V338L290 376H76V500H348L465 383V0H329V37L149 -10ZM97 674H415V561H97ZM195 206 183 194V148L219 112L328 141V224Z" glyph-name="amacron" horiz-adv-x="511" unicode="&#257;" /><glyph d="M362 500H499V0H362V42L164 -10L41 113V387L164 510L362 458ZM178 162 221 119 362 156V344L221 381L178 338ZM109 674H427V561H109Z" glyph-name="amacron.school" horiz-adv-x="550" unicode="&#57689;" /><glyph d="M207 590H413L606 0H464L430 104H189L156 0H14ZM150 713H469V623H150ZM227 220H392L313 466H307Z" glyph-name="amacron.smcp" horiz-adv-x="620" unicode="&#57896;" /><glyph d="M67 578 169 680H387L489 578V427L356 349L450 255L647 452V270L541 164L706 0H526L451 74L377 0H162L45 117V312L152 374L67 459ZM182 162 220 124H319L360 165L242 283L182 248ZM322 556H234L204 526V502L265 440L352 491V526Z" glyph-name="ampersand" horiz-adv-x="710" unicode="&amp;" /><glyph d="M470 0 399 63 316 0H142L45 97V255L129 304L59 367V498L151 590H369L461 498V353L338 281L400 226L622 394V231L498 138L653 0ZM196 408 240 369 324 418V446L304 466H216L196 446ZM182 142 200 124H265L301 151L227 217L182 191Z" glyph-name="ampersand.smcp" horiz-adv-x="660" unicode="&#58369;" /><glyph d="M351 -120H207L25 300L207 720H351L169 300Z" glyph-name="anglebracketleft" horiz-adv-x="353" unicode="&#12296;" /><glyph d="M336 -40H192L28 340L192 720H336L172 340Z" glyph-name="anglebracketleft.cap" horiz-adv-x="353" unicode="&#58519;" /><glyph d="M316 -40H172L28 295L172 630H316L172 295Z" glyph-name="anglebracketleft.smcp" horiz-adv-x="353" unicode="&#58527;" /><glyph d="M2 720H146L328 300L146 -120H2L184 300Z" glyph-name="anglebracketright" horiz-adv-x="353" unicode="&#12297;" /><glyph d="M17 720H161L325 340L161 -40H17L181 340Z" glyph-name="anglebracketright.cap" horiz-adv-x="353" unicode="&#58520;" /><glyph d="M37 630H181L325 295L181 -40H37L181 295Z" glyph-name="anglebracketright.smcp" horiz-adv-x="353" unicode="&#58512;" /><glyph d="M207 590H413L606 0H464L313 466H307L156 0H14Z" glyph-name="anocross.smcp" horiz-adv-x="620" unicode="&#57888;" /><glyph d="M492 -160H357L313 -116V-48L345 -16L329 0V37L149 -10L46 93V230L111 295L328 324V338L290 376H76V500H348L465 383V0L414 -51V-65L425 -76H492ZM195 206 183 194V148L219 112L328 141V224Z" glyph-name="aogonek" horiz-adv-x="511" unicode="&#261;" /><glyph d="M362 500H499V0L448 -51V-65L459 -76H526V-160H391L347 -116V-48L378 -16L362 0V42L164 -10L41 113V387L164 510L362 458ZM178 162 221 119 362 156V344L221 381L178 338Z" glyph-name="aogonek.school" horiz-adv-x="550" unicode="&#57680;" /><glyph d="M633 -160H498L454 -116V-48L483 -19L464 0L430 104H189L156 0H14L207 590H413L606 0L555 -51V-65L566 -76H633ZM227 220H392L313 466H307Z" glyph-name="aogonek.smcp" horiz-adv-x="620" unicode="&#57903;" /><glyph d="M491 415 433 360 216 391 205 379V360H69V454L127 509L344 478L355 490V509H491ZM491 223 433 168 216 199 205 187V168H69V262L127 317L344 286L355 298V317H491Z" glyph-name="approxequal" horiz-adv-x="560" unicode="&#8776;" /><glyph d="M730 446 655 373 200 451 186 437V376H50V502L125 575L580 497L594 511V572H730ZM730 178 655 105 200 183 186 169V108H50V234L125 307L580 229L594 243V304H730Z" glyph-name="approxequal.cap" horiz-adv-x="780" unicode="&#61990;" /><glyph d="M491 370 433 315 216 346 205 334V315H69V409L127 464L344 433L355 445V464H491ZM491 178 433 123 216 154 205 142V123H69V217L127 272L344 241L355 253V272H491Z" glyph-name="approxequal.smcp" horiz-adv-x="560" unicode="&#62005;" /><glyph d="M46 93V230L111 295L328 324V338L290 376H76V500H348L465 383V0H329V37L149 -10ZM311 534H201L147 588V690L201 744H311L365 690V588ZM195 206 183 194V148L219 112L328 141V224ZM275 669H237L222 654V624L237 609H275L290 624V654Z" glyph-name="aring" horiz-adv-x="511" unicode="&#229;" /><glyph d="M362 500H499V0H362V42L164 -10L41 113V387L164 510L362 458ZM178 162 221 119 362 156V344L221 381L178 338ZM323 534H213L159 588V690L213 744H323L377 690V588ZM287 669H249L234 654V624L249 609H287L302 624V654Z" glyph-name="aring.school" horiz-adv-x="550" unicode="&#57687;" /><glyph d="M190 538V669L239 718H380L429 669V541L606 0H464L430 104H189L156 0H14ZM227 220H392L313 466H307ZM344 643H275L265 633V600L275 590H344L354 600V633Z" glyph-name="aring.smcp" horiz-adv-x="620" unicode="&#57894;" /><glyph d="M462 190 740 468V294L426 -20H374L60 294V468L338 190V680H462Z" glyph-name="arrowdown" horiz-adv-x="800" unicode="&#8595;" /><glyph d="M240 278 518 0H344L30 314V366L344 680H518L240 402H760V278Z" glyph-name="arrowleft" horiz-adv-x="800" unicode="&#8592;" /><glyph d="M560 402 282 680H456L770 366V314L456 0H282L560 278H40V402Z" glyph-name="arrowright" horiz-adv-x="800" unicode="&#8594;" /><glyph d="M338 490 60 212V386L374 700H426L740 386V212L462 490V0H338Z" glyph-name="arrowup" horiz-adv-x="800" unicode="&#8593;" /><glyph d="M312 690 470 289H340L250 533L160 289H30L188 690Z" glyph-name="asciicircum" horiz-adv-x="500" unicode="^" /><glyph d="M461 333 406 278 158 312 146 300V275H39V369L94 424L342 390L354 402V427H461Z" glyph-name="asciitilde" horiz-adv-x="500" unicode="~" /><glyph d="M143 516 18 552 84 665 176 576 145 700H276L245 577L337 665L402 552L278 516L402 481L337 368L245 455L276 332H145L176 456L84 368L18 481ZM180 465H240L270 516L239 568H181L151 516Z" glyph-name="asterisk" horiz-adv-x="418" unicode="*" /><glyph d="M428 199 540 226V296H423L395 268V232ZM677 80H540V112L371 70L258 183V317L361 420H540V462L502 500H216L178 462V38L216 0H677V-124H158L41 -7V507L158 624H560L677 507Z" glyph-name="at" horiz-adv-x="718" unicode="@" /><glyph d="M428 299 540 326V376H423L395 348V332ZM677 180H540V212L371 170L258 283V397L361 500H540V518L502 556H216L178 518V162L216 124H677V0H158L41 117V563L158 680H560L677 563Z" glyph-name="at.cap" horiz-adv-x="718" unicode="&#58643;" /><glyph d="M334 466H216L178 428V162L216 124H677V0H158L41 117V473L158 590H615L687 177H555L544 237H393L374 177H240ZM431 353H524L505 466H469Z" glyph-name="at.smcp" horiz-adv-x="711" unicode="&#62987;" /><glyph d="M46 93V230L111 295L328 324V338L290 376H76V500H348L465 383V0H329V37L149 -10ZM195 206 183 194V148L219 112L328 141V224ZM435 606 380 551 196 571 184 559V534H77V628L132 683L316 663L328 675V700H435Z" glyph-name="atilde" horiz-adv-x="511" unicode="&#227;" /><glyph d="M447 606 392 551 208 571 196 559V534H89V628L144 683L328 663L340 675V700H447ZM362 500H499V0H362V42L164 -10L41 113V387L164 510L362 458ZM178 162 221 119 362 156V344L221 381L178 338Z" glyph-name="atilde.school" horiz-adv-x="550" unicode="&#57686;" /><glyph d="M207 590H413L606 0H464L430 104H189L156 0H14ZM489 664 444 619 244 635 237 628V618H131V672L176 717L376 701L383 708V718H489ZM227 220H392L313 466H307Z" glyph-name="atilde.smcp" horiz-adv-x="620" unicode="&#57893;" /><glyph d="M207 590H413L606 0H464L430 104H189L156 0H14ZM227 220H392L313 466H307ZM48 466 22 492V564L48 590H120L146 564V492L120 466ZM500 466 474 492V564L500 590H571L597 564V492L571 466Z" glyph-name="aumlaut.smcp" horiz-adv-x="620" unicode="&#61817;" /><glyph d="M188 0H51V700H188V458L386 510L509 387V113L386 -10L188 42ZM372 338 329 381 188 344V156L329 119L372 162Z" glyph-name="b" horiz-adv-x="550" unicode="b" /><glyph d="M56 590H416L524 482V361L475 312L545 242V114L431 0H56ZM373 124 408 159V208L373 243H193V124ZM358 367 387 396V437L358 466H193V367Z" glyph-name="b.smcp" horiz-adv-x="591" unicode="&#57858;" /><glyph d="M510 -120H366L3 720H147Z" glyph-name="backslash" horiz-adv-x="480" unicode="\" /><glyph d="M474 -40H330L3 720H147Z" glyph-name="backslash.cap" horiz-adv-x="480" unicode="&#58466;" /><glyph d="M18 630H162L452 -40H308Z" glyph-name="backslash.smcp" horiz-adv-x="470" unicode="&#58472;" /><glyph d="M50 500H550V0H50ZM174 124H426V376H174ZM389 250 299 160 209 250 299 340Z" glyph-name="ballotboxwithx" horiz-adv-x="600" unicode="&#9746;" /><glyph d="M195 720V-120H58V720Z" glyph-name="bar" horiz-adv-x="252" unicode="|" /><glyph d="M195 720V-40H58V720Z" glyph-name="bar.cap" horiz-adv-x="252" unicode="&#58467;" /><glyph d="M195 630V-40H58V630Z" glyph-name="bar.smcp" horiz-adv-x="252" unicode="&#58473;" /><glyph d="M250 0 50 200V480L250 680H530L730 480V200L530 0Z" glyph-name="blackcircle" horiz-adv-x="780" unicode="&#9679;" /><glyph d="M550 500V0H50V500Z" glyph-name="blacksmallsquare" horiz-adv-x="600" unicode="&#9642;" /><glyph d="M730 680V0H50V680Z" glyph-name="blacksquare" horiz-adv-x="780" unicode="&#9632;" /><glyph d="M240 265V29L264 4H315V-120H199L103 -24V213L79 238H38V362H79L103 387V624L199 720H315V597H264L240 572V335L205 300Z" glyph-name="braceleft" horiz-adv-x="353" unicode="{" /><glyph d="M240 305V109L264 84H315V-40H199L103 57V253L79 278H38V402H79L103 427V624L199 720H315V597H264L240 572V375L205 340Z" glyph-name="braceleft.cap" horiz-adv-x="353" unicode="&#58517;" /><glyph d="M240 260V109L264 84H315V-40H199L103 57V208L79 233H38V357H79L103 382V534L199 630H315V507H264L240 482V330L205 295Z" glyph-name="braceleft.smcp" horiz-adv-x="353" unicode="&#62988;" /><glyph d="M113 335V572L89 597H38V720H153L250 624V387L274 362H315V238H274L250 213V-24L153 -120H38V4H89L113 29V265L148 300Z" glyph-name="braceright" horiz-adv-x="353" unicode="}" /><glyph d="M113 375V572L89 597H38V720H153L250 624V427L274 402H315V278H274L250 253V57L153 -40H38V84H89L113 109V305L148 340Z" glyph-name="braceright.cap" horiz-adv-x="353" unicode="&#58518;" /><glyph d="M113 330V482L89 507H38V630H153L250 534V382L274 357H315V233H274L250 208V57L153 -40H38V84H89L113 109V260L148 295Z" glyph-name="braceright.smcp" horiz-adv-x="353" unicode="&#58526;" /><glyph d="M311 720V597H183V4H311V-120H46V720Z" glyph-name="bracketleft" horiz-adv-x="353" unicode="[" /><glyph d="M311 720V597H183V84H311V-40H46V720Z" glyph-name="bracketleft.cap" horiz-adv-x="353" unicode="&#58515;" /><glyph d="M311 630V507H183V84H311V-40H46V630Z" glyph-name="bracketleft.smcp" horiz-adv-x="353" unicode="&#58523;" /><glyph d="M41 -120V4H169V597H41V720H306V-120Z" glyph-name="bracketright" horiz-adv-x="353" unicode="]" /><glyph d="M41 -40V84H169V597H41V720H306V-40Z" glyph-name="bracketright.cap" horiz-adv-x="353" unicode="&#58516;" /><glyph d="M41 -40V84H169V507H41V630H306V-40Z" glyph-name="bracketright.smcp" horiz-adv-x="353" unicode="&#58524;" /><glyph d="M338 651V700H445V601L378 534H154L87 601V700H194V651L216 629H316Z" glyph-name="breve" horiz-adv-x="532" unicode="&#728;" /><glyph d="M147 754V808H253V798L266 785H386L399 798V808H505V754L459 708H193Z" glyph-name="breve.cap" horiz-adv-x="652" unicode="&#58406;" /><glyph d="M195 720V331H58V720ZM58 -120V269H195V-120Z" glyph-name="brokenbar" horiz-adv-x="252" unicode="&#166;" /><glyph d="M195 720V371H58V720ZM58 -40V309H195V-40Z" glyph-name="brokenbar.cap" horiz-adv-x="252" unicode="&#58469;" /><glyph d="M195 630V326H58V630ZM58 -40V264H195V-40Z" glyph-name="brokenbar.smcp" horiz-adv-x="252" unicode="&#58475;" /><glyph d="M60 274V426L134 500H286L360 426V274L286 200H134Z" glyph-name="bullet" horiz-adv-x="420" unicode="&#8226;" /><glyph d="M60 264V416L134 490H286L360 416V264L286 190H134Z" glyph-name="bullet.cap" horiz-adv-x="420" unicode="&#58470;" /><glyph d="M60 219V371L134 445H286L360 371V219L286 145H134Z" glyph-name="bullet.smcp" horiz-adv-x="420" unicode="&#58476;" /><glyph d="M394 0H158L41 117V383L158 500H394V376H216L178 338V162L216 124H394Z" glyph-name="c" horiz-adv-x="430" unicode="c" /><glyph d="M472 124V0H160L46 114V476L160 590H472V466H218L183 431V159L217 124Z" glyph-name="c.smcp" horiz-adv-x="508" unicode="&#57859;" /><glyph d="M394 0H158L41 117V383L158 500H394V376H216L178 338V162L216 124H394ZM183 534 303 700H440L318 534Z" glyph-name="cacute" horiz-adv-x="430" unicode="&#263;" /><glyph d="M472 124V0H160L46 114V476L160 590H472V466H218L183 431V159L217 124ZM207 618 307 718H458L358 618Z" glyph-name="cacute.smcp" horiz-adv-x="508" unicode="&#57908;" /><glyph d="M266 613 328 700H462L347 534H185L70 700H204Z" glyph-name="caron" horiz-adv-x="532" unicode="&#711;" /><glyph d="M518 808 418 708H234L134 808H285L326 767L367 808Z" glyph-name="caron.cap" horiz-adv-x="652" unicode="&#58413;" /><glyph d="M345 535V700H451L422 535Z" glyph-name="caronSlovak" horiz-adv-x="532" unicode="&#58387;" /><glyph d="M394 0H158L41 117V383L158 500H394V376H216L178 338V162L216 124H394ZM249 613 311 700H445L330 534H168L53 700H187Z" glyph-name="ccaron" horiz-adv-x="430" unicode="&#269;" /><glyph d="M472 124V0H160L46 114V476L160 590H472V466H218L183 431V159L217 124ZM471 718 371 618H187L87 718H238L279 677L320 718Z" glyph-name="ccaron.smcp" horiz-adv-x="508" unicode="&#57910;" /><glyph d="M394 0H158L41 117V383L158 500H394V376H216L178 338V162L216 124H394ZM182 -76H203L214 -65V-51L208 -45L250 -3L315 -68V-116L271 -160H182Z" glyph-name="ccedilla" horiz-adv-x="430" unicode="&#231;" /><glyph d="M472 124V0H160L46 114V476L160 590H472V466H218L183 431V159L217 124ZM217 -76H238L249 -65V-51L243 -45L285 -3L350 -68V-116L306 -160H217Z" glyph-name="ccedilla.smcp" horiz-adv-x="508" unicode="&#57912;" /><glyph d="M394 0H158L41 117V383L158 500H394V376H216L178 338V162L216 124H394ZM53 534 168 700H330L445 534H311L249 621L187 534Z" glyph-name="ccircumflex" horiz-adv-x="430" unicode="&#265;" /><glyph d="M472 124V0H160L46 114V476L160 590H472V466H218L183 431V159L217 124ZM87 618 187 718H371L471 618H320L279 659L238 618Z" glyph-name="ccircumflex.smcp" horiz-adv-x="508" unicode="&#57909;" /><glyph d="M394 0H158L41 117V383L158 500H394V376H216L178 338V162L216 124H394ZM207 540 172 575V659L207 694H291L326 659V575L291 540Z" glyph-name="cdotaccent" horiz-adv-x="430" unicode="&#267;" /><glyph d="M472 124V0H160L46 114V476L160 590H472V466H218L183 431V159L217 124ZM228 618 202 644V692L228 718H330L356 692V644L330 618Z" glyph-name="cdotaccent.smcp" horiz-adv-x="508" unicode="&#57911;" /><glyph d="M198 -76H219L230 -65V-51L224 -45L266 -3L331 -68V-116L287 -160H198Z" glyph-name="cedilla" horiz-adv-x="532" unicode="&#184;" /><glyph d="M258 110H170L53 227V453L170 570H258V680H385V570H508V446H228L190 408V272L228 234H508V110H385V0H258Z" glyph-name="cent" horiz-adv-x="560" unicode="&#162;" /><glyph d="M258 75H169L53 192V399L169 515H258V590H385V515H508V392H227L190 354V236L227 199H508V75H385V0H258Z" glyph-name="cent.smcp" horiz-adv-x="560" unicode="&#63109;" /><glyph d="M70 534 185 700H347L462 534H328L266 621L204 534Z" glyph-name="circumflex" horiz-adv-x="532" unicode="&#710;" /><glyph d="M134 708 234 808H418L518 708H367L326 749L285 708Z" glyph-name="circumflex.cap" horiz-adv-x="652" unicode="&#58403;" /><glyph d="M73 0 38 35V119L73 154H157L192 119V35L157 0ZM73 336 38 371V455L73 490H157L192 455V371L157 336Z" glyph-name="colon" horiz-adv-x="230" unicode=":" /><glyph d="M98 0 63 35V119L98 154H182L217 119V35L182 0ZM98 336 63 371V455L98 490H182L217 455V371L182 336Z" glyph-name="colon.T" horiz-adv-x="280" unicode="&#61828;" /><glyph d="M157 154 192 119V18L106 -133H27L91 -20L38 33V119L73 154Z" glyph-name="comma" horiz-adv-x="230" unicode="," /><glyph d="M182 154 217 119V18L131 -133H52L117 -19L63 35V119L98 154Z" glyph-name="comma.T" horiz-adv-x="280" unicode="&#61827;" /><glyph d="M221 -160 237 -132 202 -97V-58L237 -23H295L330 -58V-109L301 -160Z" glyph-name="commaaccent" horiz-adv-x="532" unicode="&#58388;" /><glyph d="M50 200V480L250 680H530L730 480V200L530 0H250ZM118 228 278 68H502L662 228V452L502 612H278L118 452ZM483 378 425 436H355L303 384V296L355 243H425L483 301L562 223L474 135H306L193 248V431L306 545H474L562 457Z" glyph-name="copyright" horiz-adv-x="780" unicode="&#169;" /><glyph d="M362 42 164 -10 41 113V387L154 500H362V700H499V0H362ZM178 162 221 119 362 156V376H216L178 338Z" glyph-name="d" horiz-adv-x="550" unicode="d" /><glyph d="M56 0V590H434L548 476V114L434 0ZM376 124 411 159V431L376 466H193V124Z" glyph-name="d.smcp" horiz-adv-x="594" unicode="&#57860;" /><glyph d="M145 350 178 483H243L276 350L243 218H178ZM35 460V591L168 558V493ZM253 493V558L385 591V460ZM145 700H276L243 568H178Z" glyph-name="dagger" horiz-adv-x="420" unicode="&#8224;" /><glyph d="M145 700H276L243 568H178ZM35 460V591L168 558V493ZM253 493V558L385 591V460ZM178 265H243L276 133H145ZM35 242V373L168 340V275ZM253 275V340L385 373V242ZM145 133H276L243 0H178ZM178 350 161 416 178 483H243L259 416L243 350Z" glyph-name="daggerdbl" horiz-adv-x="420" unicode="&#8225;" /><glyph d="M534 535V700H640L611 535ZM362 42 164 -10 41 113V387L154 500H362V700H499V0H362ZM178 162 221 119 362 156V376H216L178 338Z" glyph-name="dcaron" horiz-adv-x="558" unicode="&#271;" /><glyph d="M56 0V590H434L548 476V114L434 0ZM376 124 411 159V431L376 466H193V124ZM483 718 383 618H199L99 718H250L291 677L332 718Z" glyph-name="dcaron.smcp" horiz-adv-x="594" unicode="&#57913;" /><glyph d="M362 42 164 -10 41 113V387L154 500H362V545H266V655H362V700H499V655H562V545H499V0H362ZM178 162 221 119 362 156V376H216L178 338Z" glyph-name="dcroat" horiz-adv-x="555" unicode="&#273;" /><glyph d="M25 357H100V590H478L592 476V114L478 0H100V247H25ZM420 124 455 159V431L420 466H237V357H364V247H237V124Z" glyph-name="dcroat.smcp" horiz-adv-x="638" unicode="&#57916;" /><glyph d="M242 467 265 490V554L242 577H178L155 554V490L178 467ZM280 364H140L52 452V592L140 680H280L368 592V452Z" glyph-name="degree" horiz-adv-x="420" unicode="&#176;" /><glyph d="M124 540 89 575V659L124 694H208L243 659V575L208 540ZM324 540 289 575V659L324 694H408L443 659V575L408 540Z" glyph-name="dieresis" horiz-adv-x="532" unicode="&#168;" /><glyph d="M175 708 149 734V782L175 808H277L303 782V734L277 708ZM375 708 349 734V782L375 808H477L503 782V734L477 708Z" glyph-name="dieresis.cap" horiz-adv-x="652" unicode="&#58409;" /><glyph d="M238 446 203 481V549L238 584H322L357 549V481L322 446ZM322 231 357 196V128L322 93H238L203 128V196L238 231ZM491 401V277H69V401Z" glyph-name="divide" horiz-adv-x="560" unicode="&#247;" /><glyph d="M348 527 313 562V645L348 680H432L467 645V562L432 527ZM432 153 467 118V35L432 0H348L313 35V118L348 153ZM730 401V277H50V401Z" glyph-name="divide.cap" horiz-adv-x="780" unicode="&#58772;" /><glyph d="M238 401 203 436V504L238 539H322L357 504V436L322 401ZM322 186 357 151V83L322 48H238L203 83V151L238 186ZM491 356V232H69V356Z" glyph-name="divide.smcp" horiz-adv-x="560" unicode="&#62003;" /><glyph d="M191 110H60V234H353L363 244V263L353 273L130 305L60 375V475L155 570H243V680H370V570H489V446H207L197 436V417L207 407L430 375L500 305V205L405 110H318V0H191Z" glyph-name="dollar" horiz-adv-x="560" unicode="$" /><glyph d="M191 75H60V199H353L363 209V223L353 233L130 255L60 325V420L155 515H243V590H370V515H489V391H207L197 381V367L207 357L430 335L500 265V170L405 75H318V0H191Z" glyph-name="dollar.smcp" horiz-adv-x="560" unicode="&#63110;" /><glyph d="M224 540 189 575V659L224 694H308L343 659V575L308 540Z" glyph-name="dotaccent" horiz-adv-x="532" unicode="&#729;" /><glyph d="M275 708 249 734V782L275 808H377L403 782V734L377 708Z" glyph-name="dotaccent.cap" horiz-adv-x="652" unicode="&#58408;" /><glyph d="M237 -160 202 -125V-67L237 -32H295L330 -67V-125L295 -160Z" glyph-name="dotbelow" horiz-adv-x="532" unicode="&#58389;" /><glyph d="M54 0V500H191V0Z" glyph-name="dotlessi" horiz-adv-x="245" unicode="&#305;" /><glyph d="M191 -63 94 -160H-19V-36H29L54 -11V500H191Z" glyph-name="dotlessj" horiz-adv-x="245" unicode="&#567;" /><glyph d="M195 720V-120H58V720ZM400 720V-120H263V720Z" glyph-name="doublebar" horiz-adv-x="457" unicode="&#8214;" /><glyph d="M195 720V-40H58V720ZM400 720V-40H263V720Z" glyph-name="doublebar.cap" horiz-adv-x="457" unicode="&#58468;" /><glyph d="M195 630V-40H58V630ZM400 630V-40H263V630Z" glyph-name="doublebar.smcp" horiz-adv-x="457" unicode="&#58474;" /><glyph d="M175 700H312L432 534H297ZM-13 700H124L244 534H109Z" glyph-name="doublegrave" horiz-adv-x="532" unicode="&#58386;" /><glyph d="M237 808H388L488 708H337ZM57 808H208L308 708H157Z" glyph-name="doublegrave.cap" horiz-adv-x="652" unicode="&#58412;" /><glyph d="M158 500H350L467 383V198H178V162L216 124H454V0H158L41 117V383ZM178 302H330V338L292 376H216L178 338Z" glyph-name="e" horiz-adv-x="508" unicode="e" /><glyph d="M523 590V466H193V364H454V240H193V124H523V0H56V590Z" glyph-name="e.smcp" horiz-adv-x="569" unicode="&#57861;" /><glyph d="M158 500H350L467 383V198H178V162L216 124H454V0H158L41 117V383ZM188 534 308 700H445L323 534ZM178 302H330V338L292 376H216L178 338Z" glyph-name="eacute" horiz-adv-x="508" unicode="&#233;" /><glyph d="M523 590V466H193V364H454V240H193V124H523V0H56V590ZM220 618 320 718H471L371 618Z" glyph-name="eacute.smcp" horiz-adv-x="569" unicode="&#57917;" /><glyph d="M158 500H350L467 383V198H178V162L216 124H454V0H158L41 117V383ZM326 651V700H433V601L366 534H142L75 601V700H182V651L204 629H304ZM178 302H330V338L292 376H216L178 338Z" glyph-name="ebreve" horiz-adv-x="508" unicode="&#277;" /><glyph d="M523 590V466H193V364H454V240H193V124H523V0H56V590ZM113 664V718H219V708L232 695H352L365 708V718H471V664L425 618H159Z" glyph-name="ebreve.smcp" horiz-adv-x="569" unicode="&#57923;" /><glyph d="M158 500H350L467 383V198H178V162L216 124H454V0H158L41 117V383ZM254 613 316 700H450L335 534H173L58 700H192ZM178 302H330V338L292 376H216L178 338Z" glyph-name="ecaron" horiz-adv-x="508" unicode="&#283;" /><glyph d="M523 590V466H193V364H454V240H193V124H523V0H56V590ZM484 718 384 618H200L100 718H251L292 677L333 718Z" glyph-name="ecaron.smcp" horiz-adv-x="569" unicode="&#57921;" /><glyph d="M158 500H350L467 383V198H178V162L216 124H454V0H158L41 117V383ZM58 534 173 700H335L450 534H316L254 621L192 534ZM178 302H330V338L292 376H216L178 338Z" glyph-name="ecircumflex" horiz-adv-x="508" unicode="&#234;" /><glyph d="M523 590V466H193V364H454V240H193V124H523V0H56V590ZM100 618 200 718H384L484 618H333L292 659L251 618Z" glyph-name="ecircumflex.smcp" horiz-adv-x="569" unicode="&#57919;" /><glyph d="M158 500H350L467 383V198H178V162L216 124H454V0H158L41 117V383ZM312 540 277 575V659L312 694H396L431 659V575L396 540ZM112 540 77 575V659L112 694H196L231 659V575L196 540ZM178 302H330V338L292 376H216L178 338Z" glyph-name="edieresis" horiz-adv-x="508" unicode="&#235;" /><glyph d="M523 590V466H193V364H454V240H193V124H523V0H56V590ZM341 618 315 644V692L341 718H443L469 692V644L443 618ZM141 618 115 644V692L141 718H243L269 692V644L243 618Z" glyph-name="edieresis.smcp" horiz-adv-x="569" unicode="&#57904;" /><glyph d="M158 500H350L467 383V198H178V162L216 124H454V0H158L41 117V383ZM212 540 177 575V659L212 694H296L331 659V575L296 540ZM178 302H330V338L292 376H216L178 338Z" glyph-name="edotaccent" horiz-adv-x="508" unicode="&#279;" /><glyph d="M523 590V466H193V364H454V240H193V124H523V0H56V590ZM241 618 215 644V692L241 718H343L369 692V644L343 618Z" glyph-name="edotaccent.smcp" horiz-adv-x="569" unicode="&#57926;" /><glyph d="M158 500H350L467 383V198H178V162L216 124H454V0H158L41 117V383ZM63 700H200L320 534H185ZM178 302H330V338L292 376H216L178 338Z" glyph-name="egrave" horiz-adv-x="508" unicode="&#232;" /><glyph d="M523 590V466H193V364H454V240H193V124H523V0H56V590ZM113 718H264L364 618H213Z" glyph-name="egrave.smcp" horiz-adv-x="569" unicode="&#57918;" /><glyph d="M45 124V287L114 356L66 404V569L177 680H383L494 569V404L446 356L515 287V124L391 0H169ZM227 293 182 248V169L227 124H333L378 169V248L333 293ZM235 556 203 524V449L235 417H325L357 449V524L325 556Z" glyph-name="eight" horiz-adv-x="560" unicode="8" /><glyph d="M37 -100V-27L62 -2L47 13V82L107 142H213L273 82V13L258 -2L283 -27V-100L223 -160H97ZM131 -47 126 -52V-74L131 -79H189L194 -74V-52L189 -47ZM179 61H141L136 56V39L141 34H179L184 39V56Z" glyph-name="eight.inf" horiz-adv-x="320" unicode="&#58745;" /><glyph d="M45 114V252L104 311L66 349V489L167 590H393L494 489V349L456 311L515 252V114L401 0H159ZM217 248 182 213V159L217 124H343L378 159V213L343 248ZM225 466 203 444V394L225 372H335L357 394V444L335 466Z" glyph-name="eight.smcpT" horiz-adv-x="560" unicode="&#61969;" /><glyph d="M208 680V459H276V378H44V459H118V599H44V680ZM528 680V459H596V378H364V459H438V599H364V680ZM506 0H409L934 680H1031ZM1008 302V81H1076V0H844V81H918V221H844V302ZM1343 0H1214L1154 60V242L1214 302H1393V221H1248L1243 216V194H1343L1403 134V60ZM1309 81 1314 86V108L1309 113H1243V86L1248 81Z" glyph-name="elevensixteenths" horiz-adv-x="1440" unicode="&#61984;" /><glyph d="M458 0 423 35V119L458 154H542L577 119V35L542 0ZM130 0 95 35V119L130 154H214L249 119V35L214 0ZM786 0 751 35V119L786 154H870L905 119V35L870 0Z" glyph-name="ellipsis" horiz-adv-x="1000" unicode="&#8230;" /><glyph d="M158 500H350L467 383V198H178V162L216 124H454V0H158L41 117V383ZM95 674H413V561H95ZM178 302H330V338L292 376H216L178 338Z" glyph-name="emacron" horiz-adv-x="508" unicode="&#275;" /><glyph d="M523 590V466H193V364H454V240H193V124H523V0H56V590ZM133 713H451V623H133Z" glyph-name="emacron.smcp" horiz-adv-x="569" unicode="&#57922;" /><glyph d="M975 413V289H25V413Z" glyph-name="emdash" horiz-adv-x="1000" unicode="&#8212;" /><glyph d="M975 400V276H25V400Z" glyph-name="emdash.cap" horiz-adv-x="1000" unicode="&#58502;" /><glyph d="M975 355V231H25V355Z" glyph-name="emdash.smcp" horiz-adv-x="1000" unicode="&#60324;" /><glyph glyph-name="emspace" horiz-adv-x="1000" unicode="&#8195;" /><glyph d="M475 413V289H25V413Z" glyph-name="endash" horiz-adv-x="500" unicode="&#8211;" /><glyph d="M475 400V276H25V400Z" glyph-name="endash.cap" horiz-adv-x="500" unicode="&#58500;" /><glyph d="M475 355V231H25V355Z" glyph-name="endash.smcp" horiz-adv-x="500" unicode="&#60323;" /><glyph d="M188 0H51V500H188V458L386 510L509 387V-64L412 -160H299V-37H348L372 -12V338L329 381L188 344Z" glyph-name="eng" horiz-adv-x="555" unicode="&#331;" /><glyph d="M571 -63 474 -160H361V-36H409L430 -15L186 376L193 0H56V590H206L441 214L434 590H571Z" glyph-name="eng.smcp" horiz-adv-x="628" unicode="&#58155;" /><glyph glyph-name="enspace" horiz-adv-x="500" unicode="&#8194;" /><glyph d="M481 -160H346L302 -116V-48L350 0H158L41 117V383L158 500H350L467 383V198H178V162L216 124H454V0L403 -51V-65L414 -76H481ZM178 302H330V338L292 376H216L178 338Z" glyph-name="eogonek" horiz-adv-x="508" unicode="&#281;" /><glyph d="M550 -160H415L371 -116V-48L419 0H56V590H523V466H193V364H454V240H193V124H523V0L472 -51V-65L483 -76H550Z" glyph-name="eogonek.smcp" horiz-adv-x="569" unicode="&#57929;" /><glyph d="M491 497V373H69V497ZM491 304V180H69V304Z" glyph-name="equal" horiz-adv-x="560" unicode="=" /><glyph d="M730 545V421H50V545ZM730 259V135H50V259Z" glyph-name="equal.cap" horiz-adv-x="780" unicode="&#58773;" /><glyph d="M290 2H38V80H290ZM290 -98H38V-20H290Z" glyph-name="equal.inf" horiz-adv-x="320" unicode="&#58749;" /><glyph d="M491 452V328H69V452ZM491 259V135H69V259Z" glyph-name="equal.smcp" horiz-adv-x="560" unicode="&#62999;" /><glyph d="M491 593V469H69V593ZM491 401V277H69V401ZM491 208V84H69V208Z" glyph-name="equivalence" horiz-adv-x="560" unicode="&#8801;" /><glyph d="M730 402V278H50V402ZM730 124V0H50V124ZM730 680V556H50V680Z" glyph-name="equivalence.cap" horiz-adv-x="780" unicode="&#62000;" /><glyph d="M491 548V424H69V548ZM491 356V232H69V356ZM491 163V39H69V163Z" glyph-name="equivalence.smcp" horiz-adv-x="560" unicode="&#62017;" /><glyph d="M272 638 497 414V117L380 0H158L41 117V383L158 500H232L183 549L149 515L111 553L145 587L32 700H210L234 676L258 700H334ZM322 124 360 162V338L322 376H216L178 338V162L216 124Z" glyph-name="eth" horiz-adv-x="538" unicode="&#240;" /><glyph d="M25 357H100V590H478L592 476V114L478 0H100V247H25ZM420 124 455 159V431L420 466H237V357H364V247H237V124Z" glyph-name="eth.smcp" horiz-adv-x="638" unicode="&#58156;" /><glyph d="M73 0 38 35V119L73 154H157L192 119V35L157 0ZM47 466 34 680H196L183 466L157 223H73Z" glyph-name="exclam" horiz-adv-x="230" unicode="!" /><glyph d="M73 0 38 35V119L73 154H157L192 119V35L157 0ZM47 421 34 590H196L183 421L157 223H73Z" glyph-name="exclam.smcp" horiz-adv-x="230" unicode="&#58434;" /><glyph d="M157 500 192 465V381L157 346H73L38 381V465L73 500ZM183 48 196 -160H34L47 48L73 278H157Z" glyph-name="exclamdown" horiz-adv-x="230" unicode="&#161;" /><glyph d="M157 680 192 645V561L157 526H73L38 561V645L73 680ZM183 214 196 0H34L47 214L73 457H157Z" glyph-name="exclamdown.cap" horiz-adv-x="230" unicode="&#58433;" /><glyph d="M157 590 192 555V471L157 436H73L38 471V555L73 590ZM183 169 196 0H34L47 169L73 367H157Z" glyph-name="exclamdown.smcp" horiz-adv-x="230" unicode="&#58435;" /><glyph d="M91 376H16V500H91V603L188 700H374V576H253L228 551V500H354V376H228V0H91Z" glyph-name="f" horiz-adv-x="377" unicode="f" /><glyph d="M56 590H503V466H193V344H434V220H193V0H56Z" glyph-name="f.smcp" horiz-adv-x="538" unicode="&#57862;" /><glyph d="M91 376H16V500H91V603L188 700H374V576H253L228 551V500H354V376H228V0H91ZM431 0V500H568V0Z" glyph-name="f_dotlessi" horiz-adv-x="622" unicode="&#59248;" /><glyph d="M91 376H16V500H91V603L188 700H374V576H253L228 551V500H354V376H228V0H91ZM431 0V500H568V0ZM457 540 422 575V659L457 694H542L577 659V575L542 540Z" glyph-name="fi" horiz-adv-x="622" unicode="&#64257;" /><glyph d="M208 680V459H276V378H44V459H118V599H44V680ZM369 491V680H587V599H459V572H537L597 512V438L537 378H359V459H503L508 464V486L503 491ZM506 0H409L934 680H1031ZM1008 302V81H1076V0H844V81H918V221H844V302ZM1343 0H1214L1154 60V242L1214 302H1393V221H1248L1243 216V194H1343L1403 134V60ZM1309 81 1314 86V108L1309 113H1243V86L1248 81Z" glyph-name="fifteensixteenths" horiz-adv-x="1440" unicode="&#61986;" /><glyph d="M535 413V289H25V413Z" glyph-name="figuredash" horiz-adv-x="560" unicode="&#8210;" /><glyph d="M535 400V276H25V400Z" glyph-name="figuredash.cap" horiz-adv-x="560" unicode="&#58503;" /><glyph d="M535 355V231H25V355Z" glyph-name="figuredash.smcp" horiz-adv-x="560" unicode="&#60325;" /><glyph glyph-name="figurespace" horiz-adv-x="560" unicode="&#8199;" /><glyph d="M75 313V680H485V556H212V437H381L505 313V124L381 0H55V124H323L368 169V268L323 313Z" glyph-name="five" horiz-adv-x="560" unicode="5" /><glyph d="M49 -47V142H267V61H139V34H217L277 -26V-100L217 -160H39V-79H183L188 -74V-52L183 -47Z" glyph-name="five.inf" horiz-adv-x="320" unicode="&#58742;" /><glyph d="M75 258V590H485V466H212V382H391L505 268V114L391 0H55V124H333L368 159V223L333 258Z" glyph-name="five.smcpT" horiz-adv-x="560" unicode="&#61960;" /><glyph d="M49 491V680H267V599H139V572H217L277 512V438L217 378H39V459H183L188 464V486L183 491ZM186 0H89L614 680H711ZM688 302V81H756V0H524V81H598V221H524V302ZM1023 0H894L834 60V242L894 302H1073V221H928L923 216V194H1023L1083 134V60ZM989 81 994 86V108L989 113H923V86L928 81Z" glyph-name="fivesixteenths" horiz-adv-x="1120" unicode="&#61975;" /><glyph d="M91 376H16V500H91V603L188 700H374V576H253L228 551V500H354V376H228V0H91ZM431 0V700H568V0Z" glyph-name="fl" horiz-adv-x="622" unicode="&#64258;" /><glyph d="M290 -160H125L36 -71V15H173V-18L191 -36H225L243 -18L176 288H72V413H148L116 562L233 680H423L524 579V478H387V526L357 556H298L268 526L292 413H448V288H320L395 -54Z" glyph-name="florin" horiz-adv-x="560" unicode="&#402;" /><glyph d="M280 -160H125L36 -71V15H173V-18L191 -36H215L233 -18L186 198H72V323H158L126 472L243 590H423L524 489V388H387V436L357 466H308L278 436L302 323H448V198H330L385 -54Z" glyph-name="florin.smcp" horiz-adv-x="560" unicode="&#61840;" /><glyph d="M456 680V274H535V154H456V0H319V154H25V242L314 680ZM319 274V469L190 274Z" glyph-name="four" horiz-adv-x="560" unicode="4" /><glyph d="M256 142V-37H293V-118H256V-160H167V-118H24V-50L156 142ZM167 -37V25L125 -37Z" glyph-name="four.inf" horiz-adv-x="320" unicode="&#58741;" /><glyph d="M456 590V224H535V104H456V0H319V104H25V192L314 590ZM319 224V401L190 224Z" glyph-name="four.smcpT" horiz-adv-x="560" unicode="&#58887;" /><glyph glyph-name="fourperemspace" horiz-adv-x="250" unicode="&#8197;" /><glyph d="M-134 0H-231L294 680H391Z" glyph-name="fraction" horiz-adv-x="160" unicode="&#8260;" /><glyph d="M137 500H283L501 550V446L442 432L471 403V255L389 173H245V148L434 117L501 50V-78L419 -160H107L25 -78V34L137 146V173L55 255V418ZM346 -52 371 -27V5L346 30L203 53L155 5V-27L180 -52ZM206 281H320L341 302V371L320 392H206L185 371V302Z" glyph-name="g" horiz-adv-x="526" unicode="g" /><glyph d="M178 182 216 144H362V344L221 381L178 338ZM499 -47 386 -160H71V-36H324L362 2V20H154L41 133V387L164 510L362 458V500H499Z" glyph-name="g.school" horiz-adv-x="550" unicode="&#57697;" /><glyph d="M544 94 450 0H160L46 114V476L160 590H530V466H218L183 431V159L217 124H386L407 145V240H295V364H544Z" glyph-name="g.smcp" horiz-adv-x="590" unicode="&#57863;" /><glyph d="M137 500H283L501 550V446L442 432L471 403V255L389 173H245V148L434 117L501 50V-78L419 -160H107L25 -78V34L137 146V173L55 255V418ZM335 651V700H442V601L375 534H151L84 601V700H191V651L213 629H313ZM346 -52 371 -27V5L346 30L203 53L155 5V-27L180 -52ZM206 281H320L341 302V371L320 392H206L185 371V302Z" glyph-name="gbreve" horiz-adv-x="526" unicode="&#287;" /><glyph d="M499 -47 386 -160H71V-36H324L362 2V20H154L41 133V387L164 510L362 458V500H499ZM342 651V700H449V601L382 534H158L91 601V700H198V651L220 629H320ZM178 182 216 144H362V344L221 381L178 338Z" glyph-name="gbreve.school" horiz-adv-x="550" unicode="&#57702;" /><glyph d="M544 94 450 0H160L46 114V476L160 590H530V466H218L183 431V159L217 124H386L407 145V240H295V364H544ZM116 664V718H222V708L235 695H355L368 708V718H474V664L428 618H162Z" glyph-name="gbreve.smcp" horiz-adv-x="590" unicode="&#57934;" /><glyph d="M137 500H330L501 540V446L442 432L471 403V255L389 173H245V148L434 117L501 50V-78L419 -160H107L25 -78V34L137 146V173L55 255V418ZM67 534 182 700H344L459 534H325L263 621L201 534ZM346 -52 371 -27V5L346 30L203 53L155 5V-27L180 -52ZM206 281H320L341 302V371L320 392H206L185 371V302Z" glyph-name="gcircumflex" horiz-adv-x="526" unicode="&#285;" /><glyph d="M499 -47 386 -160H71V-36H324L362 2V20H154L41 133V387L164 510L362 458V500H499ZM74 534 189 700H351L466 534H332L270 621L208 534ZM178 182 216 144H362V344L221 381L178 338Z" glyph-name="gcircumflex.school" horiz-adv-x="550" unicode="&#57699;" /><glyph d="M544 94 450 0H160L46 114V476L160 590H530V466H218L183 431V159L217 124H386L407 145V240H295V364H544ZM103 618 203 718H388L488 618H337L295 659L254 618Z" glyph-name="gcircumflex.smcp" horiz-adv-x="590" unicode="&#57931;" /><glyph d="M137 500H283L501 550V446L442 432L471 403V255L389 173H245V148L434 117L501 50V-78L419 -160H107L25 -78V34L137 146V173L55 255V418ZM327 700 302 655 337 620V575L302 540H224L189 575V632L227 700ZM346 -52 371 -27V5L346 30L203 53L155 5V-27L180 -52ZM206 281H320L341 302V371L320 392H206L185 371V302Z" glyph-name="gcommaaccent" horiz-adv-x="526" unicode="&#291;" /><glyph d="M178 182 216 144H362V344L221 381L178 338ZM499 -47 386 -160H71V-36H324L362 2V20H154L41 133V387L164 510L362 458V500H499ZM334 700 309 655 344 620V575L309 540H231L196 575V632L234 700Z" glyph-name="gcommaaccent.school" horiz-adv-x="550" unicode="&#57704;" /><glyph d="M544 94 450 0H160L46 114V476L160 590H530V466H218L183 431V159L217 124H386L407 145V240H295V364H544ZM250 -160 266 -132 231 -97V-58L266 -23H324L359 -58V-109L330 -160Z" glyph-name="gcommaaccent.smcp" horiz-adv-x="590" unicode="&#57920;" /><glyph d="M137 500H283L501 550V446L442 432L471 403V255L389 173H245V148L434 117L501 50V-78L419 -160H107L25 -78V34L137 146V173L55 255V418ZM221 540 186 575V659L221 694H305L340 659V575L305 540ZM346 -52 371 -27V5L346 30L203 53L155 5V-27L180 -52ZM206 281H320L341 302V371L320 392H206L185 371V302Z" glyph-name="gdotaccent" horiz-adv-x="526" unicode="&#289;" /><glyph d="M499 -47 386 -160H71V-36H324L362 2V20H154L41 133V387L164 510L362 458V500H499ZM178 182 216 144H362V344L221 381L178 338ZM228 540 193 575V659L228 694H312L347 659V575L312 540Z" glyph-name="gdotaccent.school" horiz-adv-x="550" unicode="&#57703;" /><glyph d="M544 94 450 0H160L46 114V476L160 590H530V466H218L183 431V159L217 124H386L407 145V240H295V364H544ZM244 618 218 644V692L244 718H346L372 692V644L346 618Z" glyph-name="gdotaccent.smcp" horiz-adv-x="590" unicode="&#57935;" /><glyph d="M215 576 188 549V0H51V594L157 700H404L510 594V486L382 359V327L392 317L513 285L583 215V95L488 0H245V124H436L446 134V173L436 183L315 215L245 285V398L373 525V549L346 576Z" glyph-name="germandbls" horiz-adv-x="609" unicode="&#223;" /><glyph d="M218 466 188 436V0H51V481L160 590H547V453L435 341L554 309L624 239V109L515 0H261V124H457L487 154V186L476 199L298 247L292 245V378L379 466Z" glyph-name="germandbls.smcp" horiz-adv-x="655" unicode="&#58120;" /><glyph d="M75 700H212L332 534H197Z" glyph-name="grave" horiz-adv-x="532" unicode="`" /><glyph d="M147 808H298L398 708H247Z" glyph-name="grave.cap" horiz-adv-x="652" unicode="&#58401;" /><glyph d="M69 567 491 400V277L69 110V241L334 338L69 436Z" glyph-name="greater" horiz-adv-x="560" unicode="&gt;" /><glyph d="M50 698 730 398V282L50 -18V113L578 340L50 567Z" glyph-name="greater.cap" horiz-adv-x="780" unicode="&#58775;" /><glyph d="M69 522 491 355V232L69 65V196L334 293L69 391Z" glyph-name="greater.smcp" horiz-adv-x="560" unicode="&#62007;" /><glyph d="M69 604 491 481V340L69 237V363L308 413L69 478ZM491 302V176L69 73V199Z" glyph-name="greaterequal" horiz-adv-x="560" unicode="&#8805;" /><glyph d="M50 692 730 497V357L50 162V289L557 426L50 565ZM730 310V184L50 -11V116Z" glyph-name="greaterequal.cap" horiz-adv-x="780" unicode="&#61992;" /><glyph d="M69 559 491 436V295L69 192V318L308 368L69 433ZM491 257V131L69 28V154Z" glyph-name="greaterequal.smcp" horiz-adv-x="560" unicode="&#62009;" /><glyph d="M92 126 28 273 92 420H218L154 273L218 126ZM272 126 208 273 272 420H398L334 273L398 126Z" glyph-name="guillemotleft" horiz-adv-x="428" unicode="&#171;" /><glyph d="M92 193 28 340 92 487H218L154 340L218 193ZM272 193 208 340 272 487H398L334 340L398 193Z" glyph-name="guillemotleft.cap" horiz-adv-x="428" unicode="&#58451;" /><glyph d="M92 148 28 295 92 442H218L154 295L218 148ZM272 148 208 295 272 442H398L334 295L398 148Z" glyph-name="guillemotleft.smcp" horiz-adv-x="428" unicode="&#62993;" /><glyph d="M336 420 400 273 336 126H210L274 273L210 420ZM156 420 220 273 156 126H30L94 273L30 420Z" glyph-name="guillemotright" horiz-adv-x="428" unicode="&#187;" /><glyph d="M336 487 400 340 336 193H210L274 340L210 487ZM156 487 220 340 156 193H30L94 340L30 487Z" glyph-name="guillemotright.cap" horiz-adv-x="428" unicode="&#58452;" /><glyph d="M336 442 400 295 336 148H210L274 295L210 442ZM156 442 220 295 156 148H30L94 295L30 442Z" glyph-name="guillemotright.smcp" horiz-adv-x="428" unicode="&#62994;" /><glyph d="M92 126 28 273 92 420H218L154 273L218 126Z" glyph-name="guilsinglleft" horiz-adv-x="248" unicode="&#8249;" /><glyph d="M92 193 28 340 92 487H218L154 340L218 193Z" glyph-name="guilsinglleft.cap" horiz-adv-x="248" unicode="&#58449;" /><glyph d="M92 148 28 295 92 442H218L154 295L218 148Z" glyph-name="guilsinglleft.smcp" horiz-adv-x="248" unicode="&#62992;" /><glyph d="M156 420 220 273 156 126H30L94 273L30 420Z" glyph-name="guilsinglright" horiz-adv-x="248" unicode="&#8250;" /><glyph d="M156 487 220 340 156 193H30L94 340L30 487Z" glyph-name="guilsinglright.cap" horiz-adv-x="248" unicode="&#58450;" /><glyph d="M156 442 220 295 156 148H30L94 295L30 442Z" glyph-name="guilsinglright.smcp" horiz-adv-x="248" unicode="&#62995;" /><glyph d="M188 0H51V700H188V458L386 510L509 387V0H372V338L329 381L188 344Z" glyph-name="h" horiz-adv-x="555" unicode="h" /><glyph d="M193 590V364H437V590H574V0H437V240H193V0H56V590Z" glyph-name="h.smcp" horiz-adv-x="630" unicode="&#57864;" /><glyph glyph-name="hairspace" horiz-adv-x="50" unicode="&#8202;" /><glyph d="M193 0H56V545H-7V655H56V700H193V655H289V545H193V458L391 510L514 387V0H377V338L334 381L193 344Z" glyph-name="hbar" horiz-adv-x="560" unicode="&#295;" /><glyph d="M193 590V533H437V590H574V0H437V240H193V0H56V590ZM437 364V423H193V364Z" glyph-name="hbar.smcp" horiz-adv-x="630" unicode="&#57943;" /><glyph d="M188 0H51V700H188V458L386 510L509 387V0H372V338L329 381L188 344ZM-73 728 27 828H211L311 728H160L119 769L78 728Z" glyph-name="hcircumflex" horiz-adv-x="555" unicode="&#293;" /><glyph d="M193 590V364H437V590H574V0H437V240H193V0H56V590ZM123 618 223 718H408L508 618H357L315 659L274 618Z" glyph-name="hcircumflex.smcp" horiz-adv-x="630" unicode="&#57939;" /><glyph d="M106 534 226 700H363L241 534ZM294 534 414 700H551L429 534Z" glyph-name="hungarumlaut" horiz-adv-x="532" unicode="&#733;" /><glyph d="M164 708 264 808H415L315 708ZM344 708 444 808H595L495 708Z" glyph-name="hungarumlaut.cap" horiz-adv-x="652" unicode="&#58411;" /><glyph d="M25 289V413H265V289Z" glyph-name="hyphen" horiz-adv-x="290" unicode="-" /><glyph d="M25 276V400H265V276Z" glyph-name="hyphen.cap" horiz-adv-x="290" unicode="&#58498;" /><glyph d="M25 231V355H265V231Z" glyph-name="hyphen.smcp" horiz-adv-x="290" unicode="&#62996;" /><glyph d="M54 0V500H191V0ZM80 540 45 575V659L80 694H165L200 659V575L165 540Z" glyph-name="i" horiz-adv-x="245" unicode="i" /><glyph d="M195 590V0H58V590Z" glyph-name="i.smcp" horiz-adv-x="237" unicode="&#57865;" /><glyph d="M54 0V500H191V0ZM56 534 176 700H313L191 534Z" glyph-name="iacute" horiz-adv-x="245" unicode="&#237;" /><glyph d="M195 590V0H58V590ZM54 618 154 718H305L205 618Z" glyph-name="iacute.smcp" horiz-adv-x="237" unicode="&#57944;" /><glyph d="M54 0V500H191V0ZM194 651V700H301V601L234 534H10L-57 601V700H50V651L72 629H172Z" glyph-name="ibreve" horiz-adv-x="245" unicode="&#301;" /><glyph d="M195 590V0H58V590ZM-53 664V718H53V708L66 695H186L199 708V718H305V664L259 618H-7Z" glyph-name="ibreve.smcp" horiz-adv-x="237" unicode="&#57951;" /><glyph d="M54 0V500H191V0ZM-74 534 41 700H203L318 534H184L122 621L60 534Z" glyph-name="icircumflex" horiz-adv-x="245" unicode="&#238;" /><glyph d="M195 590V0H58V590ZM-66 618 34 718H218L318 618H167L126 659L85 618Z" glyph-name="icircumflex.smcp" horiz-adv-x="237" unicode="&#57946;" /><glyph d="M54 0V500H191V0ZM180 540 145 575V659L180 694H264L299 659V575L264 540ZM-20 540 -55 575V659L-20 694H64L99 659V575L64 540Z" glyph-name="idieresis" horiz-adv-x="245" unicode="&#239;" /><glyph d="M195 590V0H58V590ZM175 618 149 644V692L175 718H277L303 692V644L277 618ZM-25 618 -51 644V692L-25 718H77L103 692V644L77 618Z" glyph-name="idieresis.smcp" horiz-adv-x="237" unicode="&#57947;" /><glyph d="M54 0V500H191V0ZM80 540 45 575V659L80 694H165L200 659V575L165 540Z" glyph-name="idotaccent" horiz-adv-x="245" unicode="&#59269;" /><glyph d="M195 590V0H58V590ZM75 618 49 644V692L75 718H177L203 692V644L177 618Z" glyph-name="idotaccent.smcp" horiz-adv-x="237" unicode="&#57954;" /><glyph d="M54 0V500H191V0ZM-69 700H68L188 534H53Z" glyph-name="igrave" horiz-adv-x="245" unicode="&#236;" /><glyph d="M195 590V0H58V590ZM-53 718H98L198 618H47Z" glyph-name="igrave.smcp" horiz-adv-x="237" unicode="&#57945;" /><glyph d="M391 -63 294 -160H191V-36H229L254 -11V500H391ZM54 0V500H191V0ZM280 540 245 575V659L280 694H365L400 659V575L365 540ZM80 540 45 575V659L80 694H165L200 659V575L165 540Z" glyph-name="ij" horiz-adv-x="445" unicode="&#307;" /><glyph d="M188 590V293H51V590ZM468 94 374 0H145L51 94V225H188V145L209 124H310L331 145V590H468Z" glyph-name="ij.smcp" horiz-adv-x="519" unicode="&#58151;" /><glyph d="M54 0V500H191V0ZM-37 674H281V561H-37Z" glyph-name="imacron" horiz-adv-x="245" unicode="&#299;" /><glyph d="M195 590V0H58V590ZM-33 713H285V623H-33Z" glyph-name="imacron.smcp" horiz-adv-x="237" unicode="&#57950;" /><glyph d="M36 680H374L483 571V433L409 359L265 301L257 223H173L147 466L141 556H36ZM173 0 138 35V119L173 154H257L292 119V35L257 0ZM288 556 283 466 280 441 330 461 346 477V526L316 556Z" glyph-name="interrobang" horiz-adv-x="520" unicode="&#8253;" /><glyph d="M36 590H339L438 491V363L364 289L243 269L237 223H153L127 421L123 466H36ZM153 0 118 35V119L153 154H237L272 119V35L237 0ZM266 466 263 421 258 386 285 391 301 407V446L281 466Z" glyph-name="interrobang.smcp" horiz-adv-x="475" unicode="&#60326;" /><glyph d="M373 48 378 -36H483V-160H145L36 -51V77L110 151L254 197L263 278H347ZM347 500 382 465V381L347 346H263L228 381V465L263 500ZM203 -36H231L237 48L239 65L189 49L173 33V-6Z" glyph-name="interrobangdown" horiz-adv-x="520" unicode="&#59701;" /><glyph d="M372 214 377 124H483V0H145L36 109V247L110 321L253 379L262 457H346ZM346 680 381 645V561L346 526H262L227 561V645L262 680ZM203 124H230L236 214L238 239L189 219L173 203V154Z" glyph-name="interrobangdown.cap" horiz-adv-x="520" unicode="&#59803;" /><glyph d="M348 169 351 124H439V0H136L37 99V227L111 301L232 320L238 367H322ZM322 590 357 555V471L322 436H238L203 471V555L238 590ZM194 124H208L212 169L216 203L190 199L174 183V144Z" glyph-name="interrobangdown.smcp" horiz-adv-x="475" unicode="&#60327;" /><glyph d="M194 583V534H87V633L154 700H378L445 633V534H338V583L316 605H216Z" glyph-name="invertedbreve" horiz-adv-x="532" unicode="&#58385;" /><glyph d="M505 762V708H399V718L386 731H266L253 718V708H147V762L193 808H459Z" glyph-name="invertedbreve.cap" horiz-adv-x="652" unicode="&#58407;" /><glyph d="M218 -160H83L39 -116V-48L70 -16L54 0V500H191V0L140 -51V-65L151 -76H218ZM80 540 45 575V659L80 694H165L200 659V575L165 540Z" glyph-name="iogonek" horiz-adv-x="245" unicode="&#303;" /><glyph d="M222 -160H87L43 -116V-48L74 -16L58 0V590H195V0L144 -51V-65L155 -76H222Z" glyph-name="iogonek.smcp" horiz-adv-x="237" unicode="&#63054;" /><glyph d="M54 0V500H191V0ZM301 606 246 551 62 571 50 559V534H-57V628L-2 683L182 663L194 675V700H301Z" glyph-name="itilde" horiz-adv-x="245" unicode="&#297;" /><glyph d="M195 590V0H58V590ZM305 664 260 619 60 635 53 628V618H-53V672L-8 717L192 701L199 708V718H305Z" glyph-name="itilde.smcp" horiz-adv-x="237" unicode="&#57948;" /><glyph d="M80 540 45 575V659L80 694H165L200 659V575L165 540ZM191 -63 94 -160H-19V-36H29L54 -11V500H191Z" glyph-name="j" horiz-adv-x="245" unicode="j" /><glyph d="M443 94 349 0H120L26 94V225H163V145L184 124H285L306 145V590H443Z" glyph-name="j.smcp" horiz-adv-x="494" unicode="&#57866;" /><glyph d="M191 -64 94 -160H-19V-37H30L54 -12V500H191ZM-74 534 41 700H203L318 534H184L122 621L60 534Z" glyph-name="jcircumflex" horiz-adv-x="245" unicode="&#309;" /><glyph d="M443 94 349 0H120L26 94V225H163V145L184 124H285L306 145V590H443ZM182 618 282 718H466L566 618H415L374 659L333 618Z" glyph-name="jcircumflex.smcp" horiz-adv-x="494" unicode="&#63027;" /><glyph d="M188 700V323H244L363 500H526L365 261L541 0H378L245 197H188V0H51V700Z" glyph-name="k" horiz-adv-x="548" unicode="k" /><glyph d="M584 0H422L271 242H193V0H56V590H193V368H272L411 590H573L390 305Z" glyph-name="k.smcp" horiz-adv-x="602" unicode="&#57867;" /><glyph d="M188 700V323H244L363 500H526L365 261L541 0H378L245 197H188V0H51V700ZM228 -160 244 -132 209 -97V-58L244 -23H302L337 -58V-109L308 -160Z" glyph-name="kcommaaccent" horiz-adv-x="548" unicode="&#311;" /><glyph d="M584 0H422L271 242H193V0H56V590H193V368H272L411 590H573L390 305ZM250 -160 266 -132 231 -97V-58L266 -23H324L359 -58V-109L330 -160Z" glyph-name="kcommaaccent.smcp" horiz-adv-x="602" unicode="&#57960;" /><glyph d="M188 500V323H244L363 500H526L365 261L541 0H378L245 197H188V0H51V500Z" glyph-name="kgreenlandic" horiz-adv-x="548" unicode="&#312;" /><glyph d="M54 0V700H191V0Z" glyph-name="l" horiz-adv-x="245" unicode="l" /><glyph d="M193 590V124H463V0H56V590Z" glyph-name="l.smcp" horiz-adv-x="486" unicode="&#57868;" /><glyph d="M54 0V700H191V0ZM50 728 150 828H301L201 728Z" glyph-name="lacute" horiz-adv-x="245" unicode="&#314;" /><glyph d="M193 590V124H463V0H56V590ZM52 618 152 718H303L203 618Z" glyph-name="lacute.smcp" horiz-adv-x="486" unicode="&#57963;" /><glyph d="M54 0V700H191V0ZM226 535V700H332L303 535Z" glyph-name="lcaron" horiz-adv-x="245" unicode="&#318;" /><glyph d="M193 590V124H463V0H56V590ZM283 535V700H389L360 535Z" glyph-name="lcaron.smcp" horiz-adv-x="486" unicode="&#57964;" /><glyph d="M54 0V700H191V0ZM77 -160 93 -132 58 -97V-58L93 -23H151L186 -58V-109L157 -160Z" glyph-name="lcommaaccent" horiz-adv-x="245" unicode="&#316;" /><glyph d="M193 590V124H463V0H56V590ZM213 -160 229 -132 194 -97V-58L229 -23H287L322 -58V-109L293 -160Z" glyph-name="lcommaaccent.smcp" horiz-adv-x="486" unicode="&#57965;" /><glyph d="M54 0V700H191V0ZM270 223 235 258V342L270 377H354L389 342V258L354 223Z" glyph-name="ldot" horiz-adv-x="380" unicode="&#320;" /><glyph d="M193 590V124H463V0H56V590ZM326 232 291 267V351L326 386H410L445 351V267L410 232Z" glyph-name="ldot.smcp" horiz-adv-x="486" unicode="&#57969;" /><glyph d="M491 110 69 277V400L491 567V436L226 338L491 241Z" glyph-name="less" horiz-adv-x="560" unicode="&lt;" /><glyph d="M730 -18 50 282V398L730 698V567L201 340L730 113Z" glyph-name="less.cap" horiz-adv-x="780" unicode="&#58774;" /><glyph d="M491 65 69 232V355L491 522V391L226 293L491 196Z" glyph-name="less.smcp" horiz-adv-x="560" unicode="&#62006;" /><glyph d="M491 237 69 340V481L491 604V478L251 413L491 363ZM491 73 69 176V302L491 199Z" glyph-name="lessequal" horiz-adv-x="560" unicode="&#8804;" /><glyph d="M730 162 50 357V497L730 692V565L222 426L730 289ZM730 -11 50 184V310L730 116Z" glyph-name="lessequal.cap" horiz-adv-x="780" unicode="&#61991;" /><glyph d="M491 192 69 295V436L491 559V433L251 368L491 318ZM491 28 69 131V257L491 154Z" glyph-name="lessequal.smcp" horiz-adv-x="560" unicode="&#62008;" /><glyph d="M367 374H69V498H491V180H367Z" glyph-name="logicalnot" horiz-adv-x="560" unicode="&#172;" /><glyph d="M606 449H50V573H730V107H606Z" glyph-name="logicalnot.cap" horiz-adv-x="780" unicode="&#61993;" /><glyph d="M367 329H69V453H491V135H367Z" glyph-name="logicalnot.smcp" horiz-adv-x="560" unicode="&#62016;" /><glyph d="M0 0V124H245V0Z" glyph-name="lowline" horiz-adv-x="245" unicode="&#58641;" /><glyph d="M24 325 88 367V700H225V458L303 510V386L225 334V0H88V243L24 201Z" glyph-name="lslash" horiz-adv-x="322" unicode="&#322;" /><glyph d="M24 255 104 299V590H241V374L395 458V341L241 257V124H511V0H104V182L24 138Z" glyph-name="lslash.smcp" horiz-adv-x="523" unicode="&#57970;" /><glyph d="M188 464 345 510 408 447 625 510 748 387V0H611V339L569 381L468 349V0H331V339L289 381L188 349V0H51V500H188Z" glyph-name="m" horiz-adv-x="795" unicode="m" /><glyph d="M308 48 193 417V0H56V590H284L391 220L498 590H725V0H589V417L474 48Z" glyph-name="m.smcp" horiz-adv-x="782" unicode="&#57869;" /><glyph d="M107 674H425V561H107Z" glyph-name="macron" horiz-adv-x="532" unicode="&#175;" /><glyph d="M167 803H485V713H167Z" glyph-name="macron.cap" horiz-adv-x="652" unicode="&#58405;" /><glyph d="M199 0 50 149V351L199 500H401L550 351V149L401 0Z" glyph-name="mediumblackcircle" horiz-adv-x="600" unicode="&#9899;" /><glyph d="M199 0 50 149V351L199 500H401L550 351V149L401 0ZM250 376 174 300V200L250 124H350L426 200V300L350 376Z" glyph-name="mediumwhitecircle" horiz-adv-x="600" unicode="&#9898;" /><glyph d="M491 401V277H69V401Z" glyph-name="minus" horiz-adv-x="560" unicode="&#8722;" /><glyph d="M730 402V278H50V402Z" glyph-name="minus.cap" horiz-adv-x="780" unicode="&#58770;" /><glyph d="M290 -48H38V30H290Z" glyph-name="minus.inf" horiz-adv-x="320" unicode="&#58748;" /><glyph d="M491 356V232H69V356Z" glyph-name="minus.smcp" horiz-adv-x="560" unicode="&#62998;" /><glyph d="M84 680H221L161 364H24Z" glyph-name="minute" horiz-adv-x="245" unicode="&#8242;" /><glyph d="M280 251 146 117 58 204 192 338 58 473 146 560 280 426 414 560 502 473 367 338 502 204 414 117Z" glyph-name="multiply" horiz-adv-x="560" unicode="&#215;" /><glyph d="M390 253 125 -12 38 75 303 340 38 605 125 692 390 427 655 692 742 605 477 340 742 75 655 -12Z" glyph-name="multiply.cap" horiz-adv-x="780" unicode="&#58771;" /><glyph d="M280 206 146 72 58 159 192 293 58 428 146 515 280 381 414 515 502 428 367 293 502 159 414 72Z" glyph-name="multiply.smcp" horiz-adv-x="560" unicode="&#62002;" /><glyph d="M188 0H51V500H188V458L386 510L509 387V0H372V338L329 381L188 344Z" glyph-name="n" horiz-adv-x="555" unicode="n" /><glyph d="M571 0H421L186 376L193 0H56V590H206L441 214L434 590H571Z" glyph-name="n.smcp" horiz-adv-x="628" unicode="&#57870;" /><glyph d="M188 0H51V500H188V458L386 510L509 387V0H372V338L329 381L188 344ZM214 534 334 700H471L349 534Z" glyph-name="nacute" horiz-adv-x="555" unicode="&#324;" /><glyph d="M571 0H421L186 376L193 0H56V590H206L441 214L434 590H571ZM242 618 342 718H493L393 618Z" glyph-name="nacute.smcp" horiz-adv-x="628" unicode="&#63059;" /><glyph d="M188 0H51V500H188V458L386 510L509 387V0H372V338L329 381L188 344ZM280 613 342 700H476L361 534H199L84 700H218Z" glyph-name="ncaron" horiz-adv-x="555" unicode="&#328;" /><glyph d="M571 0H421L186 376L193 0H56V590H206L441 214L434 590H571ZM506 718 406 618H222L122 718H273L314 677L355 718Z" glyph-name="ncaron.smcp" horiz-adv-x="628" unicode="&#57978;" /><glyph d="M188 0H51V500H188V458L386 510L509 387V0H372V338L329 381L188 344ZM235 -160 251 -132 216 -97V-58L251 -23H309L344 -58V-109L315 -160Z" glyph-name="ncommaaccent" horiz-adv-x="555" unicode="&#326;" /><glyph d="M571 0H421L186 376L193 0H56V590H206L441 214L434 590H571ZM269 -160 285 -132 250 -97V-58L285 -23H343L378 -58V-109L349 -160Z" glyph-name="ncommaaccent.smcp" horiz-adv-x="628" unicode="&#57981;" /><glyph d="M169 680H391L515 556V124L391 0H55V124H333L378 169V243H169L45 367V556ZM227 556 182 511V412L227 367H378V511L333 556Z" glyph-name="nine" horiz-adv-x="560" unicode="9" /><glyph d="M94 142H223L283 82V-100L223 -160H39V-79H189L194 -74V-57H94L34 3V82ZM128 61 123 56V29L128 24H194V56L189 61Z" glyph-name="nine.inf" horiz-adv-x="320" unicode="&#58746;" /><glyph d="M159 590H401L515 476V114L401 0H55V124H343L378 159V208H159L45 322V476ZM217 466 182 431V367L217 332H378V431L343 466Z" glyph-name="nine.smcpT" horiz-adv-x="560" unicode="&#61970;" /><glyph d="M94 680H223L283 620V438L223 378H39V459H189L194 464V481H94L34 541V620ZM128 599 123 594V567L128 562H194V594L189 599ZM186 0H89L614 680H711ZM688 302V81H756V0H524V81H598V221H524V302ZM1023 0H894L834 60V242L894 302H1073V221H928L923 216V194H1023L1083 134V60ZM989 81 994 86V108L989 113H923V86L928 81Z" glyph-name="ninesixteenths" horiz-adv-x="1120" unicode="&#61977;" /><glyph glyph-name="nonbreakingspace" horiz-adv-x="245" unicode="&#160;" /><glyph glyph-name="nonmarkingreturn" horiz-adv-x="250" unicode="" /><glyph d="M295 497 337 575H473L431 497H491V373H366L329 304H491V180H264L223 102H87L128 180H69V304H193L230 373H69V497Z" glyph-name="notequal" horiz-adv-x="560" unicode="&#8800;" /><glyph d="M455 545 545 680H690L600 545H730V421H517L408 259H730V135H325L235 0H90L180 135H50V259H263L372 421H50V545Z" glyph-name="notequal.cap" horiz-adv-x="780" unicode="&#61989;" /><glyph d="M295 452 337 530H473L431 452H491V328H366L329 259H491V135H264L223 57H87L128 135H69V259H193L230 328H69V452Z" glyph-name="notequal.smcp" horiz-adv-x="560" unicode="&#62004;" /><glyph d="M188 0H51V500H188V458L386 510L509 387V0H372V338L329 381L188 344ZM459 606 404 551 220 571 208 559V534H101V628L156 683L340 663L352 675V700H459Z" glyph-name="ntilde" horiz-adv-x="555" unicode="&#241;" /><glyph d="M571 0H421L186 376L193 0H56V590H206L441 214L434 590H571ZM493 664 448 619 248 635 241 628V618H135V672L180 717L380 701L387 708V718H493Z" glyph-name="ntilde.smcp" horiz-adv-x="628" unicode="&#57977;" /><glyph d="M288 165H194L157 0H39L76 165H25V289H103L126 391H75V515H154L191 680H309L272 515H366L403 680H521L484 515H535V391H456L433 289H485V165H406L369 0H251ZM221 289H315L338 391H244Z" glyph-name="numbersign" horiz-adv-x="560" unicode="#" /><glyph d="M289 128H195L167 0H49L77 128H25V251H105L124 339H75V462H152L181 590H299L270 462H364L393 590H511L482 462H535V339H454L435 251H485V128H407L379 0H261ZM223 251H317L336 339H242Z" glyph-name="numbersign.smcp" horiz-adv-x="560" unicode="&#61842;" /><glyph d="M193 0H56V680H208L486 214L479 680H616V0H464L186 466ZM831 222 714 339V563L831 680H1033L1150 563V339L1033 222ZM714 124H1150V0H714ZM1013 384V518L975 556H889L851 518V384L889 346H975Z" glyph-name="numero" horiz-adv-x="1191" unicode="&#8470;" /><glyph d="M158 0 41 117V383L158 500H380L497 383V117L380 0ZM360 162V338L322 376H216L178 338V162L216 124H322Z" glyph-name="o" horiz-adv-x="538" unicode="o" /><glyph d="M160 0 46 114V476L160 590H430L544 476V114L430 0ZM218 466 183 431V159L218 124H372L407 159V431L372 466Z" glyph-name="o.smcp" horiz-adv-x="591" unicode="&#57871;" /><glyph d="M158 0 41 117V383L158 500H380L497 383V117L380 0ZM360 162V338L322 376H216L178 338V162L216 124H322ZM203 534 323 700H460L338 534Z" glyph-name="oacute" horiz-adv-x="538" unicode="&#243;" /><glyph d="M160 0 46 114V476L160 590H430L544 476V114L430 0ZM218 466 183 431V159L218 124H372L407 159V431L372 466ZM223 618 323 718H474L374 618Z" glyph-name="oacute.smcp" horiz-adv-x="591" unicode="&#57985;" /><glyph d="M158 0 41 117V383L158 500H380L497 383V117L380 0ZM341 651V700H448V601L381 534H157L90 601V700H197V651L219 629H319ZM360 162V338L322 376H216L178 338V162L216 124H322Z" glyph-name="obreve" horiz-adv-x="538" unicode="&#335;" /><glyph d="M160 0 46 114V476L160 590H430L544 476V114L430 0ZM218 466 183 431V159L218 124H372L407 159V431L372 466ZM116 664V718H222V708L235 695H355L368 708V718H474V664L428 618H162Z" glyph-name="obreve.smcp" horiz-adv-x="591" unicode="&#57992;" /><glyph d="M158 0 41 117V383L158 500H380L497 383V117L380 0ZM178 338V162L216 124H322L360 162V338L322 376H216ZM73 534 188 700H350L465 534H331L269 621L207 534Z" glyph-name="ocircumflex" horiz-adv-x="538" unicode="&#244;" /><glyph d="M160 0 46 114V476L160 590H430L544 476V114L430 0ZM218 466 183 431V159L218 124H372L407 159V431L372 466ZM102 618 202 718H387L487 618H336L294 659L253 618Z" glyph-name="ocircumflex.smcp" horiz-adv-x="591" unicode="&#57987;" /><glyph d="M158 0 41 117V383L158 500H380L497 383V117L380 0ZM360 162V338L322 376H216L178 338V162L216 124H322ZM127 540 92 575V659L127 694H211L246 659V575L211 540ZM327 540 292 575V659L327 694H411L446 659V575L411 540Z" glyph-name="odieresis" horiz-adv-x="538" unicode="&#246;" /><glyph d="M160 0 46 114V476L160 590H430L544 476V114L430 0ZM218 466 183 431V159L218 124H372L407 159V431L372 466ZM144 618 118 644V692L144 718H246L272 692V644L246 618ZM344 618 318 644V692L344 718H446L472 692V644L446 618Z" glyph-name="odieresis.smcp" horiz-adv-x="591" unicode="&#57988;" /><glyph d="M158 0 41 117V383L158 500H370L428 441L487 500H669L786 383V198H497V162L535 124H773V0H487L428 58L370 0ZM360 162V338L322 376H216L178 338V162L216 124H322ZM497 302H649V338L611 376H535L497 338Z" glyph-name="oe" horiz-adv-x="827" unicode="&#339;" /><glyph d="M825 590V466H515V364H756V240H515V124H825V0H160L46 114V476L160 590ZM218 124H378V466H218L183 431V159Z" glyph-name="oe.smcp" horiz-adv-x="871" unicode="&#58008;" /><glyph d="M405 -160H270L226 -116V-48L326 52L378 0L327 -51V-65L338 -76H405Z" glyph-name="ogonek" horiz-adv-x="532" unicode="&#731;" /><glyph d="M158 0 41 117V383L158 500H380L497 383V117L380 0ZM360 162V338L322 376H216L178 338V162L216 124H322ZM78 700H215L335 534H200Z" glyph-name="ograve" horiz-adv-x="538" unicode="&#242;" /><glyph d="M160 0 46 114V476L160 590H430L544 476V114L430 0ZM218 466 183 431V159L218 124H372L407 159V431L372 466ZM116 718H267L367 618H216Z" glyph-name="ograve.smcp" horiz-adv-x="591" unicode="&#57986;" /><glyph d="M158 0 41 117V383L158 500H380L497 383V117L380 0ZM178 338V162L216 124H322L360 162V338L322 376H216ZM109 534 229 700H366L244 534ZM297 534 417 700H554L432 534Z" glyph-name="ohungarumlaut" horiz-adv-x="538" unicode="&#337;" /><glyph d="M160 0 46 114V476L160 590H430L544 476V114L430 0ZM218 466 183 431V159L218 124H372L407 159V431L372 466ZM133 618 233 718H384L284 618ZM313 618 413 718H564L464 618Z" glyph-name="ohungarumlaut.smcp" horiz-adv-x="591" unicode="&#57994;" /><glyph d="M158 0 41 117V383L158 500H380L497 383V117L380 0ZM360 162V338L322 376H216L178 338V162L216 124H322ZM110 674H428V561H110Z" glyph-name="omacron" horiz-adv-x="538" unicode="&#333;" /><glyph d="M160 0 46 114V476L160 590H430L544 476V114L430 0ZM218 466 183 431V159L218 124H372L407 159V431L372 466ZM136 713H454V623H136Z" glyph-name="omacron.smcp" horiz-adv-x="591" unicode="&#57991;" /><glyph d="M358 680V124H508V0H64V124H221V556H64V680Z" glyph-name="one" horiz-adv-x="560" unicode="1" /><glyph d="M208 142V-79H276V-160H44V-79H118V61H44V142Z" glyph-name="one.inf" horiz-adv-x="320" unicode="&#58738;" /><glyph d="M358 590V124H508V0H64V124H221V466H64V590Z" glyph-name="one.smcpT" horiz-adv-x="560" unicode="&#61956;" /><glyph d="M208 680V459H276V378H44V459H118V599H44V680ZM186 0H89L614 680H711ZM524 302H692L752 242V179L651 81H763V0H514V55L663 198V216L658 221H524Z" glyph-name="onehalf" horiz-adv-x="800" unicode="&#189;" /><glyph d="M208 680V459H276V378H44V459H118V599H44V680ZM186 0H89L614 680H711ZM736 302V123H773V42H736V0H647V42H504V110L636 302ZM647 123V185L605 123Z" glyph-name="onequarter" horiz-adv-x="800" unicode="&#188;" /><glyph d="M208 680V459H276V378H44V459H118V599H44V680ZM186 0H89L614 680H711ZM688 302V81H756V0H524V81H598V221H524V302ZM1023 0H894L834 60V242L894 302H1073V221H928L923 216V194H1023L1083 134V60ZM989 81 994 86V108L989 113H923V86L928 81Z" glyph-name="onesixteenth" horiz-adv-x="1120" unicode="&#61973;" /><glyph d="M208 680V459H276V378H44V459H118V599H44V680Z" glyph-name="onesuperior" horiz-adv-x="320" unicode="&#185;" /><glyph d="M308 413V289H25V413Z" glyph-name="onethirdemdash" horiz-adv-x="333" unicode="&#58481;" /><glyph d="M308 400V276H25V400Z" glyph-name="onethirdemdash.cap" horiz-adv-x="333" unicode="&#58499;" /><glyph d="M308 355V231H25V355Z" glyph-name="onethirdemdash.smcp" horiz-adv-x="333" unicode="&#61830;" /><glyph d="M41 197H409V90H41ZM41 361V444L98 501L289 526V539L256 572H67V680H307L409 578V280H290V312L131 271ZM171 428 161 418V397L184 374L289 401V444Z" glyph-name="ordfeminine" horiz-adv-x="450" unicode="&#170;" /><glyph d="M41 197H409V90H41ZM289 679H409V280H289V308L149 271L41 379V580L149 688L289 651ZM161 421 198 384 289 408V551L198 575L161 537Z" glyph-name="ordfeminine.school" horiz-adv-x="450" unicode="&#57730;" /><glyph d="M149 680H329L458 280H334L315 340H162L144 280H20ZM41 197H437V90H41ZM193 441H284L244 572H234Z" glyph-name="ordfeminine.smcp" horiz-adv-x="478" unicode="&#58193;" /><glyph d="M143 280 41 382V578L143 680H307L409 578V382L307 280ZM41 197H409V90H41ZM289 422V539L256 572H194L161 539V422L194 388H256Z" glyph-name="ordmasculine" horiz-adv-x="450" unicode="&#186;" /><glyph d="M137 280 41 376V584L137 680H341L437 584V376L341 280ZM41 197H437V90H41ZM317 416V545L290 572H188L161 545V416L188 388H290Z" glyph-name="ordmasculine.smcp" horiz-adv-x="478" unicode="&#58194;" /><glyph d="M88 69 41 117V383L158 500H380L409 471L432 500H505L449 430L497 383V117L380 0H158L129 29L106 0H33ZM178 338V181L328 370L322 376H216ZM360 162V318L210 130L216 124H322Z" glyph-name="oslash" horiz-adv-x="538" unicode="&#248;" /><glyph d="M160 0 125 34 98 0H23L83 76L46 114V476L160 590H430L464 555L492 590H567L506 513L544 476V114L430 0ZM407 159V389L206 136L218 124H372ZM218 466 183 431V201L384 454L372 466Z" glyph-name="oslash.smcp" horiz-adv-x="591" unicode="&#58005;" /><glyph d="M158 0 41 117V383L158 500H380L497 383V117L380 0ZM448 606 393 551 209 571 197 559V534H90V628L145 683L329 663L341 675V700H448ZM360 162V338L322 376H216L178 338V162L216 124H322Z" glyph-name="otilde" horiz-adv-x="538" unicode="&#245;" /><glyph d="M160 0 46 114V476L160 590H430L544 476V114L430 0ZM218 466 183 431V159L218 124H372L407 159V431L372 466ZM474 664 429 619 229 635 222 628V618H116V672L161 717L361 701L368 708V718H474Z" glyph-name="otilde.smcp" horiz-adv-x="591" unicode="&#57989;" /><glyph d="M160 0 46 114V476L160 590H430L544 476V114L430 0ZM218 466 183 431V159L218 124H372L407 159V431L372 466ZM46 514V564L72 590H122ZM468 590H518L544 564V514Z" glyph-name="oumlaut.smcp" horiz-adv-x="591" unicode="&#61824;" /><glyph d="M188 458 386 510 509 387V113L396 0H188V-160H51V500H188ZM372 338 329 381 188 344V124H334L372 162Z" glyph-name="p" horiz-adv-x="550" unicode="p" /><glyph d="M56 0V590H426L540 476V276L426 162H193V0ZM193 466V286H368L403 321V431L368 466Z" glyph-name="p.smcp" horiz-adv-x="576" unicode="&#57856;" /><glyph d="M406 -160V556H338V-160H270V207H160L36 331V556L160 680H543V-160Z" glyph-name="paragraph" horiz-adv-x="599" unicode="&#182;" /><glyph d="M170 720H351L183 552V49L351 -120H170L46 4V596Z" glyph-name="parenleft" horiz-adv-x="353" unicode="(" /><glyph d="M170 720H351L183 552V129L351 -40H170L46 84V596Z" glyph-name="parenleft.cap" horiz-adv-x="353" unicode="&#58513;" /><glyph d="M215 -180H109L47 -118V101L109 162H215L125 72V-90Z" glyph-name="parenleft.inf" horiz-adv-x="240" unicode="&#58750;" /><glyph d="M170 630H351L183 462V129L351 -40H170L46 84V506Z" glyph-name="parenleft.smcp" horiz-adv-x="353" unicode="&#58521;" /><glyph d="M306 596V4L182 -120H2L169 49V552L2 720H182Z" glyph-name="parenright" horiz-adv-x="353" unicode=")" /><glyph d="M306 596V84L182 -40H2L169 129V552L2 720H182Z" glyph-name="parenright.cap" horiz-adv-x="353" unicode="&#58514;" /><glyph d="M25 162H131L193 100V-119L131 -180H25L115 -90V72Z" glyph-name="parenright.inf" horiz-adv-x="240" unicode="&#58751;" /><glyph d="M306 506V84L182 -40H2L169 129V462L2 630H182Z" glyph-name="parenright.smcp" horiz-adv-x="353" unicode="&#58522;" /><glyph d="M210 700 497 414V117L380 0H158L41 117V383L158 500H232L32 700ZM322 124 360 162V338L322 376H216L178 338V162L216 124Z" glyph-name="partialdiff" horiz-adv-x="538" unicode="&#8706;" /><glyph d="M120 680H290L370 600V430L290 350H120L40 430V600ZM230 561H180L160 541V489L180 469H230L250 489V541ZM685 680V510L175 0V170ZM740 0H570L490 80V250L570 330H740L820 250V80ZM630 119H680L700 139V191L680 211H630L610 191V139Z" glyph-name="percent" horiz-adv-x="860" unicode="%" /><glyph d="M120 590H270L350 510V360L270 280H120L40 360V510ZM210 471H180L160 451V419L180 399H210L230 419V451ZM645 590V420L225 0V170ZM750 0H600L520 80V230L600 310H750L830 230V80ZM660 119H690L710 139V171L690 191H660L640 171V139Z" glyph-name="percent.smcp" horiz-adv-x="870" unicode="&#61971;" /><glyph d="M73 0 38 35V119L73 154H157L192 119V35L157 0Z" glyph-name="period" horiz-adv-x="230" unicode="." /><glyph d="M98 0 63 35V119L98 154H182L217 119V35L182 0Z" glyph-name="period.T" horiz-adv-x="280" unicode="&#61826;" /><glyph d="M73 274 38 309V393L73 428H157L192 393V309L157 274Z" glyph-name="periodcentered" horiz-adv-x="230" unicode="&#183;" /><glyph d="M73 261 38 296V380L73 415H157L192 380V296L157 261Z" glyph-name="periodcentered.cap" horiz-adv-x="230" unicode="&#58497;" /><glyph d="M73 216 38 251V335L73 370H157L192 335V251L157 216Z" glyph-name="periodcentered.smcp" horiz-adv-x="230" unicode="&#60322;" /><glyph d="M120 680H290L370 600V430L290 350H120L40 430V600ZM230 561H180L160 541V489L180 469H230L250 489V541ZM685 680V510L175 0V170ZM740 0H570L490 80V250L570 330H740L820 250V80ZM630 119H680L700 139V191L680 211H630L610 191V139ZM1120 0H950L870 80V250L950 330H1120L1200 250V80ZM1010 119H1060L1080 139V191L1060 211H1010L990 191V139Z" glyph-name="perthousand" horiz-adv-x="1240" unicode="&#8240;" /><glyph d="M120 590H270L350 510V360L270 280H120L40 360V510ZM210 471H180L160 451V419L180 399H210L230 419V451ZM645 590V420L225 0V170ZM750 0H600L520 80V230L600 310H750L830 230V80ZM660 119H690L710 139V171L690 191H660L640 171V139ZM1110 0H960L880 80V230L960 310H1110L1190 230V80ZM1020 119H1050L1070 139V171L1050 191H1020L1000 171V139Z" glyph-name="perthousand.smcp" horiz-adv-x="1230" unicode="&#61972;" /><glyph d="M218 277H69V401H218V550H342V401H491V277H342V127H218Z" glyph-name="plus" horiz-adv-x="560" unicode="+" /><glyph d="M328 278H50V402H328V680H452V402H730V278H452V0H328Z" glyph-name="plus.cap" horiz-adv-x="780" unicode="&#58769;" /><glyph d="M290 30V-48H203V-135H125V-48H38V30H125V117H203V30Z" glyph-name="plus.inf" horiz-adv-x="320" unicode="&#58747;" /><glyph d="M218 232H69V356H218V505H342V356H491V232H342V82H218Z" glyph-name="plus.smcp" horiz-adv-x="560" unicode="&#62997;" /><glyph d="M218 352H69V476H218V572H342V476H491V352H342V257H218ZM491 208V84H69V208Z" glyph-name="plusminus" horiz-adv-x="560" unicode="&#177;" /><glyph d="M328 378H50V502H328V680H452V502H730V378H452V200H328ZM730 124V0H50V124Z" glyph-name="plusminus.cap" horiz-adv-x="780" unicode="&#61988;" /><glyph d="M218 307H69V431H218V527H342V431H491V307H342V212H218ZM491 163V39H69V163Z" glyph-name="plusminus.smcp" horiz-adv-x="560" unicode="&#62001;" /><glyph d="M50 200V480L250 680H530L730 480V200L530 0H250ZM118 228 278 68H502L662 228V452L502 612H278L118 452ZM434 362 452 380V417L434 435H361V362ZM361 254V136H251V544H479L562 461V337L479 254Z" glyph-name="published" horiz-adv-x="780" unicode="&#8471;" /><glyph glyph-name="punctuationspace" horiz-adv-x="230" unicode="&#8200;" /><glyph d="M362 500H499V-160H362V42L164 -10L41 113V387L164 510L362 458ZM178 162 221 119 362 156V344L221 381L178 338Z" glyph-name="q" horiz-adv-x="550" unicode="q" /><glyph d="M320 0H160L46 114V476L160 590H430L544 476V114L456 26L560 -120H405ZM218 466 183 431V159L218 124H372L407 159V431L372 466Z" glyph-name="q.smcp" horiz-adv-x="586" unicode="&#57873;" /><glyph d="M36 680H374L483 571V433L409 359L293 312L264 283L257 223H173L159 359L214 414L330 461L346 477V526L316 556H36ZM173 0 138 35V119L173 154H257L292 119V35L257 0Z" glyph-name="question" horiz-adv-x="520" unicode="?" /><glyph d="M36 590H339L438 491V368L364 294L258 277L242 261L237 223H153L138 338L179 379L285 396L301 412V446L281 466H36ZM153 0 118 35V119L153 154H237L272 119V35L237 0Z" glyph-name="question.smcp" horiz-adv-x="475" unicode="&#63295;" /><glyph d="M484 -160H146L37 -51V77L111 151L227 188L256 217L263 277H347L361 141L306 86L190 49L174 33V-6L204 -36H484ZM347 500 382 465V381L347 346H263L228 381V465L263 500Z" glyph-name="questiondown" horiz-adv-x="520" unicode="&#191;" /><glyph d="M484 0H146L37 109V247L111 321L227 368L256 397L263 457H347L361 321L306 266L190 219L174 203V154L204 124H484ZM347 680 382 645V561L347 526H263L228 561V645L263 680Z" glyph-name="questiondown.cap" horiz-adv-x="520" unicode="&#58436;" /><glyph d="M439 0H136L37 99V222L111 296L217 313L233 329L238 367H322L337 252L296 211L190 194L174 178V144L194 124H439ZM322 590 357 555V471L322 436H238L203 471V555L238 590Z" glyph-name="questiondown.smcp" horiz-adv-x="475" unicode="&#58438;" /><glyph d="M23 700H195L166 400H52ZM228 700H400L371 400H257Z" glyph-name="quotedbl" horiz-adv-x="423" unicode="&quot;" /><glyph d="M157 154 192 119V18L106 -133H27L92 -19L38 35V119L73 154ZM355 154 390 119V18L304 -133H225L290 -19L236 35V119L271 154Z" glyph-name="quotedblbase" horiz-adv-x="428" unicode="&#8222;" /><glyph d="M271 413 236 448V549L322 700H401L336 586L390 532V448L355 413ZM73 413 38 448V549L124 700H203L138 586L192 532V448L157 413Z" glyph-name="quotedblleft" horiz-adv-x="428" unicode="&#8220;" /><glyph d="M157 700 192 665V564L106 413H27L92 527L38 581V665L73 700ZM355 700 390 665V564L304 413H225L290 527L236 581V665L271 700Z" glyph-name="quotedblright" horiz-adv-x="428" unicode="&#8221;" /><glyph d="M73 413 38 448V549L124 700H203L138 586L192 532V448L157 413Z" glyph-name="quoteleft" horiz-adv-x="230" unicode="&#8216;" /><glyph d="M157 700 192 665V564L106 413H27L92 527L38 581V665L73 700Z" glyph-name="quoteright" horiz-adv-x="230" unicode="&#8217;" /><glyph d="M157 154 192 119V18L106 -133H27L92 -19L38 35V119L73 154Z" glyph-name="quotesinglbase" horiz-adv-x="230" unicode="&#8218;" /><glyph d="M23 700H195L166 400H52Z" glyph-name="quotesingle" horiz-adv-x="218" unicode="&apos;" /><glyph d="M51 0V500H188V460L359 510V374L188 327V0Z" glyph-name="r" horiz-adv-x="385" unicode="r" /><glyph d="M56 0V590H434L548 476V313L443 208L553 0H407L307 199H193V0ZM376 466H193V323H376L411 358V431Z" glyph-name="r.smcp" horiz-adv-x="586" unicode="&#57874;" /><glyph d="M51 0V500H188V460L359 510V374L188 327V0ZM140 534 260 700H397L275 534Z" glyph-name="racute" horiz-adv-x="385" unicode="&#341;" /><glyph d="M56 0V590H434L548 476V313L443 208L553 0H407L307 199H193V0ZM376 466H193V323H376L411 358V431ZM209 618 309 718H460L360 618Z" glyph-name="racute.smcp" horiz-adv-x="586" unicode="&#58010;" /><glyph d="M51 0V500H188V460L359 510V374L188 327V0ZM206 613 268 700H402L287 534H125L10 700H144Z" glyph-name="rcaron" horiz-adv-x="385" unicode="&#345;" /><glyph d="M56 0V590H434L548 476V313L443 208L553 0H407L307 199H193V0ZM376 466H193V323H376L411 358V431ZM480 718 380 618H196L96 718H247L288 677L329 718Z" glyph-name="rcaron.smcp" horiz-adv-x="586" unicode="&#58011;" /><glyph d="M51 0V500H188V460L359 510V374L188 327V0ZM74 -160 90 -132 55 -97V-58L90 -23H148L183 -58V-109L154 -160Z" glyph-name="rcommaaccent" horiz-adv-x="385" unicode="&#343;" /><glyph d="M56 0V590H434L548 476V313L443 208L553 0H407L307 199H193V0ZM376 466H193V323H376L411 358V431ZM250 -160 266 -132 231 -97V-58L266 -23H324L359 -58V-109L330 -160Z" glyph-name="rcommaaccent.smcp" horiz-adv-x="586" unicode="&#58014;" /><glyph d="M114 780H330L427 683V467L330 370H114L17 467V683ZM57 666V484L131 410H313L387 484V666L313 740H131ZM124 450V700H281L330 651V580L290 540L339 450H267L224 531H187V450ZM187 644V588H253L267 601V630L253 644Z" glyph-name="registered" horiz-adv-x="444" unicode="&#174;" /><glyph d="M50 200V480L250 680H530L730 480V200L530 0H250ZM118 228 278 68H502L662 228V452L502 612H278L118 452ZM348 259V136H238V544H466L549 461V342L493 286L557 136H445L393 259ZM421 367 439 385V417L421 435H348V367Z" glyph-name="registered.cap" horiz-adv-x="780" unicode="&#59804;" /><glyph d="M355 700 390 665V581L336 527L401 413H322L236 564V665L271 700ZM157 700 192 665V581L138 527L203 413H124L38 564V665L73 700Z" glyph-name="reversequotedblleft" horiz-adv-x="428" unicode="&#8223;" /><glyph d="M157 700 192 665V581L138 527L203 413H124L38 564V665L73 700Z" glyph-name="reversequoteleft" horiz-adv-x="230" unicode="&#8219;" /><glyph d="M321 534H211L157 588V690L211 744H321L375 690V588ZM285 669H247L232 654V624L247 609H285L300 624V654Z" glyph-name="ring" horiz-adv-x="532" unicode="&#730;" /><glyph d="M396 605H256L207 654V759L256 808H396L445 759V654ZM360 733H292L282 723V690L292 680H360L370 690V723Z" glyph-name="ring.cap" horiz-adv-x="652" unicode="&#58410;" /><glyph d="M452 217V95L357 0H36V124H305L315 134V175L305 185L106 217L36 287V405L131 500H442V376H183L173 366V329L183 319L382 287Z" glyph-name="s" horiz-adv-x="488" unicode="s" /><glyph d="M498 466H212L182 436V396L193 385L438 319L508 249V109L399 0H45V124H341L371 154V196L360 209L115 275L45 345V481L154 590H498Z" glyph-name="s.smcp" horiz-adv-x="539" unicode="&#57875;" /><glyph d="M452 215V95L357 0H36V124H305L315 134V173L305 183L106 215L36 285V405L131 500H441V376H183L173 366V327L183 317L382 285ZM179 534 299 700H436L314 534Z" glyph-name="sacute" horiz-adv-x="488" unicode="&#347;" /><glyph d="M498 466H212L182 436V396L193 385L438 319L508 249V109L399 0H45V124H341L371 154V196L360 209L115 275L45 345V481L154 590H498ZM203 618 303 718H454L354 618Z" glyph-name="sacute.smcp" horiz-adv-x="539" unicode="&#58114;" /><glyph d="M452 215V95L357 0H36V124H305L315 134V173L305 183L106 215L36 285V405L131 500H441V376H183L173 366V327L183 317L382 285ZM245 613 307 700H441L326 534H164L49 700H183Z" glyph-name="scaron" horiz-adv-x="488" unicode="&#353;" /><glyph d="M498 466H212L182 436V396L193 385L438 319L508 249V109L399 0H45V124H341L371 154V196L360 209L115 275L45 345V481L154 590H498ZM467 718 367 618H183L83 718H234L275 677L316 718Z" glyph-name="scaron.smcp" horiz-adv-x="539" unicode="&#58116;" /><glyph d="M452 215V95L357 0H36V124H305L315 134V173L305 183L106 215L36 285V405L131 500H441V376H183L173 366V327L183 317L382 285ZM172 -76H193L204 -65V-51L198 -45L240 -3L305 -68V-116L261 -160H172Z" glyph-name="scedilla" horiz-adv-x="488" unicode="&#351;" /><glyph d="M190 -78H225L235 -67V-53L225 -42L261 -7L322 -67V-117L279 -160H190ZM498 466H212L182 436V396L193 385L438 319L508 249V109L399 0H45V124H341L371 154V196L360 209L115 275L45 345V481L154 590H498Z" glyph-name="scedilla.smcp" horiz-adv-x="539" unicode="&#58118;" /><glyph d="M452 215V95L357 0H36V124H305L315 134V173L305 183L106 215L36 285V405L131 500H441V376H183L173 366V327L183 317L382 285ZM49 534 164 700H326L441 534H307L245 621L183 534Z" glyph-name="scircumflex" horiz-adv-x="488" unicode="&#349;" /><glyph d="M498 466H212L182 436V396L193 385L438 319L508 249V109L399 0H45V124H341L371 154V196L360 209L115 275L45 345V481L154 590H498ZM83 618 183 718H368L468 618H317L275 659L234 618Z" glyph-name="scircumflex.smcp" horiz-adv-x="539" unicode="&#58115;" /><glyph d="M452 215V95L357 0H36V124H305L315 134V173L305 183L106 215L36 285V405L131 500H441V376H183L173 366V327L183 317L382 285ZM195 -160 211 -132 176 -97V-58L211 -23H269L304 -58V-109L275 -160Z" glyph-name="scommaaccent" horiz-adv-x="488" unicode="&#537;" /><glyph d="M212 -160 228 -132 193 -97V-58L228 -23H286L321 -58V-109L292 -160ZM498 466H212L182 436V396L193 385L438 319L508 249V109L399 0H45V124H341L371 154V196L360 209L115 275L45 345V481L154 590H498Z" glyph-name="scommaaccent.smcp" horiz-adv-x="539" unicode="&#58117;" /><glyph d="M84 680H221L161 364H24ZM274 680H411L351 364H214Z" glyph-name="second" horiz-adv-x="435" unicode="&#8243;" /><glyph d="M46 -36H327L357 -6V25L346 36L102 102L32 172V309L114 391L62 444V571L171 680H510V556H229L199 526V495L210 484L454 418L524 348V211L441 128L494 76V-51L385 -160H46ZM247 342 169 264V223L180 212L308 177L387 256V297L376 308Z" glyph-name="section" horiz-adv-x="556" unicode="&#167;" /><glyph d="M73 336 38 371V455L73 490H157L192 455V371L157 336ZM157 154 192 119V18L106 -133H27L91 -20L38 33V119L73 154Z" glyph-name="semicolon" horiz-adv-x="230" unicode=";" /><glyph d="M182 154 217 119V18L131 -133H52L117 -19L63 35V119L98 154ZM98 336 63 371V455L98 490H182L217 455V371L182 336Z" glyph-name="semicolon.T" horiz-adv-x="280" unicode="&#61829;" /><glyph d="M426 546 468 700H573V450H510V622L465 467H388L343 622V450H279V700H385ZM227 644H107L96 632V617L99 614L206 587L233 556V496L186 450H32V507H158L169 518V535L166 538L59 564L32 595V654L79 700H227Z" glyph-name="servicemark" horiz-adv-x="610" unicode="&#8480;" /><glyph d="M530 680V592L275 0H131L371 556H177V452H40V680Z" glyph-name="seven" horiz-adv-x="560" unicode="7" /><glyph d="M290 142V84L178 -160H83L185 61H121V20H31V142Z" glyph-name="seven.inf" horiz-adv-x="320" unicode="&#58744;" /><glyph d="M530 590V499L296 0H152L371 466H177V362H40V590Z" glyph-name="seven.smcpT" horiz-adv-x="560" unicode="&#61968;" /><glyph d="M290 680V622L178 378H83L185 599H121V558H31V680ZM186 0H89L614 680H711ZM688 302V81H756V0H524V81H598V221H524V302ZM1023 0H894L834 60V242L894 302H1073V221H928L923 216V194H1023L1083 134V60ZM989 81 994 86V108L989 113H923V86L928 81Z" glyph-name="sevensixteenths" horiz-adv-x="1120" unicode="&#61976;" /><glyph d="M391 0H169L45 124V556L169 680H495V556H227L182 511V437H391L515 313V124ZM333 124 378 169V268L333 313H182V169L227 124Z" glyph-name="six" horiz-adv-x="560" unicode="6" /><glyph d="M223 -160H94L34 -100V82L94 142H273V61H128L123 56V34H223L283 -26V-100ZM189 -79 194 -74V-52L189 -47H123V-74L128 -79Z" glyph-name="six.inf" horiz-adv-x="320" unicode="&#58743;" /><glyph d="M401 0H159L45 114V476L159 590H495V466H217L182 431V382H401L515 268V114ZM343 124 378 159V223L343 258H182V159L217 124Z" glyph-name="six.smcpT" horiz-adv-x="560" unicode="&#61961;" /><glyph glyph-name="sixperemspace" horiz-adv-x="166" unicode="&#8198;" /><glyph d="M334 720H478L115 -120H-30Z" glyph-name="slash" horiz-adv-x="480" unicode="/" /><glyph d="M334 720H478L150 -40H6Z" glyph-name="slash.cap" horiz-adv-x="480" unicode="&#58465;" /><glyph d="M162 -40H18L308 630H452Z" glyph-name="slash.smcp" horiz-adv-x="470" unicode="&#58471;" /><glyph glyph-name="space" horiz-adv-x="245" unicode=" " /><glyph d="M50 680H730V0H50ZM174 124H606V556H174ZM575 245 486 156 390 251 294 156 205 245 301 340 205 435 294 524 390 429 486 524 575 435 479 340Z" glyph-name="squaremultiply" horiz-adv-x="780" unicode="&#8864;" /><glyph d="M412 344H261V296H412V219H261V124H520V0H43V124H124V219H43V296H124V344H43V421H124V578L226 680H404L506 578V478H369V526L339 556H291L261 526V421H412Z" glyph-name="sterling" horiz-adv-x="560" unicode="&#163;" /><glyph d="M412 299H261V265H412V188H261V124H520V0H43V124H124V188H43V265H124V299H43V376H124V491L226 593H405L506 491V418H369V439L340 469H291L261 439V376H412Z" glyph-name="sterling.smcp" horiz-adv-x="560" unicode="&#61833;" /><glyph d="M91 610H228V500H354V376H228V149L253 124H334V0H188L91 97V376H16V500H91Z" glyph-name="t" horiz-adv-x="377" unicode="t" /><glyph d="M26 590H531V466H347V0H210V466H26Z" glyph-name="t.smcp" horiz-adv-x="557" unicode="&#57876;" /><glyph d="M91 610H228V500H354V376H228V303H313V207H228V149L253 124H334V0H188L91 97V207H16V303H91V376H16V500H91Z" glyph-name="tbar" horiz-adv-x="378" unicode="&#359;" /><glyph d="M85 357H210V466H26V590H531V466H347V357H472V247H347V0H210V247H85Z" glyph-name="tbar.smcp" horiz-adv-x="557" unicode="&#58125;" /><glyph d="M91 610H228V500H354V376H228V149L253 124H334V0H188L91 97V376H16V500H91ZM263 535V700H369L340 535Z" glyph-name="tcaron" horiz-adv-x="378" unicode="&#357;" /><glyph d="M26 590H531V466H347V0H210V466H26ZM471 718 371 618H187L87 718H238L279 677L320 718Z" glyph-name="tcaron.smcp" horiz-adv-x="557" unicode="&#58121;" /><glyph d="M146 -160 162 -132 128 -97V-58L163 -23H221L256 -58V-109L227 -160ZM91 610H228V500H354V376H228V149L253 124H334V0H188L91 97V376H16V500H91Z" glyph-name="tcommaaccent" horiz-adv-x="378" unicode="&#355;" /><glyph d="M26 590H531V466H347V0H210V466H26ZM233 -160 249 -132 214 -97V-58L249 -23H307L342 -58V-109L313 -160Z" glyph-name="tcommaaccent.smcp" horiz-adv-x="557" unicode="&#58122;" /><glyph glyph-name="thinspace" horiz-adv-x="100" unicode="&#8201;" /><glyph d="M208 680V459H276V378H44V459H118V599H44V680ZM354 459H509L514 464V486L509 491H407V572H499L504 577V594L499 599H364V680H533L593 620V551L578 536L603 511V438L543 378H354ZM506 0H409L934 680H1031ZM1008 302V81H1076V0H844V81H918V221H844V302ZM1343 0H1214L1154 60V242L1214 302H1393V221H1248L1243 216V194H1343L1403 134V60ZM1309 81 1314 86V108L1309 113H1243V86L1248 81Z" glyph-name="thirteensixteenths" horiz-adv-x="1440" unicode="&#61985;" /><glyph d="M188 458 386 510 509 387V113L396 0H188V-160H51V700H188ZM372 338 329 381 188 344V124H334L372 162Z" glyph-name="thorn" horiz-adv-x="550" unicode="&#254;" /><glyph d="M56 0V590H193V500H426L540 386V204L426 90H193V0ZM193 376V214H368L403 249V341L368 376Z" glyph-name="thorn.smcp" horiz-adv-x="576" unicode="&#58157;" /><glyph d="M45 124H333L378 169V248L333 293H140V417H325L357 449V524L325 556H65V680H383L494 569V404L446 356L515 287V124L391 0H45Z" glyph-name="three" horiz-adv-x="560" unicode="3" /><glyph d="M34 -79H189L194 -74V-52L189 -47H87V34H179L184 39V56L179 61H44V142H213L273 82V13L258 -2L283 -27V-100L223 -160H34Z" glyph-name="three.inf" horiz-adv-x="320" unicode="&#58740;" /><glyph d="M45 124H343L378 159V213L343 248H140V372H335L357 394V444L335 466H65V590H393L494 489V349L456 311L515 252V114L401 0H45Z" glyph-name="three.smcpT" horiz-adv-x="560" unicode="&#61958;" /><glyph glyph-name="threeperemspace" horiz-adv-x="333" unicode="&#8196;" /><glyph d="M725 413V289H25V413Z" glyph-name="threequarteremdash" horiz-adv-x="750" unicode="&#58482;" /><glyph d="M725 400V276H25V400Z" glyph-name="threequarteremdash.cap" horiz-adv-x="750" unicode="&#58501;" /><glyph d="M725 355V231H25V355Z" glyph-name="threequarteremdash.smcp" horiz-adv-x="750" unicode="&#61831;" /><glyph d="M34 459H189L194 464V486L189 491H87V572H179L184 577V594L179 599H44V680H213L273 620V551L258 536L283 511V438L223 378H34ZM186 0H89L614 680H711ZM736 302V123H773V42H736V0H647V42H504V110L636 302ZM647 123V185L605 123Z" glyph-name="threequarters" horiz-adv-x="800" unicode="&#190;" /><glyph d="M34 459H189L194 464V486L189 491H87V572H179L184 577V594L179 599H44V680H213L273 620V551L258 536L283 511V438L223 378H34ZM186 0H89L614 680H711ZM688 302V81H756V0H524V81H598V221H524V302ZM1023 0H894L834 60V242L894 302H1073V221H928L923 216V194H1023L1083 134V60ZM989 81 994 86V108L989 113H923V86L928 81Z" glyph-name="threesixteenths" horiz-adv-x="1120" unicode="&#61974;" /><glyph d="M34 459H189L194 464V486L189 491H87V572H179L184 577V594L179 599H44V680H213L273 620V551L258 536L283 511V438L223 378H34Z" glyph-name="threesuperior" horiz-adv-x="320" unicode="&#179;" /><glyph d="M445 606 390 551 206 571 194 559V534H87V628L142 683L326 663L338 675V700H445Z" glyph-name="tilde" horiz-adv-x="532" unicode="&#732;" /><glyph d="M505 754 460 709 260 725 253 718V708H147V762L192 807L392 791L399 798V808H505Z" glyph-name="tilde.cap" horiz-adv-x="652" unicode="&#58404;" /><glyph d="M426 546 468 700H573V450H510V622L465 467H388L343 622V450H279V700H385ZM19 700H242V644H162V450H99V644H19Z" glyph-name="trademark" horiz-adv-x="610" unicode="&#8482;" /><glyph d="M23 700H195L166 400H52ZM228 700H400L371 400H257ZM433 700H605L576 400H462Z" glyph-name="tripleprime" horiz-adv-x="628" unicode="&#8244;" /><glyph d="M65 680H384L495 569V415L237 124H515V0H45V92L358 447V524L326 556H65Z" glyph-name="two" horiz-adv-x="560" unicode="2" /><glyph d="M44 142H212L272 82V19L171 -79H283V-160H34V-105L183 38V56L178 61H44Z" glyph-name="two.inf" horiz-adv-x="320" unicode="&#58739;" /><glyph d="M65 590H384L495 479V355L250 124H515V0H45V92L358 387V434L326 466H65Z" glyph-name="two.smcpT" horiz-adv-x="560" unicode="&#61957;" /><glyph d="M44 680H212L272 620V557L171 459H283V378H34V433L183 576V594L178 599H44Z" glyph-name="twosuperior" horiz-adv-x="320" unicode="&#178;" /><glyph d="M367 500H504V0H367V42L169 -10L46 113V500H183V162L226 119L367 156Z" glyph-name="u" horiz-adv-x="555" unicode="u" /><glyph d="M407 47 165 -10 51 104V590H188V152L222 118L407 161V590H544V0H407Z" glyph-name="u.smcp" horiz-adv-x="600" unicode="&#57877;" /><glyph d="M367 500H504V0H367V42L169 -10L46 113V500H183V162L226 119L367 156ZM209 534 329 700H466L344 534Z" glyph-name="uacute" horiz-adv-x="555" unicode="&#250;" /><glyph d="M407 47 165 -10 51 104V590H188V152L222 118L407 161V590H544V0H407ZM226 618 326 718H477L377 618Z" glyph-name="uacute.smcp" horiz-adv-x="600" unicode="&#58126;" /><glyph d="M367 500H504V0H367V42L169 -10L46 113V500H183V162L226 119L367 156ZM347 651V700H454V601L387 534H163L96 601V700H203V651L225 629H325Z" glyph-name="ubreve" horiz-adv-x="555" unicode="&#365;" /><glyph d="M407 47 165 -10 51 104V590H188V152L222 118L407 161V590H544V0H407ZM119 664V718H225V708L238 695H358L371 708V718H477V664L431 618H165Z" glyph-name="ubreve.smcp" horiz-adv-x="600" unicode="&#58134;" /><glyph d="M367 500H504V0H367V42L169 -10L46 113V500H183V162L226 119L367 156ZM79 534 194 700H356L471 534H337L275 621L213 534Z" glyph-name="ucircumflex" horiz-adv-x="555" unicode="&#251;" /><glyph d="M407 47 165 -10 51 104V590H188V152L222 118L407 161V590H544V0H407ZM106 618 206 718H390L490 618H339L298 659L257 618Z" glyph-name="ucircumflex.smcp" horiz-adv-x="600" unicode="&#58112;" /><glyph d="M367 500H504V0H367V42L169 -10L46 113V500H183V162L226 119L367 156ZM333 540 298 575V659L333 694H417L452 659V575L417 540ZM133 540 98 575V659L133 694H217L252 659V575L217 540Z" glyph-name="udieresis" horiz-adv-x="555" unicode="&#252;" /><glyph d="M407 47 165 -10 51 104V590H188V152L222 118L407 161V590H544V0H407ZM347 618 321 644V692L347 718H449L475 692V644L449 618ZM147 618 121 644V692L147 718H249L275 692V644L249 618Z" glyph-name="udieresis.smcp" horiz-adv-x="600" unicode="&#58129;" /><glyph d="M367 500H504V0H367V42L169 -10L46 113V500H183V162L226 119L367 156ZM84 700H221L341 534H206Z" glyph-name="ugrave" horiz-adv-x="555" unicode="&#249;" /><glyph d="M407 47 165 -10 51 104V590H188V152L222 118L407 161V590H544V0H407ZM119 718H270L370 618H219Z" glyph-name="ugrave.smcp" horiz-adv-x="600" unicode="&#58127;" /><glyph d="M367 500H504V0H367V42L169 -10L46 113V500H183V162L226 119L367 156ZM303 534 423 700H560L438 534ZM115 534 235 700H372L250 534Z" glyph-name="uhungarumlaut" horiz-adv-x="555" unicode="&#369;" /><glyph d="M407 47 165 -10 51 104V590H188V152L222 118L407 161V590H544V0H407ZM316 618 416 718H567L467 618ZM136 618 236 718H387L287 618Z" glyph-name="uhungarumlaut.smcp" horiz-adv-x="600" unicode="&#58136;" /><glyph d="M367 500H504V0H367V42L169 -10L46 113V500H183V162L226 119L367 156ZM116 674H434V561H116Z" glyph-name="umacron" horiz-adv-x="555" unicode="&#363;" /><glyph d="M407 47 165 -10 51 104V590H188V152L222 118L407 161V590H544V0H407ZM139 713H457V623H139Z" glyph-name="umacron.smcp" horiz-adv-x="600" unicode="&#58133;" /><glyph d="M0 -160V-37H245V-160Z" glyph-name="underscore" horiz-adv-x="245" unicode="_" /><glyph d="M0 -160V-37H560V-160Z" glyph-name="underscoremonospace" horiz-adv-x="560" unicode="&#58642;" /><glyph d="M25 289V413H265V289Z" glyph-name="uni00AD" horiz-adv-x="290" unicode="&#173;" /><glyph d="M1095 413V289H25V413Z" glyph-name="uni2015" horiz-adv-x="1120" unicode="&#8213;" /><glyph d="M1095 400V276H25V400Z" glyph-name="uni2015.cap" horiz-adv-x="1120" unicode="&#58504;" /><glyph d="M1095 355V231H25V355Z" glyph-name="uni2015.smcp" horiz-adv-x="1120" unicode="&#61832;" /><glyph d="M95 378 35 438V620L95 680H233L293 620V438L233 378ZM129 459H199L204 464V594L199 599H129L124 594V464Z" glyph-name="uni2070" horiz-adv-x="320" unicode="&#8304;" /><glyph d="M256 680V501H293V420H256V378H167V420H24V488L156 680ZM167 501V563L125 501Z" glyph-name="uni2074" horiz-adv-x="320" unicode="&#8308;" /><glyph d="M49 491V680H267V599H139V572H217L277 512V438L217 378H39V459H183L188 464V486L183 491Z" glyph-name="uni2075" horiz-adv-x="320" unicode="&#8309;" /><glyph d="M223 378H94L34 438V620L94 680H273V599H128L123 594V572H223L283 512V438ZM189 459 194 464V486L189 491H123V464L128 459Z" glyph-name="uni2076" horiz-adv-x="320" unicode="&#8310;" /><glyph d="M290 680V622L178 378H83L185 599H121V558H31V680Z" glyph-name="uni2077" horiz-adv-x="320" unicode="&#8311;" /><glyph d="M37 438V511L62 536L47 551V620L107 680H213L273 620V551L258 536L283 511V438L223 378H97ZM131 491 126 486V464L131 459H189L194 464V486L189 491ZM179 599H141L136 594V577L141 572H179L184 577V594Z" glyph-name="uni2078" horiz-adv-x="320" unicode="&#8312;" /><glyph d="M94 680H223L283 620V438L223 378H39V459H189L194 464V481H94L34 541V620ZM128 599 123 594V567L128 562H194V594L189 599Z" glyph-name="uni2079" horiz-adv-x="320" unicode="&#8313;" /><glyph d="M290 568V490H203V403H125V490H38V568H125V655H203V568Z" glyph-name="uni207A" horiz-adv-x="320" unicode="&#8314;" /><glyph d="M290 490H38V568H290Z" glyph-name="uni207B" horiz-adv-x="320" unicode="&#8315;" /><glyph d="M290 540H38V618H290ZM290 440H38V518H290Z" glyph-name="uni207C" horiz-adv-x="320" unicode="&#8316;" /><glyph d="M215 358H109L47 420V639L109 700H215L125 610V448Z" glyph-name="uni207D" horiz-adv-x="240" unicode="&#8317;" /><glyph d="M25 700H131L193 638V419L131 358H25L115 448V610Z" glyph-name="uni207E" horiz-adv-x="240" unicode="&#8318;" /><glyph d="M95 0 35 60V242L95 302H233L293 242V60L233 0ZM129 81H199L204 86V216L199 221H129L124 216V86Z" glyph-name="uni2080" horiz-adv-x="320" unicode="&#8320;" /><glyph d="M208 302V81H276V0H44V81H118V221H44V302Z" glyph-name="uni2081" horiz-adv-x="320" unicode="&#8321;" /><glyph d="M44 302H212L272 242V179L171 81H283V0H34V55L183 198V216L178 221H44Z" glyph-name="uni2082" horiz-adv-x="320" unicode="&#8322;" /><glyph d="M34 81H189L194 86V108L189 113H87V194H179L184 199V216L179 221H44V302H213L273 242V173L258 158L283 133V60L223 0H34Z" glyph-name="uni2083" horiz-adv-x="320" unicode="&#8323;" /><glyph d="M256 302V123H293V42H256V0H167V42H24V110L156 302ZM167 123V185L125 123Z" glyph-name="uni2084" horiz-adv-x="320" unicode="&#8324;" /><glyph d="M49 113V302H267V221H139V194H217L277 134V60L217 0H39V81H183L188 86V108L183 113Z" glyph-name="uni2085" horiz-adv-x="320" unicode="&#8325;" /><glyph d="M223 0H94L34 60V242L94 302H273V221H128L123 216V194H223L283 134V60ZM189 81 194 86V108L189 113H123V86L128 81Z" glyph-name="uni2086" horiz-adv-x="320" unicode="&#8326;" /><glyph d="M290 302V244L178 0H83L185 221H121V180H31V302Z" glyph-name="uni2087" horiz-adv-x="320" unicode="&#8327;" /><glyph d="M37 60V133L62 158L47 173V242L107 302H213L273 242V173L258 158L283 133V60L223 0H97ZM131 113 126 108V86L131 81H189L194 86V108L189 113ZM179 221H141L136 216V199L141 194H179L184 199V216Z" glyph-name="uni2088" horiz-adv-x="320" unicode="&#8328;" /><glyph d="M94 302H223L283 242V60L223 0H39V81H189L194 86V103H94L34 163V242ZM128 221 123 216V189L128 184H194V216L189 221Z" glyph-name="uni2089" horiz-adv-x="320" unicode="&#8329;" /><glyph d="M290 190V112H203V25H125V112H38V190H125V277H203V190Z" glyph-name="uni208A" horiz-adv-x="320" unicode="&#8330;" /><glyph d="M290 112H38V190H290Z" glyph-name="uni208B" horiz-adv-x="320" unicode="&#8331;" /><glyph d="M290 162H38V240H290ZM290 62H38V140H290Z" glyph-name="uni208C" horiz-adv-x="320" unicode="&#8332;" /><glyph d="M215 -20H109L47 42V261L109 322H215L125 232V70Z" glyph-name="uni208D" horiz-adv-x="240" unicode="&#8333;" /><glyph d="M25 322H131L193 260V41L131 -20H25L115 70V232Z" glyph-name="uni208E" horiz-adv-x="240" unicode="&#8334;" /><glyph d="M208 680V459H276V378H44V459H118V599H44V680ZM186 0H89L614 680H711ZM514 81H669L674 86V108L669 113H567V194H659L664 199V216L659 221H524V302H693L753 242V173L738 158L763 133V60L703 0H514Z" glyph-name="uni2153" horiz-adv-x="800" unicode="&#8531;" /><glyph d="M44 680H212L272 620V557L171 459H283V378H34V433L183 576V594L178 599H44ZM186 0H89L614 680H711ZM514 81H669L674 86V108L669 113H567V194H659L664 199V216L659 221H524V302H693L753 242V173L738 158L763 133V60L703 0H514Z" glyph-name="uni2154" horiz-adv-x="800" unicode="&#8532;" /><glyph d="M208 680V459H276V378H44V459H118V599H44V680ZM186 0H89L614 680H711ZM529 113V302H747V221H619V194H697L757 134V60L697 0H519V81H663L668 86V108L663 113Z" glyph-name="uni2155" horiz-adv-x="800" unicode="&#8533;" /><glyph d="M44 680H212L272 620V557L171 459H283V378H34V433L183 576V594L178 599H44ZM186 0H89L614 680H711ZM529 113V302H747V221H619V194H697L757 134V60L697 0H519V81H663L668 86V108L663 113Z" glyph-name="uni2156" horiz-adv-x="800" unicode="&#8534;" /><glyph d="M34 459H189L194 464V486L189 491H87V572H179L184 577V594L179 599H44V680H213L273 620V551L258 536L283 511V438L223 378H34ZM186 0H89L614 680H711ZM529 113V302H747V221H619V194H697L757 134V60L697 0H519V81H663L668 86V108L663 113Z" glyph-name="uni2157" horiz-adv-x="800" unicode="&#8535;" /><glyph d="M256 680V501H293V420H256V378H167V420H24V488L156 680ZM167 501V563L125 501ZM186 0H89L614 680H711ZM529 113V302H747V221H619V194H697L757 134V60L697 0H519V81H663L668 86V108L663 113Z" glyph-name="uni2158" horiz-adv-x="800" unicode="&#8536;" /><glyph d="M208 680V459H276V378H44V459H118V599H44V680ZM186 0H89L614 680H711ZM703 0H574L514 60V242L574 302H753V221H608L603 216V194H703L763 134V60ZM669 81 674 86V108L669 113H603V86L608 81Z" glyph-name="uni2159" horiz-adv-x="800" unicode="&#8537;" /><glyph d="M49 491V680H267V599H139V572H217L277 512V438L217 378H39V459H183L188 464V486L183 491ZM186 0H89L614 680H711ZM703 0H574L514 60V242L574 302H753V221H608L603 216V194H703L763 134V60ZM669 81 674 86V108L669 113H603V86L608 81Z" glyph-name="uni215A" horiz-adv-x="800" unicode="&#8538;" /><glyph d="M208 680V459H276V378H44V459H118V599H44V680ZM186 0H89L614 680H711ZM517 60V133L542 158L527 173V242L587 302H693L753 242V173L738 158L763 133V60L703 0H577ZM611 113 606 108V86L611 81H669L674 86V108L669 113ZM659 221H621L616 216V199L621 194H659L664 199V216Z" glyph-name="uni215B" horiz-adv-x="800" unicode="&#8539;" /><glyph d="M34 459H189L194 464V486L189 491H87V572H179L184 577V594L179 599H44V680H213L273 620V551L258 536L283 511V438L223 378H34ZM186 0H89L614 680H711ZM517 60V133L542 158L527 173V242L587 302H693L753 242V173L738 158L763 133V60L703 0H577ZM611 113 606 108V86L611 81H669L674 86V108L669 113ZM659 221H621L616 216V199L621 194H659L664 199V216Z" glyph-name="uni215C" horiz-adv-x="800" unicode="&#8540;" /><glyph d="M49 491V680H267V599H139V572H217L277 512V438L217 378H39V459H183L188 464V486L183 491ZM186 0H89L614 680H711ZM517 60V133L542 158L527 173V242L587 302H693L753 242V173L738 158L763 133V60L703 0H577ZM611 113 606 108V86L611 81H669L674 86V108L669 113ZM659 221H621L616 216V199L621 194H659L664 199V216Z" glyph-name="uni215D" horiz-adv-x="800" unicode="&#8541;" /><glyph d="M290 680V622L178 378H83L185 599H121V558H31V680ZM186 0H89L614 680H711ZM517 60V133L542 158L527 173V242L587 302H693L753 242V173L738 158L763 133V60L703 0H577ZM611 113 606 108V86L611 81H669L674 86V108L669 113ZM659 221H621L616 216V199L621 194H659L664 199V216Z" glyph-name="uni215E" horiz-adv-x="800" unicode="&#8542;" /><glyph d="M208 680V459H276V378H44V459H118V599H44V680ZM186 0H89L614 680H711Z" glyph-name="uni215F" horiz-adv-x="800" unicode="&#8543;" /><glyph d="M60 199V643L97 680H541L665 556H271L746 81L659 -6L184 469V75Z" glyph-name="uni2196" horiz-adv-x="800" unicode="&#8598;" /><glyph d="M616 75V469L141 -6L54 81L529 556H135L259 680H703L740 643V199Z" glyph-name="uni2197" horiz-adv-x="800" unicode="&#8599;" /><glyph d="M740 481V37L703 0H259L135 124H529L54 599L141 686L616 211V605Z" glyph-name="uni2198" horiz-adv-x="800" unicode="&#8600;" /><glyph d="M184 605V211L659 686L746 599L271 124H665L541 0H97L60 37V481Z" glyph-name="uni2199" horiz-adv-x="800" unicode="&#8601;" /><glyph d="M531 -160H396L352 -116V-48L383 -16L367 0V42L169 -10L46 113V500H183V162L226 119L367 156V500H504V0L453 -51V-65L464 -76H531Z" glyph-name="uogonek" horiz-adv-x="555" unicode="&#371;" /><glyph d="M407 47 165 -10 51 104V590H188V152L222 118L407 161V590H544V0L493 -51V-65L504 -76H571V-160H436L392 -116V-48L423 -16L407 0Z" glyph-name="uogonek.smcp" horiz-adv-x="600" unicode="&#58139;" /><glyph d="M367 500H504V0H367V42L169 -10L46 113V500H183V162L226 119L367 156ZM330 534H220L166 588V690L220 744H330L384 690V588ZM294 669H256L241 654V624L256 609H294L309 624V654Z" glyph-name="uring" horiz-adv-x="555" unicode="&#367;" /><glyph d="M407 47 165 -10 51 104V590H188V152L222 118L407 161V590H544V0H407ZM354 515H241L192 564V669L241 718H354L403 669V564ZM318 643H277L267 633V600L277 590H318L328 600V633Z" glyph-name="uring.smcp" horiz-adv-x="600" unicode="&#58131;" /><glyph d="M367 500H504V0H367V42L169 -10L46 113V500H183V162L226 119L367 156ZM454 606 399 551 215 571 203 559V534H96V628L151 683L335 663L347 675V700H454Z" glyph-name="utilde" horiz-adv-x="555" unicode="&#361;" /><glyph d="M407 47 165 -10 51 104V590H188V152L222 118L407 161V590H544V0H407ZM477 664 432 619 232 635 225 628V618H119V672L164 717L364 701L371 708V718H477Z" glyph-name="utilde.smcp" horiz-adv-x="600" unicode="&#58130;" /><glyph d="M407 47 165 -10 51 104V590H188V152L222 118L407 161V590H544V0H407ZM232 466 206 492V564L232 590H263L289 564V492L263 466ZM333 466 307 492V564L333 590H363L389 564V492L363 466Z" glyph-name="uumlaut.smcp" horiz-adv-x="600" unicode="&#61825;" /><glyph d="M375 0H170L17 500H156L270 124H275L389 500H528Z" glyph-name="v" horiz-adv-x="545" unicode="v" /><glyph d="M413 0H207L14 590H156L307 124H313L464 590H606Z" glyph-name="v.smcp" horiz-adv-x="620" unicode="&#57878;" /><glyph d="M666 0H459L389 365H385L315 0H108L28 500H170L219 136H223L294 500H480L551 136H555L604 500H746Z" glyph-name="w" horiz-adv-x="774" unicode="w" /><glyph d="M430 455 341 0H126L33 590H172L237 136H241L336 590H527L622 136H626L692 590H831L738 0H523L434 455Z" glyph-name="w.smcp" horiz-adv-x="864" unicode="&#57879;" /><glyph d="M666 0H459L389 365H385L315 0H108L28 500H170L219 136H223L294 500H480L551 136H555L604 500H746ZM321 534 441 700H578L456 534Z" glyph-name="wacute" horiz-adv-x="774" unicode="&#7811;" /><glyph d="M430 455 341 0H126L33 590H172L237 136H241L336 590H527L622 136H626L692 590H831L738 0H523L434 455ZM360 618 460 718H611L511 618Z" glyph-name="wacute.smcp" horiz-adv-x="864" unicode="&#58141;" /><glyph d="M666 0H459L389 365H385L315 0H108L28 500H170L219 136H223L294 500H480L551 136H555L604 500H746ZM191 534 306 700H468L583 534H449L387 621L325 534Z" glyph-name="wcircumflex" horiz-adv-x="774" unicode="&#373;" /><glyph d="M430 455 341 0H126L33 590H172L237 136H241L336 590H527L622 136H626L692 590H831L738 0H523L434 455ZM240 618 340 718H525L625 618H474L432 659L391 618Z" glyph-name="wcircumflex.smcp" horiz-adv-x="864" unicode="&#58143;" /><glyph d="M666 0H459L389 365H385L315 0H108L28 500H170L219 136H223L294 500H480L551 136H555L604 500H746ZM445 540 410 575V659L445 694H529L564 659V575L529 540ZM245 540 210 575V659L245 694H329L364 659V575L329 540Z" glyph-name="wdieresis" horiz-adv-x="774" unicode="&#7813;" /><glyph d="M430 455 341 0H126L33 590H172L237 136H241L336 590H527L622 136H626L692 590H831L738 0H523L434 455ZM481 618 455 644V692L481 718H583L609 692V644L583 618ZM281 618 255 644V692L281 718H383L409 692V644L383 618Z" glyph-name="wdieresis.smcp" horiz-adv-x="864" unicode="&#58128;" /><glyph d="M666 0H459L389 365H385L315 0H108L28 500H170L219 136H223L294 500H480L551 136H555L604 500H746ZM196 700H333L453 534H318Z" glyph-name="wgrave" horiz-adv-x="774" unicode="&#7809;" /><glyph d="M430 455 341 0H126L33 590H172L237 136H241L336 590H527L622 136H626L692 590H831L738 0H523L434 455ZM253 718H404L504 618H353Z" glyph-name="wgrave.smcp" horiz-adv-x="864" unicode="&#58142;" /><glyph d="M250 0 50 200V480L250 680H530L730 480V200L530 0ZM301 556 174 429V251L301 124H479L606 251V429L479 556Z" glyph-name="whitecircle" horiz-adv-x="780" unicode="&#9675;" /><glyph d="M50 500H550V0H50ZM174 124H426V376H174Z" glyph-name="whitesmallsquare" horiz-adv-x="600" unicode="&#9643;" /><glyph d="M50 680H730V0H50ZM174 124H606V556H174Z" glyph-name="whitesquare" horiz-adv-x="780" unicode="&#9633;" /><glyph d="M278 153 184 0H21L190 257L36 500H198L278 361L358 500H520L366 257L535 0H372Z" glyph-name="x" horiz-adv-x="556" unicode="x" /><glyph d="M26 0 248 306 43 590H209L331 421L454 590H620L414 306L636 0H470L331 192L192 0Z" glyph-name="x.smcp" horiz-adv-x="663" unicode="&#57880;" /><glyph d="M359 54 280 -160H129L206 13L12 500H159L274 174H278L386 500H533Z" glyph-name="y" horiz-adv-x="545" unicode="y" /><glyph d="M391 -160H76V-36H329L367 2V62L169 10L46 133V500H183V182L226 139L367 176V500H504V-47Z" glyph-name="y.school" horiz-adv-x="555" unicode="&#57707;" /><glyph d="M379 181V0H235V181L-4 590H151L305 311H309L463 590H617Z" glyph-name="y.smcp" horiz-adv-x="613" unicode="&#57881;" /><glyph d="M359 54 280 -160H129L206 13L12 500H159L274 174H278L386 500H533ZM206 534 326 700H463L341 534Z" glyph-name="yacute" horiz-adv-x="545" unicode="&#253;" /><glyph d="M391 -160H76V-36H329L367 2V62L169 10L46 133V500H183V182L226 139L367 176V500H504V-47ZM211 534 331 700H468L346 534Z" glyph-name="yacute.school" horiz-adv-x="555" unicode="&#57709;" /><glyph d="M379 181V0H235V181L-4 590H151L305 311H309L463 590H617ZM235 618 335 718H486L386 618Z" glyph-name="yacute.smcp" horiz-adv-x="613" unicode="&#58145;" /><glyph d="M359 54 280 -160H129L206 13L12 500H159L274 174H278L386 500H533ZM76 534 191 700H353L468 534H334L272 621L210 534Z" glyph-name="ycircumflex" horiz-adv-x="545" unicode="&#375;" /><glyph d="M391 -160H76V-36H329L367 2V62L169 10L46 133V500H183V182L226 139L367 176V500H504V-47ZM81 534 196 700H357L472 534H338L276 620L215 534Z" glyph-name="ycircumflex.school" horiz-adv-x="555" unicode="&#57710;" /><glyph d="M379 181V0H235V181L-4 590H151L305 311H309L463 590H617ZM115 618 215 718H399L499 618H348L307 659L266 618Z" glyph-name="ycircumflex.smcp" horiz-adv-x="613" unicode="&#58147;" /><glyph d="M359 54 280 -160H129L206 13L12 500H159L274 174H278L386 500H533ZM330 540 295 575V659L330 694H414L449 659V575L414 540ZM130 540 95 575V659L130 694H214L249 659V575L214 540Z" glyph-name="ydieresis" horiz-adv-x="545" unicode="&#255;" /><glyph d="M391 -160H76V-36H329L367 2V62L169 10L46 133V500H183V182L226 139L367 176V500H504V-47ZM335 540 300 575V659L335 694H419L454 659V575L419 540ZM135 540 100 575V659L135 694H219L254 659V575L219 540Z" glyph-name="ydieresis.school" horiz-adv-x="555" unicode="&#57711;" /><glyph d="M379 181V0H235V181L-4 590H151L305 311H309L463 590H617ZM356 618 330 644V692L356 718H458L484 692V644L458 618ZM156 618 130 644V692L156 718H258L284 692V644L258 618Z" glyph-name="ydieresis.smcp" horiz-adv-x="613" unicode="&#58148;" /><glyph d="M430 401H517V324H395L374 276H517V199H352V0H208V199H43V276H186L164 324H43V401H130L5 680H152L278 382H282L408 680H555Z" glyph-name="yen" horiz-adv-x="561" unicode="&#165;" /><glyph d="M517 108H352V0H208V108H43V185H176L162 219H43V296H131L10 593H164L278 296H282L396 593H550L429 296H517V219H397L383 185H517Z" glyph-name="yen.smcp" horiz-adv-x="560" unicode="&#61841;" /><glyph d="M36 376V500H476V367L202 124H476V0H36V133L310 376Z" glyph-name="z" horiz-adv-x="513" unicode="z" /><glyph d="M46 466V590H541V453L214 124H541V0H46V137L373 466Z" glyph-name="z.smcp" horiz-adv-x="588" unicode="&#57882;" /><glyph d="M36 376V500H476V367L202 124H476V0H36V133L310 376ZM190 534 310 700H447L325 534Z" glyph-name="zacute" horiz-adv-x="513" unicode="&#378;" /><glyph d="M46 466V590H541V453L214 124H541V0H46V137L373 466ZM222 618 322 718H473L373 618Z" glyph-name="zacute.smcp" horiz-adv-x="588" unicode="&#58152;" /><glyph d="M36 376V500H476V367L202 124H476V0H36V133L310 376ZM256 613 318 700H452L337 534H175L60 700H194Z" glyph-name="zcaron" horiz-adv-x="513" unicode="&#382;" /><glyph d="M46 466V590H541V453L214 124H541V0H46V137L373 466ZM490 718 390 618H206L106 718H257L298 677L339 718Z" glyph-name="zcaron.smcp" horiz-adv-x="588" unicode="&#58153;" /><glyph d="M36 376V500H476V367L202 124H476V0H36V133L310 376ZM214 540 179 575V659L214 694H298L333 659V575L298 540Z" glyph-name="zdotaccent" horiz-adv-x="513" unicode="&#380;" /><glyph d="M46 466V590H541V453L214 124H541V0H46V137L373 466ZM247 618 221 644V692L247 718H349L375 692V644L349 618Z" glyph-name="zdotaccent.smcp" horiz-adv-x="588" unicode="&#58154;" /><glyph d="M156 680H404L515 569V111L404 0H156L45 111V569ZM346 556H214L182 524V156L214 124H346L378 156V524Z" glyph-name="zero" horiz-adv-x="560" unicode="0" /><glyph d="M95 -160 35 -100V82L95 142H233L293 82V-100L233 -160ZM129 -79H199L204 -74V56L199 61H129L124 56V-74Z" glyph-name="zero.inf" horiz-adv-x="320" unicode="&#58737;" /><glyph d="M156 590H404L515 479V111L404 0H156L45 111V479ZM346 466H214L182 434V156L214 124H346L378 156V434Z" glyph-name="zero.smcpT" horiz-adv-x="560" unicode="&#61955;" /><glyph glyph-name="zerowidthspace" horiz-adv-x="0" unicode="&#8203;" /></font>
</defs>
</svg>
