<?xml version="1.0" standalone="no"?>
<!DOCTYPE svg PUBLIC "-//W3C//DTD SVG 1.1//EN" "http://www.w3.org/Graphics/SVG/1.1/DTD/svg11.dtd" >
<svg xmlns="http://www.w3.org/2000/svg">
<metadata></metadata>
<defs>
<font id="helveticarounded_lt_std_bdcIt" horiz-adv-x="491" >
<font-face units-per-em="2048" ascent="1501" descent="-547" />
<missing-glyph horiz-adv-x="500" />
<glyph unicode="&#xfb01;" horiz-adv-x="1024" d="M164 123l170 799h-27q-57 0 -79.5 21t-12.5 71q10 51 42 72.5t89 21.5h27l30 147q30 137 107 191.5t221 54.5q62 0 87 -26t13 -84q-17 -83 -94 -86q-44 -1 -63.5 -22.5t-28.5 -72.5l-22 -102h39q57 0 78.5 -21.5t11.5 -72.5q-10 -50 -41 -71t-88 -21h-39l-170 -799 q-17 -75 -58 -112.5t-100 -37.5t-84 38t-8 112zM680 123l182 862q17 75 58 112.5t100 37.5t84 -38t8 -112l-182 -862q-17 -75 -58 -112.5t-100 -37.5t-84 38t-8 112zM926 1366q12 60 63 101.5t111 41.5t92 -41.5t20 -101.5q-14 -60 -64 -101.5t-110 -41.5t-92.5 41.5 t-19.5 101.5z" />
<glyph unicode="&#xfb02;" horiz-adv-x="1024" d="M164 123l170 799h-27q-57 0 -79.5 21t-12.5 71q10 51 42 72.5t89 21.5h27l30 147q30 137 107 191.5t221 54.5q62 0 87 -26t13 -84q-17 -83 -94 -86q-44 -1 -63.5 -22.5t-28.5 -72.5l-22 -102h39q57 0 78.5 -21.5t11.5 -72.5q-10 -50 -41 -71t-88 -21h-39l-170 -799 q-17 -75 -58 -112.5t-100 -37.5t-84 38t-8 112zM680 123l260 1229q34 149 158 149q59 0 84 -37.5t8 -111.5l-260 -1229q-17 -75 -58 -112.5t-100 -37.5t-84 38t-8 112z" />
<glyph horiz-adv-x="2048" />
<glyph horiz-adv-x="2048" />
<glyph unicode="&#xd;" horiz-adv-x="2048" />
<glyph unicode=" " />
<glyph unicode="!" horiz-adv-x="569" d="M156 129q13 64 69 110t121 46q64 0 99.5 -45.5t21.5 -110.5t-69 -110.5t-119 -45.5t-100.5 45.5t-22.5 110.5zM293 465l53 434q4 34 23 143l67 316q14 67 56.5 105t111.5 38q68 0 94.5 -38t12.5 -105l-68 -316q-8 -44 -39 -143l-131 -434q-16 -59 -40 -84t-73 -25 q-48 0 -60.5 24.5t-6.5 84.5z" />
<glyph unicode="&#x22;" horiz-adv-x="872" d="M346 1071l66 309q12 56 54.5 92.5t90.5 36.5t74 -36.5t14 -92.5l-65 -309q-12 -56 -54 -92.5t-90 -36.5t-75 36.5t-15 92.5zM748 1071l65 309q12 56 54.5 92.5t90.5 36.5t74.5 -36.5t14.5 -92.5l-66 -309q-12 -56 -53.5 -92.5t-89.5 -36.5t-75 36.5t-15 92.5z" />
<glyph unicode="#" horiz-adv-x="983" d="M106 502q9 40 37 69t74 29h105l86 248h-80q-46 0 -62.5 29t-7.5 69t37 69t74 29h104l111 322q17 51 47.5 80t85.5 29q36 0 55.5 -25t11.5 -61q-4 -15 -22 -68l-96 -277h176l112 322q33 109 133 109q35 0 54.5 -25.5t11.5 -60.5q-1 -5 -23 -68l-98 -277h80q46 0 63 -29 t9 -69t-37.5 -69t-75.5 -29h-104l-86 -248h80q46 0 62 -29t7 -69q-9 -41 -36.5 -70t-73.5 -29h-105l-108 -321q-20 -52 -50.5 -80.5t-85.5 -28.5q-36 0 -55.5 25t-11.5 61q4 15 22 68l97 276h-177l-110 -321q-17 -51 -47.5 -80t-87.5 -29q-35 0 -54.5 25.5t-11.5 60.5 q1 5 23 68l98 276h-80q-46 0 -62.5 29.5t-7.5 69.5zM514 600h176l84 248h-176z" />
<glyph unicode="$" horiz-adv-x="983" d="M141 338q13 60 50.5 99.5t93.5 39.5q54 0 75.5 -32.5t14.5 -102.5q-16 -161 102 -172l94 446l-112 84q-197 144 -144 390q35 165 153.5 273t285.5 112l12 53q10 55 57 55t37 -55l-12 -53q143 0 223 -86.5t51 -223.5q-11 -51 -49 -84.5t-88 -33.5q-60 0 -78 29.5t-18 90.5 q0 56 -23 83.5t-59 27.5l-86 -404l104 -69q110 -73 156.5 -167.5t17.5 -231.5q-41 -197 -164 -310.5t-307 -122.5l-32 -157q-5 -24 -20.5 -39t-39.5 -15q-45 0 -35 54l33 157q-160 0 -242.5 104.5t-50.5 260.5zM555 1116q-12 -56 4 -93.5t78 -96.5l76 352 q-63 -10 -103.5 -53t-54.5 -109zM571 170q60 9 107 63.5t61 124.5q17 73 -4 123t-80 86z" />
<glyph unicode="%" horiz-adv-x="1781" d="M310 904.5q-8 82.5 14 197.5q40 184 130 278.5t265 94.5q119 0 181 -46.5t69.5 -129t-15.5 -197.5q-38 -183 -128 -278t-265 -95q-119 0 -181 46.5t-70 129zM492 -14q7 33 24 59l924 1428q34 53 98 53q34 0 49 -19t10 -45q-7 -33 -24 -59l-926 -1428q-34 -53 -98 -53 q-35 0 -49.5 19.5t-7.5 44.5zM520 935q16 -50 74 -50t93 48t56 146l15 68q8 46 9.5 84.5t-18.5 63t-63 24.5q-111 0 -145 -172l-15 -68q-22 -94 -6 -144zM1119.5 148.5q-7.5 82.5 15.5 197.5q40 184 130 278.5t265 94.5q119 0 181 -46.5t69.5 -129t-15.5 -197.5 q-40 -184 -130 -278.5t-265 -94.5q-119 0 -181 46.5t-69.5 129zM1330 179.5q15 -50.5 73 -50.5t94 49t57 146l15 67q8 46 9 84.5t-19.5 63t-63.5 24.5q-109 0 -143 -172l-15 -67q-22 -94 -7 -144.5z" />
<glyph unicode="&#x26;" horiz-adv-x="1290" d="M215 403q31 150 126.5 263.5t252.5 203.5q-75 186 -53 297q30 141 141.5 224.5t259.5 83.5q101 0 165 -40.5t83.5 -102.5t3.5 -136q-23 -106 -101.5 -203.5t-197.5 -167.5l115 -309q29 51 86 195q21 57 51.5 80.5t79.5 23.5q56 0 74.5 -34.5t5.5 -92.5q-14 -75 -79 -195 t-132 -204l37 -94q26 -68 18 -111q-12 -53 -57.5 -86t-100.5 -33q-33 0 -54 17t-36 53l-26 53q-144 -115 -336 -115q-194 0 -280.5 118.5t-45.5 311.5zM471 434q-22 -102 23 -173t127 -71q53 0 95.5 18t94.5 64l-145 402q-73 -46 -127.5 -112.5t-67.5 -127.5zM782 1208 q-11 -58 6 -102l35 -94l33 24q58 44 84.5 78t36.5 84q9 43 -12 71.5t-62 28.5q-43 0 -77.5 -26t-43.5 -64z" />
<glyph unicode="'" horiz-adv-x="454" d="M338 1071l65 309q12 56 55 92.5t91 36.5t74 -36.5t14 -92.5l-66 -309q-12 -56 -53.5 -92.5t-89.5 -36.5t-75 36.5t-15 92.5z" />
<glyph unicode="(" horiz-adv-x="606" d="M183.5 241.5q5.5 158.5 41.5 325.5q44 207 127 398t169 313.5t163.5 195t120.5 72.5q89 0 69 -90q-3 -17 -33 -62t-74.5 -116t-93.5 -164.5t-100.5 -238.5t-85.5 -308q-35 -163 -45.5 -307.5t-1 -238.5t24 -165t25.5 -116t8 -62q-20 -90 -109 -90q-34 0 -72 44.5 t-70 132.5t-50.5 203t-13 273.5z" />
<glyph unicode=")" horiz-adv-x="606" d="M-27 -322q3 17 33 62t74 116t93 164.5t100.5 238.5t86.5 308q34 163 44.5 307.5t1.5 238.5t-23 165t-25 116t-8 62q20 90 107 90q34 0 72 -44.5t70.5 -132.5t51.5 -203t13.5 -273.5t-41.5 -325.5t-97.5 -325.5t-129.5 -273.5t-138 -203t-126.5 -132.5t-90.5 -44.5 q-88 0 -68 90z" />
<glyph unicode="*" horiz-adv-x="757" d="M332 1270q34 70 114 41l129 -45l33 147q17 88 90 88q71 0 54 -88l-33 -147h2l149 45q46 14 70 2.5t27 -43.5q10 -67 -82 -96l-150 -46l62 -118q39 -70 -31 -113q-65 -43 -104 29l-62 118l-111 -118q-69 -72 -116 -29q-49 43 18 113l111 118l-129 48q-79 26 -41 94z" />
<glyph unicode="+" horiz-adv-x="1228" d="M158 580q9 45 56 76.5t110 31.5h327l70 328q13 62 53 102.5t86 40.5t68.5 -40.5t9.5 -102.5l-70 -328h328q63 0 96.5 -31.5t24.5 -76.5t-56 -77t-110 -32h-328l-69 -328q-13 -62 -53.5 -102.5t-86.5 -40.5t-68 40.5t-9 102.5l69 328h-327q-63 0 -96.5 32t-24.5 77z" />
<glyph unicode="," d="M33 -231q4 23 17.5 34.5t47.5 22.5q45 14 98.5 56.5t75.5 92.5q-18 -2 -43 -2q-52 0 -83 26.5t-37.5 59t0.5 64.5q14 67 70.5 114.5t127.5 47.5q78 0 107 -60t14 -137q-17 -79 -58 -150t-91.5 -118t-104 -75t-96.5 -28q-24 0 -37 16t-8 36z" />
<glyph unicode="-" horiz-adv-x="681" d="M203 580q11 50 50 83t101 33h269q63 0 88 -33.5t14 -82.5q-10 -49 -50 -83t-102 -34h-268q-62 0 -87 33.5t-15 83.5z" />
<glyph unicode="." d="M117 129q13 64 69 110t121 46q64 0 99.5 -45.5t21.5 -110.5t-69 -110.5t-119 -45.5t-100.5 45.5t-22.5 110.5z" />
<glyph unicode="/" horiz-adv-x="681" d="M2 39q11 45 27 72l747 1308q23 38 60 64t75 26q40 0 64.5 -20t17.5 -53q-11 -48 -26 -72l-748 -1309q-23 -38 -60 -64t-75 -26q-40 0 -64.5 20.5t-17.5 53.5z" />
<glyph unicode="0" horiz-adv-x="983" d="M152.5 273q1.5 54 8.5 99.5t19 102.5l107 496q11 57 23.5 103t34 100.5t47.5 95.5t65.5 81t88 66t114.5 42t145 16t138 -16t96.5 -42t60 -66t31 -81t7 -95.5t-8.5 -100t-19 -103.5l-106 -496q-11 -57 -23.5 -103t-34 -99.5t-48 -94.5t-66 -81t-88 -66t-114.5 -42 t-145 -16t-138 16t-96.5 42t-60 66t-31 81t-7 95zM431 233.5q17 -63.5 97 -63.5t121.5 60.5t71.5 207.5l123 572q33 142 17 205t-97 63t-122 -60t-73 -208l-123 -572q-32 -141 -15 -204.5z" />
<glyph unicode="1" horiz-adv-x="681" d="M209 1118q18 77 106 92q118 20 187.5 59.5t122.5 112.5q53 71 78 88t77 17q37 0 57 -27.5t9 -83.5l-268 -1261q-13 -63 -62 -102.5t-106 -39.5t-88.5 39.5t-18.5 102.5l195 919h-191q-53 0 -80 20t-18 64z" />
<glyph unicode="2" horiz-adv-x="983" d="M98 117q10 45 33.5 99.5t66.5 125.5t118 154t171 163l117 97q128 105 179 173.5t69 153.5q19 86 -5 135.5t-91 49.5q-73 0 -116.5 -51t-72.5 -150q-18 -59 -58.5 -88t-90.5 -29q-124 0 -94 152q36 167 160.5 270t303.5 103q205 0 292 -100.5t46 -295.5 q-47 -217 -264 -395l-207 -170q-99 -83 -156.5 -148.5t-90.5 -132.5h403q73 0 104.5 -26t18.5 -90t-55.5 -90.5t-116.5 -26.5h-567q-62 0 -85.5 28t-11.5 89z" />
<glyph unicode="3" horiz-adv-x="983" d="M132.5 288.5q2.5 30.5 8.5 59.5q15 76 56.5 120t103.5 44q61 0 89 -38.5t16 -115.5q-27 -188 112 -188q146 0 201 254q13 63 15 107.5t-4.5 72.5t-25.5 44.5t-41.5 23.5t-58.5 10q-80 9 -104 29.5t-15 66.5q9 45 38.5 65.5t109.5 33.5q91 15 134 62.5t69 166.5 q34 172 -93 172q-54 0 -93 -32.5t-68 -104.5q-45 -125 -160 -125q-55 0 -78 34.5t-12 90.5q32 149 147.5 241.5t300.5 92.5q108 0 182 -29t109.5 -80t46 -120t-9.5 -150q-55 -244 -234 -303q102 -41 128 -132.5t-9 -234.5q-96 -453 -522 -453q-72 0 -129 14.5t-93.5 38 t-62 56.5t-37 66.5t-15.5 71.5t-1.5 68.5z" />
<glyph unicode="4" horiz-adv-x="983" d="M111 408q15 62 71 145l578 833q44 62 81 81.5t107 19.5q71 0 97.5 -36t15.5 -93l-180 -846h47q44 0 72.5 -26.5t17.5 -82.5q-12 -56 -51.5 -82t-83.5 -26h-47l-37 -172q-17 -75 -58 -112.5t-100 -37.5t-84 38t-8 112l37 172h-348q-75 0 -107 26t-20 87zM354 512h277 l127 592h-4z" />
<glyph unicode="5" horiz-adv-x="983" d="M142.5 256.5q1.5 40.5 9.5 79.5q13 69 53 114.5t106 45.5t91.5 -37t17.5 -97q-15 -93 6.5 -142.5t91.5 -49.5q86 0 131 71t80 232q39 179 17.5 252.5t-111.5 73.5q-35 0 -63.5 -15t-48.5 -36.5t-41 -43t-53.5 -36.5t-74.5 -15q-57 0 -78.5 35.5t-11.5 85.5q2 10 9.5 35 t9.5 33l135 504q10 45 37.5 73.5t72.5 28.5h498q74 0 105.5 -26.5t17.5 -90.5q-13 -64 -55.5 -90.5t-116.5 -26.5h-375l-82 -296q96 77 236 77q52 0 94.5 -9.5t79 -31t60 -59t36 -89.5t9.5 -126.5t-23 -167.5q-21 -99 -47.5 -175t-69.5 -147t-99 -116.5t-137.5 -73 t-183.5 -27.5q-101 0 -171 28t-102.5 68.5t-46.5 93.5t-12.5 93.5z" />
<glyph unicode="6" horiz-adv-x="983" d="M163.5 341q5.5 75 16.5 144t31 164l35 156q27 131 58.5 229.5t78.5 184.5t106 140.5t140.5 85t183.5 30.5q176 0 254.5 -70t56.5 -174q-12 -54 -52 -86.5t-95 -32.5q-44 0 -64 16.5t-39 69.5q-19 51 -36 65.5t-60 14.5q-85 0 -137.5 -74.5t-83.5 -216.5l-16 -84 q102 82 231 82q345 0 248 -463q-20 -94 -45.5 -169.5t-68.5 -148.5t-98.5 -122t-136 -79t-179.5 -30q-81 0 -140.5 17.5t-97.5 46t-59.5 77.5t-29 100.5t-2 126.5zM429 249.5q15 -79.5 99 -79.5t129 73t80 234q16 78 21.5 130t-1.5 92.5t-31.5 59.5t-68.5 19 q-84 0 -128.5 -71.5t-77.5 -229.5q-37 -148 -22 -227.5z" />
<glyph unicode="7" horiz-adv-x="909" d="M274 115q31 146 220 495.5t380 591.5h-468q-62 0 -87.5 39.5t-17.5 81.5q9 44 51 84.5t105 40.5h628q68 0 95 -21t16 -81q-10 -40 -121 -191q-144 -199 -299 -501t-227 -539q-21 -66 -67.5 -104t-112.5 -38q-64 0 -86 38.5t-9 103.5z" />
<glyph unicode="8" horiz-adv-x="983" d="M141.5 284q3.5 57 18.5 126q59 290 266 378q-79 44 -102 119.5t2 175.5q41 187 161.5 289.5t317.5 102.5t274.5 -102.5t36.5 -289.5q-23 -106 -75 -178.5t-148 -116.5q64 -33 94.5 -93t28.5 -130.5t-17 -154.5q-15 -69 -36 -125.5t-61.5 -117t-94 -101t-136.5 -67 t-186 -26.5t-175 26.5t-107.5 67t-50 100.5t-11 117zM426 377q-45 -207 102 -207q43 0 76.5 16.5t55 47.5t34.5 65t23 78l22 108q8 36 9 68.5t-6 66t-33 53t-70 19.5t-78.5 -19.5t-56.5 -53t-34.5 -66t-20.5 -68.5zM577.5 1011.5q-1.5 -30.5 5.5 -60.5t31.5 -46t65.5 -16 t72.5 16t51 45.5t31 60.5t19.5 72q9 40 10.5 71t-5 61t-30.5 46.5t-65 16.5q-67 0 -111 -51.5t-65 -143.5q-9 -41 -10.5 -71.5z" />
<glyph unicode="9" horiz-adv-x="983" d="M168 217q11 54 50.5 86.5t94.5 32.5q44 0 64 -16.5t39 -69.5q19 -50 36.5 -65t61.5 -15q85 0 136.5 74t82.5 217l19 84q-105 -82 -234 -82q-345 0 -248 463q20 94 46 169.5t69 148.5t98.5 122t136 79t179.5 30q63 0 113 -10.5t86.5 -28.5t62 -48t41 -63t21.5 -80t6 -93 t-7.5 -107t-17.5 -117t-25 -129l-32 -156q-28 -131 -60 -229.5t-79 -184.5t-106.5 -140.5t-141 -85t-183.5 -30.5q-177 0 -254.5 70t-54.5 174zM533.5 841q-5.5 -52 1.5 -92.5t31.5 -59.5t68.5 -19q84 0 129 71.5t78 229.5q17 79 22 132t-1 94.5t-30.5 61t-68.5 19.5 q-84 0 -130 -74t-79 -233q-16 -78 -21.5 -130z" />
<glyph unicode=":" d="M117 129q13 64 69 110t121 46q64 0 99.5 -45.5t21.5 -110.5t-69 -110.5t-119 -45.5t-100.5 45.5t-22.5 110.5zM293 952q14 65 69 110.5t119 45.5t100.5 -45.5t22.5 -110.5q-13 -64 -68 -109.5t-120 -45.5t-100.5 45.5t-22.5 109.5z" />
<glyph unicode=";" d="M33 -231q4 23 17.5 34.5t47.5 22.5q45 14 98.5 56.5t75.5 92.5q-18 -2 -43 -2q-52 0 -83 26.5t-37.5 59t0.5 64.5q14 67 70.5 114.5t127.5 47.5q78 0 107 -60t14 -137q-17 -79 -58 -150t-91.5 -118t-104 -75t-96.5 -28q-24 0 -37 16t-8 36zM293 952q14 65 69 110.5 t119 45.5t100.5 -45.5t22.5 -110.5q-13 -64 -68 -109.5t-120 -45.5t-100.5 45.5t-22.5 109.5z" />
<glyph unicode="&#x3c;" horiz-adv-x="1228" d="M170 580q7 37 35.5 68.5t64.5 47.5l916 383q66 29 119 29q46 0 73.5 -25.5t22.5 -52.5q-7 -36 -33 -66t-90 -55l-821 -329l682 -330q52 -25 64.5 -54.5t4.5 -66.5q-5 -27 -43.5 -52.5t-85.5 -25.5q-51 0 -106 29l-752 383q-30 15 -44 47t-7 70z" />
<glyph unicode="=" horiz-adv-x="1228" d="M106 338q9 45 56 76.5t110 31.5h873q63 0 96.5 -31.5t24.5 -76.5t-56 -77t-110 -32h-873q-63 0 -96.5 32t-24.5 77zM209 821q9 45 56 77t110 32h872q63 0 96.5 -32t24.5 -77t-56 -76.5t-110 -31.5h-872q-63 0 -96.5 31.5t-24.5 76.5z" />
<glyph unicode="&#x3e;" horiz-adv-x="1228" d="M74 129q7 36 33 66t90 55l821 330l-682 329q-37 17 -55 39t-18 41.5t3 40.5q5 27 43.5 52.5t85.5 25.5q55 0 107 -29l751 -383q30 -15 44.5 -47t7.5 -69t-36 -69t-65 -48l-915 -383q-64 -29 -119 -29q-46 0 -73.5 25.5t-22.5 52.5z" />
<glyph unicode="?" horiz-adv-x="985" d="M281 129q13 64 69 110t121 46q64 0 99.5 -45.5t21.5 -110.5q-13 -64 -68.5 -110t-120.5 -46q-64 0 -100 45.5t-22 110.5zM354 1171q30 144 146.5 237t283.5 93q197 0 277.5 -96.5t40.5 -286.5q-21 -99 -75.5 -179t-152.5 -167l-73 -65q-83 -74 -117 -121t-59 -123 q-14 -47 -50.5 -77t-89.5 -30q-51 0 -76.5 34.5t-13.5 94.5q16 74 63.5 154.5t121.5 148.5l92 84q147 137 172 265q14 69 -9.5 113t-84.5 44q-48 0 -86.5 -30t-57.5 -82q-26 -75 -60.5 -105t-94.5 -30q-56 0 -82.5 33.5t-14.5 90.5z" />
<glyph unicode="@" horiz-adv-x="1638" d="M202.5 424.5q-36.5 141.5 0.5 310.5q46 217 193 395t353.5 278.5t426.5 100.5q150 0 274.5 -44.5t208.5 -125t117 -201t2 -264.5q-23 -111 -71.5 -203.5t-108.5 -152.5t-125 -104.5t-129.5 -68t-113.5 -34t-85 -10.5q-125 0 -125 88h-4q-98 -88 -248 -88 q-127 0 -193.5 99.5t-27.5 283.5q24 113 103.5 218t188.5 170t214 65q90 0 141.5 -30.5t89.5 -98.5l14 36q33 76 111 76q40 0 62.5 -24t13.5 -66q-2 -10 -21 -57l-141 -340q-22 -55 -31 -92q-7 -39 33 -39q72 0 146 80t108 235q51 244 -72.5 375t-378.5 131 q-154 0 -300.5 -77.5t-251.5 -213t-140 -297.5q-29 -139 -7 -247.5t85.5 -183t162 -113.5t222.5 -39q89 0 164 13.5t122 32t82.5 37.5t62 32.5t44.5 13.5q34 0 53.5 -21t12.5 -53q-5 -28 -57.5 -68.5t-130 -79.5t-185.5 -66.5t-209 -27.5q-167 0 -305 57t-226 159 t-124.5 243.5zM782 690q-18 -78 7 -125t98 -47q105 0 178 63t94 158q16 74 -16 119t-109 45q-87 0 -160.5 -64t-91.5 -149z" />
<glyph unicode="A" horiz-adv-x="1062" d="M47 92q6 38 39 113l498 1104q35 79 65.5 117.5t76.5 56.5t124 18q104 0 142.5 -40t41.5 -152l27 -1096q0 -98 -4 -113q-13 -64 -59 -95.5t-103 -31.5q-75 1 -103 39q-25 35 -24 121v19l2 217h-338l-110 -267q-30 -70 -68.5 -99.5t-103.5 -29.5q-61 0 -88 32 q-19 22 -19 55q0 15 4 32zM524 586h250l8 612h-4z" />
<glyph unicode="B" horiz-adv-x="1062" d="M145 147l252 1180q29 148 178 148h369q261 0 262 -247q0 -60 -16 -134q-25 -111 -83.5 -193.5t-135.5 -109.5q67 -27 101 -77q34 -49 36 -113q0 -5 1 -11q0 -60 -15 -133q-19 -94 -56 -173.5t-94.5 -144.5t-141.5 -102t-186 -37h-354q-76 0 -104 36q-19 23 -18 63 q0 22 5 48zM432 207h164q77 0 131 61.5t80 182.5q10 48 10 85q0 132 -127 132h-160zM575 874h125q167 0 211 203q9 41 9 73q0 118 -115 118h-146z" />
<glyph unicode="C" horiz-adv-x="1024" d="M168 312q0 40 8 98.5t15 97.5t20 98l49 234q42 195 96.5 324t131 205.5t169 108t220.5 31.5q195 0 281 -104q61 -74 62 -177q0 -41 -10 -87q-34 -164 -174 -164q-78 1 -98 35q-15 25 -14 81q0 22 2 50q1 12 1 22q0 127 -98 127q-34 0 -58.5 -6t-51.5 -24.5t-48 -52.5 t-43.5 -88.5t-44 -134.5t-44.5 -189l-19 -82q-16 -77 -25.5 -125t-19 -106t-11.5 -93q-2 -29 -3 -61v-12q0 -38 9 -60t23.5 -41.5t37.5 -27t55 -7.5q53 0 103 44t65 106q35 130 74 177.5t122 47.5q68 0 94 -43q16 -27 17 -67q0 -24 -6 -52q-48 -221 -188.5 -325.5 t-350.5 -104.5q-70 0 -125.5 13t-93.5 34t-64.5 56t-40.5 69q-15 35 -20 85q-5 46 -5 82q1 4 1 8z" />
<glyph unicode="D" horiz-adv-x="1099" d="M145 147l252 1180q29 148 178 148h359q210 1 271 -155q28 -71 28 -181q0 -129 -39 -310l-41 -190q-136 -639 -545 -639h-346q-76 0 -104 36q-19 23 -18 63q0 22 5 48zM436 217h127q76 0 128.5 38t100 143t87.5 292l24 119q18 85 28 146q11 61 13 113q1 13 0 26 q0 36 -6 61q-8 34 -26 57.5t-47 34t-72 10.5h-136z" />
<glyph unicode="E" horiz-adv-x="1024" d="M145 147l252 1180q29 148 178 148h535q74 1 102 -33q20 -23 19 -57q0 -15 -4 -33q-11 -56 -53 -89.5t-115 -33.5h-408l-73 -340h380q74 1 102 -33q20 -23 19 -57q0 -15 -4 -33q-11 -56 -53 -89.5t-115 -33.5h-381l-84 -397h422q72 0 100 -34q20 -24 20 -59q0 -14 -3 -30 q-11 -56 -54 -89.5t-116 -33.5h-549q-76 0 -104 36q-19 23 -18 63q0 22 5 48z" />
<glyph unicode="F" horiz-adv-x="983" d="M139 115l258 1212q29 148 178 148h508q73 1 101 -33q20 -23 20 -57q0 -15 -4 -33q-11 -56 -53 -89.5t-115 -33.5h-381l-73 -340h380q74 1 102 -33q20 -23 19 -57q0 -15 -4 -33q-11 -56 -53 -89.5t-115 -33.5h-381l-112 -528q-13 -63 -62 -102.5t-106 -39.5q-56 -1 -88 39 q-22 28 -23 68q0 17 4 35z" />
<glyph unicode="G" horiz-adv-x="1062" d="M178 311q1 83 13 171t36 200l31 149q53 251 132.5 399t195 213.5t286.5 65.5q85 0 151.5 -20.5t105.5 -56t63.5 -81.5t26.5 -97v-19q0 -41 -7 -84q-33 -164 -172 -164q-70 0 -90 39q-12 24 -12 73q0 28 4 64q1 8 1 16q0 44 -25 76q-29 37 -105 37q-40 0 -71.5 -15 t-64.5 -56t-62.5 -123t-55.5 -205l-45 -205q-24 -113 -36 -190t-14 -139v-12q0 -54 12 -85q14 -36 42 -54t74 -18q86 0 136.5 76.5t82.5 222.5l18 84h-112q-55 0 -76 33q-14 22 -14 51q0 15 4 33q23 117 143 117h230q72 0 97 -33q16 -20 16 -57q0 -20 -5 -45l-125 -586 q-23 -113 -131 -113q-53 0 -73 33q-13 22 -13 52q0 17 4 36l8 39h-4q-124 -160 -309 -160q-80 0 -137 22.5t-90 68t-50 104.5q-15 55 -15 129q0 7 1 14z" />
<glyph unicode="H" horiz-adv-x="1138" d="M139 115l264 1245q13 63 62 102t106 39t89 -39q22 -28 22 -67q0 -16 -4 -35l-100 -471h360l100 471q13 63 62 102t106 39q56 0 88 -39q22 -28 23 -67q0 -16 -4 -35l-264 -1245q-13 -63 -62 -102.5t-106 -39.5q-57 -1 -89 39q-22 28 -22 68q0 16 4 35l119 557h-361 l-118 -557q-13 -63 -62 -102.5t-106 -39.5q-56 -1 -88 39q-22 28 -23 68q0 17 4 35z" />
<glyph unicode="I" horiz-adv-x="528" d="M152 115l264 1245q13 63 62 102t106 39t88 -39q22 -27 22 -67q0 -17 -4 -35l-264 -1245q-13 -63 -62 -102.5t-106 -39.5q-57 -1 -88 39q-22 28 -22 68q0 16 4 35z" />
<glyph unicode="J" horiz-adv-x="909" d="M123 348q18 85 65 128.5t107 43.5q75 0 97 -47q11 -24 11 -61q0 -36 -10 -84q-8 -36 -8 -63q0 -83 72 -83q53 0 84.5 35t50.5 117l217 1026q13 63 62 102t106 39t88 -39q22 -27 22 -67q0 -16 -4 -35l-219 -1032q-38 -180 -154 -271.5t-304 -91.5q-298 0 -298 256 q0 57 15 127z" />
<glyph unicode="K" horiz-adv-x="1062" d="M139 115l264 1245q13 63 62 102t106 39t89 -39q22 -28 22 -67q0 -16 -4 -35l-115 -541h4l455 596q38 49 70 67.5t75 18.5q57 0 90 -34q24 -25 24 -59q0 -12 -3 -26q-10 -50 -59 -106l-359 -432l178 -658q13 -43 13 -73q0 -12 -2 -21q-11 -51 -58 -85t-114 -34 q-60 0 -84 25.5t-39 85.5l-129 489l-150 -170l-61 -288q-13 -63 -62 -102.5t-106 -39.5q-56 -1 -88 39q-22 28 -23 68q0 17 4 35z" />
<glyph unicode="L" horiz-adv-x="985" d="M145 147l258 1213q13 63 62 102t106 39t89 -39q22 -28 22 -67q0 -16 -4 -35l-236 -1114h412q72 0 100 -34q20 -24 20 -59q0 -14 -3 -30q-11 -56 -54 -89.5t-116 -33.5h-539q-76 0 -104 36q-19 23 -18 63q0 22 5 48z" />
<glyph unicode="M" horiz-adv-x="1441" d="M143 115l252 1183q23 106 80 154.5t184 48.5q107 0 153 -48q45 -47 44 -166v-5l-14 -709h4l284 709q50 123 116.5 171t174.5 48q127 -1 164 -49q23 -30 23 -81q0 -32 -9 -73l-251 -1183q-13 -63 -62 -102.5t-106 -39.5q-56 -1 -88 39q-22 28 -23 68q0 16 4 35l225 1059 h-4l-460 -1111q-18 -43 -44 -66.5t-75 -23.5t-63.5 23t-14.5 67l10 1111h-4l-225 -1059q-13 -63 -62 -102.5t-106 -39.5q-56 -1 -88 39q-22 28 -23 68q0 17 4 35z" />
<glyph unicode="N" horiz-adv-x="1175" d="M139 115l264 1245q14 65 62.5 103t120.5 38q70 0 106.5 -27.5t52.5 -111.5l156 -807h4l170 805q13 63 62 102t106 39t89 -39q22 -28 22 -67q0 -16 -4 -35l-263 -1233q-14 -71 -62.5 -112.5t-106.5 -41.5q-87 0 -123.5 28t-51.5 112l-151 819h-4l-174 -817 q-13 -63 -62 -102.5t-106 -39.5q-56 -1 -88 39q-22 28 -23 68q0 17 4 35z" />
<glyph unicode="O" horiz-adv-x="1064" d="M174 226q-3 29 -2 65q0 43 4 93q8 92 33 210l65 311q24 113 56.5 203.5t68 153t80 108t86.5 72t94 42t96.5 20.5t98.5 5t96 -5t87.5 -20.5t76 -42t55.5 -72t34 -107.5q5 -38 6 -86q0 -32 -3 -68q-6 -90 -30 -203l-66 -311q-25 -117 -57 -209.5t-66.5 -158t-77.5 -113 t-85 -76t-94 -45t-99.5 -22t-106.5 -5.5t-104 5.5t-90 22t-74.5 45t-52.5 75.5t-29 113zM458 378q-3 -33 -2 -59q0 -41 7 -67q13 -42 37.5 -56t70.5 -14q61 0 99 27t76.5 118t76.5 267l66 311q25 117 31 194q2 26 3 47q0 44 -9 72q-13 42 -38.5 58t-68.5 16q-58 0 -98 -30 t-77.5 -116t-70.5 -241l-65 -311q-30 -133 -38 -216z" />
<glyph unicode="P" horiz-adv-x="1024" d="M139 115l258 1212q29 148 178 148h343q300 0 301 -274q0 -64 -17 -142q-25 -120 -82 -215.5t-150.5 -156t-209.5 -60.5h-238l-108 -512q-13 -63 -62 -102.5t-106 -39.5q-56 -1 -88 39q-22 28 -23 68q0 17 4 35zM567 834h123q175 0 223 213q11 49 11 88q0 133 -127 133 h-138z" />
<glyph unicode="Q" horiz-adv-x="1064" d="M174 226q-2 30 -2 65q0 42 4 93q8 93 33 210l65 311q24 113 56.5 203.5t68 153t80 108t86.5 72t94 42t96.5 20.5t98.5 5t96 -5t87.5 -20.5t76 -42t55.5 -72t34 -107.5q5 -38 5 -86q0 -31 -2 -68q-6 -90 -30 -203l-66 -311q-64 -303 -176 -449l61 -73q39 -45 39 -88 q0 -9 -2 -19q-7 -34 -41 -61t-67 -27q-51 0 -109 74l-45 59q-92 -45 -246 -45q-59 0 -104 5.5t-90 22t-74.5 45t-52 76t-29.5 112.5zM458 378q-3 -33 -3 -59q0 -41 8 -67q13 -42 37.5 -56t70.5 -14q31 0 58 8l-11 13q-22 27 -22 58q0 10 2 20q9 40 44 66t73 26q23 0 41 -23 q29 68 67 244l66 311q25 117 31 194q3 26 3 47q0 44 -9 72q-13 42 -38.5 58t-68.5 16q-58 0 -98 -30t-77.5 -116t-70.5 -241l-65 -311q-29 -133 -38 -216z" />
<glyph unicode="R" horiz-adv-x="1062" d="M139 115l258 1212q29 148 178 148h377q90 0 150 -30t85 -81.5t31 -120.5q1 -15 1 -31q0 -55 -15 -116q-30 -143 -88 -219t-162 -115q66 -26 95 -66t28 -98q0 -60 -18 -149l-35 -158q-8 -40 -15.5 -116t-15.5 -114q-7 -36 -45.5 -62t-103.5 -26q-140 0 -140 107q0 15 3 33 l67 376q3 21 3 40q0 47 -22 75q-31 38 -110 39h-119l-112 -528q-13 -63 -62 -102.5t-106 -39.5q-56 -1 -88 39q-22 28 -23 68q0 17 4 35zM569 850h107q90 0 149 47.5t84 161.5q11 51 11 88q0 47 -16 73q-29 48 -126 48h-119z" />
<glyph unicode="S" horiz-adv-x="1024" d="M146 311q2 25 6 45q18 86 58 136.5t120 50.5q65 -1 88 -41q15 -26 15 -74q0 -28 -5 -63q-4 -25 -4 -47q0 -50 20 -85q30 -51 109 -51q78 0 129.5 48.5t67.5 123.5q6 29 6 54q0 36 -12 63q-20 45 -87 102l-225 187q-88 73 -112 164q-11 42 -11 87q0 54 15 113 q26 125 106 214t185 130t225 41q74 0 133 -17t95.5 -45.5t62.5 -65.5t34 -79q9 -41 11 -83v-15q0 -34 -9 -65q-13 -67 -57.5 -103.5t-105.5 -36.5q-78 1 -96 35q-13 24 -13 73q0 21 2 48q1 12 1 23q0 114 -120 114q-64 0 -112.5 -38t-63.5 -103q-5 -26 -5 -49q0 -32 10 -60 q18 -48 98 -110l174 -133q41 -31 70 -61t51.5 -67.5t32.5 -79.5q10 -40 10 -90q-1 -3 -1 -5q0 -54 -14 -117q-41 -195 -182.5 -304.5t-372.5 -109.5q-74 0 -131.5 18t-92 46.5t-58 67t-33.5 75.5q-10 36 -12 75q-1 22 -1 39q0 14 1 25z" />
<glyph unicode="T" horiz-adv-x="1064" d="M322 1352q13 56 55 89.5t115 33.5h708q74 1 102 -33q20 -23 19 -57q0 -15 -4 -33q-11 -56 -53 -89.5t-115 -33.5h-217l-238 -1114q-13 -63 -62 -102.5t-106 -39.5q-57 -1 -88 39q-22 28 -22 68q0 17 4 35l237 1114h-217q-73 -1 -101 33q-20 24 -20 60q0 14 3 30z" />
<glyph unicode="U" horiz-adv-x="1099" d="M188 391l205 969q13 63 62 102t106 39t89 -39q22 -28 22 -67q0 -16 -4 -35l-201 -942q-10 -50 -10 -89q0 -54 19 -88q33 -59 114 -59q79 0 137 59t82 177l201 942q13 63 62 102t106 39t88 -39q22 -27 22 -67q0 -17 -4 -35l-205 -969q-42 -198 -180.5 -312t-355.5 -114 t-307 114q-61 78 -61 195q0 54 13 117z" />
<glyph unicode="V" horiz-adv-x="1024" d="M326 1264q0 88 4 104q11 54 59 93.5t111 39.5q62 0 88 -28q24 -26 24 -84v-9l-22 -1089h4l407 1065q27 71 65.5 108t102.5 37q65 0 93 -33q20 -23 20 -59q0 -15 -4 -33q-10 -40 -39 -110l-485 -1145q-38 -90 -90.5 -119t-155.5 -29q-100 0 -134 38.5t-34 119.5z" />
<glyph unicode="W" horiz-adv-x="1554" d="M299 94l27 1180q3 76 8 106q11 54 58 87.5t116 33.5q60 0 82 -30q20 -26 20 -72v-13l-51 -1028h4l385 1031q23 59 55.5 85.5t94.5 26.5q62 -1 82 -27q18 -23 18 -70v-15l-35 -1031h4l365 1020q25 67 66 95t102 28q111 0 111 -88q0 -18 -5 -39q-8 -39 -34 -98l-453 -1153 q-39 -97 -79.5 -123.5t-147.5 -26.5q-106 1 -132 29q-21 24 -21 99q0 15 1 32l31 787h-4l-314 -834q-27 -68 -69 -90.5t-131 -22.5q-93 0 -125 29q-30 27 -29 85v7z" />
<glyph unicode="X" horiz-adv-x="1024" d="M72 96q11 49 71 133l371 525l-145 518q-13 50 -13 82q0 14 2 24q12 54 60.5 88.5t107.5 34.5q54 0 83.5 -27t45.5 -106l68 -364l260 397q36 54 71.5 77t78.5 23q65 0 97 -32q23 -23 22 -59q0 -14 -3 -30q-6 -40 -41 -86l-383 -540l160 -576q10 -34 10 -59q0 -11 -2 -21 q-11 -52 -56.5 -88.5t-111.5 -36.5q-55 0 -82 25t-38 78l-97 420l-282 -437q-56 -86 -146 -86q-60 -1 -90 33q-22 24 -21 60q0 14 3 30z" />
<glyph unicode="Y" horiz-adv-x="985" d="M326 1376q13 62 58.5 93.5t102.5 31.5q63 0 86 -25.5t35 -103.5l78 -467l291 488q37 64 75 86t89 22q56 0 85 -33q23 -26 23 -57q0 -10 -2 -20q-7 -33 -37 -84l-448 -686l-107 -506q-13 -63 -62 -102.5t-106 -39.5t-88 39q-22 28 -22 68q0 16 4 35l104 491l-155 674 q-8 34 -8 61q0 20 4 35z" />
<glyph unicode="Z" horiz-adv-x="1062" d="M74 129q6 28 20 53t51 72l766 975h-424q-73 -1 -101 33q-20 24 -20 60q0 14 3 30q13 56 55 89.5t115 33.5h630q70 -1 101 -31q22 -21 22 -57q0 -15 -4 -33q-12 -61 -82 -146l-762 -962h482q73 0 100 -34q19 -24 19 -58q0 -14 -3 -31q-11 -56 -54 -89.5t-116 -33.5h-682 q-66 0 -96 40q-22 30 -23 64q0 12 3 25z" />
<glyph unicode="[" horiz-adv-x="606" d="M94 -219l334 1573q34 147 190 147h170q43 0 65 -26.5t13 -71.5q-10 -45 -43.5 -71.5t-77.5 -26.5h-77l-314 -1475h78q44 0 66 -26.5t12 -71.5q-9 -45 -42 -72t-77 -27h-170q-157 0 -127 148z" />
<glyph unicode="\" horiz-adv-x="681" d="M297 1364q-7 35 2 72q7 33 41 53t74 20q38 0 63 -25.5t31 -64.5l190 -1308q7 -35 -2 -72q-7 -33 -40.5 -53.5t-73.5 -20.5q-38 0 -63.5 25.5t-31.5 64.5z" />
<glyph unicode="]" horiz-adv-x="606" d="M-18 -268q10 45 42.5 71.5t75.5 26.5h78l314 1475h-78q-44 0 -65 26.5t-11 71.5q9 45 42 71.5t77 26.5h170q159 0 125 -147l-334 -1573q-30 -148 -189 -148h-170q-43 0 -64.5 27t-12.5 72z" />
<glyph unicode="^" horiz-adv-x="1228" d="M291 723q8 38 45 90l438 573q37 51 73.5 70t80.5 19q43 0 70.5 -19t45.5 -70l193 -573q17 -48 8 -90q-6 -29 -32.5 -51.5t-79.5 -22.5q-45 0 -72 17t-43 65l-152 457l-344 -457q-36 -48 -71 -65t-80 -17q-52 0 -69 22t-11 52z" />
<glyph unicode="_" horiz-adv-x="1024" d="M-69 -243q-4 13 1 38q4 23 14.5 37t20.5 14h1024q10 0 14.5 -14t0.5 -37q-6 -23 -16.5 -37t-20.5 -14h-1024q-10 0 -14 13z" />
<glyph unicode="`" d="M330 1483q9 39 41 63.5t67 24.5q27 0 42.5 -6t31.5 -27l135 -174q23 -30 17 -68q-9 -39 -38.5 -64.5t-68.5 -25.5t-65 33l-132 150q-40 50 -30 94z" />
<glyph unicode="a" horiz-adv-x="909" d="M135 270q27 127 84 204.5t166 129.5l248 117q88 42 104 117q3 16 3 31q0 27 -12 47q-19 32 -64 32q-62 0 -94.5 -30.5t-55.5 -100.5q-12 -37 -48.5 -58.5t-86.5 -21.5q-50 -1 -86 25q-28 20 -28 55q0 11 3 23q30 140 145.5 217.5t266.5 77.5q97 0 162.5 -17.5t98.5 -45.5 q33 -26 45 -72q10 -38 10 -74v-14q-2 -42 -15 -105l-121 -569q-9 -40 -14 -96.5t-8 -69.5q-18 -99 -146 -99q-56 0 -86 33q-19 21 -20 61q0 21 6 48l-4 -2q-48 -71 -116.5 -105.5t-141.5 -34.5q-117 -1 -172 73q-35 46 -35 124q0 45 12 100zM403 301q-5 -26 -5 -47 q0 -30 10 -50q17 -34 57 -34q60 0 107.5 58.5t66.5 148.5l43 196l-102 -61q-94 -58 -128 -99t-49 -112z" />
<glyph unicode="b" horiz-adv-x="948" d="M147 123l261 1229q34 149 157 149q59 1 84 -37q15 -22 15 -58q0 -24 -7 -54l-73 -346h4q46 62 113 95.5t137 33.5q55 0 94.5 -16t61.5 -46.5t33 -68.5q11 -36 10 -85q0 -51 -6 -105q-6 -50 -19 -112l-64 -296q-16 -75 -34.5 -133t-48 -116.5t-66.5 -97t-90.5 -62.5 t-118.5 -24q-73 0 -124 32.5t-69 96.5h-4q-12 -56 -55 -92.5t-98 -36.5q-58 0 -84 38q-15 23 -16 59q0 23 7 53zM467 451q-19 -86 -19 -145q0 -126 87 -126q64 0 98 68t67 223l31 145q27 124 31 190q1 14 0 27q0 45 -12 67q-16 28 -60 28q-121 0 -180 -269z" />
<glyph unicode="c" horiz-adv-x="872" d="M152 242q2 53 9 100t21 111l43 202q14 64 26.5 111t33 100t44 90t58.5 73t78 58t101 35t128 13q69 0 122 -15.5t84 -41.5t50.5 -57t25.5 -67q6 -33 5 -61q0 -32 -6 -62q-14 -70 -55.5 -105.5t-96.5 -35.5q-65 0 -89 33q-15 20 -15 57q0 22 6 51q4 19 4 34q0 27 -13 45 q-21 28 -63 28q-29 0 -52 -14t-38 -33.5t-29 -58.5t-22 -69t-20 -85l-52 -246q-22 -100 -22 -160q0 -23 4 -40q12 -62 70 -62q90 0 116 113q27 102 65 141t101 39q56 0 82 -39q16 -25 16 -61q0 -21 -6 -46q-9 -39 -24.5 -79t-49.5 -89.5t-78 -87t-114 -63t-154 -25.5 q-70 0 -122.5 13t-86 35t-53.5 58t-28 73q-6 28 -5 64q0 12 1 26z" />
<glyph unicode="d" horiz-adv-x="948" d="M152 294q6 50 20 112l64 296q19 94 45 165t66.5 135t103 98.5t143.5 34.5q70 0 121 -33.5t71 -95.5h5l73 346q34 149 158 149q59 1 84 -37q15 -22 15 -58q0 -24 -7 -54l-260 -1229q-17 -75 -58 -112.5t-100 -37.5q-56 1 -82 37q-18 25 -18 59q0 16 4 33h-4 q-97 -129 -250 -129q-55 0 -94.5 16t-61.5 46.5t-34 68.5q-11 36 -11 85q0 50 7 105zM422 256q6 -76 70 -76q69 0 111 70t71 201l43 208q19 86 19 145q0 124 -85 124q-63 0 -98.5 -64.5t-73.5 -247.5l-30 -145q-29 -116 -29 -188q1 -15 2 -27z" />
<glyph unicode="e" horiz-adv-x="872" d="M141 222q1 52 8 101t21 115l51 232q14 66 27.5 115t34 100.5t45 87t60 68t79.5 52t102.5 31t130.5 11.5q190 0 246 -106q30 -57 31 -148q0 -79 -23 -183q-9 -43 -18.5 -71t-28.5 -54.5t-51 -39.5t-78 -13h-327l-25 -112q-12 -56 -16 -94q-3 -21 -3 -42q-1 -16 1 -32 q4 -36 24 -53t57 -17q39 0 74 34.5t47 80.5q19 76 55.5 104.5t94.5 28.5q60 0 88 -27q18 -18 19 -54q0 -18 -5 -42q-32 -149 -143.5 -235.5t-265.5 -86.5q-72 0 -125.5 11.5t-89.5 31t-58 52.5q-20 32 -30 68q-9 32 -9 77v9zM487 696h218l20 92q7 34 7 60q0 90 -85 90 q-107 0 -139 -150z" />
<glyph unicode="f" horiz-adv-x="530" d="M164 123l170 799h-27q-57 0 -79 21q-16 15 -16 43q0 13 3 28q10 51 42 72.5t89 21.5h27l30 147q30 137 107 191.5t221 54.5q62 0 87 -26q17 -18 17 -50q0 -15 -4 -34q-17 -83 -94 -86q-44 -1 -63.5 -22.5t-28.5 -72.5l-22 -102h39q57 0 78 -22q15 -14 15 -43 q0 -13 -3 -29q-10 -50 -41 -71t-88 -21h-39l-170 -799q-17 -75 -58 -112.5t-100 -37.5t-84 38q-15 23 -15 58q0 24 7 54z" />
<glyph unicode="g" horiz-adv-x="948" d="M78 -217q12 52 53 81.5t96 29.5q40 0 64 -21t31 -53q14 -68 71 -68q78 0 115.5 50t62.5 169l33 154h-4q-58 -74 -111.5 -99.5t-136.5 -25.5q-55 0 -94.5 16t-61.5 46t-34 68q-11 37 -11 86q0 51 7 105q7 50 20 111l62 287q17 85 44.5 155t69 131t103 95.5t137.5 34.5 q74 0 129 -40t68 -110h4q34 150 155 150q55 0 79 -38q14 -22 14 -57q0 -24 -7 -55l-221 -1046q-41 -187 -152.5 -275t-300.5 -88q-148 0 -227 52q-62 40 -62 112q0 20 5 43zM425 318q-1 -16 -1 -29q0 -43 12 -65q17 -27 60 -27q124 0 180 268l41 194q14 64 17 113v28 q0 30 -4 50q-6 29 -19 47t-26.5 24.5t-29.5 6.5q-54 0 -93.5 -56.5t-67.5 -187.5l-37 -176q-27 -125 -32 -190z" />
<glyph unicode="h" horiz-adv-x="948" d="M137 123l260 1229q34 149 158 149q59 1 84 -37q15 -22 15 -58q0 -24 -7 -54l-76 -361h4q44 69 116.5 106.5t148.5 37.5q110 1 160 -69q32 -44 31 -114q0 -41 -11 -92l-156 -737q-17 -75 -58 -112.5t-99 -37.5q-59 0 -85 38q-15 23 -15 59q0 24 7 53l144 678q5 22 5 40 q0 29 -13 47q-21 30 -64 30q-130 0 -172 -199l-127 -596q-17 -75 -58 -112.5t-100 -37.5t-84 38q-15 23 -15 58q0 24 7 54z" />
<glyph unicode="i" d="M147 123l183 862q17 75 58 112.5t99 37.5q59 0 85 -38q15 -23 15 -59q0 -24 -7 -53l-183 -862q-17 -75 -58 -112.5t-99 -37.5t-84 38q-15 23 -16 59q0 23 7 53zM393 1366q12 60 63 101.5t111 41.5q61 1 93 -41q24 -30 23 -71q0 -15 -3 -31q-14 -60 -64 -101.5t-110 -41.5 q-60 -1 -93 41q-24 30 -24 70q0 15 4 32z" />
<glyph unicode="j" d="M-68 -317q10 48 34.5 68t70.5 30q40 8 55 88l238 1116q17 75 58 112.5t99 37.5q59 0 85 -38q15 -23 15 -59q0 -23 -7 -53l-248 -1171q-27 -121 -106 -179.5t-199 -58.5q-99 0 -99 75q0 15 4 32zM393 1366q12 60 63 101.5t111 41.5t93 -41q23 -31 23 -71q0 -15 -3 -31 q-14 -60 -64 -101.5t-110 -41.5t-93 41q-24 30 -24 70q0 15 4 32z" />
<glyph unicode="k" horiz-adv-x="909" d="M137 123l260 1229q34 149 158 149q59 1 84 -37q15 -22 15 -58q0 -24 -7 -54l-139 -662h4l289 340q90 105 157 105q45 -1 78 -29q25 -22 25 -56q0 -10 -2 -22q-8 -37 -51 -86l-246 -270l115 -525q4 -14 3.5 -31.5t-3.5 -39.5q-10 -45 -52 -74t-94 -29q-51 0 -78 22.5 t-39 74.5l-79 376l-101 -102l-47 -221q-17 -75 -58 -112.5t-100 -37.5t-84 38q-15 23 -15 58q0 24 7 54z" />
<glyph unicode="l" d="M147 123l261 1229q34 149 157 149q59 1 84 -37q15 -22 15 -58q0 -24 -7 -54l-260 -1229q-17 -75 -58 -112.5t-99 -37.5t-84 38q-15 23 -16 59q0 23 7 53z" />
<glyph unicode="m" horiz-adv-x="1404" d="M129 123l182 862q17 75 58 112.5t100 37.5q57 -1 83 -37q16 -23 17 -59q0 -22 -6 -48h4q44 69 116 106.5t148 37.5q84 0 129 -28t68 -97q68 68 132 96.5t145 28.5q109 1 159 -69q32 -44 32 -114q0 -41 -11 -92l-156 -737q-17 -75 -58 -112.5t-100 -37.5t-84 38 q-15 23 -15 58q0 24 7 54l144 678q5 22 5 40q0 29 -13 47q-21 30 -64 30q-128 0 -170 -199l-127 -596q-17 -75 -58 -112.5t-100 -37.5t-84 38q-15 23 -15 58q0 24 7 54l144 678q5 22 5 40q0 29 -13 47q-21 30 -64 30q-128 0 -170 -199l-127 -596q-17 -75 -58 -112.5 t-100 -37.5t-84 38q-15 23 -15 58q0 24 7 54z" />
<glyph unicode="n" horiz-adv-x="948" d="M137 123l182 862q17 75 58 112.5t100 37.5q57 -1 83 -37q16 -23 17 -59q0 -22 -6 -48h4q44 69 116.5 106.5t148.5 37.5q110 1 160 -69q32 -44 31 -114q0 -41 -11 -92l-156 -737q-17 -75 -58 -112.5t-99 -37.5q-59 0 -85 38q-15 23 -15 59q0 24 7 53l144 678q5 22 5 40 q0 29 -13 47q-21 30 -64 30q-130 0 -172 -199l-127 -596q-17 -75 -58 -112.5t-100 -37.5t-84 38q-15 23 -15 58q0 24 7 54z" />
<glyph unicode="o" horiz-adv-x="909" d="M145 266q3 62 19 137l63 302q20 95 53.5 168.5t87.5 135t137 94t191 32.5q87 0 149 -22.5t95.5 -60t47.5 -93.5q12 -46 13 -97q0 -10 -1 -20q-3 -62 -19 -137l-63 -302q-20 -95 -53.5 -168.5t-87.5 -135t-137 -94t-191 -32.5q-87 0 -149 22.5t-96 60.5q-34 37 -48 93 q-12 46 -12 97q0 9 1 20zM414 220q14 -50 78 -50t100 52.5t67 201.5l56 264q20 86 20 139q-1 7 -1 15q-4 56 -23 76t-58 20q-59 0 -98 -53.5t-70 -196.5l-55 -264q-20 -105 -21 -162q1 -26 5 -42z" />
<glyph unicode="p" horiz-adv-x="948" d="M63 -274l267 1259q17 75 58 112.5t99 37.5q59 0 85 -38q15 -23 15 -59q0 -23 -7 -53h4q46 70 116.5 110t137.5 40q55 0 94.5 -16t61.5 -46.5t33 -68.5q11 -36 11 -85q0 -52 -7 -105q-6 -50 -19 -112l-64 -296q-16 -75 -34.5 -133t-48 -116.5t-66.5 -97t-90.5 -62.5 t-118.5 -24q-72 0 -123.5 31.5t-71.5 93.5h-4l-78 -372q-17 -75 -58 -112.5t-99 -37.5q-59 0 -84 38q-16 23 -16 59q0 23 7 53zM447 331q-2 -20 -2 -38q0 -25 3 -47q6 -37 27 -56.5t57 -19.5q64 0 98.5 68.5t67.5 222.5l33 155q26 125 31 190v27q0 45 -12 67q-17 28 -60 28 q-121 0 -180 -269l-45 -219q-14 -62 -18 -109z" />
<glyph unicode="q" horiz-adv-x="948" d="M152 294q7 51 20 112l64 296q19 94 45 165t66.5 135t103 98.5t143.5 34.5q67 0 119 -40t69 -110h4q17 75 58 112.5t100 37.5t84 -38q15 -23 15 -58q0 -24 -7 -54l-266 -1259q-17 -75 -58 -112.5t-100 -37.5t-84 38q-15 23 -15 58q0 24 7 54l78 372h-4q-48 -64 -113 -94 q-64 -31 -135 -31q-55 0 -94.5 16t-61.5 46.5t-34 68.5q-11 36 -11 85q0 51 7 105zM418 246q7 -76 71 -76q69 0 111.5 70t71.5 200l45 219q19 86 19 145q0 124 -85 124q-63 0 -98.5 -64.5t-73.5 -247.5l-33 -155q-29 -116 -29 -188q0 -14 1 -27z" />
<glyph unicode="r" horiz-adv-x="681" d="M137 123l187 876q27 136 145 136q93 0 93 -89q0 -21 -5 -47l-22 -104h4q52 110 113.5 175t123.5 65q54 -1 80 -41q15 -24 15 -61q0 -27 -7 -60q-14 -64 -60.5 -107t-127.5 -43q-61 0 -109.5 -40t-62.5 -111l-117 -549q-17 -75 -58 -112.5t-100 -37.5t-84 38 q-15 23 -15 58q0 24 7 54z" />
<glyph unicode="s" horiz-adv-x="833" d="M116 211.5q0 33.5 7 67.5q14 65 54.5 94.5t90.5 29.5q66 0 88 -36q14 -24 15 -67q0 -22 -4 -50q-1 -9 -1 -17q0 -73 91 -73q96 0 118 102q4 18 4 34q-1 20 -7 36q-12 29 -54 69l-162 142q-86 75 -106 142q-10 32 -10 67q0 40 12 84q31 146 140 222.5t265 76.5 q55 0 100 -10.5t75 -28t52 -41t34 -48.5q10 -25 16 -51q5 -24 6 -46q0 -25 -6 -48q-23 -123 -156 -123q-84 0 -84 72q0 12 2 25q3 16 3 29q0 35 -17 55q-23 28 -72 28q-38 0 -66.5 -23t-37.5 -63q-2 -13 -2 -25q0 -48 35 -81l129 -117q37 -33 60.5 -55.5t48 -50.5t36.5 -52 t21 -53t8.5 -60.5t-8.5 -68.5q-33 -157 -152.5 -241.5t-280.5 -84.5q-65 0 -115.5 13.5t-82 37.5t-52 53.5t-28 65t-7.5 69z" />
<glyph unicode="t" horiz-adv-x="530" d="M178 193l156 729h-27q-57 0 -79 21q-16 15 -16 43q0 13 3 28q10 51 42 72.5t89 21.5h27l41 190q15 74 55.5 112t99.5 38t85 -38q16 -24 16 -62q0 -23 -6 -50l-41 -190h57q56 0 78 -22q15 -15 15 -43q0 -13 -3 -29q-10 -50 -41 -71t-88 -21h-57l-140 -652q-8 -38 2 -56 t50 -21q45 -2 64 -22q12 -13 12 -38q0 -13 -3 -29q-13 -62 -57 -89t-125 -27q-133 0 -181 58q-33 41 -34 97q0 24 6 50z" />
<glyph unicode="u" horiz-adv-x="948" d="M164 248l155 737q17 75 58 112.5t100 37.5t84 -38q15 -23 15 -58q0 -24 -7 -54l-143 -678q-5 -25 -5 -44q0 -73 77 -73q67 0 108.5 48t63.5 151l127 596q17 75 58 112.5t99 37.5t84 -38q15 -23 16 -59q0 -24 -7 -53l-183 -862q-17 -75 -58 -112.5t-99 -37.5t-84 37 q-16 23 -16 60q0 21 5 47h-4q-46 -70 -119 -109q-72 -35 -145 -35q-110 -1 -160 69q-32 44 -31 114q0 41 11 92z" />
<glyph unicode="v" horiz-adv-x="872" d="M260 963q-1 13 -1 24q0 19 3 33q11 53 55.5 84t96.5 31q63 -1 89 -31q23 -27 23 -86v-14l-22 -728h4l278 728q27 66 63 98.5t97 32.5q62 0 86 -32q18 -23 17 -53q0 -11 -2 -22q-6 -30 -31 -86l-383 -856q-29 -59 -71.5 -86t-129.5 -27q-49 0 -79 9t-45.5 31t-20.5 48 t-6 70z" />
<glyph unicode="w" horiz-adv-x="1327" d="M260 141v793q0 43 8 74q12 60 54 93.5t100 33.5q103 0 103 -119q0 -14 -1 -29l-43 -686h4l238 629q43 112 81 158.5t99 46.5q41 0 67 -27t25 -88l-14 -719h4l252 698q49 136 162 136q51 0 77 -34q17 -23 17 -57q0 -16 -4 -34q-5 -22 -23 -66l-342 -815 q-33 -85 -74.5 -120.5t-125.5 -35.5q-87 -1 -114 43q-24 39 -24 125v19l9 461h-4l-203 -510q-55 -138 -195 -138q-75 1 -105 39q-28 36 -28 118v11z" />
<glyph unicode="x" horiz-adv-x="833" d="M57 88q9 40 56 100l278 373l-106 330q-16 56 -16 95q0 18 3 32q11 56 55.5 86.5t96.5 30.5t73 -21t35 -80l62 -227l168 244q60 84 135 84q57 -1 85 -33q20 -23 20 -56q0 -13 -3 -28q-8 -38 -71 -123l-248 -324l117 -356q20 -56 20 -95q0 -17 -4 -30q-9 -49 -56 -83 t-104 -34q-85 0 -102 80l-68 275l-196 -277q-56 -78 -121 -78q-58 -1 -88 31q-23 24 -23 60q0 11 2 24z" />
<glyph unicode="y" horiz-adv-x="872" d="M61 -315q10 42 35.5 65t83.5 29q22 2 32 4t25.5 8.5t24 20t12.5 36.5q7 32 7 62l-29 1042q0 50 4 66q10 54 53 85.5t105 31.5q51 0 80 -23.5t28 -73.5l-18 -772h4l278 731q26 68 63.5 103t100.5 35q55 0 84 -30q21 -21 21 -53q0 -13 -4 -28q-2 -14 -31 -80l-494 -1096 q-73 -166 -143.5 -219t-226.5 -53q-98 0 -98 78q0 14 3 31z" />
<glyph unicode="z" horiz-adv-x="872" d="M76 104q11 51 57 111l539 676h-301q-105 0 -105 75q0 14 4 31q21 111 148 111h502q65 0 92 -22q20 -16 20 -44q0 -9 -2 -20q-6 -31 -20 -55.5t-52 -73.5l-538 -676h321q105 0 105 -75q0 -14 -4 -31q-21 -111 -148 -111h-520q-63 0 -86 26q-16 18 -16 47q0 14 4 31z" />
<glyph unicode="{" horiz-adv-x="643" d="M129 567q8 39 36 69t68 30q41 0 69 26t46 111l92 426q56 272 299 272h133q37 0 54.5 -24.5t7.5 -73.5t-38.5 -73.5t-66.5 -24.5h-45q-78 0 -104 -121l-86 -404q-12 -54 -35.5 -94t-47 -60.5t-57 -34t-53 -16.5t-47.5 -6v-4q16 -2 26 -3.5t28.5 -5.5t31 -10.5t27.5 -17 t24 -26t15.5 -36t5.5 -49.5t-8 -63l-86 -403q-26 -121 53 -121h45q37 0 54.5 -24.5t7.5 -73.5t-38 -74t-65 -25h-133q-243 0 -184 273l90 426q8 36 9 62t-3.5 40.5t-14.5 22.5t-20 10t-26 2q-40 0 -56 29.5t-8 68.5z" />
<glyph unicode="|" horiz-adv-x="817" d="M481 -578v2311h170v-2311h-170z" />
<glyph unicode="}" horiz-adv-x="643" d="M-49 -268q10 49 37.5 73.5t64.5 24.5h45q81 0 107 121l86 403q10 45 27 80.5t39.5 57.5t43 36.5t48 22t43 10t38.5 4.5v4q-16 2 -26 3.5t-28.5 5.5t-30.5 10.5t-27.5 17t-24 26t-15 36t-5.5 49.5t8 63l86 404q26 121 -55 121h-45q-37 0 -53.5 24.5t-6.5 73.5t38 73.5 t65 24.5h133q120 0 166.5 -66t17.5 -206l-92 -426q-18 -85 -1.5 -111t58.5 -26q40 0 56 -30t8 -69t-36.5 -68.5t-68.5 -29.5q-42 0 -70 -26t-46 -111l-91 -426q-30 -141 -104.5 -207t-194.5 -66h-133q-37 0 -54 25t-7 74z" />
<glyph unicode="~" horiz-adv-x="1228" d="M195 518q18 87 113.5 156t221.5 69q105 0 242 -55q140 -55 193 -55q48 0 91.5 24t82 48t73.5 24q88 0 70 -88q-20 -88 -118 -156.5t-232 -68.5q-85 0 -232 55q-9 3 -40.5 15.5t-43 16.5t-34.5 11t-39 9.5t-31 2.5q-38 0 -74.5 -15.5t-60.5 -33.5t-55.5 -33.5t-59.5 -15.5 q-85 0 -67 90z" />
<glyph unicode="&#xa0;" />
<glyph unicode="&#xa1;" horiz-adv-x="569" d="M94 -250l68 316q8 44 39 143l131 434q16 59 39.5 84t72.5 25q48 0 61 -24.5t7 -84.5l-53 -434q-4 -34 -23 -143l-67 -316q-14 -67 -56.5 -105t-111.5 -38q-68 0 -94.5 38t-12.5 105zM338 979q14 65 69 110.5t119 45.5t100.5 -45.5t22.5 -110.5q-13 -64 -69 -110t-121 -46 q-64 0 -99.5 45.5t-21.5 110.5z" />
<glyph unicode="&#xa2;" horiz-adv-x="983" d="M191 265q4 47 11 89.5t19 98.5l43 202q14 64 26.5 111t33 100t44.5 90t60 73t79.5 58t103.5 35t132 13q46 0 80 -5l43 91q35 75 80 75q12 0 21 -10t6 -22q-2 -13 -19 -47l-47 -103q187 -53 135 -299q-12 -52 -46 -87.5t-89 -35.5q-64 0 -80 28t-10 111q6 46 -8 70 l-332 -713q18 -18 70 -18q125 0 153 133q21 88 58.5 126t95.5 38q62 0 80.5 -37t5.5 -106q-18 -84 -50.5 -147t-73.5 -101.5t-96 -62t-110.5 -32t-124.5 -8.5q-57 0 -104 9l-70 -150q-26 -57 -67 -57q-39 0 -29 41q3 20 21 55l63 141q-34 17 -57 42t-34.5 58.5t-16 69.5 t-0.5 83zM446 330h5l282 606q-2 2 -12 2q-41 0 -66 -8t-47 -26.5t-39 -61.5t-32.5 -99.5t-36.5 -154.5l-39 -180q-9 -44 -15 -78z" />
<glyph unicode="&#xa3;" horiz-adv-x="983" d="M92 100q5 24 32 51.5t63 56.5t72.5 63.5t68 84t43.5 105.5q18 89 12 153h-111q-48 0 -66 27t-11 61t36.5 61.5t77.5 27.5h33q-12 52 -17.5 83t-6 86.5t11.5 110.5q39 183 185.5 293.5t334.5 110.5q78 0 140 -19t100.5 -52t63 -77.5t27.5 -95t-7 -105.5q-14 -63 -56 -98 t-108 -35q-61 0 -82.5 31.5t-16.5 99.5q9 144 -114 144q-81 0 -133.5 -57t-71.5 -140q-9 -41 -11 -78.5t4.5 -78.5t10.5 -59.5t16 -63.5h228q48 0 66.5 -27.5t11.5 -61.5t-37 -61t-78 -27h-166q6 -44 -2 -86q-16 -73 -84 -161t-178 -166l2 -4q92 30 168 30q59 0 120.5 -18.5 t98.5 -18.5q35 0 79 13.5t72 13.5q40 0 62 -25t12 -73t-53 -82t-100.5 -49t-122.5 -15q-66 0 -178 29t-162 29q-40 0 -115 -23q-62 -20 -102 -20q-38 0 -54.5 33.5t-7.5 78.5z" />
<glyph unicode="&#xa4;" horiz-adv-x="983" d="M78 344q10 43 43 66l55 41q-54 124 -22 272q33 152 137 272l-37 41q-25 27 -16 66q9 40 45.5 70t74.5 30q51 0 72 -33l31 -36q131 81 289 81t254 -81l43 36q41 33 88 33q38 0 61 -30t14 -70q-9 -43 -41 -66l-57 -41q56 -129 25 -272q-32 -148 -140 -272l39 -41 q23 -29 15 -66q-9 -40 -46 -70t-75 -30q-47 0 -72 32l-29 37q-133 -82 -288 -82q-157 0 -254 82l-45 -37q-40 -32 -88 -32q-38 0 -61.5 30t-14.5 70zM403 723q-26 -123 24 -190.5t163 -67.5q114 0 192.5 67.5t104.5 190.5t-24 190.5t-163 67.5q-114 0 -192.5 -67.5 t-104.5 -190.5z" />
<glyph unicode="&#xa5;" horiz-adv-x="983" d="M170 360q20 82 119 82h166l28 131h-166q-50 0 -71 22.5t-13 61.5q8 38 38.5 60t80.5 22h109l-129 545q-10 44 -2 82q10 44 51.5 76.5t101.5 32.5q47 0 70.5 -21.5t34.5 -87.5l82 -526l307 526q38 66 70 87.5t79 21.5q60 0 89.5 -32.5t19.5 -76.5q-7 -34 -39 -82 l-358 -545h133q49 0 69.5 -22t12.5 -60q-8 -39 -37.5 -61.5t-79.5 -22.5h-191l-28 -131h190q50 0 70.5 -22t11.5 -60q-8 -39 -37.5 -61.5t-79.5 -22.5h-190l-35 -163q-13 -61 -61 -100.5t-101 -39.5t-83 39.5t-17 100.5l35 163h-166q-50 0 -71 22.5t-13 61.5z" />
<glyph unicode="&#xa6;" horiz-adv-x="815" d="M481 -403v806h168v-806h-168zM481 752v807h168v-807h-168z" />
<glyph unicode="&#xa7;" horiz-adv-x="985" d="M84 -145q-4 32 4 59q12 59 52.5 91t101.5 32q45 0 68 -22t24 -78q3 -58 30 -84.5t85 -26.5q59 0 98.5 35.5t50.5 91.5q10 51 -12.5 96.5t-87.5 102.5l-172 151q-84 77 -112.5 158t-8.5 174q21 96 78 175.5t145 129.5q-69 89 -43 227q13 62 44.5 119t83 109t131.5 83 t177 31q73 0 130.5 -15.5t91.5 -42t56 -60.5t24.5 -71t-3.5 -75q-10 -52 -53.5 -84.5t-99.5 -32.5q-42 0 -65.5 22t-29.5 75q-4 51 -25.5 69.5t-60.5 18.5q-66 0 -101.5 -38.5t-43.5 -82.5q-9 -43 10.5 -83.5t75.5 -90.5l152 -139q103 -97 136.5 -175t10.5 -180 q-18 -90 -77 -165t-146 -126l18 -28q32 -51 40 -99.5t-5 -113.5q-37 -175 -164 -269t-297 -94q-65 0 -118.5 13.5t-87 36t-58.5 52t-34 61t-13 63.5zM446 674q-7 -36 7.5 -68t54.5 -71l178 -168q86 50 98 114q9 42 -11 80t-79 94l-147 142q-85 -45 -101 -123z" />
<glyph unicode="&#xa8;" d="M209 1364q10 57 59.5 97t106.5 40t88 -40t20 -97q-12 -57 -61.5 -97t-106.5 -40t-87.5 40t-18.5 97zM590 1364q10 57 59.5 97t106.5 40t88 -40t20 -97q-12 -57 -61.5 -97t-106.5 -40t-87.5 40t-18.5 97z" />
<glyph unicode="&#xa9;" horiz-adv-x="1638" d="M191.5 493q-11.5 115 13.5 244q44 209 185.5 387t341 281.5t409.5 103.5q209 0 365 -103.5t221.5 -281t21.5 -387.5q-34 -157 -126 -300t-217.5 -246.5t-281.5 -164.5t-313 -61q-126 0 -235.5 39.5t-188 109.5t-131.5 167t-64.5 212zM438 737q-35 -162 7 -289t150 -196.5 t263 -69.5q236 0 420 154.5t238 400.5q52 246 -67 400.5t-355 154.5t-420 -154.5t-236 -400.5zM600 743q42 196 179 321.5t321 125.5q76 0 137.5 -23.5t96 -60.5t49.5 -80.5t6 -85.5q-9 -43 -38.5 -71.5t-70.5 -28.5q-40 0 -60.5 21t-29.5 67q-13 76 -131 76q-87 0 -151 -68 t-89 -188q-25 -118 10 -190.5t123 -72.5q46 0 92 23.5t72 56.5q66 92 133 92q39 0 58 -24.5t10 -65.5q-6 -32 -39.5 -76t-84.5 -87.5t-126 -74t-152 -30.5q-120 0 -201.5 59t-110.5 159.5t-3 225.5z" />
<glyph unicode="&#xaa;" horiz-adv-x="591" d="M227 956q18 79 54 127.5t104 73.5l186 70q57 21 66 67q6 25 -6 43.5t-41 18.5q-40 0 -62 -19t-36 -61q-16 -47 -121 -47q-32 0 -55.5 15t-16.5 46q20 91 98 138t199 47q91 0 146.5 -15.5t74.5 -42t22.5 -62.5t-8.5 -77l-73 -340q-4 -24 -7.5 -58t-5.5 -42 q-12 -60 -92 -60q-61 0 -85.5 19t-14.5 65h-4q-31 -45 -80 -63q-47 -21 -111 -21q-76 0 -113 44t-18 134zM430 983q-7 -35 4 -54.5t37 -19.5q39 0 69.5 33.5t39.5 83.5l24 111l-61 -33q-61 -31 -82.5 -54.5t-30.5 -66.5z" />
<glyph unicode="&#xab;" horiz-adv-x="872" d="M190 580q8 38 30 68t73 69l176 133q37 29 70 29q36 0 58 -24.5t13 -66.5q-6 -29 -71 -77l-179 -131l123 -131q44 -47 37 -78q-9 -42 -40.5 -66t-67.5 -24t-58 28l-118 133q-35 38 -44.5 68.5t-1.5 69.5zM553 580q8 38 29.5 68.5t72.5 68.5l176 133q37 29 70 29 q36 0 58.5 -24.5t13.5 -66.5q-4 -18 -20.5 -34.5t-51.5 -42.5l-178 -131l123 -131q44 -47 37 -78q-9 -42 -41 -66t-68 -24q-35 0 -57 28l-119 133q-35 38 -44 68.5t-1 69.5z" />
<glyph unicode="&#xac;" horiz-adv-x="1228" d="M209 821q9 45 56 77t110 32h872q64 0 97 -33t22 -84l-92 -440q-13 -63 -53.5 -103.5t-85.5 -40.5t-68 40.5t-10 103.5l71 340h-798q-63 0 -96.5 31.5t-24.5 76.5z" />
<glyph unicode="&#xad;" horiz-adv-x="681" d="M203 580q11 50 50 83t101 33h269q63 0 88 -33.5t14 -82.5q-10 -49 -50 -83t-102 -34h-268q-62 0 -87 33.5t-15 83.5z" />
<glyph unicode="&#xae;" horiz-adv-x="1638" d="M191.5 493q-11.5 115 13.5 244q44 209 185.5 387t341 281.5t409.5 103.5q209 0 365 -103.5t221.5 -281t21.5 -387.5q-34 -157 -126 -300t-217.5 -246.5t-281.5 -164.5t-313 -61q-126 0 -235.5 39.5t-188 109.5t-131.5 167t-64.5 212zM438 737q-35 -162 7 -289t150 -196.5 t263 -69.5q236 0 420 154.5t238 400.5q52 246 -67 400.5t-355 154.5t-420 -154.5t-236 -400.5zM608 440l133 629q9 43 42 67.5t73 24.5h258q149 0 212 -55t34 -193q-23 -105 -89 -166.5t-130 -66.5l98 -195q12 -21 6 -53q-8 -36 -38 -61t-77 -25q-34 0 -51 14.5t-39 55.5 l-133 264h-61l-51 -240q-10 -45 -42 -69.5t-71 -24.5t-61.5 24.5t-12.5 69.5zM874 823h150q52 0 85 20.5t44 76.5q12 57 -11.5 77.5t-74.5 20.5h-149z" />
<glyph unicode="&#xaf;" d="M190 1360q19 88 119 88h488q101 0 82 -88t-119 -88h-488q-101 0 -82 88z" />
<glyph unicode="&#xb0;" horiz-adv-x="819" d="M369 1182q26 123 128.5 208t225.5 85t190 -85t41 -208t-129.5 -208t-226.5 -85t-189 85t-40 208zM524 1182q-12 -57 19 -97.5t88 -40.5t106.5 40.5t61.5 97.5t-20 97t-89 40t-105.5 -40t-60.5 -97z" />
<glyph unicode="&#xb1;" horiz-adv-x="1228" d="M57 109q9 45 57 76.5t111 31.5h873q63 0 95.5 -31.5t23.5 -76.5t-56 -77t-110 -32h-873q-63 0 -96.5 32t-24.5 77zM193 745q11 46 57.5 77.5t109.5 31.5h328l33 162q13 62 53 102.5t86 40.5t68.5 -40.5t9.5 -102.5l-33 -162h328q63 0 96.5 -32t22.5 -77q-9 -45 -56 -76.5 t-110 -31.5h-328l-35 -162q-12 -62 -52 -102.5t-87 -40.5q-46 0 -68 40t-10 103l35 162h-328q-63 0 -96 31.5t-24 76.5z" />
<glyph unicode="&#xb2;" horiz-adv-x="638" d="M172 657q13 61 73 147.5t177 178.5l74 57q82 62 115 103t42 86q8 44 -7.5 73t-49.5 29q-74 0 -107 -121q-20 -69 -110 -69q-94 0 -70 98q22 109 104.5 172.5t209.5 63.5q141 0 202.5 -57.5t38.5 -164.5q-25 -129 -168 -239l-131 -101q-114 -88 -159 -170h262 q49 0 69.5 -16.5t10.5 -60.5q-15 -78 -113 -78h-397q-80 0 -66 69z" />
<glyph unicode="&#xb3;" horiz-adv-x="647" d="M190 756.5q0 21.5 5 42.5q20 98 114 98q96 0 84 -86q-14 -106 76 -106q97 0 127 139q18 85 -2 113.5t-78 33.5q-52 4 -69 18.5t-11 45.5q8 32 26.5 45t72.5 22q59 9 86.5 36t40.5 91q7 40 -7 67t-57 27q-72 0 -100 -75q-27 -68 -113 -68q-44 0 -62 20t-12 54 q20 91 97.5 146t214.5 55q155 0 211 -61.5t32 -166.5q-30 -147 -151 -180l-2 -4q71 -24 91 -78t-1 -139q-29 -134 -116.5 -203.5t-248.5 -69.5q-60 0 -106 11.5t-72 31t-43 42.5t-22 50t-5 48.5z" />
<glyph unicode="&#xb4;" d="M381 1296q6 37 45 68l209 174q25 21 42.5 27t43.5 6q35 0 58 -24.5t14 -63.5q-10 -47 -72 -94l-193 -150q-48 -33 -82 -33q-39 0 -56.5 25.5t-8.5 64.5z" />
<glyph unicode="&#xb5;" horiz-adv-x="948" d="M53 -274l266 1259q17 75 58 112.5t100 37.5t84 -38t8 -112l-143 -678q-26 -117 72 -117q67 0 108.5 48t63.5 151l127 596q17 75 58 112.5t99 37.5q59 0 84.5 -38t8.5 -112l-183 -862q-17 -75 -58 -112.5t-99 -37.5t-84 37t-11 107h-4q-33 -55 -94 -97q-66 -47 -123 -47 q-10 0 -19 5.5t-10 13.5h-4l-55 -266q-17 -75 -58 -112.5t-100 -37.5t-84 38t-8 112z" />
<glyph unicode="&#xb6;" horiz-adv-x="985" d="M276 1110q18 85 52.5 151t75 105.5t90.5 64.5t95.5 34.5t94.5 9.5h432q46 0 66 -33.5t8 -89.5l-332 -1565q-12 -56 -47 -89.5t-82 -33.5q-49 0 -69.5 33.5t-8.5 89.5l320 1501h-158l-319 -1501q-12 -56 -47.5 -89.5t-84.5 -33.5q-47 0 -67 33.5t-8 89.5l207 973 q-123 0 -187.5 95.5t-30.5 254.5z" />
<glyph unicode="&#xb7;" d="M223 625q13 64 68.5 109.5t120.5 45.5t100.5 -45.5t22.5 -109.5t-68.5 -110t-120.5 -46q-64 0 -100.5 45.5t-22.5 110.5z" />
<glyph unicode="&#xb8;" d="M-39 -365q4 23 18.5 37.5t32.5 14.5q19 0 52.5 -11.5t48.5 -11.5q37 0 67.5 19t38.5 55q6 27 -10.5 46t-44.5 19q-10 0 -33.5 -3t-32.5 -3q-16 0 -25 10t-7 23q3 10 32 47l105 123h106l-98 -115h27q83 0 123 -35t24 -108q-17 -83 -97.5 -133.5t-183.5 -50.5 q-68 0 -109 21.5t-34 55.5z" />
<glyph unicode="&#xb9;" d="M274 1245q11 55 70 64q76 10 121 34t78 68q34 43 52 53.5t62 10.5q72 0 58 -68l-160 -748q-7 -39 -41 -62.5t-80 -23.5q-45 0 -69 23.5t-17 62.5l113 529h-123q-35 0 -52.5 13.5t-11.5 43.5z" />
<glyph unicode="&#xba;" horiz-adv-x="591" d="M235 955q1 36 11 81l37 181q13 58 33.5 101.5t57 80.5t95.5 56.5t139 19.5t131.5 -20t71.5 -55t24 -82t-10 -101l-37 -181q-13 -57 -34 -100.5t-57.5 -80.5t-96 -57t-139.5 -20q-64 0 -109.5 13.5t-70.5 36.5t-36 57t-10 70zM435 939q9 -30 52 -30q44 0 66.5 30.5 t42.5 121.5l27 129q19 92 10 122.5t-53 30.5q-43 0 -65 -31t-42 -122l-27 -129q-20 -92 -11 -122z" />
<glyph unicode="&#xbb;" horiz-adv-x="872" d="M145 371q3 13 14.5 26.5t23.5 23.5t36 28l176 131l-121 131q-24 25 -33 41.5t-5 35.5q9 42 40.5 66.5t67.5 24.5q34 0 57 -29l119 -133q35 -38 44 -68t1 -69t-29.5 -69.5t-72.5 -68.5l-176 -133q-36 -28 -70 -28q-36 0 -58.5 24t-13.5 66zM508 371q3 13 14.5 26.5 t23.5 23.5t36 28l176 131l-121 131q-24 26 -33.5 42.5t-5.5 34.5q9 42 41 66.5t68 24.5q34 0 57 -29l119 -133q35 -38 44 -68t1 -69q-8 -38 -30 -69t-73 -69l-176 -133q-36 -28 -69 -28q-36 0 -58.5 24t-13.5 66z" />
<glyph unicode="&#xbc;" horiz-adv-x="1515" d="M260 1245q11 55 70 64q76 10 120.5 34t77.5 68q34 43 52.5 53.5t62.5 10.5q71 0 57 -68l-159 -748q-7 -39 -41 -62.5t-80 -23.5q-45 0 -69 23.5t-17 62.5l112 529h-122q-35 0 -52.5 13.5t-11.5 43.5zM332 -14q7 33 24 59l924 1428q34 53 98 53q34 0 49.5 -19t10.5 -45 q-6 -31 -25 -59l-926 -1428q-34 -53 -98 -53q-35 0 -49.5 19.5t-7.5 44.5zM899 219q11 52 47 98l375 508q19 25 47.5 37t85.5 12q60 0 80.5 -21t13.5 -56l-106 -502h31q30 0 47.5 -18t9.5 -60q-10 -42 -36 -60t-56 -18h-31l-14 -76q-21 -90 -115 -90q-93 0 -72 90l15 76 h-236q-54 0 -75 18t-11 62zM1075 295h180l74 350h-4z" />
<glyph unicode="&#xbd;" horiz-adv-x="1515" d="M260 1245q11 55 70 64q76 10 120.5 34t77.5 68q34 43 52.5 53.5t62.5 10.5q71 0 57 -68l-159 -748q-7 -39 -41 -62.5t-80 -23.5q-45 0 -69 23.5t-17 62.5l112 529h-122q-35 0 -52.5 13.5t-11.5 43.5zM324 -14q7 33 24 59l924 1428q34 53 98 53q34 0 49.5 -19t10.5 -45 q-6 -31 -25 -59l-926 -1428q-34 -53 -98 -53q-35 0 -49.5 19.5t-7.5 44.5zM924 70q13 60 73 146.5t177 178.5l73 58q82 63 115.5 103.5t42.5 84.5q8 44 -7.5 73t-49.5 29q-75 0 -107 -120q-20 -70 -111 -70q-93 0 -69 98q22 109 104 172.5t209 63.5q142 0 203.5 -57.5 t38.5 -163.5q-25 -130 -168 -240l-131 -100q-116 -90 -160 -170h262q48 0 69 -17t11 -61q-15 -78 -113 -78h-397q-79 0 -65 70z" />
<glyph unicode="&#xbe;" horiz-adv-x="1515" d="M188 756.5q0 21.5 5 42.5q20 98 114 98q96 0 84 -86q-14 -106 76 -106q97 0 127 139q18 85 -2 113.5t-78 33.5q-52 4 -69 18.5t-11 45.5q8 33 26 45.5t72 21.5q59 9 86.5 36t40.5 91q7 40 -6.5 67t-56.5 27q-72 0 -100 -75q-27 -68 -113 -68q-44 0 -62 20t-12 54 q20 91 97.5 146t214.5 55q155 0 211 -61.5t32 -166.5q-30 -147 -151 -180l-2 -4q71 -24 91 -78t-1 -139q-29 -134 -116.5 -203.5t-248.5 -69.5q-60 0 -106 11.5t-72 31t-43 42.5t-22 50t-5 48.5zM397 -14q6 31 25 59l924 1428q34 53 98 53q34 0 49 -19t10 -45 q-7 -33 -24 -59l-926 -1428q-34 -53 -98 -53q-35 0 -50 19.5t-8 44.5zM899 219q11 52 47 98l375 508q19 25 47.5 37t85.5 12q60 0 80.5 -21t13.5 -56l-106 -502h31q30 0 47.5 -18t9.5 -60q-10 -42 -36 -60t-56 -18h-31l-14 -76q-21 -90 -115 -90q-93 0 -72 90l15 76h-236 q-54 0 -75 18t-11 62zM1075 295h180l74 350h-4z" />
<glyph unicode="&#xbf;" horiz-adv-x="985" d="M119 -10q21 99 75 179t152 167l74 65q83 74 117 121t59 123q14 47 50 77t89 30q51 0 76.5 -34.5t13.5 -94.5q-16 -74 -63.5 -155t-120.5 -149l-92 -83q-147 -137 -172 -265q-14 -69 9.5 -113t84.5 -44q47 0 85.5 30t57.5 82q26 75 61 105t95 30q56 0 82 -33.5t14 -90.5 q-30 -144 -146.5 -237t-283.5 -93q-197 0 -277 96.5t-40 286.5zM629 979q14 65 69 110.5t119 45.5t100.5 -45.5t22.5 -110.5q-13 -64 -69 -110t-121 -46q-64 0 -99.5 45.5t-21.5 110.5z" />
<glyph unicode="&#xc0;" horiz-adv-x="1062" d="M47 92q6 38 39 113l498 1104q35 79 65.5 117.5t76.5 56.5t124 18q104 0 142.5 -40t41.5 -152l27 -1096q0 -98 -4 -113q-13 -64 -59 -95.5t-103 -31.5q-75 0 -102.5 38.5t-24.5 140.5l2 217h-338l-110 -267q-30 -70 -68.5 -99.5t-103.5 -29.5q-61 0 -88 32t-15 87z M524 586h250l8 612h-4zM707 1849q9 39 41 63.5t67 24.5q27 0 42.5 -6t31.5 -26l135 -174q22 -29 16 -68q-9 -39 -38 -64.5t-68 -25.5q-36 0 -66 33l-131 149q-40 50 -30 94z" />
<glyph unicode="&#xc1;" horiz-adv-x="1062" d="M47 92q6 38 39 113l498 1104q35 79 65.5 117.5t76.5 56.5t124 18q104 0 142.5 -40t41.5 -152l27 -1096q0 -98 -4 -113q-13 -64 -59 -95.5t-103 -31.5q-75 0 -102.5 38.5t-24.5 140.5l2 217h-338l-110 -267q-30 -70 -68.5 -99.5t-103.5 -29.5q-61 0 -88 32t-15 87z M524 586h250l8 612h-4zM758 1663q6 37 45 68l209 174q25 20 42 26t44 6q35 0 57.5 -24.5t13.5 -63.5q-10 -48 -71 -94l-193 -149q-45 -33 -82 -33q-39 0 -56.5 25.5t-8.5 64.5z" />
<glyph unicode="&#xc2;" horiz-adv-x="1062" d="M47 92q6 38 39 113l498 1104q35 79 65.5 117.5t76.5 56.5t124 18q104 0 142.5 -40t41.5 -152l27 -1096q0 -98 -4 -113q-13 -64 -59 -95.5t-103 -31.5q-75 0 -102.5 38.5t-24.5 140.5l2 217h-338l-110 -267q-30 -70 -68.5 -99.5t-103.5 -29.5q-61 0 -88 32t-15 87z M524 586h250l8 612h-4zM635 1657q4 26 39 63l114 133q42 48 80.5 66t87.5 18t79 -17.5t52 -66.5l62 -133q15 -34 10 -63q-7 -37 -37.5 -60.5t-70.5 -23.5q-47 0 -64 45l-63 164l-133 -164q-38 -45 -84 -45q-40 0 -60 23.5t-12 60.5z" />
<glyph unicode="&#xc3;" horiz-adv-x="1062" d="M47 92q6 38 39 113l498 1104q35 79 65.5 117.5t76.5 56.5t124 18q104 0 142.5 -40t41.5 -152l27 -1096q0 -98 -4 -113q-13 -64 -59 -95.5t-103 -31.5q-75 0 -102.5 38.5t-24.5 140.5l2 217h-338l-110 -267q-30 -70 -68.5 -99.5t-103.5 -29.5q-61 0 -88 32t-15 87z M524 586h250l8 612h-4zM561 1667q12 60 90.5 117t147.5 57q58 0 136.5 -26.5t92.5 -26.5q32 0 85.5 36t82.5 36q35 0 54 -21t12 -53q-12 -64 -87.5 -124t-150.5 -60q-21 0 -124 26.5t-116 26.5q-27 0 -74.5 -35t-76.5 -35q-38 0 -58.5 22.5t-13.5 59.5z" />
<glyph unicode="&#xc4;" horiz-adv-x="1062" d="M47 92q6 38 39 113l498 1104q35 79 65.5 117.5t76.5 56.5t124 18q104 0 142.5 -40t41.5 -152l27 -1096q0 -98 -4 -113q-13 -64 -59 -95.5t-103 -31.5q-75 0 -102.5 38.5t-24.5 140.5l2 217h-338l-110 -267q-30 -70 -68.5 -99.5t-103.5 -29.5q-61 0 -88 32t-15 87z M524 586h250l8 612h-4zM586 1731q10 57 59.5 97t106.5 40t88 -40t20 -97q-12 -57 -61.5 -97.5t-106.5 -40.5t-87.5 40.5t-18.5 97.5zM967 1731q10 57 59.5 97t106.5 40t88 -40t20 -97q-12 -57 -61.5 -97.5t-106.5 -40.5t-87.5 40.5t-18.5 97.5z" />
<glyph unicode="&#xc5;" horiz-adv-x="1062" d="M47 92q6 38 39 113l498 1104q35 79 65.5 117.5t76.5 56.5t124 18q104 0 142.5 -40t41.5 -152l27 -1096q0 -98 -4 -113q-13 -64 -59 -95.5t-103 -31.5q-75 0 -102.5 38.5t-24.5 140.5l2 217h-338l-110 -267q-30 -70 -68.5 -99.5t-103.5 -29.5q-61 0 -88 32t-15 87z M524 586h250l8 612h-4zM690 1759q19 91 95 154t167 63t141 -63t31 -154q-20 -91 -96.5 -154t-167.5 -63t-140.5 63t-29.5 154zM809 1759q-9 -41 13 -69.5t63 -28.5t76.5 28.5t44.5 69.5q8 42 -14.5 70.5t-63.5 28.5t-76.5 -29t-42.5 -70z" />
<glyph unicode="&#xc6;" horiz-adv-x="1593" d="M33 92q4 22 28 74l598 1198q27 56 67 83.5t103 27.5h865q73 0 101 -33.5t15 -89.5q-11 -56 -53 -89.5t-115 -33.5h-407l-74 -340h383q73 0 101.5 -33.5t15.5 -89.5q-11 -56 -53 -89.5t-115 -33.5h-383l-84 -397h408q73 0 100 -33.5t16 -89.5t-54 -89.5t-116 -33.5h-534 q-75 0 -103.5 35.5t-13.5 111.5l47 222h-336l-118 -248q-37 -73 -76 -110.5t-103 -37.5t-92 37t-18 82zM547 586h276l140 655h-99z" />
<glyph unicode="&#xc7;" horiz-adv-x="1024" d="M168 248q-5 47 2.5 118t16 119t24.5 121l49 234q42 195 96.5 324t131 205.5t169 108t220.5 31.5q196 0 281.5 -104t51.5 -264q-34 -164 -174 -164q-77 0 -97.5 34.5t-12.5 131.5q9 149 -97 149q-34 0 -58.5 -6t-51.5 -24.5t-48 -52.5t-43.5 -88.5t-44 -134.5t-44.5 -189 l-19 -82q-16 -77 -25.5 -125t-19 -106t-12 -93t-2 -73.5t9 -60t23 -41t37.5 -27t55 -7.5q53 0 103 44t65 106q35 130 74 177.5t122 47.5q69 0 94.5 -43t10.5 -119q-44 -207 -171 -312t-317 -118l-69 -80h26q83 0 123.5 -35t24.5 -108q-17 -83 -97.5 -133.5t-183.5 -50.5 q-68 0 -109 21.5t-34 55.5q4 23 19 37.5t32 14.5q19 0 52 -11.5t48 -11.5q37 0 68 19t39 55q6 27 -10.5 46t-44.5 19q-10 0 -33.5 -3t-32.5 -3q-16 0 -25.5 10t-7.5 23q2 8 33 47l76 88q-77 7 -133 32.5t-89 59.5t-49.5 89t-21.5 102z" />
<glyph unicode="&#xc8;" horiz-adv-x="1024" d="M145 147l252 1180q29 148 178 148h535q73 0 101.5 -33.5t15.5 -89.5q-11 -56 -53 -89.5t-115 -33.5h-408l-73 -340h380q73 0 101.5 -33.5t15.5 -89.5q-11 -56 -53 -89.5t-115 -33.5h-381l-84 -397h422q73 0 100.5 -33.5t16.5 -89.5t-54 -89.5t-116 -33.5h-549 q-75 0 -103.5 35.5t-13.5 111.5zM698 1849q9 39 41.5 63.5t67.5 24.5q27 0 42.5 -6t31.5 -26l135 -174q22 -29 16 -68q-9 -39 -38 -64.5t-68 -25.5q-36 0 -66 33l-131 149q-40 51 -31 94z" />
<glyph unicode="&#xc9;" horiz-adv-x="1024" d="M145 147l252 1180q29 148 178 148h535q73 0 101.5 -33.5t15.5 -89.5q-11 -56 -53 -89.5t-115 -33.5h-408l-73 -340h380q73 0 101.5 -33.5t15.5 -89.5q-11 -56 -53 -89.5t-115 -33.5h-381l-84 -397h422q73 0 100.5 -33.5t16.5 -89.5t-54 -89.5t-116 -33.5h-549 q-75 0 -103.5 35.5t-13.5 111.5zM750 1663q6 37 45 68l209 174q25 20 42 26t44 6q35 0 57.5 -24.5t13.5 -63.5q-10 -48 -71 -94l-193 -149q-45 -33 -82 -33q-39 0 -56.5 25.5t-8.5 64.5z" />
<glyph unicode="&#xca;" horiz-adv-x="1024" d="M145 147l252 1180q29 148 178 148h535q73 0 101.5 -33.5t15.5 -89.5q-11 -56 -53 -89.5t-115 -33.5h-408l-73 -340h380q73 0 101.5 -33.5t15.5 -89.5q-11 -56 -53 -89.5t-115 -33.5h-381l-84 -397h422q73 0 100.5 -33.5t16.5 -89.5t-54 -89.5t-116 -33.5h-549 q-75 0 -103.5 35.5t-13.5 111.5zM627 1657q4 26 39 63l114 133q42 48 80.5 66t87.5 18t79 -17.5t52 -66.5l62 -133q15 -34 10 -63q-7 -37 -38 -60.5t-71 -23.5q-46 0 -63 45l-64 164l-133 -164q-38 -45 -84 -45q-39 0 -59 23.5t-12 60.5z" />
<glyph unicode="&#xcb;" horiz-adv-x="1024" d="M145 147l252 1180q29 148 178 148h535q73 0 101.5 -33.5t15.5 -89.5q-11 -56 -53 -89.5t-115 -33.5h-408l-73 -340h380q73 0 101.5 -33.5t15.5 -89.5q-11 -56 -53 -89.5t-115 -33.5h-381l-84 -397h422q73 0 100.5 -33.5t16.5 -89.5t-54 -89.5t-116 -33.5h-549 q-75 0 -103.5 35.5t-13.5 111.5zM578 1731q10 57 59 97t106 40t88.5 -40t20.5 -97q-12 -57 -61.5 -97.5t-106.5 -40.5t-87.5 40.5t-18.5 97.5zM958 1731q10 57 59.5 97t106.5 40t88.5 -40t20.5 -97q-12 -57 -61.5 -97.5t-106.5 -40.5t-88 40.5t-19 97.5z" />
<glyph unicode="&#xcc;" horiz-adv-x="528" d="M152 115l264 1245q13 63 62 102t106 39t88 -39t18 -102l-264 -1245q-13 -63 -62 -102.5t-106 -39.5t-88 39.5t-18 102.5zM438 1849q9 39 41.5 63.5t67.5 24.5q27 0 42.5 -6t31.5 -26l135 -174q22 -29 16 -68q-9 -39 -38 -64.5t-68 -25.5q-36 0 -66 33l-131 149 q-40 51 -31 94z" />
<glyph unicode="&#xcd;" horiz-adv-x="528" d="M152 115l264 1245q13 63 62 102t106 39t88 -39t18 -102l-264 -1245q-13 -63 -62 -102.5t-106 -39.5t-88 39.5t-18 102.5zM489 1663q6 37 46 68l208 174q25 20 42 26t44 6q35 0 58 -24.5t14 -63.5q-10 -47 -72 -94l-192 -149q-45 -33 -82 -33q-39 0 -57 25.5t-9 64.5z" />
<glyph unicode="&#xce;" horiz-adv-x="528" d="M152 115l264 1245q13 63 62 102t106 39t88 -39t18 -102l-264 -1245q-13 -63 -62 -102.5t-106 -39.5t-88 39.5t-18 102.5zM354 1657q4 26 39 63l115 133q42 48 80.5 66t87.5 18t79 -17.5t52 -66.5l61 -133q16 -36 11 -63q-7 -37 -38 -60.5t-71 -23.5q-46 0 -63 45l-64 164 l-133 -164q-38 -45 -84 -45q-40 0 -60 23.5t-12 60.5z" />
<glyph unicode="&#xcf;" horiz-adv-x="528" d="M152 115l264 1245q13 63 62 102t106 39t88 -39t18 -102l-264 -1245q-13 -63 -62 -102.5t-106 -39.5t-88 39.5t-18 102.5zM305 1731q10 57 59.5 97t106.5 40t88.5 -40t20.5 -97q-12 -57 -61.5 -97.5t-106.5 -40.5t-88 40.5t-19 97.5zM686 1731q10 57 59.5 97t106.5 40 t88.5 -40t20.5 -97q-12 -57 -61.5 -97.5t-106.5 -40.5t-88 40.5t-19 97.5z" />
<glyph unicode="&#xd0;" horiz-adv-x="1099" d="M129 770q10 50 38 77t64 27h70l96 453q29 148 178 148h359q210 0 271 -155.5t-11 -490.5l-41 -190q-136 -639 -545 -639h-346q-75 0 -103.5 35.5t-13.5 111.5l111 521h-70q-35 0 -51 26.5t-6 75.5zM436 217h127q76 0 128.5 38t100 143t87.5 292l24 119q18 85 28 146 t12.5 113.5t-5 86.5t-26 57.5t-47.5 34t-72 10.5h-136l-82 -383h123q35 0 51.5 -26.5t6.5 -77.5q-10 -49 -38.5 -75.5t-64.5 -26.5h-123z" />
<glyph unicode="&#xd1;" horiz-adv-x="1175" d="M139 115l264 1245q14 65 62.5 103t120.5 38q70 0 106.5 -27.5t52.5 -111.5l156 -807h4l170 805q13 63 62 102t106 39t88.5 -39t18.5 -102l-263 -1233q-14 -71 -62.5 -112.5t-106.5 -41.5q-87 0 -123.5 28t-51.5 112l-151 819h-4l-174 -817q-13 -63 -62 -102.5t-106 -39.5 t-88.5 39.5t-18.5 102.5zM604 1667q12 60 90.5 117t147.5 57q58 0 136.5 -26.5t92.5 -26.5q32 0 85.5 36t82.5 36q35 0 54 -21t12 -53q-12 -64 -87.5 -124t-150.5 -60q-21 0 -124 26.5t-116 26.5q-27 0 -74.5 -35t-76.5 -35q-38 0 -58.5 22.5t-13.5 59.5z" />
<glyph unicode="&#xd2;" horiz-adv-x="1064" d="M174.5 226.5q-6.5 65.5 1.5 158t33 209.5l65 311q24 113 56.5 203.5t68 153t80 108t86.5 72t94 42t96.5 20.5t98.5 5t96 -5t87.5 -20.5t76 -42t55.5 -72t34 -108t3 -153t-30 -203.5l-66 -311q-25 -117 -57 -209.5t-66.5 -158t-77.5 -113t-85 -76t-94 -45t-99.5 -22 t-106.5 -5.5t-104 5.5t-90 22t-74.5 45t-52 76t-29 113zM458.5 378q-8.5 -83 4.5 -125.5t37.5 -56.5t70.5 -14q61 0 99 27t76.5 118t76.5 267l66 311q25 117 31.5 194t-6.5 119t-38.5 58t-68.5 16q-58 0 -98 -30t-77.5 -116t-70.5 -241l-65 -311q-29 -133 -37.5 -216z M694 1849q9 39 41.5 63.5t67.5 24.5q27 0 42.5 -6t31.5 -26l135 -174q22 -29 16 -68q-9 -39 -38 -64.5t-68 -25.5q-36 0 -66 33l-131 149q-40 51 -31 94z" />
<glyph unicode="&#xd3;" horiz-adv-x="1064" d="M174.5 226.5q-6.5 65.5 1.5 158t33 209.5l65 311q24 113 56.5 203.5t68 153t80 108t86.5 72t94 42t96.5 20.5t98.5 5t96 -5t87.5 -20.5t76 -42t55.5 -72t34 -108t3 -153t-30 -203.5l-66 -311q-25 -117 -57 -209.5t-66.5 -158t-77.5 -113t-85 -76t-94 -45t-99.5 -22 t-106.5 -5.5t-104 5.5t-90 22t-74.5 45t-52 76t-29 113zM458.5 378q-8.5 -83 4.5 -125.5t37.5 -56.5t70.5 -14q61 0 99 27t76.5 118t76.5 267l66 311q25 117 31.5 194t-6.5 119t-38.5 58t-68.5 16q-58 0 -98 -30t-77.5 -116t-70.5 -241l-65 -311q-29 -133 -37.5 -216z M745 1663q6 37 46 68l208 174q25 20 42 26t44 6q35 0 58 -24.5t14 -63.5q-10 -47 -72 -94l-192 -149q-45 -33 -82 -33q-39 0 -57 25.5t-9 64.5z" />
<glyph unicode="&#xd4;" horiz-adv-x="1064" d="M174.5 226.5q-6.5 65.5 1.5 158t33 209.5l65 311q24 113 56.5 203.5t68 153t80 108t86.5 72t94 42t96.5 20.5t98.5 5t96 -5t87.5 -20.5t76 -42t55.5 -72t34 -108t3 -153t-30 -203.5l-66 -311q-25 -117 -57 -209.5t-66.5 -158t-77.5 -113t-85 -76t-94 -45t-99.5 -22 t-106.5 -5.5t-104 5.5t-90 22t-74.5 45t-52 76t-29 113zM458.5 378q-8.5 -83 4.5 -125.5t37.5 -56.5t70.5 -14q61 0 99 27t76.5 118t76.5 267l66 311q25 117 31.5 194t-6.5 119t-38.5 58t-68.5 16q-58 0 -98 -30t-77.5 -116t-70.5 -241l-65 -311q-29 -133 -37.5 -216z M623 1657q4 26 39 63l114 133q42 48 80.5 66t87.5 18t79 -17.5t52 -66.5l62 -133q15 -34 10 -63q-7 -37 -38 -60.5t-71 -23.5q-46 0 -63 45l-64 164l-133 -164q-38 -45 -84 -45q-39 0 -59 23.5t-12 60.5z" />
<glyph unicode="&#xd5;" horiz-adv-x="1064" d="M174.5 226.5q-6.5 65.5 1.5 158t33 209.5l65 311q24 113 56.5 203.5t68 153t80 108t86.5 72t94 42t96.5 20.5t98.5 5t96 -5t87.5 -20.5t76 -42t55.5 -72t34 -108t3 -153t-30 -203.5l-66 -311q-25 -117 -57 -209.5t-66.5 -158t-77.5 -113t-85 -76t-94 -45t-99.5 -22 t-106.5 -5.5t-104 5.5t-90 22t-74.5 45t-52 76t-29 113zM458.5 378q-8.5 -83 4.5 -125.5t37.5 -56.5t70.5 -14q61 0 99 27t76.5 118t76.5 267l66 311q25 117 31.5 194t-6.5 119t-38.5 58t-68.5 16q-58 0 -98 -30t-77.5 -116t-70.5 -241l-65 -311q-29 -133 -37.5 -216z M549 1667q12 60 90 117t147 57q58 0 137 -26.5t93 -26.5q32 0 85.5 36t82.5 36q35 0 53.5 -21t11.5 -53q-12 -64 -87 -124t-150 -60q-21 0 -124 26.5t-116 26.5q-27 0 -74.5 -35t-76.5 -35q-38 0 -58.5 22.5t-13.5 59.5z" />
<glyph unicode="&#xd6;" horiz-adv-x="1064" d="M174.5 226.5q-6.5 65.5 1.5 158t33 209.5l65 311q24 113 56.5 203.5t68 153t80 108t86.5 72t94 42t96.5 20.5t98.5 5t96 -5t87.5 -20.5t76 -42t55.5 -72t34 -108t3 -153t-30 -203.5l-66 -311q-25 -117 -57 -209.5t-66.5 -158t-77.5 -113t-85 -76t-94 -45t-99.5 -22 t-106.5 -5.5t-104 5.5t-90 22t-74.5 45t-52 76t-29 113zM458.5 378q-8.5 -83 4.5 -125.5t37.5 -56.5t70.5 -14q61 0 99 27t76.5 118t76.5 267l66 311q25 117 31.5 194t-6.5 119t-38.5 58t-68.5 16q-58 0 -98 -30t-77.5 -116t-70.5 -241l-65 -311q-29 -133 -37.5 -216z M573 1731q10 57 59.5 97t106.5 40t88.5 -40t20.5 -97q-12 -57 -61.5 -97.5t-106.5 -40.5t-88 40.5t-19 97.5zM954 1731q10 57 59.5 97t106.5 40t88.5 -40t20.5 -97q-12 -57 -61.5 -97.5t-106.5 -40.5t-88 40.5t-19 97.5z" />
<glyph unicode="&#xd7;" horiz-adv-x="1228" d="M166 182q13 66 76 117l342 281l-224 280q-39 51 -26 117q8 33 43.5 61.5t71.5 28.5q60 0 100 -53l221 -281l340 281q66 53 125 53q36 0 59 -28.5t15 -61.5q-13 -66 -76 -117l-342 -280l223 -281q40 -52 27 -117q-8 -33 -42.5 -61.5t-70.5 -28.5q-59 0 -102 53l-221 281 l-340 -281q-63 -53 -123 -53q-36 0 -60 28.5t-16 61.5z" />
<glyph unicode="&#xd8;" horiz-adv-x="1064" d="M49 -10q6 22 47 73l88 113q-39 128 25 418l65 311q24 113 56.5 203.5t68 153t80 108t86.5 72t94 42t96.5 20.5t98.5 5q224 0 299 -110l53 65q29 37 46 50.5t38 13.5t31.5 -13.5t7.5 -31.5q-3 -16 -37 -60l-98 -123q35 -149 -18 -395l-66 -311q-25 -117 -57 -209.5 t-66.5 -158t-77.5 -113t-85 -76t-94 -45t-99.5 -22t-106.5 -5.5q-112 0 -185 23.5t-114 87.5l-39 -51q-61 -78 -100 -78q-20 0 -30 14t-7 29zM459 373q-9 -108 16 -149.5t96 -41.5q61 0 99 27t76.5 118t76.5 267l68 321h-4zM487 561h5l428 537q10 104 -17 149t-96 45 q-58 0 -98 -30t-77.5 -116t-70.5 -241z" />
<glyph unicode="&#xd9;" horiz-adv-x="1099" d="M188 391l205 969q13 63 62 102t106 39t88.5 -39t18.5 -102l-201 -942q-24 -118 9 -177t114 -59q79 0 137 59t82 177l201 942q13 63 62 102t106 39t88 -39t18 -102l-205 -969q-42 -198 -180.5 -312t-355.5 -114t-307 114t-48 312zM713 1849q9 39 41 63.5t67 24.5 q27 0 42.5 -6t31.5 -26l135 -174q23 -30 17 -68q-9 -39 -38.5 -64.5t-68.5 -25.5q-36 0 -66 33l-131 149q-40 50 -30 94z" />
<glyph unicode="&#xda;" horiz-adv-x="1099" d="M188 391l205 969q13 63 62 102t106 39t88.5 -39t18.5 -102l-201 -942q-24 -118 9 -177t114 -59q79 0 137 59t82 177l201 942q13 63 62 102t106 39t88 -39t18 -102l-205 -969q-42 -198 -180.5 -312t-355.5 -114t-307 114t-48 312zM764 1663q6 37 45 68l209 174 q25 20 42 26t44 6q35 0 58 -24.5t14 -63.5q-10 -47 -72 -94l-193 -149q-45 -33 -82 -33q-39 0 -56.5 25.5t-8.5 64.5z" />
<glyph unicode="&#xdb;" horiz-adv-x="1099" d="M188 391l205 969q13 63 62 102t106 39t88.5 -39t18.5 -102l-201 -942q-24 -118 9 -177t114 -59q79 0 137 59t82 177l201 942q13 63 62 102t106 39t88 -39t18 -102l-205 -969q-42 -198 -180.5 -312t-355.5 -114t-307 114t-48 312zM641 1657q4 26 39 63l115 133 q42 48 80.5 66t87.5 18t79 -17.5t52 -66.5l61 -133q15 -34 10 -63q-7 -37 -37.5 -60.5t-70.5 -23.5q-47 0 -64 45l-63 164l-133 -164q-38 -45 -84 -45q-40 0 -60 23.5t-12 60.5z" />
<glyph unicode="&#xdc;" horiz-adv-x="1099" d="M188 391l205 969q13 63 62 102t106 39t88.5 -39t18.5 -102l-201 -942q-24 -118 9 -177t114 -59q79 0 137 59t82 177l201 942q13 63 62 102t106 39t88 -39t18 -102l-205 -969q-42 -198 -180.5 -312t-355.5 -114t-307 114t-48 312zM592 1731q10 57 59.5 97t106.5 40t88 -40 t20 -97q-12 -57 -61.5 -97.5t-106.5 -40.5t-87.5 40.5t-18.5 97.5zM973 1731q10 57 59.5 97t106.5 40t88 -40t20 -97q-12 -57 -61.5 -97.5t-106.5 -40.5t-87.5 40.5t-18.5 97.5z" />
<glyph unicode="&#xdd;" horiz-adv-x="985" d="M326 1376q13 62 58.5 93.5t102.5 31.5q63 0 86 -25.5t35 -103.5l78 -467l291 488q37 64 75 86t89 22q56 0 85.5 -33.5t20.5 -76.5q-7 -33 -37 -84l-448 -686l-107 -506q-13 -63 -62 -102.5t-106 -39.5t-88 39.5t-18 102.5l104 491l-155 674q-14 59 -4 96zM707 1663 q6 37 45 68l209 174q25 20 42 26t44 6q35 0 57.5 -24.5t13.5 -63.5q-10 -48 -71 -94l-193 -149q-45 -33 -82 -33q-39 0 -56.5 25.5t-8.5 64.5z" />
<glyph unicode="&#xde;" horiz-adv-x="1024" d="M139 115l264 1245q13 63 62 102t106 39t88.5 -39t18.5 -102l-27 -123h215q179 0 255 -101t30 -315q-25 -120 -82 -215.5t-150.5 -156t-209.5 -60.5h-238l-57 -274q-13 -63 -62 -102.5t-106 -39.5t-88.5 39.5t-18.5 102.5zM516 596h123q90 0 146 56.5t77 156.5 q47 221 -117 221h-137z" />
<glyph unicode="&#xdf;" horiz-adv-x="985" d="M137 123l221 1044q34 162 150.5 248t304.5 86q173 0 247.5 -90.5t41.5 -249.5q-45 -209 -203 -268l-2 -4q61 -18 90 -66t27.5 -116.5t-19.5 -157.5q-15 -70 -27.5 -120.5t-32.5 -113t-42 -106t-54.5 -88.5t-70.5 -72t-89.5 -44t-111.5 -17q-52 0 -83.5 26.5t-20.5 77.5 q8 42 32 66t87 45q51 17 79 76.5t62 220.5q29 123 22 189t-61 87q-38 13 -49 36.5t-2 64.5q10 47 30.5 67.5t65.5 40.5q81 35 100 137q7 41 9.5 79t-18 65.5t-62.5 27.5q-123 0 -156 -159l-215 -1012q-17 -75 -58 -112.5t-100 -37.5t-84 38t-8 112z" />
<glyph unicode="&#xe0;" horiz-adv-x="909" d="M135 270q27 127 84 204.5t166 129.5l248 117q88 42 104 117q10 47 -9 78.5t-64 31.5q-62 0 -94.5 -30.5t-55.5 -100.5q-12 -37 -48.5 -58.5t-86.5 -21.5t-86 25.5t-25 77.5q30 140 145.5 217.5t266.5 77.5q97 0 162.5 -17.5t98.5 -45t45.5 -73t10 -88t-15.5 -104.5 l-121 -569q-9 -40 -14 -96.5t-8 -69.5q-18 -99 -146 -99q-57 0 -86.5 33t-13.5 109l-4 -2q-48 -71 -116.5 -105.5t-141.5 -34.5q-117 0 -172 73.5t-23 223.5zM403 301q-12 -62 5 -96.5t57 -34.5q60 0 107.5 58.5t66.5 148.5l43 196l-102 -61q-94 -58 -128 -99t-49 -112z M539 1483q9 39 41 63.5t67 24.5q27 0 42.5 -6t31.5 -27l135 -174q22 -29 16 -68q-9 -39 -38 -64.5t-68 -25.5q-40 0 -66 33l-131 150q-40 50 -30 94z" />
<glyph unicode="&#xe1;" horiz-adv-x="909" d="M135 270q27 127 84 204.5t166 129.5l248 117q88 42 104 117q10 47 -9 78.5t-64 31.5q-62 0 -94.5 -30.5t-55.5 -100.5q-12 -37 -48.5 -58.5t-86.5 -21.5t-86 25.5t-25 77.5q30 140 145.5 217.5t266.5 77.5q97 0 162.5 -17.5t98.5 -45t45.5 -73t10 -88t-15.5 -104.5 l-121 -569q-9 -40 -14 -96.5t-8 -69.5q-18 -99 -146 -99q-57 0 -86.5 33t-13.5 109l-4 -2q-48 -71 -116.5 -105.5t-141.5 -34.5q-117 0 -172 73.5t-23 223.5zM403 301q-12 -62 5 -96.5t57 -34.5q60 0 107.5 58.5t66.5 148.5l43 196l-102 -61q-94 -58 -128 -99t-49 -112z M590 1296q6 37 45 68l209 174q25 21 42.5 27t43.5 6q35 0 57.5 -24.5t13.5 -63.5q-10 -48 -71 -94l-193 -150q-48 -33 -82 -33q-39 0 -56.5 25.5t-8.5 64.5z" />
<glyph unicode="&#xe2;" horiz-adv-x="909" d="M135 270q27 127 84 204.5t166 129.5l248 117q88 42 104 117q10 47 -9 78.5t-64 31.5q-62 0 -94.5 -30.5t-55.5 -100.5q-12 -37 -48.5 -58.5t-86.5 -21.5t-86 25.5t-25 77.5q30 140 145.5 217.5t266.5 77.5q97 0 162.5 -17.5t98.5 -45t45.5 -73t10 -88t-15.5 -104.5 l-121 -569q-9 -40 -14 -96.5t-8 -69.5q-18 -99 -146 -99q-57 0 -86.5 33t-13.5 109l-4 -2q-48 -71 -116.5 -105.5t-141.5 -34.5q-117 0 -172 73.5t-23 223.5zM403 301q-12 -62 5 -96.5t57 -34.5q60 0 107.5 58.5t66.5 148.5l43 196l-102 -61q-94 -58 -128 -99t-49 -112z M467 1290q4 26 37 64l117 133q42 48 80 66t87 18t79.5 -17.5t52.5 -66.5l59 -133q17 -33 12 -64q-7 -37 -37.5 -60.5t-70.5 -23.5q-47 0 -64 45l-63 164l-133 -164q-38 -45 -84 -45q-40 0 -60 23.5t-12 60.5z" />
<glyph unicode="&#xe3;" horiz-adv-x="909" d="M135 270q27 127 84 204.5t166 129.5l248 117q88 42 104 117q10 47 -9 78.5t-64 31.5q-62 0 -94.5 -30.5t-55.5 -100.5q-12 -37 -48.5 -58.5t-86.5 -21.5t-86 25.5t-25 77.5q30 140 145.5 217.5t266.5 77.5q97 0 162.5 -17.5t98.5 -45t45.5 -73t10 -88t-15.5 -104.5 l-121 -569q-9 -40 -14 -96.5t-8 -69.5q-18 -99 -146 -99q-57 0 -86.5 33t-13.5 109l-4 -2q-48 -71 -116.5 -105.5t-141.5 -34.5q-117 0 -172 73.5t-23 223.5zM393 1300q12 60 90.5 117.5t147.5 57.5q58 0 136.5 -27t92.5 -27q32 0 85.5 36t82.5 36q35 0 54 -21t12 -53 q-12 -64 -87.5 -124t-150.5 -60q-21 0 -124 26.5t-116 26.5q-27 0 -75.5 -34.5t-77.5 -34.5q-38 0 -57.5 22t-12.5 59zM403 301q-12 -62 5 -96.5t57 -34.5q60 0 107.5 58.5t66.5 148.5l43 196l-102 -61q-94 -58 -128 -99t-49 -112z" />
<glyph unicode="&#xe4;" horiz-adv-x="909" d="M135 270q27 127 84 204.5t166 129.5l248 117q88 42 104 117q10 47 -9 78.5t-64 31.5q-62 0 -94.5 -30.5t-55.5 -100.5q-12 -37 -48.5 -58.5t-86.5 -21.5t-86 25.5t-25 77.5q30 140 145.5 217.5t266.5 77.5q97 0 162.5 -17.5t98.5 -45t45.5 -73t10 -88t-15.5 -104.5 l-121 -569q-9 -40 -14 -96.5t-8 -69.5q-18 -99 -146 -99q-57 0 -86.5 33t-13.5 109l-4 -2q-48 -71 -116.5 -105.5t-141.5 -34.5q-117 0 -172 73.5t-23 223.5zM403 301q-12 -62 5 -96.5t57 -34.5q60 0 107.5 58.5t66.5 148.5l43 196l-102 -61q-94 -58 -128 -99t-49 -112z M418 1364q10 57 59.5 97t106.5 40t88 -40t20 -97q-12 -57 -61.5 -97t-106.5 -40t-87.5 40t-18.5 97zM799 1364q10 57 59.5 97t106.5 40t88 -40t20 -97q-12 -57 -61.5 -97t-106.5 -40t-87.5 40t-18.5 97z" />
<glyph unicode="&#xe5;" horiz-adv-x="909" d="M135 270q27 127 84 204.5t166 129.5l248 117q88 42 104 117q10 47 -9 78.5t-64 31.5q-62 0 -94.5 -30.5t-55.5 -100.5q-12 -37 -48.5 -58.5t-86.5 -21.5t-86 25.5t-25 77.5q30 140 145.5 217.5t266.5 77.5q97 0 162.5 -17.5t98.5 -45t45.5 -73t10 -88t-15.5 -104.5 l-121 -569q-9 -40 -14 -96.5t-8 -69.5q-18 -99 -146 -99q-57 0 -86.5 33t-13.5 109l-4 -2q-48 -71 -116.5 -105.5t-141.5 -34.5q-117 0 -172 73.5t-23 223.5zM403 301q-12 -62 5 -96.5t57 -34.5q60 0 107.5 58.5t66.5 148.5l43 196l-102 -61q-94 -58 -128 -99t-49 -112z M561 1423q19 91 95 154t167 63t141 -63t31 -154q-20 -91 -96.5 -154t-167.5 -63t-140.5 63t-29.5 154zM680 1423q-9 -41 14 -69.5t64 -28.5t75.5 28.5t43.5 69.5q8 42 -14.5 70.5t-63.5 28.5t-76.5 -29t-42.5 -70z" />
<glyph unicode="&#xe6;" horiz-adv-x="1327" d="M135 270q27 127 84 204.5t166 129.5l248 117q88 42 104 117q10 47 -9 78.5t-64 31.5q-62 0 -94.5 -30.5t-55.5 -100.5q-12 -37 -48.5 -58.5t-86.5 -21.5t-86 25.5t-25 77.5q30 140 145.5 217.5t266.5 77.5q163 0 227 -82q116 82 248 82q190 0 246.5 -106t7.5 -331 q-9 -43 -18.5 -71t-28.5 -54.5t-51 -39.5t-78 -13h-330l-24 -112q-12 -57 -16.5 -94.5t-1 -73t23.5 -53t57 -17.5q40 0 75.5 34.5t47.5 80.5q19 77 55 105t94 28q61 0 89 -27t14 -96q-32 -149 -144 -235.5t-266 -86.5q-116 0 -180 34.5t-98 111.5q-126 -146 -299 -146 q-117 0 -172 73.5t-23 223.5zM403 301q-12 -62 5 -96.5t57 -34.5q60 0 107.5 58.5t66.5 148.5l43 196l-102 -61q-94 -58 -128 -99t-49 -112zM940 696h219l21 92q32 150 -80 150q-107 0 -139 -150z" />
<glyph unicode="&#xe7;" horiz-adv-x="872" d="M152 254q3 50 10 94.5t20 104.5l43 202q14 64 26.5 111t33 100t44 90t58.5 73t78 58t101 35t128 13q69 0 122 -15.5t84 -41.5t50.5 -57t25.5 -67t5.5 -65.5t-6.5 -57.5q-14 -70 -55.5 -105.5t-96.5 -35.5q-64 0 -88.5 33t-9.5 108q12 51 -9 79t-63 28q-29 0 -52 -14 t-38 -33.5t-29 -58.5t-22 -69t-20 -85l-52 -246q-30 -138 -18.5 -200t70.5 -62q90 0 116 113q27 102 65 141t101 39q56 0 81.5 -39t10.5 -107q-8 -36 -22 -73t-44 -83.5t-68.5 -82.5t-99.5 -63.5t-134 -34.5l-80 -95h26q83 0 123.5 -35t24.5 -108q-17 -83 -97.5 -133.5 t-183.5 -50.5q-68 0 -109 21.5t-34 55.5q4 23 19 37.5t32 14.5q19 0 52 -11.5t48 -11.5q37 0 68 19t39 55q6 27 -10.5 46t-44.5 19q-10 0 -33.5 -3t-32.5 -3q-16 0 -25.5 10t-7.5 23q2 8 33 47l86 100q-58 5 -101 21.5t-70.5 39.5t-43 58.5t-21.5 71.5t-3 86z" />
<glyph unicode="&#xe8;" horiz-adv-x="872" d="M141 222.5q1 51.5 8 100.5t21 115l51 232q14 66 27.5 115t34 100.5t45 87t60 68t79.5 52t102.5 31t130.5 11.5q190 0 246.5 -106t7.5 -331q-9 -43 -18.5 -71t-28.5 -54.5t-51 -39.5t-78 -13h-327l-25 -112q-12 -57 -16.5 -94.5t-1 -73t23.5 -53t57 -17.5q39 0 74 34.5 t47 80.5q19 76 55.5 104.5t94.5 28.5q61 0 88.5 -27t13.5 -96q-32 -149 -143.5 -235.5t-265.5 -86.5q-72 0 -125.5 11.5t-89.5 31t-57.5 52t-31 68t-8.5 87zM487 696h218l20 92q32 150 -78 150q-107 0 -139 -150zM532 1483q9 39 41.5 63.5t67.5 24.5q27 0 42.5 -6t31.5 -27 l135 -174q22 -29 16 -68q-9 -39 -38 -64.5t-68 -25.5q-40 0 -66 33l-131 150q-40 51 -31 94z" />
<glyph unicode="&#xe9;" horiz-adv-x="872" d="M141 222.5q1 51.5 8 100.5t21 115l51 232q14 66 27.5 115t34 100.5t45 87t60 68t79.5 52t102.5 31t130.5 11.5q190 0 246.5 -106t7.5 -331q-9 -43 -18.5 -71t-28.5 -54.5t-51 -39.5t-78 -13h-327l-25 -112q-12 -57 -16.5 -94.5t-1 -73t23.5 -53t57 -17.5q39 0 74 34.5 t47 80.5q19 76 55.5 104.5t94.5 28.5q61 0 88.5 -27t13.5 -96q-32 -149 -143.5 -235.5t-265.5 -86.5q-72 0 -125.5 11.5t-89.5 31t-57.5 52t-31 68t-8.5 87zM487 696h218l20 92q32 150 -78 150q-107 0 -139 -150zM584 1296q6 37 45 68l209 174q25 21 42.5 27t43.5 6 q35 0 57.5 -24.5t13.5 -63.5q-10 -48 -71 -94l-193 -150q-48 -33 -82 -33q-39 0 -56.5 25.5t-8.5 64.5z" />
<glyph unicode="&#xea;" horiz-adv-x="872" d="M141 222.5q1 51.5 8 100.5t21 115l51 232q14 66 27.5 115t34 100.5t45 87t60 68t79.5 52t102.5 31t130.5 11.5q190 0 246.5 -106t7.5 -331q-9 -43 -18.5 -71t-28.5 -54.5t-51 -39.5t-78 -13h-327l-25 -112q-12 -57 -16.5 -94.5t-1 -73t23.5 -53t57 -17.5q39 0 74 34.5 t47 80.5q19 76 55.5 104.5t94.5 28.5q61 0 88.5 -27t13.5 -96q-32 -149 -143.5 -235.5t-265.5 -86.5q-72 0 -125.5 11.5t-89.5 31t-57.5 52t-31 68t-8.5 87zM461 1290q4 26 37 64l116 133q42 48 80.5 66t87.5 18t79 -17.5t52 -66.5l60 -133q17 -33 12 -64q-8 -37 -38 -60.5 t-70 -23.5q-47 0 -64 45l-63 164l-134 -164q-38 -45 -84 -45q-39 0 -59 23.5t-12 60.5zM487 696h218l20 92q32 150 -78 150q-107 0 -139 -150z" />
<glyph unicode="&#xeb;" horiz-adv-x="872" d="M141 222.5q1 51.5 8 100.5t21 115l51 232q14 66 27.5 115t34 100.5t45 87t60 68t79.5 52t102.5 31t130.5 11.5q190 0 246.5 -106t7.5 -331q-9 -43 -18.5 -71t-28.5 -54.5t-51 -39.5t-78 -13h-327l-25 -112q-12 -57 -16.5 -94.5t-1 -73t23.5 -53t57 -17.5q39 0 74 34.5 t47 80.5q19 76 55.5 104.5t94.5 28.5q61 0 88.5 -27t13.5 -96q-32 -149 -143.5 -235.5t-265.5 -86.5q-72 0 -125.5 11.5t-89.5 31t-57.5 52t-31 68t-8.5 87zM412 1364q10 57 59.5 97t106.5 40t88 -40t20 -97q-12 -57 -61.5 -97t-106.5 -40t-87.5 40t-18.5 97zM487 696h218 l20 92q32 150 -78 150q-107 0 -139 -150zM793 1364q10 57 59 97t106 40t88.5 -40t20.5 -97q-12 -57 -61.5 -97t-106.5 -40t-87.5 40t-18.5 97z" />
<glyph unicode="&#xec;" d="M147 123l183 862q17 75 58 112.5t99 37.5q59 0 84.5 -38t8.5 -112l-183 -862q-17 -75 -58 -112.5t-99 -37.5q-59 0 -84.5 38t-8.5 112zM330 1483q9 39 41 63.5t67 24.5q27 0 42.5 -6t31.5 -27l135 -174q23 -30 17 -68q-9 -39 -38.5 -64.5t-68.5 -25.5t-65 33l-132 150 q-40 50 -30 94z" />
<glyph unicode="&#xed;" d="M147 123l183 862q17 75 58 112.5t99 37.5q59 0 84.5 -38t8.5 -112l-183 -862q-17 -75 -58 -112.5t-99 -37.5q-59 0 -84.5 38t-8.5 112zM381 1296q6 37 45 68l209 174q25 21 42.5 27t43.5 6q35 0 58 -24.5t14 -63.5q-10 -47 -72 -94l-193 -150q-48 -33 -82 -33 q-39 0 -56.5 25.5t-8.5 64.5z" />
<glyph unicode="&#xee;" d="M147 123l183 862q17 75 58 112.5t99 37.5q59 0 84.5 -38t8.5 -112l-183 -862q-17 -75 -58 -112.5t-99 -37.5q-59 0 -84.5 38t-8.5 112zM258 1290q4 26 37 64l117 133q42 48 80.5 66t87.5 18t79 -17.5t52 -66.5l59 -133q17 -33 12 -64q-8 -37 -38 -60.5t-70 -23.5 q-47 0 -64 45l-63 164l-133 -164q-38 -45 -84 -45q-40 0 -60 23.5t-12 60.5z" />
<glyph unicode="&#xef;" d="M147 123l183 862q17 75 58 112.5t99 37.5q59 0 84.5 -38t8.5 -112l-183 -862q-17 -75 -58 -112.5t-99 -37.5q-59 0 -84.5 38t-8.5 112zM209 1364q10 57 59.5 97t106.5 40t88 -40t20 -97q-12 -57 -61.5 -97t-106.5 -40t-87.5 40t-18.5 97zM590 1364q10 57 59.5 97 t106.5 40t88 -40t20 -97q-12 -57 -61.5 -97t-106.5 -40t-87.5 40t-18.5 97z" />
<glyph unicode="&#xf0;" horiz-adv-x="909" d="M138.5 234.5q1.5 54.5 15.5 121.5l57 269q81 383 434 383q89 0 129 -72l6 4q11 152 -35 283l-106 -52q-4 -2 -17 -7.5t-19.5 -8t-18 -6t-23 -5t-24.5 -1.5q-31 0 -48.5 17t-11.5 44q7 33 27.5 54t62.5 40l86 39q-17 19 -47.5 36t-53.5 26.5t-38 27t-10 41.5 q10 43 41 63.5t73 20.5q79 0 137 -29t107 -87l96 45q63 28 103 28q31 0 47 -16.5t10 -44.5q-6 -33 -26.5 -54t-63.5 -40l-84 -41q57 -103 70.5 -250t-17.5 -287l-90 -420q-14 -67 -36 -121.5t-59 -104.5t-85.5 -83.5t-119.5 -53.5t-158 -20t-149.5 20t-97 53.5t-50 83.5 t-14 104.5zM406 195q14 -45 81 -45t100 46t62 181l49 227q28 138 14 182.5t-81 44.5t-100 -45.5t-62 -181.5l-49 -227q-28 -137 -14 -182z" />
<glyph unicode="&#xf1;" horiz-adv-x="948" d="M137 123l182 862q17 75 58 112.5t100 37.5q58 0 83.5 -36.5t10.5 -107.5h4q44 69 116.5 106.5t148.5 37.5q109 0 159.5 -69.5t20.5 -205.5l-156 -737q-17 -75 -58 -112.5t-99 -37.5q-59 0 -84.5 38t-8.5 112l144 678q13 58 -8 87.5t-64 29.5q-130 0 -172 -199l-127 -596 q-17 -75 -58 -112.5t-100 -37.5t-84 38t-8 112zM426 1300q12 60 90.5 117.5t147.5 57.5q58 0 136.5 -27t92.5 -27q32 0 85.5 36t82.5 36q35 0 53.5 -21t11.5 -53q-12 -64 -87 -124t-150 -60q-21 0 -124 26.5t-116 26.5q-27 0 -75.5 -34.5t-77.5 -34.5q-38 0 -57.5 22 t-12.5 59z" />
<glyph unicode="&#xf2;" horiz-adv-x="909" d="M145 266.5q3 61.5 19 136.5l63 302q20 95 53.5 168.5t87.5 135t137 94t191 32.5q87 0 149 -22.5t95.5 -60t48 -93.5t11.5 -117.5t-19 -136.5l-63 -302q-20 -95 -53.5 -168.5t-87.5 -135t-137 -94t-191 -32.5q-87 0 -149 22.5t-95.5 60t-48 93.5t-11.5 117.5zM414 220 q14 -50 78 -50t100 52.5t67 201.5l56 264q23 99 19.5 154.5t-23 75.5t-58.5 20q-59 0 -98 -53.5t-70 -196.5l-55 -264q-30 -154 -16 -204zM539 1483q9 39 41 63.5t67 24.5q27 0 42.5 -6t31.5 -27l135 -174q22 -29 16 -68q-9 -39 -38 -64.5t-68 -25.5q-40 0 -66 33l-131 150 q-40 50 -30 94z" />
<glyph unicode="&#xf3;" horiz-adv-x="909" d="M145 266.5q3 61.5 19 136.5l63 302q20 95 53.5 168.5t87.5 135t137 94t191 32.5q87 0 149 -22.5t95.5 -60t48 -93.5t11.5 -117.5t-19 -136.5l-63 -302q-20 -95 -53.5 -168.5t-87.5 -135t-137 -94t-191 -32.5q-87 0 -149 22.5t-95.5 60t-48 93.5t-11.5 117.5zM414 220 q14 -50 78 -50t100 52.5t67 201.5l56 264q23 99 19.5 154.5t-23 75.5t-58.5 20q-59 0 -98 -53.5t-70 -196.5l-55 -264q-30 -154 -16 -204zM590 1296q6 37 45 68l209 174q25 21 42.5 27t43.5 6q35 0 57.5 -24.5t13.5 -63.5q-10 -48 -71 -94l-193 -150q-48 -33 -82 -33 q-39 0 -56.5 25.5t-8.5 64.5z" />
<glyph unicode="&#xf4;" horiz-adv-x="909" d="M145 266.5q3 61.5 19 136.5l63 302q20 95 53.5 168.5t87.5 135t137 94t191 32.5q87 0 149 -22.5t95.5 -60t48 -93.5t11.5 -117.5t-19 -136.5l-63 -302q-20 -95 -53.5 -168.5t-87.5 -135t-137 -94t-191 -32.5q-87 0 -149 22.5t-95.5 60t-48 93.5t-11.5 117.5zM414 220 q14 -50 78 -50t100 52.5t67 201.5l56 264q23 99 19.5 154.5t-23 75.5t-58.5 20q-59 0 -98 -53.5t-70 -196.5l-55 -264q-30 -154 -16 -204zM467 1290q4 26 37 64l117 133q42 48 80 66t87 18t79.5 -17.5t52.5 -66.5l59 -133q17 -33 12 -64q-7 -37 -37.5 -60.5t-70.5 -23.5 q-47 0 -64 45l-63 164l-133 -164q-38 -45 -84 -45q-40 0 -60 23.5t-12 60.5z" />
<glyph unicode="&#xf5;" horiz-adv-x="909" d="M145 266.5q3 61.5 19 136.5l63 302q20 95 53.5 168.5t87.5 135t137 94t191 32.5q87 0 149 -22.5t95.5 -60t48 -93.5t11.5 -117.5t-19 -136.5l-63 -302q-20 -95 -53.5 -168.5t-87.5 -135t-137 -94t-191 -32.5q-87 0 -149 22.5t-95.5 60t-48 93.5t-11.5 117.5zM393 1300 q12 60 90.5 117.5t147.5 57.5q58 0 136.5 -27t92.5 -27q32 0 85.5 36t82.5 36q35 0 54 -21t12 -53q-12 -64 -87.5 -124t-150.5 -60q-21 0 -124 26.5t-116 26.5q-27 0 -75.5 -34.5t-77.5 -34.5q-38 0 -57.5 22t-12.5 59zM414 220q14 -50 78 -50t100 52.5t67 201.5l56 264 q23 99 19.5 154.5t-23 75.5t-58.5 20q-59 0 -98 -53.5t-70 -196.5l-55 -264q-30 -154 -16 -204z" />
<glyph unicode="&#xf6;" horiz-adv-x="909" d="M145 266.5q3 61.5 19 136.5l63 302q20 95 53.5 168.5t87.5 135t137 94t191 32.5q87 0 149 -22.5t95.5 -60t48 -93.5t11.5 -117.5t-19 -136.5l-63 -302q-20 -95 -53.5 -168.5t-87.5 -135t-137 -94t-191 -32.5q-87 0 -149 22.5t-95.5 60t-48 93.5t-11.5 117.5zM414 220 q14 -50 78 -50t100 52.5t67 201.5l56 264q23 99 19.5 154.5t-23 75.5t-58.5 20q-59 0 -98 -53.5t-70 -196.5l-55 -264q-30 -154 -16 -204zM418 1364q10 57 59.5 97t106.5 40t88 -40t20 -97q-12 -57 -61.5 -97t-106.5 -40t-87.5 40t-18.5 97zM799 1364q10 57 59.5 97 t106.5 40t88 -40t20 -97q-12 -57 -61.5 -97t-106.5 -40t-87.5 40t-18.5 97z" />
<glyph unicode="&#xf7;" horiz-adv-x="1228" d="M158 580q9 45 56 76.5t110 31.5h872q63 0 96.5 -31.5t24.5 -76.5t-56 -77t-110 -32h-872q-63 0 -96.5 32t-24.5 77zM489 145q13 64 68.5 110t120.5 46q64 0 100.5 -45.5t22.5 -110.5q-13 -64 -68.5 -109.5t-120.5 -45.5t-100.5 45.5t-22.5 109.5zM674 1014 q13 64 68 109.5t120 45.5t100.5 -45.5t22.5 -109.5q-14 -65 -69 -110.5t-119 -45.5t-100.5 45.5t-22.5 110.5z" />
<glyph unicode="&#xf8;" horiz-adv-x="909" d="M68 -12q2 17 30 55l68 82q-40 102 -2 278l63 302q20 95 53.5 168.5t87.5 135t137 94t191 32.5q162 0 238 -76l49 61q32 37 66 37q11 0 21 -11.5t7 -25.5q-4 -18 -30 -55l-68 -82q40 -102 2 -278l-63 -302q-20 -95 -53.5 -168.5t-87.5 -135t-137 -94t-191 -32.5 q-166 0 -238 78l-49 -61q-35 -41 -60 -41q-16 0 -27 11.5t-7 27.5zM410 291q-4 -68 16 -94.5t66 -26.5q64 0 100 52.5t67 201.5l50 231h-4zM436 455h4l295 362q3 67 -18 94t-64 27q-59 0 -98 -53.5t-70 -196.5z" />
<glyph unicode="&#xf9;" horiz-adv-x="948" d="M164 248l155 737q17 75 58 112.5t100 37.5t84 -38t8 -112l-143 -678q-26 -117 72 -117q67 0 108.5 48t63.5 151l127 596q17 75 58 112.5t99 37.5q59 0 84.5 -38t8.5 -112l-183 -862q-17 -75 -58 -112.5t-99 -37.5t-84 37t-11 107h-4q-46 -70 -119 -109q-72 -35 -145 -35 q-109 0 -159.5 69.5t-20.5 205.5zM571 1483q9 39 41.5 63.5t67.5 24.5q27 0 42.5 -6t31.5 -27l135 -174q22 -29 16 -68q-9 -39 -38 -64.5t-68 -25.5q-40 0 -66 33l-131 150q-40 51 -31 94z" />
<glyph unicode="&#xfa;" horiz-adv-x="948" d="M164 248l155 737q17 75 58 112.5t100 37.5t84 -38t8 -112l-143 -678q-26 -117 72 -117q67 0 108.5 48t63.5 151l127 596q17 75 58 112.5t99 37.5q59 0 84.5 -38t8.5 -112l-183 -862q-17 -75 -58 -112.5t-99 -37.5t-84 37t-11 107h-4q-46 -70 -119 -109q-72 -35 -145 -35 q-109 0 -159.5 69.5t-20.5 205.5zM623 1296q6 37 45 68l209 174q25 21 42.5 27t43.5 6q35 0 57.5 -24.5t13.5 -63.5q-10 -48 -71 -94l-193 -150q-48 -33 -82 -33q-39 0 -56.5 25.5t-8.5 64.5z" />
<glyph unicode="&#xfb;" horiz-adv-x="948" d="M164 248l155 737q17 75 58 112.5t100 37.5t84 -38t8 -112l-143 -678q-26 -117 72 -117q67 0 108.5 48t63.5 151l127 596q17 75 58 112.5t99 37.5q59 0 84.5 -38t8.5 -112l-183 -862q-17 -75 -58 -112.5t-99 -37.5t-84 37t-11 107h-4q-46 -70 -119 -109q-72 -35 -145 -35 q-109 0 -159.5 69.5t-20.5 205.5zM500 1290q4 26 37 64l116 133q42 48 80.5 66t87.5 18t79 -17.5t52 -66.5l60 -133q17 -33 12 -64q-7 -37 -38 -60.5t-71 -23.5q-46 0 -63 45l-64 164l-133 -164q-38 -45 -84 -45q-39 0 -59 23.5t-12 60.5z" />
<glyph unicode="&#xfc;" horiz-adv-x="948" d="M164 248l155 737q17 75 58 112.5t100 37.5t84 -38t8 -112l-143 -678q-26 -117 72 -117q67 0 108.5 48t63.5 151l127 596q17 75 58 112.5t99 37.5q59 0 84.5 -38t8.5 -112l-183 -862q-17 -75 -58 -112.5t-99 -37.5t-84 37t-11 107h-4q-46 -70 -119 -109q-72 -35 -145 -35 q-109 0 -159.5 69.5t-20.5 205.5zM451 1364q10 57 59 97t106 40t88.5 -40t20.5 -97q-12 -57 -61.5 -97t-106.5 -40t-87.5 40t-18.5 97zM831 1364q10 57 59.5 97t106.5 40t88.5 -40t20.5 -97q-12 -57 -61.5 -97t-106.5 -40t-88 40t-19 97z" />
<glyph unicode="&#xfd;" horiz-adv-x="872" d="M61 -315q10 42 35.5 65t83.5 29q22 2 32 4t25.5 8.5t24 20t12.5 36.5q7 32 7 62l-29 1042q0 50 4 66q10 54 53 85.5t105 31.5q51 0 80 -23.5t28 -73.5l-18 -772h4l278 731q26 68 63.5 103t100.5 35q55 0 84 -30t17 -81q-2 -14 -31 -80l-494 -1096q-73 -166 -143.5 -219 t-226.5 -53q-116 0 -95 109zM571 1296q6 37 45 68l209 174q25 21 42.5 27t43.5 6q35 0 58 -24.5t14 -63.5q-10 -47 -72 -94l-192 -150q-48 -33 -82 -33q-39 0 -57 25.5t-9 64.5z" />
<glyph unicode="&#xfe;" horiz-adv-x="948" d="M63 -274l345 1626q34 149 157 149q59 0 84 -37.5t8 -111.5l-77 -367h4q46 70 116.5 110t137.5 40q55 0 94.5 -16t61.5 -46.5t33 -68.5t10.5 -89.5t-6.5 -101t-19 -111.5l-64 -296q-16 -75 -34.5 -133t-48 -116.5t-66.5 -97t-90.5 -62.5t-118.5 -24q-72 0 -123.5 31.5 t-71.5 93.5l-2 4l-80 -376q-17 -75 -58 -112.5t-99 -37.5q-59 0 -84.5 38t-8.5 112zM447 331q-4 -47 1.5 -84.5t26.5 -57t57 -19.5q64 0 98.5 68.5t67.5 222.5l33 155q26 125 30.5 190.5t-12 93.5t-59.5 28q-121 0 -180 -269l-45 -219q-14 -62 -18 -109z" />
<glyph unicode="&#xff;" horiz-adv-x="872" d="M61 -315q10 42 35.5 65t83.5 29q22 2 32 4t25.5 8.5t24 20t12.5 36.5q7 32 7 62l-29 1042q0 50 4 66q10 54 53 85.5t105 31.5q51 0 80 -23.5t28 -73.5l-18 -772h4l278 731q26 68 63.5 103t100.5 35q55 0 84 -30t17 -81q-2 -14 -31 -80l-494 -1096q-73 -166 -143.5 -219 t-226.5 -53q-116 0 -95 109zM399 1364q10 57 59.5 97t106.5 40t88.5 -40t20.5 -97q-12 -57 -61.5 -97t-106.5 -40t-88 40t-19 97zM780 1364q10 57 59.5 97t106.5 40t88.5 -40t20.5 -97q-12 -57 -61.5 -97t-106.5 -40t-88 40t-19 97z" />
<glyph unicode="&#x152;" horiz-adv-x="1630" d="M174.5 226.5q-6.5 65.5 1.5 158t33 209.5l65 311q24 113 56.5 203.5t68 153t80 108t86.5 72t94 42t96.5 20.5t98.5 5q163 0 223 -79v-5h4q12 22 42 36t63 14h545q73 0 101 -33.5t15 -89.5q-11 -56 -53 -89.5t-115 -33.5h-446l-74 -340h416q73 0 101.5 -33.5t15.5 -89.5 q-11 -56 -53 -89.5t-115 -33.5h-416l-84 -397h446q73 0 100.5 -33.5t16.5 -89.5t-54 -89.5t-116 -33.5h-497q-121 0 -138 43q-90 -78 -258 -78q-59 0 -104 5.5t-90 22t-74.5 45t-52 76t-29 113zM458.5 378q-8.5 -83 4.5 -125.5t37.5 -56.5t70.5 -14q61 0 99 27t76.5 118 t76.5 267l66 311q25 117 31.5 194t-6.5 119t-38.5 58t-68.5 16q-58 0 -98 -30t-77.5 -116t-70.5 -241l-65 -311q-29 -133 -37.5 -216z" />
<glyph unicode="&#x153;" horiz-adv-x="1366" d="M165 187q-8 103 21 249l60 275q89 424 454 424q68 0 133 -23t109 -63v2q127 84 252 84q190 0 246.5 -106t7.5 -331q-9 -43 -18.5 -71t-28.5 -54.5t-51 -39.5t-78 -13h-328l-24 -112q-12 -57 -16.5 -94.5t-1 -73t23.5 -53t57 -17.5q39 0 74 34.5t47 80.5q19 77 55 105 t94 28q61 0 89 -27t14 -96q-32 -149 -144 -235.5t-266 -86.5q-168 0 -246 88q-48 -43 -118 -65.5t-136 -22.5q-134 0 -203.5 55.5t-77.5 158.5zM429.5 251.5q2.5 -42.5 22 -62t56.5 -19.5q30 0 53.5 12.5t39.5 32.5t30 56.5t23.5 73t21.5 93.5l51 232q10 47 15 79t8 65 t0 53.5t-12 38t-26 25t-42 7.5q-37 0 -65 -19.5t-48 -61.5t-33.5 -89.5t-29.5 -122.5l-39 -182q-16 -75 -22 -122t-3.5 -89.5zM981 696h217l21 92q32 150 -78 150q-108 0 -140 -150z" />
<glyph unicode="&#x178;" horiz-adv-x="985" d="M326 1376q13 62 58.5 93.5t102.5 31.5q63 0 86 -25.5t35 -103.5l78 -467l291 488q37 64 75 86t89 22q56 0 85.5 -33.5t20.5 -76.5q-7 -33 -37 -84l-448 -686l-107 -506q-13 -63 -62 -102.5t-106 -39.5t-88 39.5t-18 102.5l104 491l-155 674q-14 59 -4 96zM535 1731 q10 57 59 97t106 40t88.5 -40t20.5 -97q-12 -57 -61.5 -97.5t-106.5 -40.5t-87.5 40.5t-18.5 97.5zM915 1731q10 57 59.5 97t106.5 40t88.5 -40t20.5 -97q-12 -57 -61.5 -97.5t-106.5 -40.5t-88 40.5t-19 97.5z" />
<glyph unicode="&#x2c6;" d="M258 1290q4 26 37 64l117 133q42 48 80.5 66t87.5 18t79 -17.5t52 -66.5l59 -133q17 -33 12 -64q-8 -37 -38 -60.5t-70 -23.5q-47 0 -64 45l-63 164l-133 -164q-38 -45 -84 -45q-40 0 -60 23.5t-12 60.5z" />
<glyph unicode="&#x2dc;" d="M184 1300q12 60 90.5 117.5t147.5 57.5q58 0 136.5 -27t92.5 -27q32 0 85.5 36t82.5 36q35 0 54 -21t12 -53q-12 -64 -87.5 -124t-150.5 -60q-21 0 -123.5 26.5t-115.5 26.5q-27 0 -76 -34.5t-78 -34.5q-38 0 -57.5 22t-12.5 59z" />
<glyph unicode="&#x2000;" horiz-adv-x="988" />
<glyph unicode="&#x2001;" horiz-adv-x="1976" />
<glyph unicode="&#x2002;" horiz-adv-x="988" />
<glyph unicode="&#x2003;" horiz-adv-x="1976" />
<glyph unicode="&#x2004;" horiz-adv-x="658" />
<glyph unicode="&#x2005;" horiz-adv-x="494" />
<glyph unicode="&#x2006;" horiz-adv-x="329" />
<glyph unicode="&#x2007;" horiz-adv-x="329" />
<glyph unicode="&#x2008;" horiz-adv-x="247" />
<glyph unicode="&#x2009;" horiz-adv-x="395" />
<glyph unicode="&#x200a;" horiz-adv-x="109" />
<glyph unicode="&#x2010;" horiz-adv-x="681" d="M203 580q11 50 50 83t101 33h269q63 0 88 -33.5t14 -82.5q-10 -49 -50 -83t-102 -34h-268q-62 0 -87 33.5t-15 83.5z" />
<glyph unicode="&#x2011;" horiz-adv-x="681" d="M203 580q11 50 50 83t101 33h269q63 0 88 -33.5t14 -82.5q-10 -49 -50 -83t-102 -34h-268q-62 0 -87 33.5t-15 83.5z" />
<glyph unicode="&#x2012;" horiz-adv-x="681" d="M203 580q11 50 50 83t101 33h269q63 0 88 -33.5t14 -82.5q-10 -49 -50 -83t-102 -34h-268q-62 0 -87 33.5t-15 83.5z" />
<glyph unicode="&#x2013;" horiz-adv-x="1024" d="M143 580q11 50 50.5 83t101.5 33h729q63 0 88 -33.5t14 -82.5q-10 -49 -49.5 -83t-101.5 -34h-729q-62 0 -87.5 33.5t-15.5 83.5z" />
<glyph unicode="&#x2014;" horiz-adv-x="2048" d="M143 580q11 50 50.5 83t101.5 33h1753q63 0 88 -33.5t14 -82.5q-10 -49 -49.5 -83t-101.5 -34h-1753q-62 0 -87.5 33.5t-15.5 83.5z" />
<glyph unicode="&#x2018;" horiz-adv-x="454" d="M303 1130q33 154 145.5 262.5t206.5 108.5q24 0 36 -15.5t7 -35.5q-4 -23 -17.5 -34.5t-45.5 -22.5q-45 -14 -100 -57t-76 -93q18 2 43 2q76 0 105 -48t18 -101q-14 -67 -71 -114.5t-128 -47.5q-78 0 -108 60t-15 136z" />
<glyph unicode="&#x2019;" horiz-adv-x="454" d="M272 985q4 23 18.5 34.5t47.5 22.5q45 13 99 56.5t77 93.5q-20 -2 -45 -2q-76 0 -104 48t-17 101q14 67 71 114.5t128 47.5q53 0 86 -31t38 -74.5t-3 -90.5q-32 -154 -144 -262.5t-207 -108.5q-24 0 -36 15.5t-9 35.5z" />
<glyph unicode="&#x201a;" horiz-adv-x="454" d="M14 -231q4 23 18 34.5t48 22.5q45 14 98.5 56.5t75.5 92.5q-18 -2 -43 -2q-76 0 -104 48.5t-17 101.5q14 67 71 114.5t128 47.5q78 0 107 -60t14 -137q-33 -154 -145 -262.5t-206 -108.5q-24 0 -37 16t-8 36z" />
<glyph unicode="&#x201c;" horiz-adv-x="872" d="M313 1130q33 154 146 262.5t207 108.5q24 0 36 -15.5t7 -35.5q-4 -23 -17.5 -34.5t-46.5 -22.5q-45 -14 -100 -57t-76 -93q18 2 43 2q76 0 105 -48t18 -101q-14 -67 -71 -114.5t-128 -47.5q-78 0 -108 60t-15 136zM711 1130q33 154 145.5 262.5t206.5 108.5 q24 0 36 -15.5t7 -35.5q-4 -23 -17.5 -34.5t-46.5 -22.5q-45 -14 -100 -57t-76 -93q18 2 43 2q76 0 105 -48t18 -101q-14 -67 -70.5 -114.5t-127.5 -47.5q-78 0 -108 60t-15 136z" />
<glyph unicode="&#x201d;" horiz-adv-x="872" d="M283 985q4 23 18 34.5t47 22.5q45 13 99 56.5t77 93.5q-20 -2 -45 -2q-76 0 -104 48t-17 101q14 67 71 114.5t128 47.5q53 0 86 -31t38 -74.5t-3 -90.5q-32 -154 -143.5 -262.5t-206.5 -108.5q-24 0 -36 15.5t-9 35.5zM680 985q4 23 18 34.5t47 22.5q45 14 99.5 57 t77.5 93q-20 -2 -45 -2q-76 0 -104 48t-17 101q14 67 70.5 114.5t127.5 47.5q53 0 86 -31t38 -74.5t-3 -90.5q-32 -154 -143.5 -262.5t-206.5 -108.5q-24 0 -36 15.5t-9 35.5z" />
<glyph unicode="&#x201e;" horiz-adv-x="872" d="M25 -231q4 23 17.5 34.5t47.5 22.5q45 14 98.5 56.5t75.5 92.5q-18 -2 -43 -2q-76 0 -104 48.5t-17 101.5q14 67 71 114.5t128 47.5q78 0 107 -60t14 -137q-17 -79 -58 -150t-91.5 -118t-104 -75t-96.5 -28q-24 0 -37 16t-8 36zM422 -231q4 23 17.5 34.5t47.5 22.5 q45 14 99.5 56.5t75.5 92.5q-18 -2 -44 -2q-52 0 -83 26.5t-37.5 59t0.5 64.5q14 67 70.5 114.5t127.5 47.5q78 0 107 -60t14 -137q-17 -79 -58 -150t-91.5 -118t-104 -75t-96.5 -28q-24 0 -37 16t-8 36z" />
<glyph unicode="&#x2022;" horiz-adv-x="1024" d="M301 737q32 152 163.5 260.5t283.5 108.5t237 -108.5t53 -260.5q-34 -152 -165 -260t-283 -108t-237.5 108t-51.5 260z" />
<glyph unicode="&#x2026;" horiz-adv-x="2048" d="M213 129q13 64 69 110t121 46q64 0 99.5 -45.5t21.5 -110.5t-69 -110.5t-119 -45.5t-100.5 45.5t-22.5 110.5zM895 129q13 64 69 110t121 46q64 0 99.5 -45.5t21.5 -110.5t-69 -110.5t-119 -45.5t-100.5 45.5t-22.5 110.5zM1577 129q13 64 69 110t121 46q64 0 99.5 -45.5 t21.5 -110.5t-69 -110.5t-119 -45.5t-100.5 45.5t-22.5 110.5z" />
<glyph unicode="&#x202f;" horiz-adv-x="395" />
<glyph unicode="&#x2039;" horiz-adv-x="530" d="M201 580q8 38 29.5 68.5t72.5 68.5l176 133q37 29 70 29q36 0 58.5 -24.5t13.5 -66.5q-4 -18 -20.5 -34.5t-51.5 -42.5l-178 -131l123 -131q43 -46 36 -78q-9 -42 -40.5 -66t-67.5 -24q-35 0 -57 28l-119 133q-35 38 -44 68.5t-1 69.5z" />
<glyph unicode="&#x203a;" horiz-adv-x="530" d="M156 371q4 18 21 35t52 43l177 131l-121 131q-24 26 -33.5 42.5t-5.5 34.5q9 42 40.5 66.5t67.5 24.5q35 0 58 -29l118 -133q35 -38 44 -68t1 -69t-29.5 -69.5t-72.5 -68.5l-176 -133q-36 -28 -70 -28q-36 0 -58 24t-13 66z" />
<glyph unicode="&#x205f;" horiz-adv-x="494" />
<glyph unicode="&#x20ac;" horiz-adv-x="983" d="M147 592q16 78 119 82l8 35q4 30 19 79q-49 0 -73.5 16t-14.5 64q11 51 48.5 67.5t92.5 14.5q59 153 144.5 268t202.5 185t249 70q367 0 330 -175q-11 -48 -47 -81t-82 -33q-35 0 -67 18t-71.5 36.5t-91.5 18.5q-89 0 -164 -87t-128 -220h272q27 0 43 -2t32.5 -9 t22 -23.5t0.5 -43.5q-11 -51 -44 -67.5t-89 -16.5h-293l-24 -114h237q27 0 43.5 -2t33.5 -9t22.5 -24t-0.5 -43q-11 -51 -44.5 -67.5t-89.5 -16.5h-221q-4 -67 2 -122.5t24 -101.5t53.5 -72t86.5 -26q47 0 98.5 21.5t97 43t77.5 21.5q42 0 59 -29.5t8 -76.5 q-13 -59 -61.5 -101t-115.5 -61t-125 -27t-114 -8q-104 0 -180 39.5t-119 113t-60 170t-9 216.5q-53 0 -79.5 15.5t-17.5 64.5z" />
<glyph unicode="&#x2122;" horiz-adv-x="2048" d="M348 1382q9 37 39.5 65t81.5 28h506q51 0 69 -28.5t9 -64.5q-7 -38 -36.5 -66t-80.5 -28h-137l-117 -543q-10 -50 -40.5 -82t-56 -41.5t-46.5 -9.5q-14 0 -30.5 6t-34.5 19.5t-25.5 41.5t0.5 66l116 543h-135q-51 0 -70 28t-12 66zM1022 745l119 558q11 52 35.5 90 t55.5 57.5t60.5 28t59.5 8.5q80 0 125.5 -38.5t60.5 -119.5l59 -342l207 342q96 158 252 158q30 0 55.5 -8t49.5 -29t30.5 -56.5t-2.5 -90.5l-118 -558q-12 -59 -51.5 -96t-84.5 -37t-69.5 37t-12.5 96l91 424h-5l-280 -448q-68 -109 -139 -109q-77 0 -95 109l-92 448h-4 l-90 -424q-12 -59 -51 -96t-84 -37t-69.5 37t-12.5 96z" />
<glyph unicode="&#xe000;" horiz-adv-x="1136" d="M0 0v1137h1137v-1137h-1137z" />
</font>
</defs>
</svg>
