<?xml version="1.0" standalone="no"?>
<!DOCTYPE svg PUBLIC "-//W3C//DTD SVG 1.1//EN" "http://www.w3.org/Graphics/SVG/1.1/DTD/svg11.dtd" >
<svg xmlns="http://www.w3.org/2000/svg" xmlns:xlink="http://www.w3.org/1999/xlink" version="1.1">
<metadata></metadata>
<defs>
<font id="californiaregular" horiz-adv-x="600" >
<font-face units-per-em="2048" ascent="1536" descent="-512" />
<missing-glyph horiz-adv-x="450" />
<glyph horiz-adv-x="0" />
<glyph unicode="&#xd;" horiz-adv-x="1024" />
<glyph horiz-adv-x="0" />
<glyph horiz-adv-x="0" />
<glyph unicode=" "  horiz-adv-x="450" />
<glyph unicode="&#x09;" horiz-adv-x="450" />
<glyph unicode="&#xa0;" horiz-adv-x="450" />
<glyph unicode="!" horiz-adv-x="434" d="M63 104q-2 39 17 58q20 25 88 24q63 0 86 -22q12 -16 10 -37q4 -61 -33 -98q-23 -25 -51 -25v-18v18q-47 2 -80.5 30.5t-36.5 69.5zM135 475q10 109 22.5 217.5t24.5 212.5q6 59 13.5 119.5t13.5 120.5q2 18 2 36.5v35.5q-2 23 -1 44t5 42q8 45 22.5 86t32.5 75 q14 20 29 21q14 0 20 -23q16 -53 26.5 -103t4.5 -97q-25 -199 -54.5 -391.5t-59.5 -381.5q-4 -18 -12.5 -35.5t-18.5 -35.5q-4 -8 -7 -14.5t-8 -12.5l-16 -4q-4 6 -7 12.5t-7 12.5q-10 16 -18.5 32.5t-6.5 30.5z" />
<glyph unicode="&#x22;" horiz-adv-x="440" d="M82 1309q4 6 9 14t9 12l6 6q16 0 40 -14t51 -39q29 -31 46 -58.5t17 -37.5q0 -8 -6 -17.5t-10 -13.5q-12 -6 -27.5 -11t-26.5 -7q-31 41 -58.5 83t-49.5 83zM82 1437.5q-2 16.5 2 20.5q8 10 23.5 19.5t25.5 9.5q35 -14 67.5 -37t63.5 -45q12 -10 24.5 -24.5t24.5 -30.5 q10 -16 19.5 -30.5t19.5 -31.5l6 -10l-82 -41q-6 2 -18 10q-29 14 -45 33q-29 27 -60.5 59.5t-60.5 71.5q-8 10 -10 26.5z" />
<glyph unicode="#" horiz-adv-x="1243" d="M82 752q4 20 16.5 27t55.5 22q43 14 110 2q12 -4 22.5 -4h18.5q88 0 94 108q0 14 13 39l12 31l6 22l-256 39l-4 17q-6 16 -11 31.5t-9 31.5q-2 8 -5.5 20.5t-1.5 16.5q4 8 15.5 15.5t21.5 7.5q12 0 25 -7q10 -4 18 -6t19 -2q20 -2 36.5 -2h30.5q49 0 77 10.5t44 38 t25.5 75.5t19.5 124l2 6q4 35 14.5 53.5t16.5 18.5q4 0 15.5 -14.5t21.5 -42.5q4 -6 2 -18.5t-6 -25.5q-4 -16 -4 -24q-6 -35 -12.5 -71t-12.5 -74l-8 -52h231l2 17q2 16 4 31.5t4 31.5q4 41 11.5 81t17.5 81q4 18 21.5 37.5t35.5 23.5h5q6 0 12 -13t8 -58q0 -31 -4 -64 t-10 -67q-2 -16 -4 -32.5t-7 -35.5l-2 -22l23 2q10 0 19.5 1t19.5 1q20 2 36.5 4t35.5 0q16 0 31.5 -1t37.5 -3q8 -2 17.5 -2t19.5 -2q-2 -12 -7 -25.5t-15 -26.5q-16 -23 -40 -35t-34 -14q-57 -6 -90 -29.5t-48.5 -57.5t-17.5 -76t0 -85v-20l344 22q-23 -31 -46 -48 t-50 -25t-55.5 -10.5t-57.5 -2.5h-49l-6 -2q-20 0 -39.5 -3t-35 -13t-25 -31.5t-11.5 -58.5q-4 -47 -9 -96.5t-11 -96.5q-4 -35 -9 -70.5t-9 -72.5q0 -10 -1.5 -19.5t-1.5 -19.5q-4 -55 -13 -90t-56 -51q-14 -6 -21 -23q-27 51 -25.5 104.5t7.5 110.5q8 68 16.5 134.5 t18.5 138.5l16 145h-20h-52q-33 2 -57 1t-47 -5q-20 -4 -39.5 -25.5t-23.5 -44.5l-7 -39q-16 -111 -30.5 -223t-24.5 -227q-4 -59 -31.5 -93t-58.5 -63q-10 -6 -14 -6t-7 2q-4 6 -8 17.5t0 29.5l17 115q14 100 27.5 200.5t27.5 202.5q4 16 7 33t9 37q4 10 7.5 22.5t7.5 26.5 l4 25h-23h-63q-37 -2 -71 -2t-60 4q-4 2 -17 2q-25 2 -39 7t-20 26zM483 914.5q0 -19.5 3 -41t10.5 -39t19.5 -23.5q55 -23 88 -23q45 0 70 29q45 51 33 189l-2 18h-19h-41q-29 2 -55.5 1t-48.5 -5q-20 -4 -38 -29.5t-20 -48.5v-27.5z" />
<glyph unicode="$" horiz-adv-x="569" d="M139 569q10 14 45 37q4 0 9 4l-7 -37q-8 -39 -13 -70.5t-5 -64.5q0 -23 7 -44t15 -42q8 -16 15 -35l6 -18l20 8q14 6 37 12q29 8 51.5 17.5t26.5 30.5q16 61 27.5 127.5t-2.5 126.5q-14 57 -49 116.5t-82 106.5q-51 49 -73 93t-19.5 89t27 96.5t65.5 118.5 q16 25 27.5 51.5t21.5 55.5l18 43q4 10 7 18t8 18q8 18 15 37t17 35q4 0 8.5 -1t8.5 -1q12 -66 18 -129l2 -16q0 -8 -2 -13q-2 -4 -2 -8t-2 -8l-4 -16l16 -7q33 -10 51.5 -28.5t26.5 -43t9 -54t1 -60.5v-12q0 -10 -6 -20.5t-12 -20.5l-4 -4h-2q-23 18 -37 37q-4 6 -9 13 t-9 15q-10 16 -19.5 30.5t-26.5 21.5q-20 6 -53 -10.5t-43 -41.5q-10 -31 -13 -68.5t13 -64.5q14 -27 32.5 -51.5t37.5 -46.5q23 -29 44 -57.5t36 -61.5q31 -70 45 -144.5t22 -138.5q6 -45 -4 -82.5t-29.5 -67.5t-42 -51.5t-40.5 -35.5q-37 -25 -47.5 -55.5t-14.5 -59.5 q-2 -20 -10 -47q-8 -16 -18.5 -33.5t-20.5 -33.5q-2 -2 -3 -4.5t-3 -4.5l-8 9q-12 14 -23.5 27t-19.5 30q-8 14 -12.5 28.5t-8.5 30.5q-6 20 -12 41t-19 37q-117 180 -6 352z" />
<glyph unicode="%" horiz-adv-x="884" d="M84 1161q-4 100 16.5 170t69.5 121l4 4q10 10 21.5 20.5t25.5 10.5q39 -8 61.5 -34t41.5 -60q14 -25 14 -68t-10.5 -87t-26.5 -83t-37 -53q-31 -25 -74 -25q-37 0 -69.5 21.5t-36.5 62.5zM131 18q0 10 2 17q0 41 10 61q131 283 245 591t218 659q10 41 26.5 62.5 t51.5 21.5q14 0 37 -7q-4 -10 -5 -21t-3 -22q-6 -33 -12.5 -63.5t-16.5 -59.5q-84 -219 -167 -432t-161 -415l-2 -7q-35 -86 -68.5 -171t-74.5 -169q-4 -10 -20.5 -17t-36.5 -17q-6 -2 -23 -11zM575.5 152q-2.5 49 5 101t21.5 98t35 65q12 12 37 12h6q10 -10 18.5 -17.5 t18.5 -15.5q39 -33 65.5 -65.5t14.5 -91.5l-2 -5l2 -6q16 -49 -9.5 -79.5t-60.5 -59.5q-12 -10 -24.5 -20.5t-22.5 -22.5q-18 -20 -45 -10t-43 41q-14 27 -16.5 76z" />
<glyph unicode="&#x26;" horiz-adv-x="1042" d="M88 272q-8 76 2 153t39 147.5t68 121.5q72 92 43 189q-57 199 82 436q14 23 35.5 52.5t51 55t67.5 43t85 17.5q20 0 31 -2q23 -4 49.5 -32t38.5 -58q53 -150 -41 -215q-16 -12 -41 -25.5t-47 -3.5q-12 14 18 72q18 35 32.5 77.5t-5.5 94.5l-10 20l-19 -12 q-16 -10 -29.5 -18.5t-25.5 -16.5q-27 -16 -49.5 -30.5t-42.5 -30.5q-39 -35 -61.5 -76t-35 -82t-14.5 -80t0 -72q4 -57 30 -88.5t67 -31.5h16t14 4q10 -2 30.5 -24.5t22.5 -33.5q-2 -23 -17 -54.5t-26 -41.5q-20 4 -30 4q-41 0 -69 -17.5t-48 -42t-32.5 -51t-18.5 -45.5 q-47 -115 -55 -272q0 -18 5 -41.5t15 -45t23.5 -39t27.5 -19.5q8 -2 25 -2q41 0 81 19.5t56 31.5q16 10 27.5 30.5t21.5 49.5q12 25 25 55l22 41l-45 -14q-10 -4 -18 -7.5t-17 -7.5q-8 -4 -14 -4t-10 -2q-14 2 -22.5 5t-12.5 5q-6 2 -8 4q-4 12 -3 31t7 29q45 78 137 78 q39 0 78 -17q43 -18 72.5 -27.5t54.5 -9.5q45 0 76.5 33t76.5 92q12 16 34 38t50 14q2 -8 0 -26.5t-9 -41.5t-16 -45.5t-18 -34.5q-119 -160 -249 -151q-57 6 -81 -17.5t-40 -52.5q-8 -12 -10 -18q-31 -49 -69 -100.5t-83 -92.5q-39 -33 -82 -33q-45 0 -91 34t-79 91 q-35 61 -43 137z" />
<glyph unicode="'" horiz-adv-x="286" d="M82 1102q2 80 5 158.5t11 156.5q4 23 16.5 44.5t16.5 23.5q8 2 23 2q16 0 30.5 -9.5t16.5 -45.5q4 -47 3 -99.5t-5 -118.5q-2 -23 -7.5 -42t-9.5 -39q-4 -8 -8 -29q-4 -2 -5 -4t-5 -4q-12 -16 -21 -19q-8 -4 -17 -7t-20 -3h-10q-4 4 -9 15.5t-5 19.5z" />
<glyph unicode="(" horiz-adv-x="688" d="M84 272q12 115 28.5 232t44 233.5t70.5 231t109 223.5q41 70 82 134.5t74 117.5q31 43 61 43q17 0 33 -12q18 -16 18 -33q2 -16 -8 -34.5t-23 -29.5q-63 -66 -110 -137.5t-82 -148t-62.5 -156.5t-52.5 -160l-12 -41q-18 -55 -32.5 -116.5t-20.5 -125t1 -129t34 -133.5 q14 -39 32 -65q2 -6 11 -19q10 -14 17 -25t5 -22q-4 -16 -31 -30q-12 -8 -16 -23.5t-8 -32.5v-6q-35 14 -67 41t-54.5 60.5t-34.5 75.5t-6 87z" />
<glyph unicode=")" horiz-adv-x="602" d="M83 41.5q-1 13.5 3 17.5q55 59 95 125t70 136.5t52.5 143.5t42.5 146l6 21q37 135 62.5 279.5t5.5 301.5l-25 52q-25 51 -51 102q-27 47 -24.5 71.5t30.5 41.5q14 8 29 8q16 0 27.5 -15.5t25.5 -37.5q2 -10 8 -15q37 -61 55.5 -127.5t22.5 -135.5t-1 -137.5t-15 -135.5 q-12 -90 -32.5 -177.5t-44.5 -167t-47.5 -152.5t-43.5 -130q-70 -193 -209 -244q-17 -6 -37 -6q0 4 -1 6t-1 6q-2 10 -3 23.5z" />
<glyph unicode="*" horiz-adv-x="735" d="M84 1208q-2 33 6 37q2 2 6 4t15 2q12 0 20 -2q10 0 20.5 -1t20.5 1l23 6l-9 21q-4 10 -9 19.5t-9 19.5q-10 20 -17.5 38.5t-11.5 37.5q-4 18 6 51q0 4 1 5t1 3q4 0 7 -2q16 -4 30.5 -9t28.5 -12q16 -10 25 -22q2 -2 4 -2l2 -2l12 -12l98 84l64 -76l8 -2h15.5t17.5 -2 q20 0 39.5 -2t31.5 -9q4 -6 1 -24.5t-5 -28.5q-4 -18 -6 -31v-12l133 -76l-88 -104l15 -12q59 -53 53 -88q-4 -29 -41 -54l-152 160l-61 -137l-111 59l-8 2q-27 2 -56.5 16.5t-55 38t-43 53.5t-21.5 64z" />
<glyph unicode="+" horiz-adv-x="747" d="M82 641q23 12 51.5 20.5t59.5 16.5q39 10 75.5 22.5t65.5 34.5q18 16 15 42t-9 54q-4 12 -6 23.5t-4 22.5q4 10 4 30v12.5t2 8.5q33 45 55 49q6 -2 19.5 -16.5t17.5 -26.5q10 -41 14 -105q2 -12 3 -25t4 -28l2 -16h16h45q29 2 56.5 2t47.5 -4q10 -4 20.5 -13.5 t20.5 -19.5q2 -4 4.5 -5t4.5 -5q-2 -2 -4.5 -3t-4.5 -5q-10 -10 -21 -20.5t-24 -14.5q-23 -8 -46 -12.5t-48 -8.5q-12 -2 -23.5 -3t-23.5 -3l-14 -2l-2 -14q-2 -14 -2 -27.5v-28.5q-2 -57 -12.5 -85.5t-61.5 -30.5q-8 4 -20.5 29.5t-20.5 43.5q-6 12 -11 23.5t-10 21.5 l35 52l-45 -6q-10 -2 -19 -3.5t-20 -5.5q-23 -4 -42 -7t-40 -3h-4q-18 2 -35.5 6t-35.5 10q-8 4 -25 9z" />
<glyph unicode="," horiz-adv-x="591" d="M82 -244q0 4 9 14.5t18 12.5q14 6 29.5 8t31.5 6q23 4 45.5 9.5t44.5 15.5q23 10 39 26.5t33 32.5q6 8 14 16.5t16 16.5l19 18l-23 13q-66 39 -88 87t4 101q39 88 109 88q28 0 57 -14q80 -33 68 -117q-6 -43 -15.5 -89t-29 -89t-50 -81t-77.5 -67q-35 -23 -73 -39 t-77 -16q-35 0 -71 17q-12 6 -22.5 16t-10.5 14z" />
<glyph unicode="-" d="M82 508q0 4 6 13t14.5 17.5t16.5 14.5t14 6q86 10 169 11t163 -3q23 0 53 -59q-6 -10 -21.5 -23.5t-25.5 -17.5q-33 -12 -65.5 -20.5t-65.5 -16.5q-10 -4 -18.5 -5t-18.5 -5l-2 10h-14q-12 0 -23.5 -1t-23.5 -1q-27 -2 -52 -2t-41 6q-20 8 -39.5 30.5t-25.5 45.5z" />
<glyph unicode="." horiz-adv-x="397" d="M84 82q-6 47 31 94q39 45 96 45q104 -4 102 -104q0 -18 -13 -40t-33.5 -38t-47 -24.5t-53.5 -4.5q-23 4 -50.5 28.5t-31.5 43.5z" />
<glyph unicode="/" horiz-adv-x="567" d="M84 84q31 141 63.5 281.5t65.5 277.5q16 61 29.5 122.5t27.5 121.5l43 184q23 92 44.5 186.5t43.5 188.5q4 12 19.5 24.5t30.5 16.5q4 0 12 -8.5t12 -12.5q8 -8 10 -12l-20 -117q-10 -61 -21.5 -119.5t-21.5 -117.5q-14 -72 -27.5 -140.5t-27.5 -140.5 q-25 -123 -49.5 -245.5t-47.5 -247.5q-4 -23 -5 -46.5t-3 -46.5q-2 -29 -3 -54t-9 -50q-4 -16 -19.5 -29.5t-33.5 -27.5q-6 -4 -13.5 -10.5t-13.5 -10.5h-6q-16 0 -23 -4q-10 -4 -15 -11t-9 -13t-13 -15l-6 19q-6 16 -11 31.5t-3 25.5z" />
<glyph unicode="0" horiz-adv-x="655" d="M94 281q-27 244 4 467t121 452q6 12 11.5 25.5t9.5 25.5q16 41 32.5 82t38.5 76q16 29 46 53.5t46 24.5q37 -8 74 -36t51 -58q23 -51 34 -112.5t9 -123.5q-4 -233 -23.5 -477t-84.5 -485q-20 -72 -51 -109q-160 -178 -262 47q-16 31 -27 62.5t-19 56.5q-4 10 -6 17t-4 12 zM160 383q0 -25 1 -60.5t14 -72.5t44 -71t86 -54l27 -10l-37 929l-29 -16q-12 -10 -24 -14q-18 -10 -21 -23q-4 -41 -9 -83t-11 -83q-14 -111 -25.5 -221t-15.5 -221zM356 1072.5q0 -62.5 7.5 -125t17.5 -124.5q12 -78 20.5 -154.5t1.5 -154.5l-8 -96l45 86 q23 43 38.5 116.5t24.5 158.5t9 174t-9 167t-26.5 135.5t-46.5 77.5l-20 15l-9 -23q-27 -63 -36 -126.5t-9 -126z" />
<glyph unicode="1" horiz-adv-x="606" d="M82 987.5q2 20.5 12 34.5q47 72 102.5 149.5t118.5 163.5q33 41 63 75t62 63q10 10 32 14t32 0q6 -4 13 -20.5t5 -28.5q-10 -80 -22.5 -148.5t-26.5 -132.5q-23 -86 -43 -173t-43 -173q-20 -86 -40.5 -171t-41.5 -171q-8 -29 -13 -59.5t-9 -59.5q-6 -47 -14.5 -93 t-24.5 -89q-29 -76 -57.5 -119t-55.5 -45q-59 16 -39 82q49 193 98.5 380t98.5 380l33 127q4 10 5 22.5t3 22.5l4 31l-45 28l-10 -6q-10 -8 -18.5 -14t-18.5 -15q-23 -16 -44.5 -31.5t-41.5 -33.5q-33 -29 -50 -29q-10 0 -22 15q-4 4 -2 24.5z" />
<glyph unicode="2" horiz-adv-x="792" d="M83 88q3 41 19 80q66 147 135.5 295.5t139.5 294.5l80 166q10 16 17 33.5t18 35.5q16 29 30.5 59.5t26.5 61.5q10 23 14 43.5t8 42.5q4 10 5.5 18.5t3.5 16.5l4 18l-56 17l-215 -328q-39 12 -47 31q-10 20 6 55q8 20 16.5 39.5t16.5 40.5q18 45 39 91t49 87l19 27 q35 53 77.5 101t114.5 69q14 4 31.5 0t33 -15.5t27 -28t13.5 -34.5q12 -203 -105 -420q-53 -98 -100 -195.5t-94 -195.5l-62 -129q-23 -47 -45 -94t-45 -99l-57 -125l401 -2q0 -14 -11 -38.5t-38 -38.5q-18 -4 -36.5 -8.5t-37.5 -8.5q-51 -12 -106.5 -24.5t-112.5 -18.5 q-10 -2 -21.5 -2h-23.5q-43 0 -74.5 7t-46.5 22q-14 12 -11 53z" />
<glyph unicode="3" horiz-adv-x="741" d="M88 115q-10 86 6.5 174t59.5 192q4 10 19 25.5t30 19.5q-4 -35 -8.5 -68.5t-8.5 -66.5q-10 -70 -16 -136.5t12 -135.5l4 -13l60 -16l6 10q6 8 12 14.5t12 14.5q14 16 26.5 32.5t23.5 37.5q18 43 31.5 88t25.5 96l10 39q31 115 60.5 230.5t54.5 232.5q4 23 0 44t-10 46 q-4 10 -7.5 21.5t-5.5 23.5l-6 31l-24 -21q-23 -16 -42.5 -35.5t-39.5 -40.5q-18 -18 -42 -40.5t-36 -28.5q-16 84 14.5 143t75.5 117q29 41 55.5 83t36.5 93l6 27l-28 -7q-12 -2 -24.5 -5t-24.5 -7q-23 -8 -44.5 -13t-42.5 -3q-29 4 -34.5 16t-3.5 45q0 12 1 24.5t-3 24.5 q4 2 5 3t5 4q27 16 49 22q59 10 120.5 16.5t121.5 12.5l32 4q10 2 37 -2h10q-8 -16 -14 -29.5t-14 -28.5q-23 -45 -43.5 -86t-46.5 -77q-16 -23 -27.5 -45.5t-13.5 -44t7 -45t36 -50.5q37 -37 52 -78t16 -84t-9 -89t-24 -93q-31 -102 -66 -203.5t-70 -199.5l-26 -78 q-23 -61 -53.5 -119.5t-94.5 -97.5q-39 -27 -82 -27q-41 0 -67.5 27.5t-30.5 79.5z" />
<glyph unicode="4" horiz-adv-x="727" d="M82 834q0 35 14 71q35 92 72 186.5t78 200.5q18 45 39 68q4 6 9 11t9 11q16 23 31.5 38.5t34.5 15.5q16 0 39 -13q23 -16 24 -28q2 -10 -7 -25.5t-22 -32.5q-4 -6 -9 -13t-9 -15q-35 -53 -63.5 -109.5t-59.5 -116.5q-12 -25 -25.5 -50t-27.5 -52l-16 -33l266 35l2 14 q4 27 8 51.5t8 51.5q12 72 24.5 144.5t26.5 144.5q4 23 17.5 44t29.5 33q23 16 43 17q8 0 16.5 -4t8.5 -27q4 -53 -5 -103.5t-20 -91.5q-27 -115 -54 -227t-56 -225q-16 -70 -33.5 -137.5t-34.5 -137.5l-2 -6q-12 -55 -25.5 -112.5t-23.5 -116.5q-2 -16 -1 -30.5t3 -31.5 q4 -16 5 -30.5t-3 -26.5q-4 -10 -6 -18t-4 -19q-8 -27 -20.5 -69.5t-26.5 -57.5q-53 59 -63.5 121t18.5 133q16 41 23.5 84t13.5 86q2 18 4 37t6 39q10 55 20.5 111.5t20.5 119.5l18 99l-26 -4q-18 -2 -37 -4.5t-35 -4.5q-41 -4 -80 -9t-78 -15q-29 -6 -43 -3t-16 32z" />
<glyph unicode="5" horiz-adv-x="696" d="M85 168.5q-1 60.5 5 126.5q2 23 4 45t2 45q0 43 13.5 87t29.5 85q4 12 21.5 23.5t29.5 13.5q4 -2 14.5 -14.5t20.5 -30.5q23 -37 14.5 -72t-22.5 -74q-8 -20 -14 -39.5t-10 -41.5q-6 -49 -19 -103q-2 -10 -4 -22.5t-4 -22.5l-2 -16l69 -23l7 12q8 12 16 23.5t16 24.5 q18 27 36 53t28 57q43 117 80 235.5t71 239.5q10 33 -1 72t-31 63q-8 14 -39 15q-18 0 -41 -4t-41 -8q-16 -4 -28.5 -11.5t-26.5 -13.5q-16 -10 -29.5 -16.5t-28.5 -6.5q-6 0 -15 3.5t-22 15.5q-27 27 -21.5 51.5t25.5 58.5q4 12 10.5 23.5t10.5 24.5l8 24q20 59 39.5 118.5 t36.5 121.5q12 53 37 78.5t86 25.5q39 0 76.5 12.5t78.5 28.5q10 4 20.5 7t22.5 7q-12 -57 -39.5 -95t-87.5 -54q-147 -43 -147 -236v-18h18h16.5t16.5 -2q18 0 36.5 -1t37.5 1q74 6 104 -29q29 -29 25 -96q-18 -236 -92 -446.5t-203 -397.5q-33 -47 -121 -88 q-8 2 -26.5 15.5t-28.5 29.5q-37 55 -38 115.5z" />
<glyph unicode="6" horiz-adv-x="702" d="M90 190q-20 131 5.5 260.5t66.5 274.5q47 160 103.5 317.5t156.5 296.5q29 37 66.5 67t76.5 58l21 13h2q2 0 2 1t4 1q10 0 27 -4l-37 -99q-84 -78 -139.5 -169t-95.5 -191.5t-67.5 -208t-52.5 -219.5q-8 -33 -14 -64.5t-14 -64.5l-6 -27l24 2q117 10 174.5 -16.5 t79.5 -106.5q10 -37 8 -74.5t-13 -72.5t-31.5 -64.5t-47.5 -48.5q-66 -43 -129 -43q-66 0 -112 48t-58 134zM162 182l18 -12q14 -8 25.5 -16.5t21.5 -16.5q20 -16 36 -25.5t32 -9.5q6 0 10 2q27 8 52.5 41t23.5 62q-4 23 -17.5 42t-29.5 38q-6 8 -12.5 14t-12.5 14l-12 19z " />
<glyph unicode="7" horiz-adv-x="647" d="M82.5 103.5q9.5 48.5 26.5 99.5q4 10 6 19t4 20q43 147 86 292.5t90 299.5q18 59 36.5 118.5t35.5 118.5l10 29l-31 -4q-10 -2 -18.5 -3t-16.5 -3q-16 -4 -27.5 -6.5t-21.5 -0.5q-12 4 -24.5 10.5t-24.5 16.5q-4 2 -5 3t-5 3l4 8t4 9q8 16 15 30.5t18 22.5q37 25 102 26 q49 4 70 29q18 20 20 50t0 65l-2 18h-18q-16 -2 -32.5 -3t-33.5 -3q-41 -4 -79 -7t-76 -7q-8 -2 -23 -2q-6 0 -14 1t-13 7q-4 4 -5 11t1 13q2 14 16.5 31t26.5 21q76 16 156 28.5t170 22.5q27 2 45 -14q12 -16 8 -43q-10 -55 -24.5 -111.5t-30.5 -110.5l-10 -41 q-20 -78 -41 -152.5t-41 -152.5q-35 -123 -68 -244.5t-65 -244.5v-4q-2 -4 -4.5 -6.5t-2.5 -6.5l-10 -30q0 -4 -4 -13q-12 -41 -18 -75q-4 -4 -9.5 -11.5t-7.5 -15.5q0 -35 -9 -70t-25.5 -63.5t-40 -48t-50.5 -23.5q-29 49 -19.5 97.5z" />
<glyph unicode="8" horiz-adv-x="659" d="M82 260q20 186 53 340t105 293q12 23 14 50.5t0 53.5v13q0 27 -2 53.5t-4 52.5q-4 51 -6 101.5t4 99.5q10 70 62 110.5t157 59.5q29 4 48 -7.5t30 -25.5q20 -27 24 -66.5t-10 -82.5q-8 -23 -18.5 -46.5t-20.5 -46.5t-20.5 -46t-20.5 -48q-10 -29 -18 -69.5t0 -79.5 q16 -70 33.5 -138.5t35.5 -134.5q10 -35 18.5 -69.5t18.5 -69.5q16 -63 8 -139t-34.5 -149.5t-68.5 -136t-95 -99.5q-45 -33 -90 -33q-56 0 -95 55q-27 35 -47 76t-37 78q-6 14 -12 27.5t-12 23.5zM190 252q2 -27 18.5 -48.5t37.5 -43.5q8 -10 15 -18.5t13 -16.5l13 -16 l16 12q16 14 35 22q23 14 42 29.5t32 38.5q41 76 48 148.5t-9.5 141t-49 134t-71.5 129.5l-21 35l-28 -76q-39 -113 -71 -229.5t-20 -241.5zM339.5 1302.5q-13.5 -40.5 14.5 -116.5l6 -23l21 13q59 37 73.5 79.5t-12.5 114.5l-8 21l-20 -13q-61 -35 -74.5 -75.5z" />
<glyph unicode="9" horiz-adv-x="595" d="M84 1198q4 53 29.5 105.5t65.5 93.5t90 65.5t100 24.5q59 0 94 -3t45 -16q10 -12 4 -48t-18 -89l-7 -28q-31 -141 -52 -283.5t-40 -284.5l-30 -221q-4 -23 -6.5 -47.5t-6.5 -48.5q-4 -33 -7 -66t-11 -67q-10 -47 -20.5 -90t-32.5 -78q-14 -23 -34.5 -40.5t-45.5 -35.5 q-10 -6 -18.5 -13.5t-18.5 -15.5q-20 16 -20.5 43t10.5 68v6q41 201 80.5 398.5t80.5 398.5q2 10 2 18v17v12v18l-16 2q-123 14 -173 61.5t-44 143.5zM190 1163.5q0 -18.5 11 -33.5q6 -10 18 -12t17 -2q27 0 45 6q27 12 46 36t28.5 56.5t7 68.5t-16.5 73l-12 28l-37 -41 q-25 -29 -45.5 -53t-40.5 -49l-4 -4q-4 -4 -9 -11t-8 -18v-10v-34.5z" />
<glyph unicode=":" horiz-adv-x="407" d="M82 340q8 25 27.5 43t41 30.5t43 19.5t35.5 7q8 0 21.5 -9t28 -24.5t26.5 -34t19 -36.5q6 -20 -21 -62q-16 -25 -39.5 -43t-38.5 -18q-4 0 -6 2l-18 6q-18 8 -37 16.5t-35 21.5t-28.5 32.5t-18.5 48.5zM156 731q2 47 30.5 85t67.5 40q20 0 37 -16q31 -31 26 -92 q4 -53 -27.5 -80t-68.5 -31q-25 -2 -43 12q-23 23 -22 82z" />
<glyph unicode=";" horiz-adv-x="495" d="M84 -104q4 12 23.5 21t33.5 13q23 8 46.5 14.5t45.5 14.5q10 2 21.5 4t21.5 6l17 4l-8 60l-9 6q-4 2 -8 3t-8 5q-6 4 -13 7t-11 7q-8 8 -16.5 15.5t-18.5 15.5q-18 16 -38 33.5t-20 30.5q0 25 27 57.5t51 40.5q5 2 19 2q27 0 57.5 -13.5t46.5 -29.5q88 -102 62 -193 q-12 -47 -52.5 -83.5t-97.5 -53.5q-10 -4 -18.5 -8t-18.5 -8q-14 -6 -27.5 -11.5t-23.5 -5.5h-6q-27 0 -47.5 6.5t-24.5 12.5q-8 18 -6 27zM150 559q0 2 2 8t12 17q23 23 58.5 45t64.5 22q4 0 6 -2q16 -4 30.5 -14t26.5 -21q4 -6 10 -10q-4 -78 -28.5 -123t-40.5 -45 q-4 0 -6 2q-41 20 -77 53t-58 68z" />
<glyph unicode="&#x3c;" horiz-adv-x="442" d="M0 545q-4 25 33 61q47 45 91 90t91 90l57 56q2 2 3 4t4 4l2 4q0 2 2 2q16 4 30.5 13.5t30.5 19.5q14 10 29.5 19.5t27.5 9.5q4 0 11.5 -3.5t17.5 -13.5q12 -16 12 -27q-2 -16 -17 -30.5t-32 -30.5q-8 -6 -15 -12t-13 -13q-31 -33 -64 -62.5t-70 -63.5q-37 -31 -75 -70 l-23 -21l29 -10q16 -6 31.5 -11t29.5 -9q47 -12 72 -29q63 -39 82 -80q12 -29 2 -45q-6 -8 -23 -8q-14 0 -28 6q-66 23 -146 56.5t-157 76.5q-23 12 -25 27z" />
<glyph unicode="=" horiz-adv-x="622" d="M82 346q0 6 8 19.5t12 15.5q145 57 332 57q23 0 47.5 -1t48.5 -3l7 -12q-6 -6 -11.5 -12.5t-11.5 -12.5q-14 -18 -28.5 -33.5t-28.5 -19.5q-80 -16 -162 -20.5t-162 -8.5h-14v-18v18q-6 0 -19.5 10.5t-17.5 20.5zM162 623q4 14 19.5 27.5t25.5 15.5q49 4 93 7t85 3h40 t40 -2q14 -2 29.5 -11.5t31.5 -19.5q4 -2 7.5 -4t7.5 -4q-4 -4 -5 -7t-6 -7q-10 -16 -19 -28.5t-19 -17.5q-31 -12 -65 -18t-73 -12q-16 -4 -32.5 -5t-32.5 -5q-16 4 -23 6q-23 6 -45 14t-45 18q-6 4 -12 21.5t-2 28.5z" />
<glyph unicode="&#x3e;" horiz-adv-x="587" d="M82 401q35 41 70.5 78t72.5 74l24.5 24.5t26.5 24.5l39 39l37 35l-33 29l-43 36l-43 31q-25 18 -47 35.5t-41 40.5q-10 10 -14 31.5t-2 27.5q14 12 34.5 21.5t37.5 9.5h8q10 -4 19.5 -8t19.5 -8q55 -23 102 -50.5t68 -91.5q6 -18 25.5 -27.5t41.5 -17.5q8 -4 21 -8 q-43 -123 -128 -206t-181 -148q-14 -10 -37 -13.5t-47 -3.5h-21q-4 10 -7 25.5t-3 19.5z" />
<glyph unicode="?" horiz-adv-x="702" d="M84 113q4 20 4 30q4 41 13.5 63.5t50.5 24.5h6q53 0 87 -30.5t36 -77.5q0 -53 -22.5 -84t-61.5 -33l-2 -18v18q-55 0 -91 41q-25 27 -20 66zM168 468.5q-2 18.5 0 35.5q18 135 92 239.5t172 208.5q127 133 105 299q-4 23 -13.5 43.5t-21.5 42.5q-4 10 -10.5 19.5 t-10.5 19.5l-8 19l-18 -11q-78 -47 -105.5 -108.5t-38.5 -122.5q-6 -47 -14 -93t-23 -91q-2 -8 -10 -15.5t-18 -13.5q-4 -4 -6 -4q-6 6 -9 10q-10 10 -18 21.5t-8 17.5q10 86 25.5 174t39.5 174q20 70 78 101.5t127 50.5q47 12 87 -25t48 -96q25 -186 -22 -320.5 t-172 -232.5q-96 -78 -124 -179.5t-30 -205.5h-6h-4q-18 -2 -35.5 -4t-34.5 -6h-6q0 4 -1 8t-1 8q-4 18 -6 36.5z" />
<glyph unicode="@" horiz-adv-x="825" d="M88 649q31 350 168 647q23 47 52.5 80t62 53.5t66.5 32t63 15.5q4 2 14 2q25 0 49.5 -9.5t38.5 -25.5q33 -37 63.5 -81t50 -95t25.5 -111.5t-10 -130.5q-10 -35 -15 -70.5t-11 -72.5q-4 -37 -9.5 -74t-15.5 -74q-18 -78 -74 -147q-10 -14 -23.5 -27.5t-23.5 -13.5 t-23.5 13t-27.5 30l-12 8l-13 -4q-4 0 -12 -4q-10 -6 -21.5 -13.5t-21.5 -17.5q-12 -8 -26.5 -18.5t-22.5 -14.5q-16 23 -39 61t-27 81q-18 203 103 297q20 20 49 20t54.5 -23.5t29.5 -70.5q2 -33 2 -65.5v-65.5q0 -16 1 -29.5t1 -30.5v-14l51 -14l6 18q4 12 9.5 25.5 t9.5 25.5l20 62t15 63q10 74 13 150t7 147q2 72 -29.5 133.5t-83.5 77.5q-86 29 -139 6.5t-94 -108.5q-113 -223 -150.5 -427t-7.5 -409q31 -193 158 -301q37 -31 84 -31q59 0 106 47.5t62 118.5l14 76q43 -100 25.5 -170t-94.5 -135q-47 -41 -104.5 -37t-119.5 47 q-133 96 -187 241.5t-36 356.5zM375 726q-6 -26 1 -47.5t27 -47.5l11 -17l16 13q25 20 38 44.5t17 50.5t4 52.5t-2 50.5q-2 8 -2 15.5t-2 15.5l-2 59l-32 -49q-31 -49 -49.5 -81.5t-24.5 -58.5z" />
<glyph unicode="A" horiz-adv-x="825" d="M84 48q-2 18 4 38q8 29 19.5 56.5t21.5 56.5q12 31 23.5 61.5t21.5 61.5q29 111 57.5 222t57.5 222q20 82 40.5 163t41.5 163q23 84 47 171t55 173q6 20 26.5 38.5t28.5 20.5q33 -10 66 -29.5t37 -40.5q49 -182 61 -364q8 -139 14.5 -278.5t10.5 -276.5l12 -283 q0 -12 2 -23.5t6 -21.5q2 -10 4 -19t2 -20v-8q0 -12 -1 -36.5t-7 -31.5q-10 -6 -25.5 -8t-31.5 -4q-8 0 -12 -2q-2 4 -2 12q-6 31 -7 64l-6 123q-2 55 -4 110.5t-6 110.5q-4 59 -11 117.5t-16 115.5l-12 99l-2 18h-180l-4 -16q-8 -31 -15.5 -61.5t-15.5 -63.5 q-20 -76 -38.5 -155t-35.5 -156q-6 -31 -8 -62t-4 -61q-2 -41 -5 -80t-15 -74q-10 -27 -51.5 -49.5t-82.5 -32.5q-35 -10 -51 12q-8 10 -10 28zM461 911l28 9q78 18 111 96q13 35 13 75q0 19 -3 41q-10 64 -51 121l-24 37z" />
<glyph unicode="B" horiz-adv-x="743" d="M84 156q16 96 33.5 191t36.5 190q14 78 28.5 153.5t26.5 153.5q10 59 18.5 117.5t16.5 115.5q4 35 8 67t10 66l4 33q4 33 8.5 64.5t14.5 62.5q14 57 57 77t94 30q31 6 56 12q10 4 30 4q41 0 59.5 -31.5t24.5 -58.5q8 -31 16.5 -61.5t18.5 -61.5l14 -49q-2 -12 -3 -23.5 t-3 -23.5q-2 -27 -5 -49.5t-13 -40.5q-35 -60 -37 -114v-6q0 -51 29 -106q35 -66 35 -133q0 -13 -2 -25q-8 -80 -25 -163q-2 -12 -4 -23.5t-4 -23.5q-10 -49 -24.5 -101.5t-35 -102.5t-51.5 -95t-74 -82q-53 -43 -119.5 -71t-123.5 -46q-12 -4 -32 7t-40 34q-23 29 -35 59.5 t-8 53.5zM205 158l53 -37l12 6q10 6 19.5 12t19.5 13q23 14 46.5 28.5t39.5 36.5q23 29 39.5 61.5t32.5 65.5q10 18 20.5 38t20.5 36q45 80 45 171q0 87 -41 185q-12 28 -49 52q-32 20 -56 21q-4 0 -8 -1q-33 -4 -62.5 -34t-39.5 -58q-16 -37 -22.5 -76t-10.5 -78l-4 -31 q-10 -72 -19.5 -141.5t-19.5 -140.5zM352 954l33 13q115 49 157 109q32 46 32 113q0 22 -3 46q-22 127 -128 127h-13h-14z" />
<glyph unicode="C" horiz-adv-x="720" d="M84 320q-1 20 -1 39q0 40 3 81q14 227 75.5 452.5t178.5 463.5q66 137 182 137l6 -2q57 0 80 -34t29 -68q4 -18 -10.5 -47t-30.5 -44q-6 0 -21.5 7.5t-27.5 13.5q-10 6 -21.5 11t-21.5 9l-10 4l-11 -6q-45 -35 -87 -113.5t-77.5 -181t-60.5 -219t-34 -228.5 q-5 -59 -5 -114q0 -49 4 -94q8 -96 41 -156l19 -30l16 30q10 18 19.5 37t19.5 37q23 39 43 76t37 78q12 29 26.5 50t32.5 21q10 0 25 -8q12 -8 24.5 -22.5t21.5 -29.5t13 -29.5t2 -20.5q-8 -16 -14 -34.5t-12 -37.5q-29 -82 -65 -162t-114 -139l-12 -10q-18 -16 -35.5 -26.5 t-46.5 -10.5q-16 0 -24.5 5t-20.5 13l-4 5q-49 35 -75.5 82t-40 101t-15.5 114z" />
<glyph unicode="D" horiz-adv-x="835" d="M86 152q59 293 114.5 578.5t108.5 555.5q6 31 27.5 67t49.5 66.5t58.5 51t55.5 22.5h10q53 0 97 -38q48 -42 69 -118q31 -111 53.5 -229.5t24.5 -241.5v-18q0 -114 -24 -230q-26 -126 -93 -251q-66 -125 -161 -209t-195 -152q-6 -4 -20.5 -5t-31.5 -1q-8 2 -24 2h-8 q-68 2 -95 39q-20 24 -20 68q0 19 4 43zM254 193l37 34q131 123 211 275t108 302q17 88 17 169q-1 59 -9 115q-20 134 -88 223l-20 26l-14 -30q-45 -111 -81 -226.5t-64.5 -244.5t-51.5 -275.5t-41 -316.5z" />
<glyph unicode="E" horiz-adv-x="1040" d="M84 102q8 96 18.5 195.5t32.5 198.5q27 113 54.5 226.5t56.5 223.5q25 92 47 185.5t45 187.5q16 72 53 106.5t96 40.5l33 2q92 10 183.5 18.5t183.5 10.5q10 0 24.5 -12t28.5 -25q4 -4 9 -8t9 -8q-4 -4 -5 -6t-5 -6q-8 -12 -17 -24.5t-18 -14.5q-106 -29 -189 -46.5 t-159 -27.5q-74 -8 -100 -47q-12 -20 -14 -48v-10q0 -25 8 -59l2 -14h16h62h72.5t70.5 -2q12 -2 25.5 -9.5t15.5 -11.5q4 -6 -1 -21.5t-11 -19.5l-25 -18q-33 -23 -65.5 -43.5t-67.5 -26.5q-59 -10 -96 -37.5t-54 -99.5q-27 -113 -56.5 -224.5t-57.5 -221.5 q-14 -53 -27.5 -104.5t-25.5 -102.5q-4 -10 -4.5 -18.5t-0.5 -18.5v-12l-2 -15l15 -4q31 -12 67 -12q13 0 27 2q51 6 98 18q31 10 59.5 15.5t57.5 5.5q63 0 111 -39q-25 -37 -54.5 -58.5t-63.5 -32t-71 -15.5t-76 -7q-10 -2 -18 -2t-19 -2q-20 -2 -39.5 -1t-39.5 1 q-24 1 -48.5 1t-48.5 -1q-13 -2 -24 -2q-37 0 -58 21t-21 62q0 8 1 17z" />
<glyph unicode="F" horiz-adv-x="968" d="M20.5 45q-2.5 23 2.5 37q51 274 97 510.5t93 454.5q18 86 45 169.5t59 176.5l5 10q10 35 22 55.5t41 20.5q20 0 43 -9q23 -8 53.5 -4t59.5 13q18 4 36.5 9t34.5 5h37q74 0 144.5 -2t128.5 -4l36 -19v-19t-4 -19q-6 -23 -16 -39q-141 -6 -269 -51.5t-239 -96.5 q-14 -6 -20.5 -21.5t-10.5 -33.5q-4 -10 -6 -20.5t-6 -20.5l-10 -29l29 2q14 2 27 3t26 1q45 6 90 6q16 0 33.5 -2t33.5 -6q6 0 11 -2q-2 -4 -2 -8t-2 -8q-4 -12 -8.5 -30.5t-8.5 -20.5q-41 -23 -86 -39.5t-96 -32.5q-43 -16 -92 -31l-8 -4l-5 -10q-4 -20 -10 -41t-12 -43 q-16 -59 -32.5 -126t-33.5 -136q-16 -74 -29.5 -149.5t-27.5 -149.5q-10 -45 -17 -90t-18 -90q-4 -16 -8 -34t-14 -26q-4 -4 -8.5 -8t-8.5 -8q-12 -14 -24.5 -24.5t-34.5 -10.5q-2 0 -8 8q-10 14 -12.5 37z" />
<glyph unicode="G" horiz-adv-x="796" d="M84 320q-1 21 -1 41q0 40 3 81q14 229 76.5 455.5t179.5 466.5q66 137 182 137h6q59 -2 82 -35.5t27 -68.5q4 -18 -9.5 -48t-29.5 -44q-8 0 -22.5 7t-28.5 15q-10 6 -21.5 11t-21.5 10l-10 4l-9 -6q-45 -35 -88 -114t-78.5 -183.5t-60 -222t-34.5 -229.5q-6 -60 -6 -116 q0 -48 4 -92q9 -96 42 -156l17 -32l18 32q10 18 19.5 37t19.5 35q23 41 43 78t37 78q12 29 26.5 50t32.5 21q13 0 27 -8q12 -8 23.5 -22.5t20.5 -29.5t13 -29.5t2 -20.5q-6 -18 -12 -35.5t-12 -36.5q-29 -84 -67 -165t-114 -138l-12 -10q-20 -16 -37.5 -26.5t-46.5 -10.5 q-14 0 -22.5 4t-20.5 14l-6 5q-49 35 -75.5 82t-40 101t-15.5 114zM381 653q-2 10 11.5 31t19.5 23q68 6 139 6q35 0 73 -1t72 -3q2 0 6.5 -6.5t10.5 -24.5v-9q0 -48 -19 -67q-18 -18 -55 -18h-2q-47 2 -96 8t-107 20q-16 4 -33.5 18.5t-19.5 22.5z" />
<glyph unicode="H" horiz-adv-x="929" d="M84 101.5q-2 29.5 2 48.5q27 160 55.5 320.5t57.5 317.5q14 76 27.5 151t25.5 153q6 33 11 64.5t9 66.5q4 29 8.5 57.5t8.5 56.5q4 23 9 47.5t17 40.5q10 16 28.5 28.5t23.5 14.5q16 -8 29.5 -28.5t15.5 -36.5q1 -12 1 -24q0 -24 -3 -48q-4 -37 -11 -78q-2 -18 -4 -36.5 t-4 -38.5l-2 -23l23 2q18 2 36.5 3t36.5 1q43 4 82 6t80 13q25 6 39 19t21.5 29.5t9.5 34t2 33.5q0 35 8 58q6 12 6 25.5t-2 25.5q-4 20 0 33q14 25 30.5 42t24.5 17q14 -2 27.5 -5t24.5 -13q12 -16 6 -54q-16 -96 -29.5 -191t-26.5 -190q-12 -82 -23 -164.5t-26 -164.5 q-12 -78 -28.5 -155t-32.5 -150q-8 -37 -15.5 -73t-15.5 -71q-10 -49 -20.5 -98t-20.5 -98l-14 -68q-53 12 -68 33q-8 15 -8 39q0 17 4 39q35 174 64.5 348t58.5 348l16 100q6 31 6 53q-1 6 -1 12q-2 24 -15 42q-22 22 -58 22h-3q-23 0 -53 -6q-78 -14 -121 -28.5t-65.5 -43 t-32 -75.5t-15.5 -125q-16 -160 -37.5 -319.5t-48.5 -336.5q-2 -14 -13.5 -28.5t-23.5 -28.5q-12 -16 -18 -22q-39 4 -58 24q-16 23 -18 52.5z" />
<glyph unicode="I" horiz-adv-x="804" d="M82 55q12 35 29.5 58.5t27.5 23.5q37 4 59.5 18.5t36 34t19.5 42t10 44.5l2 19q33 152 67 319.5t75 380.5q10 57 19 114.5t19 117.5l19 110l4 17l-16 6l-25 6q-10 4 -16 5t-11 5q-23 23 -28 35q-4 6 -4 10q4 14 17 28.5t24 16.5q143 25 260 25q8 0 19 -9t24 -20 q6 -6 10 -8l-8 -8q-12 -14 -24.5 -26.5l-24.5 -24.5q-4 -4 -11.5 -9.5t-13.5 -9.5q-16 -10 -28.5 -20t-16.5 -27q-29 -150 -54.5 -300t-47.5 -298l-25 -135q-4 -23 -7 -46.5t-7 -45.5q-10 -53 -18.5 -109.5t-18.5 -111.5q-6 -18 -25 -47q-4 -8 -9 -16.5t-11 -18.5l-15 -29 h31q23 0 33 2q12 2 23.5 2t15.5 -4q18 -10 34.5 -21.5t32.5 -23.5l13 -12q-2 -4 -4 -7.5t-5 -7.5q-8 -10 -16 -24.5t-14 -14.5q-94 -18 -185.5 -30.5t-183.5 -20.5q-10 2 -28.5 18.5t-22.5 26.5z" />
<glyph unicode="J" horiz-adv-x="1040" d="M85 282q7 66 17 132q4 16 5.5 32.5t3.5 30.5q4 4 18 11.5t25 11.5q8 -8 14 -13q27 -20 38 -37.5t-1 -48.5q-18 -45 -25.5 -73.5t-4.5 -53t18.5 -50t44.5 -64.5l16 -23l14 23q14 20 27.5 37.5t26.5 35.5q29 37 53 72t37 76q43 141 81.5 281.5t75.5 279.5q18 70 38 138.5 t38 138.5q6 22 6 40q0 23 -10 39q-19 21 -60 21q-12 0 -26 -2q-6 0 -23 -4q-25 -6 -43 -4q-14 2 -29.5 7t-23.5 9q2 25 8.5 43t12.5 23q68 33 176 51q59 10 119.5 18t119.5 17q23 4 42.5 6t41.5 6q2 -13 2 -24q0 -38 -24 -68q-45 -57 -139 -58h-25l-2 -16 q-12 -59 -24.5 -120.5t-24.5 -123.5q-29 -147 -59.5 -296.5t-65.5 -297.5q-18 -80 -48 -159.5t-61 -157.5q-6 -16 -12 -33.5t-14 -34.5q-23 -61 -67 -80.5t-83 -19.5q-8 0 -14 1t-14 1q-31 4 -64 14.5t-59.5 28.5t-45 44t-24.5 61q-6 39 -6 78q0 27 3 54z" />
<glyph unicode="K" horiz-adv-x="890" d="M83 109.5q1 21.5 5 44.5l2 18q18 164 37.5 325.5t38.5 327.5q18 145 35.5 288.5t34.5 289.5q4 37 21 66.5t46 25.5q16 -2 40 -35t28 -61q5 -28 5 -57q0 -10 -1 -19q-2 -39 -6 -84q-2 -20 -4.5 -40.5t-2.5 -43.5l-4 -55l62 67q25 25 43 50q14 16 27.5 33.5t25.5 33.5 q27 35 54.5 70t58.5 63q33 29 54.5 44.5t37.5 15.5t37.5 -16.5t50.5 -45.5l-21 -22q-18 -20 -36.5 -40t-36.5 -38q-16 -18 -34.5 -36.5t-35.5 -37.5q-41 -43 -84 -88t-84 -92q-16 -16 -18 -47t4 -51q23 -66 43 -131.5t43 -131.5q39 -123 79 -246.5t74 -248.5q4 -16 4 -33 t-4 -36q-8 -38 -18 -77q-4 -12 -7 -25.5t-5 -25.5q-12 -8 -23 -8q-16 12 -33.5 28.5t-21.5 34.5q-10 41 -18.5 85.5t-18.5 84.5q-10 47 -19.5 94.5t-21.5 94.5q-23 82 -47.5 162t-50.5 157l-29 93q-4 14 -11 27t-16 30q-4 8 -8 17.5t-8 19.5l-20 43l-17 -45 q-37 -113 -58.5 -262.5t-35.5 -292.5q-6 -55 -13 -116.5t-15.5 -114t-17.5 -89.5t-19 -41q-29 10 -43.5 25.5t-19.5 34t-4 40z" />
<glyph unicode="L" horiz-adv-x="827" d="M83 138q-2 13 -2 26q0 27 7 57q49 231 100.5 461.5t102.5 458.5l20 86q10 47 22.5 94t24.5 96q4 18 9.5 37t9.5 39q78 -6 100 -37q9 -14 9 -41q0 -45 -25 -125q-53 -164 -86 -327q-18 -98 -33.5 -195.5t-32.5 -194.5q-8 -41 -14 -82.5t-14 -82.5l-41 -250l26 4 q29 4 56.5 8t56.5 8q66 10 128 19.5t124 21.5q6 2 13 3t13 3q27 6 47.5 9.5t30.5 -29.5q8 -24 8 -44q0 -58 -61 -91q-66 -35 -138.5 -52.5t-162.5 -17.5q-35 0 -73 2t-87 8q-74 6 -110 60q-23 30 -28 68z" />
<glyph unicode="M" horiz-adv-x="1032" d="M84 92q25 186 54.5 370.5t58.5 350.5l16 94t18 94t18.5 92.5t16.5 92.5q9 47 13 100q4 31 6 61.5t10 59.5q2 12 8 27.5t14.5 29t16.5 22.5t14 9q8 -4 22.5 -28.5t33 -58.5t39 -74t36.5 -74q25 -47 48.5 -94.5t43.5 -86.5l21 -37l14 39q14 33 25 66q14 35 25.5 66.5 t25.5 62.5q27 49 51 88l37 61q20 43 57 43q20 0 42 -11t38 -21q17 -12 31 -52q10 -31 11 -57q0 -7 -1 -14q-25 -182 -51.5 -363.5t-52.5 -361.5q-14 -92 -27.5 -180.5t-25.5 -180.5q-6 -41 -7 -80q-2 -25 -4 -48t-6 -46q-2 -12 -13 -26.5t-26 -22.5q-8 4 -19 15.5t-11 17.5 q-9 45 -13 95q-2 21 -1 42q0 28 3 55q14 123 30.5 244t33.5 240q10 68 19 134l18 132q4 21 4 40q0 13 -2 25q-4 30 -15 62l-18 47l-19 -47l-18 -55q-10 -31 -21.5 -62t-27.5 -59q-14 -27 -31.5 -50.5t-38.5 -45.5q-4 -6 -10 -13.5t-10 -13.5q-4 4 -9.5 7t-11.5 7 q-20 16 -39.5 33.5t-38.5 38.5q-10 10 -19 24.5t-19 32.5q-6 10 -12.5 19.5t-14.5 21.5l-25 39l-196 -971q-4 -12 -13.5 -33.5t-31.5 -21.5q-16 0 -27 8q-18 10 -33.5 37t-13.5 43z" />
<glyph unicode="N" horiz-adv-x="919" d="M86 82q84 260 131 529.5t88 562.5q2 14 2 27v26q0 16 1 32.5t5 32.5q4 18 14.5 36t22.5 36q2 4 4 7t4 7l19 -12q18 -14 34.5 -27.5t20.5 -27.5q35 -115 63.5 -229.5t59.5 -250.5q14 -59 26.5 -120.5t22.5 -120.5q6 -29 11.5 -54.5t11.5 -54.5l2 -14l61 -10l2 20 q2 23 4 42.5t4 39.5q12 86 19 176l6 283q4 84 6 167t6 167q0 29 12.5 59.5t26.5 58.5l2 5q2 2 10.5 5t16.5 3q10 -4 18 -15.5t11 -19.5q2 -72 3 -140v-26q0 -54 -3 -106q-10 -135 -23.5 -266.5t-26.5 -252.5q-14 -127 -27.5 -243.5t-29.5 -231.5q-6 -51 -24.5 -59t-40.5 -6 q-39 4 -57.5 21.5t-26.5 58.5q-23 102 -48.5 203.5t-52.5 199.5q-10 35 -18 70t-19 69q-4 10 -22 19q-6 2 -19 6l-22 12l-19 -143q-10 -66 -17 -128.5t-15 -125.5q-4 -16 -4 -31.5t-3 -32.5q-4 -61 -16 -117.5t-59 -101.5q-25 -23 -53.5 -47t-57.5 -43l-2 -20v20 q-6 0 -16.5 3t-12.5 7q-10 20 -15 38t-1 28z" />
<glyph unicode="O" horiz-adv-x="694" d="M88 367q-5 57 -5 114q0 137 28 267q39 184 90 366q20 68 44.5 139.5t57.5 143.5l4 8q14 33 32.5 64.5t47.5 31.5q14 0 29 -8q35 -16 69.5 -51t59.5 -82q33 -59 47 -120.5t17 -125.5q1 -24 1 -49q0 -41 -3 -81q-5 -66 -11 -130l-2 -23q-10 -104 -30.5 -208.5t-43.5 -206.5 q-4 -23 -10 -46.5t-10 -45.5q-10 -47 -23.5 -93.5t-40.5 -78.5q-31 -41 -74 -77t-94 -65q-18 -10 -33.5 -7t-28.5 13.5t-22.5 26.5t-15.5 33q-16 51 -30.5 102t-26.5 105q-6 23 -11.5 43t-11.5 41zM216 554q3 -144 44 -294l4 -10l64 -21l8 13l24 37q16 23 31 44t23 48l8 26 q27 86 51.5 172t34.5 176q14 115 16 230q1 58 1 116.5t-1 118.5q0 143 -125 144h-20l-4 -13q-43 -117 -82 -243q-39 -128 -59 -264q-18 -119 -19 -243q1 -19 1 -37z" />
<glyph unicode="P" horiz-adv-x="727" d="M84 104q-2 22 -2 42q0 33 6 61q14 66 29.5 130t32.5 128q16 59 30.5 120.5t28.5 123.5q31 145 59.5 286.5t48.5 284.5q6 51 28 93t63 83q37 37 84 37q35 0 62.5 -21.5t41.5 -58.5q49 -134 49 -261q0 -175 -94 -337q-16 -29 -40 -53.5t-50 -34.5q-51 -25 -86 -59.5 t-58.5 -75.5t-38 -87t-26.5 -91q-10 -41 -18.5 -85t-18.5 -85q-8 -41 -16.5 -81t-18.5 -81q-12 -49 -22.5 -64.5t-14.5 -17.5q-18 2 -28 18q-25 28 -31 86zM338 764l39 22q53 31 92 89.5t59 134.5q18 61 18 119q0 17 -2 35q-7 74 -40 130l-25 39z" />
<glyph unicode="Q" horiz-adv-x="729" d="M84 285v35q0 274 58 532q63 274 196 534q55 106 145 107q82 0 116 -34t38 -120q6 -141 6 -272t-10 -255t-32.5 -241.5t-61.5 -232.5q-11 -33 -11 -60q0 -21 7 -39q16 -40 38 -77l17 -29q29 -49 48 -96q9 -22 9 -45q0 -27 -12 -55q-4 -8 -21.5 -18.5t-29.5 -10.5 q-33 20 -61.5 41.5t-53.5 44.5q-10 8 -18.5 15t-16.5 14l-6 4h-8q-18 -2 -36.5 -5.5t-37.5 -7.5q-35 -6 -63.5 -9t-44.5 7q-70 39 -111 112t-43 161zM163 388q-1 -15 -1 -30q0 -25 3 -50q5 -40 22.5 -79t54.5 -75l12 -13l14 11q27 23 39 47t15.5 49.5t-1 51.5t-10.5 50 q-6 35 -10 67t12 60l131 -31l7 15q18 37 40.5 102.5t40 145t28.5 167.5q9 75 9 147v26q-2 84 -21.5 155.5t-60.5 118.5l-16 16l-12 -18q-8 -10 -16.5 -21.5t-16.5 -21.5q-18 -23 -35.5 -46.5t-28.5 -51.5q-80 -199 -127 -367t-63 -326l-2 -22q-4 -37 -7 -77z" />
<glyph unicode="R" horiz-adv-x="927" d="M82 40q0 32 4 72t8 78.5t8 61.5l7 43q29 215 60.5 422t59.5 389q18 106 64 256q18 59 69.5 95t114.5 36q16 0 25 -2q55 -6 91 -52t44 -118q7 -70 7 -132q0 -25 -1 -49q-4 -83 -26.5 -158t-62.5 -143.5t-101 -136.5l-9 -10l9 -12q25 -35 50 -71t50 -70 q74 -104 144.5 -201.5t136.5 -202.5q6 -10 9 -27.5t2 -36t-5 -35t-13 -24.5q-16 -16 -39.5 -2.5t-48.5 45.5q-78 98 -155.5 193.5t-161.5 195.5q-31 37 -61.5 74t-61.5 76l-27 31l-6 -39q-6 -29 -12 -54.5t-14 -54.5q-16 -59 -28 -121q-9 -46 -8 -92q0 -16 1 -31q1 -9 1 -18 q0 -51 -18 -99q-22 -58 -51 -87q-27 -31 -49 -31q-6 10 -6 42zM301 778l47 45q104 95 158 187q51 86 51 159v11q-2 90 -82 153l-22 17z" />
<glyph unicode="S" horiz-adv-x="700" d="M90 428q12 51 43 90l12 -24q14 -33 27.5 -64t28.5 -63q4 -12 8 -37q4 -16 7 -30.5t13 -29.5l4 -4q23 -33 48.5 -63.5t56.5 -32.5h6q51 0 86 37t47 102q5 30 5 59q0 22 -3 42q-6 48 -23.5 91.5t-42 83.5t-51.5 77q-180 256 -200 534v9q0 37 14 79q16 47 43 90t61.5 75 t69.5 40q16 4 32 4q28 1 60 -11q50 -18 86 -59q30 -31 44 -67q13 -31 12 -62v-8q-2 -16 -12.5 -32.5t-24.5 -34.5q-6 -12 -15 -21l-75 84l-15 -12q-86 -66 -103 -138q-5 -20 -4 -42q0 -58 32 -129q14 -29 28.5 -58t30.5 -57q23 -45 45.5 -90t38.5 -92q35 -100 61.5 -203 t44.5 -207q2 -10 2 -20q0 -26 -11 -53q-15 -38 -42.5 -71.5t-62.5 -59t-70 -36.5q-48 -14 -86 -14q-36 0 -64 12q-58 25 -104 113q-4 10 -9 17.5t-9 17.5q-38 66 -62 129q-15 38 -14 81q0 28 6 58z" />
<glyph unicode="T" horiz-adv-x="905" d="M82 1300q0 6 7 15.5t17.5 18.5t23.5 16.5t24 11.5q98 29 197.5 52.5t203.5 47.5q35 8 70.5 15.5t72.5 17.5q14 -6 35 -19.5t40.5 -29.5t33.5 -36.5t16 -41.5q-25 -45 -59.5 -58.5t-85.5 -13.5q-10 0 -18.5 1t-18.5 1h-43q-25 0 -55.5 -3t-63.5 -15l-12 -4v-12 q-4 -66 -5 -130.5t-3 -129.5q-4 -164 -8.5 -331t-14.5 -335l-2 -16q-2 -47 -6 -98.5t-16.5 -97.5t-37 -80t-65.5 -46q-29 0 -47 23q-36 39 -36 111q0 11 1 22q8 92 14.5 183t14.5 183q10 135 20.5 267.5t20.5 267.5q2 25 7 50.5t13 53.5q4 16 7.5 30.5t7.5 31.5l6 24l-27 -2 q-14 -2 -25.5 -2h-23.5q-25 -2 -46 -4t-44 -8q-8 -2 -14 -3t-13 -1q-18 0 -30.5 8t-19.5 20.5t-10 24.5t-3 20z" />
<glyph unicode="U" horiz-adv-x="802" d="M86 496q4 59 8 117.5t8 117.5q8 100 16.5 200.5t20.5 201.5q8 61 27.5 122.5t42.5 120.5q6 16 13 33.5t11 34.5q10 25 41 41q16 -4 23.5 -26.5t5.5 -39.5q-4 -104 -11 -223t-24 -238q-6 -51 -17 -100l-22 -98q-23 -102 -39 -208q-7 -48 -7 -98q0 -59 10 -120q0 -14 2 -21 q0 -12 1 -24.5t7 -22.5l10 -14q16 -27 34.5 -51.5t45.5 -32.5q12 -4 27.5 2t31 17.5t27.5 26.5t20 28q33 59 58 164l16 69q18 84 36.5 171t30.5 178q11 84 10 172v16q-1 96 -20 198q2 18 7 43q6 35 13 78t23 84q8 23 30 49.5t52 26.5q25 0 41.5 -37t20.5 -72q3 -26 3 -53 t-3 -55q-6 -55 -17 -111l-14 -84q-23 -123 -45.5 -248.5t-50.5 -248.5l-8 -41q-16 -72 -35 -142.5t-45.5 -137t-65.5 -127t-94 -109.5q-29 -25 -45 -26t-47 26q-167 148 -167 400q0 35 3 71z" />
<glyph unicode="V" horiz-adv-x="804" d="M86 1286q-2 16 -2 29q0 22 6 35q10 18 21.5 30.5t15.5 12.5t16.5 -12.5t18.5 -28.5q33 -76 51 -156t26.5 -162t10.5 -164t2 -163v-31v-80v-104l35 61q33 55 64.5 123.5t62 144.5t59.5 154t57 151q20 55 43 113.5t43.5 110t38 88.5t27.5 49q41 -57 40 -108v-15 q-7 -57 -30 -117q-4 -12 -8 -25.5t-8 -25.5q-35 -117 -73 -239.5t-79 -245.5q-53 -152 -109.5 -301.5t-113.5 -296.5l-16 -50q-10 -23 -22.5 -41t-29.5 -20q-8 6 -18 31.5t-19.5 62.5t-16.5 80t-9 84q-10 109 -15 217.5t-12 214.5q-4 80 -8 161t-8 161q-4 43 -10 86t-15 84 q-4 27 -8 52.5t-8 49.5z" />
<glyph unicode="W" horiz-adv-x="1105" d="M86 84q-3 54 -3 109q1 107 11 220q16 171 56 365q29 135 57.5 256t58.5 234q6 23 24.5 50.5t39.5 27.5q6 0 12 -7q10 -10 12 -32.5t0 -44.5q-18 -219 -43 -428q-6 -53 -11 -107.5t-11 -110.5q-4 -51 -9.5 -103t-9.5 -112l-14 -170l37 41q16 16 30.5 31.5t28.5 30.5 q51 57 99 104q35 35 55 35q4 0 17.5 -6t31.5 -43l12 -25q12 -27 27.5 -52t38.5 -54l24 -29l41 166q14 57 26.5 114.5t29.5 114.5q10 47 22 91.5t23 91.5q18 66 34.5 131t32.5 133q10 35 15.5 71.5t11.5 71.5q4 16 6 35t6 35q0 6 1 13t1 14q4 33 13 53q4 8 9 16t9 19 q10 29 20.5 44t26.5 15q14 -2 25 -12q14 -16 13 -45t-3 -43q-16 -119 -34.5 -248t-51.5 -258q-49 -193 -106.5 -375t-114.5 -356q-6 -20 -31 -42t-64 -42q-10 8 -29.5 28.5t-31.5 42.5q-14 23 -24.5 46.5t-22.5 52.5q-10 31 -25 61l-12 29l-20 -23q-16 -23 -34 -42t-34 -40 q-41 -47 -79 -93t-79 -91q-16 -16 -40.5 -28.5t-43.5 -12.5v-18v18q-20 2 -36.5 15.5t-20.5 66.5z" />
<glyph unicode="X" horiz-adv-x="903" d="M82 43q4 6 7 11t7 12q19 28 31 57q18 55 35.5 110.5t36.5 108.5q23 74 47 149.5t51 149.5q16 51 31 105q14 56 19 114q2 21 2 42q0 38 -6 77q-9 61 -40 125q-31 63 -46 134t-30 140l-6 39q-6 23 6 39q10 12 24.5 12t33.5 -12q37 -25 63 -82q12 -29 20.5 -59.5t18.5 -61.5 q4 -12 7 -24t7 -25l15 -47l22 45q10 23 19.5 42.5t19.5 39.5q23 49 44.5 94t43.5 92q8 12 17.5 17.5t15.5 5.5q4 0 9 -2t9 -12q10 -29 20 -77q5 -25 6 -49q0 -23 -5 -46q-10 -47 -26.5 -93.5t-32.5 -91.5q-12 -29 -23.5 -59.5t-22.5 -61.5q-10 -29 -9 -58.5t12 -53.5 q29 -74 58.5 -146.5t57.5 -146.5q41 -102 82 -204.5t82 -207.5q8 -23 5 -56.5t-15 -39.5q-16 -6 -31.5 3t-32.5 24q-4 4 -9 7t-9 7q-12 10 -21.5 26.5t-19.5 34.5l-2 5l-166 344l-53 110l-60 6l-243 -657q-4 0 -6 1t-7 1q-35 2 -48 8t-15 35z" />
<glyph unicode="Y" horiz-adv-x="673" d="M88 59q16 59 31.5 115.5t32.5 116.5q10 41 21 80l22 78q4 12 5 24t5 25q8 29 15 56.5t20 49.5q33 66 40 128q3 27 3 53q0 35 -5 69q-10 59 -32.5 117.5t-46.5 113.5l-4 11q-31 70 -54.5 136t-42.5 132q-4 18 -7 39.5t5 36.5q12 16 37 18q4 0 7 1t7 1q49 0 70 -74 q16 -55 33.5 -110t34.5 -113l32 -104l48 10l2 10q8 27 15 51.5t15 51.5q18 57 36 114.5t34 116.5q12 47 42 65q24 14 64 14q9 0 19 -1v-16q0 -16 -1 -32t-5 -32l-19 -76q-41 -166 -83 -333.5t-87 -335.5q-39 -141 -82 -291t-94 -301q-8 -23 -41 -45.5t-61 -28.5 q-18 -6 -29 6q-12 16 -2 53z" />
<glyph unicode="Z" horiz-adv-x="876" d="M84 117q20 59 44 116.5t46 114.5l31 74l47 115q53 129 106.5 258t106.5 258q16 39 33.5 74.5t36.5 74.5q8 16 15 33.5t17 34.5l15 33l-35 -5q-20 -4 -39 -6t-37 -6q-45 -8 -88 -13t-84 -7h-6q-43 0 -55.5 12t-14.5 16q-2 23 15.5 40.5t33.5 21.5q125 43 237 75.5 t218 59.5q11 3 21 3q25 0 38 -19q8 -15 8 -33q0 -26 -16 -60q-12 -25 -25.5 -49t-27.5 -47q-18 -33 -35.5 -65.5t-34.5 -67.5q-25 -59 -48 -116.5t-46 -114.5q-25 -63 -50.5 -127t-53.5 -127q-27 -59 -55.5 -116.5t-57.5 -115.5q-37 -68 -70 -133q-6 -14 -11 -28.5t-9 -30.5 q-2 -10 -4 -17.5t-6 -17.5l-11 -33l33 8q29 4 55.5 10.5t55.5 12.5q63 14 123.5 26.5t120.5 20.5q27 4 47 4q10 0 18 -1q24 -3 43 -13q-4 -25 -13 -37t-24 -27q-8 -6 -20 -18q-6 -10 -33 -21q-12 -6 -25.5 -14t-27.5 -18q-23 -6 -45.5 -12.5t-44.5 -12.5 q-70 -20 -141.5 -39.5t-147.5 -36.5q-16 -4 -44 7.5t-44 25.5q-16 16 -27.5 40t-7.5 36z" />
<glyph unicode="[" horiz-adv-x="763" d="M82 4q4 18 10 35.5t10 34.5q16 53 30.5 102t27.5 100q41 166 76.5 317.5t68.5 293.5q18 82 35.5 162.5t34.5 162.5q10 51 21.5 102.5t21.5 104.5q8 33 21.5 47.5t41.5 14.5l8 -2q16 0 35 1t35 3q18 2 36.5 4t37.5 -2q10 -2 25.5 -11.5t23.5 -17.5q-10 -25 -20.5 -43 t-14.5 -22h-10q-39 0 -63.5 -13.5t-40 -33t-22.5 -44t-13 -49.5l-4 -14q-66 -248 -130.5 -491.5t-130.5 -491.5q-4 -16 -5 -31.5t-3 -34.5q-2 -8 -3 -16t-3 -18l-2 -21l248 -14q8 -10 4 -35t-49 -80h-338z" />
<glyph unicode="\" horiz-adv-x="401" d="M0 1454q2 4 10 12l12.5 12.5t12.5 8.5q14 -4 29.5 -16.5t19.5 -24.5q23 -94 44.5 -188.5t43.5 -186.5l43 -184q14 -59 27.5 -120.5t29.5 -123.5q33 -137 66 -277.5t63 -281.5q2 -10 -3 -25.5t-11 -31.5l-6 -19l-12 15q-4 6 -9.5 13t-15.5 11q-6 4 -22 4h-7l-26 21 q-18 14 -33.5 27.5t-19.5 29.5q-8 25 -9.5 50.5t-3.5 53.5q-2 23 -3 46.5t-5 46.5q-23 125 -47.5 247.5t-48.5 245.5l-56 281l-43 237z" />
<glyph unicode="]" horiz-adv-x="745" d="M84 39q-2 8 8 20.5t19 22.5l4 8q4 4 11 9t11 5h6q55 0 90 17.5t56.5 47.5t32 66.5t20.5 73.5q23 88 47.5 173t50.5 171q23 70 43.5 141.5t38.5 143.5q16 59 23.5 116.5t15.5 116.5q2 25 4 50.5t6 50.5q6 35 -5 56.5t-29.5 32.5t-38 15t-29.5 6l-14 2q-18 4 -36 7.5 t-24 13.5q-8 8 -2 31q4 16 16.5 32.5t39.5 16.5q16 0 40 -10q10 -4 31 -9h8q49 -10 75 -17t39 -27.5t16.5 -59.5t5.5 -109q-2 -14 -4.5 -29.5t-6.5 -33.5q-10 -53 -22.5 -119.5t-28.5 -134.5q-35 -131 -72.5 -262t-76.5 -260q-16 -55 -31.5 -110.5t-32.5 -110.5l-2 -5 l-4 -16t-2 -18v-19.5t2 -19.5q4 -35 0 -51.5t-27 -24.5q-57 -16 -117.5 -21.5t-121.5 -9.5q-8 2 -19.5 13.5t-13.5 17.5z" />
<glyph unicode="^" horiz-adv-x="630" d="M88 999q-18 111 43 211l49 80q23 35 45.5 71t44.5 73q39 63 80 63q39 0 74 -63q27 -47 49.5 -96.5t44.5 -98.5l31 -68l-51 -84l-183 250l-14 -28q-10 -16 -17.5 -35t-15.5 -35q-35 -72 -71.5 -134.5t-108.5 -105.5z" />
<glyph unicode="_" horiz-adv-x="901" d="M82 68q0 6 1 15t1 15l53 13q72 16 146.5 30.5t148.5 22.5q63 4 137 1t146 -9l39 -4q14 0 28.5 -6.5t30.5 -16.5q2 0 3 -1t3 -1q-2 -4 -3 -5t-3 -5q-10 -12 -21.5 -23.5t-21.5 -15.5q-61 -14 -124.5 -21.5t-127.5 -13.5l-14 -2q-45 -4 -90 -7t-90 -7q-16 0 -35 -1t-37 -3 h-12l-4 -11l-25 8q-33 10 -65.5 21.5t-63.5 26.5z" />
<glyph unicode="`" horiz-adv-x="1705" />
<glyph unicode="a" horiz-adv-x="657" d="M84 213q8 225 82 380t223 253q33 23 51 22q33 0 60 -57q29 -58 29 -116q-1 -7 -1 -15q-4 -66 -14 -133q-4 -29 -8 -58.5t-4 -58.5q-2 -10 -2 -22.5t-2 -22.5q-2 -35 -2 -69.5t6 -67.5t21.5 -63.5t45.5 -61.5q8 -8 3 -31.5t-9 -46.5q-2 -10 -4 -18.5t-4 -16.5q-4 2 -9 4 t-9 4q-18 6 -34 14.5t-26 18.5q-16 18 -26.5 40t-20.5 44q-4 10 -8 20.5t-10 20.5l-13 25l-4 -27q-6 -29 -14 -56.5t-23.5 -49t-38 -37t-57.5 -17.5q-8 -1 -16 -1q-67 0 -111 46q-51 51 -51 141v13zM203 188q0 -4 3 -15t8 -22.5t11.5 -19.5t14.5 -8q20 0 42.5 8t32.5 25 q47 72 60 137q14 72 24.5 145.5t20.5 145.5q4 29 8 56.5t8 55.5l2 11l-43 4l-4 -4q-111 -158 -156 -282q-35 -96 -35 -186q0 -26 3 -51z" />
<glyph unicode="b" horiz-adv-x="618" d="M84 96q45 322 92 642.5t98 650.5q6 39 35 73q10 8 23.5 15.5t23.5 7.5q4 0 6 -2q6 -2 15.5 -17.5t7.5 -25.5q-10 -104 -22.5 -209t-24.5 -207l-4 -29q-2 -16 -2 -20t-2 -10q-2 -4 -2 -8.5t-2 -12.5v-2v-2q2 -14 5 -19.5t7 -9.5t4 -6l2 -2q8 -10 14.5 -20.5t12.5 -20.5 q14 -23 30.5 -45t38.5 -37q72 -41 84 -100q11 -51 12 -105q0 -9 -1 -18v-35v-16q-1 -82 -19 -159q-20 -85 -39 -144q-10 -37 -42 -73t-74 -63.5t-90 -44t-93 -16.5h-20.5t-20.5 4q-8 2 -18 12.5t-18.5 23.5t-13.5 26.5t-3 23.5zM199 154l14 6q76 33 105.5 86t48.5 104 q6 16 12 33t14 33q31 63 31 125q0 124 -123 247l-12 15z" />
<glyph unicode="c" horiz-adv-x="581" d="M83 232q-1 16 -1 32q0 48 7 96q9 64 24.5 126.5t33.5 123.5q10 35 26.5 71t33.5 71q4 8 9 16t9 18q27 51 74 64.5t102 17.5q10 0 15 -8q6 -10 13 -18t13 -19q18 -23 34 -46t20 -48q4 -29 0 -59.5t-11 -61.5q-2 -12 -4 -24.5t-4 -24.5q-6 0 -11 -1t-9 -1l-13 -2l-14 33 q-10 27 -20.5 52.5t-20.5 49.5q-4 8 -8 15.5t-8 15.5q-4 4 -8 12l-5 8l-10 -4q-4 -4 -7 -5t-7 -3q-10 -6 -20.5 -11t-14.5 -16q-35 -61 -54.5 -124.5t-28.5 -125.5q-9 -64 -10 -126v-24q0 -49 3 -95q2 -12 10 -22.5t19 -18.5q4 -4 6 -5t4 -3l2 -4h6q45 4 60.5 33.5 t23.5 62.5q10 31 22.5 54.5t49.5 23.5q4 0 9 -1t9 -1q9 -41 9 -77q0 -151 -150 -233q-25 -12 -53 -12q-45 0 -83 27.5t-51 68.5q-18 66 -21 132z" />
<glyph unicode="d" horiz-adv-x="700" d="M84 291v36q0 79 7 142q9 78 30 143q4 8 5 16.5t5 16.5q8 31 18.5 60.5t27 55t42 45t66.5 28.5q27 6 48 22t42 35q18 18 37 31l2 2q2 4 3 4t3 2q4 4 9 8t11 16l2 2q0 18 2 23v10t5 21l4 24q16 102 33.5 207t37.5 209q4 10 16.5 22.5t20.5 12.5q10 0 23.5 -11.5t19.5 -25.5 q14 -28 14 -58q0 -10 -2 -20q-45 -332 -91 -652.5t-93 -639.5q-2 -10 -10 -22.5t-19.5 -22.5t-24.5 -17.5t-22 -7.5v-8l-2 8q-43 2 -90 30t-87 68.5t-66.5 90t-26.5 94.5zM225 469q4 -16 5 -33.5t3 -34.5q2 -29 4.5 -57.5t11.5 -57t27.5 -57t49.5 -55.5l12 -10l98 647 l-16 -8q-199 -111 -199 -282q0 -25 4 -52z" />
<glyph unicode="e" horiz-adv-x="583" d="M84 166v12q0 137 43 316q16 59 39.5 114.5t56.5 96.5q63 82 183 153q8 6 22 6q23 0 45 -24q29 -32 29 -75q0 -12 -2 -24q-18 -137 -74.5 -220t-157.5 -124q-16 -6 -30.5 -26.5t-18.5 -38.5q-3 -25 -3 -52v-14q1 -35 5 -78q8 -73 53 -73q24 0 58 20q29 16 57 25q12 4 21 8 l4 -16q-8 -20 -11 -31q-8 -18 -14 -34.5t-16 -31.5q-39 -51 -103 -51q-23 0 -45 4t-45 8l-14 4q-55 12 -68.5 55.5t-13.5 90.5zM231 506l23 4q86 20 123 86q25 45 25 105q0 28 -5 59l-4 26z" />
<glyph unicode="f" horiz-adv-x="679" d="M86 104q27 178 49.5 354.5t42.5 350.5q14 109 27.5 217.5t27.5 218.5q6 43 30 87t61.5 78t89 55.5t110.5 21.5q29 0 64 -6q14 -4 29.5 -21.5t27.5 -46.5q10 -27 12 -51.5t-6 -34.5t-13 -21.5t-9 -21.5l-6 -12q-16 -4 -29.5 6t-26.5 25q-12 12 -25.5 22t-29.5 10 q-23 0 -45 -20q-14 -12 -25.5 -27.5t-21.5 -34.5q-6 -10 -11.5 -19t-13.5 -20l-8 -12l115 -18q12 -35 16 -59.5t-4 -37.5q-10 -12 -35.5 -17t-66.5 -7q-16 -2 -36 -21.5t-24 -35.5l-4 -25q-23 -115 -45 -229.5t-39 -231.5q-10 -78 -17 -155.5t-14 -153.5q-2 -33 -4 -64.5 t-6 -62.5l-78 -76l-2 2q-31 12 -48 28q-12 12 -12 38q0 12 3 28z" />
<glyph unicode="g" horiz-adv-x="729" d="M100 -160q25 43 47 43q18 0 43 -24q57 -66 103 -66q55 0 102 98q6 12 9.5 24.5t7.5 29.5q2 8 4 15t4 15l4 11l-12 2q-113 2 -154 55q-28 36 -28 108q0 43 10 99l8 41q18 96 38.5 193.5t51.5 189.5q16 47 52 94t89 88q6 8 29 8q25 0 53.5 -9t44.5 -21q20 -14 32 -50 q8 -27 8 -50q0 -8 -1 -15q-20 -121 -43.5 -240t-46.5 -235q-10 -43 -18.5 -86t-16.5 -86q-4 -14 -6 -26.5t-6 -25.5q-6 -31 -12.5 -62.5t-8.5 -63.5q0 -53 -25.5 -88t-55.5 -70q-8 -10 -16.5 -20.5t-18.5 -20.5q-35 -45 -111 -45q-72 0 -123 39q-54 38 -54 89q0 29 17 62z M371 164l2 -25l14 21q37 51 60.5 105t37 110.5t19.5 114t12 114.5q2 61 12 123l7 43l-25 -37q-144 -239 -144 -481q0 -44 5 -88z" />
<glyph unicode="h" horiz-adv-x="598" d="M83 98.5q1 16.5 1 20.5q18 166 40.5 329.5t45.5 323.5l43 307l8 66t8 67q4 53 11.5 107.5t17.5 107.5q4 18 25.5 41t35.5 23h3q18 0 28 -10q6 -8 5 -21.5t-5 -29.5q-2 -4 -2 -10.5t-2 -10.5q-14 -96 -25.5 -190.5t-21.5 -186.5q-4 -35 -7 -67.5t-7 -67.5l-2 -14l14 4 q12 4 23.5 10t23.5 10q23 10 42.5 17.5t33.5 3.5t30.5 -13.5t32 -22.5t24.5 -33.5t7 -47.5q-8 -127 -15 -250t-18 -248v-18t-2 -19q-4 -41 -6 -83.5t-12 -83.5q-4 -25 -17.5 -48.5t-31.5 -23.5h-4q-16 0 -29 14q-12 12 -17.5 30.5t-5.5 29.5q4 78 15.5 152.5t25.5 146.5v4 l4 20t7 21v4q2 14 3 22t3 17q0 8 1 15t1 22q-4 39 -4 77.5v77.5v64v8l-56 10l-2 -8q-6 -18 -13 -35.5t-13 -36.5q-16 -41 -29.5 -82t-24.5 -82q-16 -76 -29.5 -150.5t-23.5 -150.5q-6 -31 -11 -62.5t-11 -62.5q0 -2 2 -4q-8 -10 -12.5 -21t-8.5 -22q-6 -23 -15 -37t-36 -14 q-20 6 -30.5 22.5t-13.5 36t-2 36z" />
<glyph unicode="i" horiz-adv-x="460" d="M88 59q-6 67 -6 133q0 126 22 248q34 186 86 371q4 16 20.5 34.5t45.5 18.5h10q4 0 7 -2t8 -4q6 -10 5 -25.5t-3 -29.5v-8q-16 -129 -34 -254t-38 -244v-4q-4 -23 -6 -44.5t4 -40t21.5 -33.5t48.5 -23q4 -8 5 -27t-3 -23q-55 -47 -131 -86q-40 -18 -56 -2q-8 12 -6 45z M177 1066q3 26 20 44q18 20 47 20h6h10h19q27 0 54 -11t46 -62q-14 -47 -50 -70.5t-61 -28.5q-10 0 -25.5 6.5t-28.5 15.5t-23.5 20.5t-12.5 21.5q-4 18 -1 44z" />
<glyph unicode="j" horiz-adv-x="706" d="M83 -195.5q-1 27.5 9 45.5q8 14 23.5 26.5t31.5 14.5q10 0 24.5 -11t25.5 -23q4 -4 8 -10.5t8 -12.5q8 -14 17.5 -27.5t25.5 -29.5l12 -8l4 12q8 27 16.5 51.5t18.5 50.5q20 55 40 112.5t32 117.5q16 84 29.5 168t27.5 165q10 70 21.5 140.5t25.5 140.5q0 8 4 21 q2 20 7.5 41.5t16.5 38t30.5 26.5t54.5 10h2v-16t-2 -17q0 -45 -6 -83l-27 -148q-33 -182 -66.5 -365.5t-72.5 -369.5q-8 -39 -32.5 -76t-53.5 -72l-6 -10q-47 -59 -113 -59q-37 0 -74 20q-16 8 -30.5 30.5t-22.5 50.5t-9 55.5zM494 1057q6 51 53 71q51 -9 67 -34 q9 -15 9 -38q0 -17 -5 -38q-6 -23 -18 -40t-33 -17q-12 0 -28 10q-46 31 -46 75q0 6 1 11z" />
<glyph unicode="k" horiz-adv-x="657" d="M84 61q4 37 10 73t10 71q6 49 13.5 99t15.5 99q35 205 70 411t73 429q6 41 15.5 80t19.5 82q4 18 8.5 37.5t8.5 40.5h18q8 2 25 2q23 0 30 -8q6 -4 7.5 -25.5t-2.5 -50.5q-10 -51 -20.5 -101.5t-20.5 -99.5q-6 -33 -12.5 -65.5t-12.5 -65.5q-2 -10 -2 -19.5v-21.5 q2 -10 2 -35v-30l16 26q10 16 18.5 29.5t18.5 25.5q35 59 72 105q6 8 18.5 12t24.5 8q4 2 7 2t7 3q0 -8 4 -21q2 -16 3 -31.5t-3 -27.5q-31 -68 -92 -150q-37 -47 -37 -94q0 -45 13 -105q4 -14 6 -26t4 -25q10 -92 31.5 -183t44.5 -177q10 -37 24.5 -72t30.5 -69 q6 -14 12 -28.5t12 -29.5q-2 -2 -4 -3t-4 -3q-8 -4 -15 -9t-11 -11q-6 -6 -21.5 -20.5t-25.5 -14.5q-16 0 -29 53q-18 70 -36.5 139.5t-35.5 139.5q-14 53 -27.5 108t-27.5 109l-8 24t-8 25q-4 4 -5.5 10t-3.5 10l-4 10l-30 -14l-3 -6q-4 -37 -10 -75t-10 -75 q-16 -111 -33.5 -222t-36.5 -222q-4 -23 -21.5 -46.5t-35.5 -33.5q-29 -10 -39 2q-12 12 -6 51z" />
<glyph unicode="l" horiz-adv-x="483" d="M88 50q-5 11 -5 27q0 21 9 52q33 109 54.5 221.5t41.5 229.5q16 98 32 197.5t32 197.5q16 104 32.5 210.5t34.5 213.5q4 16 14.5 32.5t26.5 32.5q4 6 10.5 12.5t10.5 12.5l20 -6q-2 -16 -3 -29.5t-1 -28.5q-4 -35 -6 -68.5t-6 -68.5q-16 -129 -34.5 -258t-35.5 -258 q-10 -74 -20 -148.5t-21 -148.5q-4 -23 -5 -45t-3 -45q-4 -45 -10 -90t-16 -88q-4 -8 -5.5 -17.5t-5.5 -19.5q-6 -25 -12 -52.5t-14 -52t-19.5 -41t-23.5 -16.5q-60 18 -72 42z" />
<glyph unicode="m" horiz-adv-x="825" d="M84 90q20 111 40.5 218.5t43.5 213.5q8 41 16.5 84t16.5 86q4 20 4 33q2 16 4 29.5t8 25.5q4 6 6 11.5t6 11.5q8 23 19.5 40t34.5 21q20 -8 27 -18t14 -27q8 -20 18 -33l8 -8l6 6q20 20 43 37t50 17q33 0 61 -21q8 -6 21.5 -2t29.5 12l12 7q45 18 64 18q16 0 28.5 -12.5 t34.5 -44.5l9 -15q34 -48 34 -93q-1 -6 -1 -12q-6 -50 -17 -104q-8 -24 -12 -51q-4 -25 -11.5 -48t-13.5 -48q-18 -63 -30 -130q-5 -28 -6 -57q0 -40 10 -81q4 -12 -11.5 -33t-32.5 -39q-10 -8 -18 -21h-4q-10 0 -19.5 2.5t-11.5 4.5q-10 12 -17 28.5t-3 28.5 q27 111 52.5 212t53.5 200q18 60 18 98q-1 5 -1 9q-2 40 -37 91l-8 13l-9 -11q-6 -10 -13 -19t-15 -20q-16 -18 -30.5 -35.5t-18.5 -39.5q-16 -57 -29.5 -114.5t-28.5 -115.5q-14 -59 -28.5 -121.5t-30.5 -123.5q-6 -16 -19.5 -32t-29.5 -32q-8 -8 -14.5 -15.5t-14.5 -13.5 q-18 0 -29 11q-10 10 -10 24q4 41 12.5 87t20.5 97q18 72 36.5 142.5t39.5 146.5q10 33 18 67t19 70l6 25l-21 -14q-70 -51 -97.5 -109.5t-43.5 -111.5l-12 -37q-12 -35 -20.5 -72t-16.5 -72q-4 -29 -10.5 -59.5t-16.5 -58.5q-10 -37 -23.5 -67t-27.5 -60q-8 -14 -14.5 -31 t-14.5 -33q-18 4 -24 12q-4 14 -9.5 22.5t-9.5 16.5q-4 10 -8 17.5t-2 19.5z" />
<glyph unicode="n" horiz-adv-x="632" d="M82 63v38t2 38q18 121 36.5 240t37.5 235l14 95q2 6 2 12t2 10q2 16 4 32.5t10 29.5q8 14 19.5 26t23.5 25q4 4 7.5 7t7.5 7q27 -29 63 -29q16 0 35 5.5t35 13.5t33.5 13t34.5 5q100 -10 100 -108q1 -44 1 -83q0 -60 -2 -111q-3 -85 -11 -163q-17 -155 -56 -284 q-6 -23 -21.5 -41.5t-33.5 -38.5l-15.5 -15.5t-13.5 -15.5l-18 2v23q2 18 2 35.5t2 33.5q10 66 21.5 131.5t21.5 130.5q12 74 24.5 148t22.5 147q2 20 -4 48q-4 16 -4 24l-2 12l-10 -4q-45 -16 -74 -42.5t-48.5 -58.5t-31.5 -69t-25 -73l-12 -43q-10 -35 -18 -71t-17 -71 q-8 -37 -16 -74.5t-18 -72.5q-10 -27 -26.5 -50.5t-35.5 -45.5q-8 -10 -15 -19.5t-16 -19.5h-6q-8 0 -10 4v15t-2 17z" />
<glyph unicode="o" horiz-adv-x="571" d="M84 309v18q0 313 201 498q16 16 32.5 28.5t32.5 12.5q27 0 51 -43l88 -153q-4 -16 -5 -32.5t-3 -33.5q-10 -82 -20 -157.5t-28.5 -146.5t-51.5 -136.5t-84 -124.5q-29 -31 -47 -31q-16 0 -51 21q-39 25 -61.5 56.5t-34 68t-15.5 75.5t-4 80zM213 295q4 -41 19.5 -87 t52.5 -65l8 -6l4 10q73 155 91 301q7 57 7 115q0 91 -18 185l-2 14l-13 -10q-41 -31 -70.5 -84.5t-49.5 -117.5q-19 -62 -26 -130q-4 -43 -4 -82q0 -22 1 -43z" />
<glyph unicode="p" horiz-adv-x="643" d="M85 -266.5q3 18.5 9 37.5q4 10 5 19t3 17q14 88 29.5 176.5t32.5 174.5l49 282q4 31 7 60.5t7 60.5q4 47 10.5 93t18.5 91q10 35 42 74t67 47q2 2 8 2q14 0 32.5 -6t36 -17t31.5 -24.5t21 -25.5q67 -126 67 -214q0 -14 -2 -28q-14 -90 -32.5 -172t-50.5 -154.5t-83 -134 t-131 -110.5q-20 -12 -29.5 -40t-17.5 -57q0 -8 -4 -20q-10 -35 -19.5 -66.5t-23.5 -72.5l-6 -19q0 -4 -1 -8t-1 -8q-4 -10 -7 -23.5t-10 -21.5q-29 10 -42 23.5t-16 29.5t0 34.5zM264 154l8 -2q10 -4 20.5 -6.5t20.5 -6.5l9 -2l2 6q10 27 21 51.5t22 49.5q29 59 52 118.5 t38 122.5l4 13q6 25 11 55.5t-1 62t-27.5 60.5t-68.5 51l-13 4l-96 -569z" />
<glyph unicode="q" horiz-adv-x="552" d="M83 300q-2 25 -2 50q0 55 8 112q11 83 30 169q18 94 143 203q16 14 46 23t59 9t43 -10q29 -20 45 -66q14 -42 14 -73v-8q-4 -47 -14.5 -93.5t-22.5 -91.5q-8 -29 -15 -57.5t-11 -56.5q-14 -72 -27.5 -141.5t-24.5 -139.5q-16 -86 -32.5 -173t-32.5 -173q-4 -20 -4 -37 q-2 -18 -5.5 -36.5t-11.5 -32t-24.5 -21.5t-44.5 -8h-4q-4 10 -2 23.5t4 23.5v14l2 21q2 41 3 74.5t5 68.5q0 4 1 9t1 12q4 29 5 58.5t-15 47.5q-57 72 -84 146.5t-32 153.5zM183 406q3 -64 7 -127q2 -27 4.5 -53.5t2.5 -53.5v-8l59 -4l106 571l-12 -2q-51 -4 -81.5 -23.5 t-47 -46t-22.5 -57.5t-9 -55l-2 -15q-6 -46 -6 -92q0 -17 1 -34z" />
<glyph unicode="r" horiz-adv-x="722" d="M82 93.5q0 21.5 6 42t14 40.5q4 16 9.5 29.5t7.5 27.5q16 92 35.5 182.5t40.5 178.5q8 35 15 69.5t15 69.5q2 4 2 6t2 6q2 10 4.5 18.5t6.5 12.5q8 16 12 23q6 14 13 23t26 12q20 -4 24 -14.5t9 -24.5q4 -16 8 -25q4 -11 0 -29q0 -12 -2 -18v-18l16 10q14 10 27.5 20 t27.5 21q31 23 61 43t62 37q53 26 86 26h2q27 0 42.5 -21.5t27.5 -76.5q-10 -4 -23.5 -7t-25.5 -7q-33 -10 -63.5 -21.5t-53.5 -34.5q-141 -147 -211 -286q-20 -39 -31.5 -81t-21.5 -83q-8 -31 -16.5 -62.5t-18.5 -62.5q-6 -14 -14 -32.5t-19.5 -35t-25 -30t-31.5 -15.5 q-25 23 -35 44.5t-10 43z" />
<glyph unicode="s" horiz-adv-x="550" d="M86 240q-2 18 -2 33q0 19 3 33q5 24 46 28h10q29 0 38 -19.5t14 -54.5q2 -10 2 -21.5t4 -21.5q6 -20 26.5 -35.5t40.5 -27.5l8 -4h3q4 0 13 7t17 17t21 27q33 47 38 89q1 12 1 24q-1 29 -9 55q-12 37 -35.5 69.5t-48.5 63.5q-10 12 -18 23.5t-16 21.5q-54 74 -70 125 q-6 19 -6 39q0 34 18 71q18 35 66.5 59.5t103.5 24.5q63 0 97 -32q10 -10 12 -37t-4 -43q-4 -10 -24.5 -19.5t-39.5 -13.5q-8 -2 -16 3t-19 9q-10 6 -20 10l-4 2l-35 -18l4 -8q2 -4 6 -17q4 -10 7.5 -19t9.5 -17q45 -66 78 -130q34 -62 50 -126q12 -50 11 -103v-27 q-4 -66 -35 -137q-10 -27 -31.5 -52t-48 -44.5t-55.5 -31t-53 -11.5h-8q-25 2 -51.5 21.5t-48 47t-35 60.5t-11.5 62q0 10 -1 22.5t-3 22.5z" />
<glyph unicode="t" horiz-adv-x="618" d="M82 108.5q2 12.5 4 24.5l2 6q23 111 44.5 221.5t43.5 221.5q20 104 41 207.5t41 207.5q4 14 5 29.5t3 32.5q2 10 2 19t2 20l2 10h-10h-45q-10 -2 -18.5 -2h-18.5q-14 0 -25.5 1t-21.5 3q-16 4 -31.5 18.5t-15.5 24.5t16.5 25.5t30.5 19.5h6q57 10 89 18.5t46.5 26 t17.5 48t3 85.5v23q-2 14 -1 28.5t5 26.5q8 14 24.5 27.5t28.5 13.5q10 0 26.5 -17.5t16.5 -27.5q1 -13 1 -26q0 -26 -3 -52q-4 -39 -8 -80q-2 -16 -3 -31.5t-1 -31.5l-2 -10h10h53q10 2 21.5 2h21.5q18 0 32.5 -1t27.5 -3q12 -2 24.5 -8.5t24.5 -14.5q4 -4 7 -5t7 -5 q-4 -4 -12 -17q-10 -14 -19.5 -25.5t-19.5 -15.5q-29 -10 -59.5 -13t-65.5 -7q-12 -2 -25.5 -3t-27.5 -3l-6 -2l-2 -6q-8 -45 -16.5 -88t-16.5 -89q-20 -102 -41 -206.5t-37 -208.5q-10 -66 -16 -134.5t-13 -134.5q-2 -31 -4 -61.5t-6 -60.5v-7q0 -12 -4 -20 q-6 -8 -10 -15.5t-8 -15.5q-6 -16 -14.5 -27.5t-30.5 -17.5q-25 12 -35.5 28t-20.5 32q-8 16 -14 24q-4 6 -2 18.5zM82 108.5q2 12.5 4 24.5l2 6q23 111 44.5 221.5t43.5 221.5q20 104 41 207.5t41 207.5q4 14 5 29.5t3 32.5q2 10 2 19t2 20l2 10h-10h-45q-10 -2 -18.5 -2 h-18.5q-14 0 -25.5 1t-21.5 3q-16 4 -31.5 18.5t-15.5 24.5t16.5 25.5t30.5 19.5h6q57 10 89 18.5t46.5 26t17.5 48t3 85.5v23q-2 14 -1 28.5t5 26.5q8 14 24.5 27.5t28.5 13.5q10 0 26.5 -17.5t16.5 -27.5q1 -13 1 -26q0 -26 -3 -52q-4 -39 -8 -80q-2 -16 -3 -31.5 t-1 -31.5l-2 -10h10h53q10 2 21.5 2h21.5q18 0 32.5 -1t27.5 -3q12 -2 24.5 -8.5t24.5 -14.5q4 -4 7 -5t7 -5q-4 -4 -12 -17q-10 -14 -19.5 -25.5t-19.5 -15.5q-29 -10 -59.5 -13t-65.5 -7q-12 -2 -25.5 -3t-27.5 -3l-6 -2l-2 -6q-8 -45 -16.5 -88t-16.5 -89 q-20 -102 -41 -206.5t-37 -208.5q-10 -66 -16 -134.5t-13 -134.5q-2 -31 -4 -61.5t-6 -60.5v-7q0 -12 -4 -20q-6 -8 -10 -15.5t-8 -15.5q-6 -16 -14.5 -27.5t-30.5 -17.5q-25 12 -35.5 28t-20.5 32q-8 16 -14 24q-4 6 -2 18.5z" />
<glyph unicode="u" horiz-adv-x="663" d="M84 172q14 145 33.5 302t44.5 333q2 16 17.5 35.5t39.5 21.5q16 -2 26.5 -24.5t10.5 -36.5q-4 -39 -10 -77t-13 -75q-4 -29 -8 -56.5t-8 -55.5q-4 -20 -7 -41t-7 -41q-13 -59 -19 -122q-1 -12 -1 -23q0 -51 24 -103q6 -16 14 -29.5t19 -25.5q4 -6 7 -12.5t7 -10.5l6 -10 l8 6q12 8 31 18q18 10 35.5 21.5t21.5 28.5q18 63 36 126.5t34 127.5q12 49 24.5 99t28.5 101q4 12 4 25.5t2 27.5q2 35 11.5 66t54.5 51q10 -6 18 -18q12 -27 12 -73q0 -16 -1 -32q-5 -70 -23 -150.5t-43 -163.5t-45 -140l-18 -62q-6 -20 -12.5 -40.5t-14.5 -43.5 q-39 -92 -136 -92q-20 0 -42 4q-35 6 -65.5 22.5t-53.5 39t-34 49t-9 53.5z" />
<glyph unicode="v" horiz-adv-x="632" d="M84 761q-2 5 0 9l2 4v2q-1 8 -1 16q0 48 54 74q25 -10 37 -33.5t17 -46.5q10 -72 16 -144.5t14 -149.5q4 -29 5 -59t5 -62l3 -21l14 17q49 53 80.5 134t58.5 158q25 76 50.5 136.5t60.5 70.5q33 -14 45 -45q7 -18 7 -39q0 -27 -12 -58q-20 -56 -44 -112 q-10 -23 -20.5 -44t-16.5 -40q-23 -72 -52.5 -142.5t-60.5 -139.5q-16 -31 -29.5 -63.5t-27.5 -65.5q-4 -8 -6 -18.5t-7 -20.5q-8 -31 -16 -49.5t-29 -18.5q-4 0 -16 4q-27 10 -47.5 55.5t-26.5 90.5q-12 102 -20 204.5t-17 204.5q-4 41 -7 82t-7 82q0 4 -1 8.5t-1 8.5 q-2 6 -4 11z" />
<glyph unicode="w" horiz-adv-x="858" d="M81 754.5q-1 17.5 9 29.5q8 12 31 13h6q20 0 32.5 -12.5t19.5 -30t11 -33.5t3 -25q4 -59 11 -120.5t15 -124.5q4 -29 7 -56.5t7 -56.5l3 -25l49 76q20 29 36.5 55.5t32.5 51.5q16 24 31 24t29 -24q18 -31 34.5 -64t32.5 -67q8 -16 15.5 -33t15.5 -33l10 -23l170 594h21 q10 -10 14 -16q25 -28 41 -56q9 -15 9 -34q0 -17 -7 -37q-31 -96 -62.5 -198.5t-66.5 -225.5q-14 -47 -25 -100q-8 -29 -14 -58.5t-16 -58.5q-4 -16 -21.5 -32.5t-34.5 -22.5q-8 0 -24.5 13t-24.5 28q-18 37 -35.5 75.5t-37.5 83.5q-8 18 -16.5 38t-18.5 42l-8 19l-11 -19 q-10 -23 -17 -41t-18 -37q-18 -43 -35.5 -80.5t-37.5 -74.5q-2 -4 -4 -9.5t-4 -11.5q-8 -18 -16.5 -31.5t-31.5 -15.5q-33 14 -47 41t-16 49q-14 147 -22.5 294t-14.5 292q0 10 -4 31q-4 20 -5 37.5z" />
<glyph unicode="x" horiz-adv-x="735" d="M84 100q12 33 31.5 63t40.5 58q39 59 84 116.5t69 123.5q11 33 11 71q0 16 -2 34q-7 58 -9 114q-2 20 -10 40.5t-4 37.5q6 23 22.5 41t30.5 39q20 -16 40 -30.5t36 -35.5q10 -10 13.5 -29.5t11.5 -44.5q31 47 55 85t53 83q27 -14 58.5 -25.5t35.5 -29.5q6 -20 -13.5 -47 t-31.5 -51q-23 -43 -50.5 -82t-43.5 -80q-15 -39 -15 -83v-6q1 -48 35 -108q18 -33 38 -74.5t26 -87.5q2 -12 2 -24q0 -35 -13 -71q-18 -48 -73 -95q-23 8 -37 42t-23.5 80t-17.5 96t-20 87q6 4 1 0t-1 0q-16 4 -21.5 13.5t-21.5 13.5q-20 -35 -40 -65.5t-38 -61.5 q-16 -25 -34.5 -47.5t-29.5 -48.5q-6 -23 -19 -32t-28.5 -15.5t-32 -10.5t-28.5 -16q-10 16 -25.5 34.5t-11.5 28.5z" />
<glyph unicode="y" horiz-adv-x="587" d="M82 -332q0 41 4 87t14 89q10 39 23.5 77t26.5 75q23 61 41 125.5t28 130.5q3 18 3 36q0 26 -6 51q-11 44 -26 89q-6 20 -12 39.5t-10 40.5q-12 57 -25.5 114.5t-25.5 116.5l-27 117q39 5 64 5h8q26 -1 44.5 -29.5t36 -92t44.5 -180.5l8 -35l22 82q6 18 10.5 32.5 t8.5 29.5q4 10 6 17t6 17l19 56q10 35 22 60.5t39 25.5q16 0 33 -8q35 -16 42 -43q2 -8 2 -19q0 -24 -11 -59q-47 -143 -91.5 -285.5t-85.5 -284.5q-29 -96 -58.5 -189t-59.5 -189q-10 -29 -24.5 -59t-37.5 -56h-2q-10 0 -28.5 6t-24.5 10z" />
<glyph unicode="z" horiz-adv-x="684" d="M86 39q-4 6 0 28.5t14 38.5q35 59 69 117t69 115q33 53 65.5 109.5t67.5 111.5q10 16 16 34.5t12 41.5q4 10 7.5 22.5t7.5 24.5l6 16l-60 -14q-16 -4 -30.5 -6t-28.5 -6h-6q-18 -6 -39 -6q-12 0 -24.5 6t-16.5 35q-2 18 -2 33q0 22 5 38q9 26 54 33q37 6 74 13t72 16 q23 4 42 9t40 9q22 4 39 4q33 0 45 -16q8 -12 8 -30t-8 -42q-23 -72 -52.5 -140.5t-62.5 -135.5l-20 -43q-20 -43 -42 -85t-45 -85q-10 -20 -21 -41t-24 -41l-10 -21l281 80q13 -40 13 -69v-11q-3 -32 -7 -43q-27 -8 -53.5 -16.5t-53.5 -16.5q-80 -27 -161.5 -52t-165.5 -48 q-12 -4 -37 6.5t-37 26.5z" />
<glyph unicode="{" horiz-adv-x="702" d="M84 713q-6 39 61 96q41 35 75 87t65 128q18 47 26 98.5t13 102.5l2 24q20 184 206 238q6 0 18.5 -4t27 -13.5t26.5 -24.5t17 -38q-2 -2 -3.5 -4t-3.5 -4q-4 -8 -6 -10l-4 -5q-57 -10 -91 -33.5t-52.5 -54t-26.5 -67.5t-14 -72q-4 -20 -8 -39.5t-11 -38.5q-6 -23 -12 -45 t-10 -45q-12 -55 -28.5 -106.5t-53.5 -96.5q-10 -12 -15.5 -33.5t5.5 -37.5q20 -33 25 -63.5t2 -61.5t-13 -60.5t-22 -60.5q-10 -29 -20.5 -56.5t-16.5 -56.5q-2 -8 -4 -15t-7 -17l-12 -31q-16 -59 -22.5 -94t10.5 -58q14 -23 44 -32t83 -19l-6 -18q-4 -25 -11.5 -40.5 t-29.5 -21.5q-4 0 -8.5 -1t-10.5 -1q-12 -4 -27.5 -6t-29.5 0q-47 6 -72.5 17.5t-38.5 27.5q-23 31 -4 109q14 70 37 138t47 134l21 61q8 23 13 45.5t1 43t-20.5 39t-49.5 34.5q-55 27 -61 62z" />
<glyph unicode="|" horiz-adv-x="354" d="M82 281.5q0 72.5 6 146.5q6 86 16.5 172t20.5 172q10 78 19.5 160t15.5 164q6 61 3 122.5t-7 120.5q0 20 -1 39t-3 37v38t10 30q6 6 18 6t19 -2q12 -2 24.5 -12.5t23.5 -22.5t18 -26.5t7 -24.5q-4 -262 -10 -517t-14 -489q-4 -66 -9.5 -132t-13.5 -128q-4 -41 -9 -64.5 t-18.5 -37t-39 -18.5t-72.5 -9q0 33 -1 63.5t-1 63.5q-2 76 -2 148.5z" />
<glyph unicode="}" horiz-adv-x="598" d="M83 28.5q-1 10.5 3 16.5q27 51 57 76q53 45 75 96t11 119q-18 158 2 291q8 55 23.5 109.5t32.5 107.5q6 23 13 46t13 46l19 61q16 61 33.5 122t33.5 122q37 113 -77 162q-16 8 -34 22.5t-22 34.5q16 23 48 27t55 0q86 -23 123 -80q35 -55 16 -137q-16 -66 -36.5 -132.5 t-43.5 -131.5q-10 -31 -19.5 -62t-19.5 -61q-6 -16 -10 -32.5t-8 -33.5l-15 -51l17 -6l30 -12q14 -4 26.5 -8.5t21.5 -12.5q18 -18 30.5 -41t12.5 -39q0 -6 -15.5 -21.5t-32.5 -21.5q-104 -37 -129 -96t11 -141q18 -47 6 -101.5t-43 -105.5t-74 -92t-86 -62q-2 -2 -18.5 0 t-26.5 8q-2 4 -3 14.5z" />
<glyph unicode="~" horiz-adv-x="964" d="M85 633.5q3 21.5 19 54.5q41 74 100.5 95.5t160.5 -3.5q59 -16 117.5 -48t113.5 -66l12 -9q47 -29 73 -17.5t42 34.5q39 45 76 67q18 10 38.5 16.5t39.5 6.5q4 -10 6 -35q-2 -49 -22.5 -91t-52.5 -72.5t-71 -47t-78 -16.5q-35 0 -65 12q-104 41 -207 117q-47 35 -84 35 q-33 0 -58.5 -17.5t-47.5 -38.5q-16 -16 -42 -28.5t-42 -12.5q-4 2 -12.5 9.5t-13.5 20.5t-2 34.5z" />
<glyph unicode="&#xa1;" horiz-adv-x="454" d="M84 227q23 199 53.5 391.5t61.5 382.5q4 16 12 35t18 37q4 6 7.5 13.5t7.5 13.5l16 2q4 -6 7 -12.5t7 -10.5q10 -18 18.5 -34.5t6.5 -30.5q-10 -109 -22.5 -216.5t-24.5 -213.5q-6 -59 -13.5 -120t-13.5 -120q-2 -18 -2 -36.5v-35.5q2 -23 1 -43t-5 -43q-8 -43 -22.5 -84 t-32.5 -75q-12 -23 -29 -23q-14 0 -20 25q-16 53 -26.5 102t-4.5 96zM170 1364q-4 61 33 98q22 23 51 23q47 0 81 -30t36 -71q2 -39 -17 -57q-18 -20 -84 -24l-4 -19v19q-66 0 -86 24q-12 12 -10 37z" />
<glyph unicode="&#xa3;" horiz-adv-x="933" d="M84 981q-2 45 16 63q20 23 84 23h21l-2 20q-25 211 121 332q76 61 144.5 67.5t143.5 -42.5q23 -16 37.5 -55t16.5 -93q4 -57 -9.5 -102t-35.5 -61q-10 -10 -15.5 -11.5t-7.5 -1.5q-6 0 -8 29q-2 8 -1 14t3 17q2 10 3 22t-3 25q-6 31 -17.5 62.5t-33.5 47.5q-12 10 -39 11 q-18 0 -41 -6.5t-33 -22.5q-23 -29 -42 -62.5t-40 -72.5q-18 -31 -37 -68l-16 -26l31 -3q20 0 30 -2q33 -2 56.5 -5t39 -11t23.5 -23.5t8 -41.5q2 -35 -14 -44.5t-53 -13.5q-10 -2 -21.5 -3t-21.5 -5l-19 -4l4 -19q18 -76 35 -152.5t21 -153.5t-9.5 -153.5t-52.5 -152.5 l-12 -20l24 -7q23 -4 43.5 -10t40.5 -10q47 -10 87 -19.5t81 -17.5q68 -12 119 4q23 6 38 -4t32 -26l21.5 -21.5t27.5 -17.5v-7q-10 -6 -17.5 -13t-17.5 -15q-23 -20 -45 -36.5t-43 -16.5q-45 2 -88 10t-90 20q-35 8 -67.5 15.5t-67.5 11.5q-16 4 -29.5 4h-26.5 q-109 0 -170 -80q-10 -10 -26.5 -14t-36.5 -8q-8 0 -14 -2v22q2 25 3 47.5t9 38.5q23 45 48.5 89t49.5 85q18 31 37 61.5t35 63.5q61 113 14 260q-4 14 -7 27.5t-7 30.5q-4 23 -10 45t-17 43q-12 27 -35.5 55.5t-52.5 38.5q-10 4 -19 4h-18h-18q-16 0 -27.5 6t-13.5 41z" />
<glyph unicode="&#xa9;" horiz-adv-x="1011" d="M83 737.5q1 96.5 36 167.5q39 84 93 134.5t118.5 77t134.5 34.5t137 8h16h7q162 0 241 -108q51 -68 61.5 -167.5t-22.5 -207.5q-61 -195 -184 -273q-195 -123 -432 -28q-74 29 -114 82t-58 100q-35 84 -34 180.5zM168 678q4 -31 37 -69t77 -70.5t92 -55t85 -22.5h26 q111 0 178.5 43t103.5 106.5t48 136t12 132.5q0 72 -57 129q-39 39 -92 57t-107 10l-22 -4q-41 -6 -81 -13t-81 -18q-53 -14 -97 -51t-75 -87t-44 -108.5t-3 -115.5zM321.5 770q-2.5 39 20.5 84q18 39 62.5 61.5t99.5 22.5q47 0 84 -17.5t57 -48.5q4 -8 4 -22t-4 -19 q-8 -6 -23.5 -6t-31.5 4q-14 0 -35 9q-16 4 -31.5 8t-31.5 0q-63 -10 -80 -51q-14 -27 4 -60l4 -6q14 -27 35.5 -54.5t58.5 -27.5q29 0 55 17q16 10 32.5 16t37.5 14q8 2 29 11q-25 -141 -148 -142v-10v10q-133 0 -178 119q-18 49 -20.5 88z" />
<glyph unicode="&#xac;" horiz-adv-x="880" d="M84 891q4 10 20.5 21.5t28.5 13.5q160 8 304.5 12t279.5 8h4q53 0 70 -31q18 -31 -15 -79q-47 -66 -98 -132.5t-111 -132.5q-12 -18 -28 -18q-10 0 -15 8q-10 8 -10 31q2 39 14.5 77t26.5 76q6 14 15.5 25.5t23.5 28.5q12 14 31 37l12 16h-21q-33 -4 -62.5 -6t-57.5 -4 q-86 -6 -160 -12.5t-148 -10.5q-47 -4 -77 17q-10 8 -19.5 26.5t-7.5 28.5z" />
<glyph unicode="&#xad;" d="M82 508q0 4 6 13t14.5 17.5t16.5 14.5t14 6q86 10 169 11t163 -3q23 0 53 -59q-6 -10 -21.5 -23.5t-25.5 -17.5q-33 -12 -65.5 -20.5t-65.5 -16.5q-10 -4 -18.5 -5t-18.5 -5l-2 10h-14q-12 0 -23.5 -1t-23.5 -1q-27 -2 -52 -2t-41 6q-20 8 -39.5 30.5t-25.5 45.5z" />
<glyph unicode="&#xae;" horiz-adv-x="1038" d="M86 711q-25 248 197 397q31 23 69.5 31t81.5 14q23 4 44.5 7t43.5 9q43 10 74 41q25 18 45 19q27 0 57 -29l25 -24l21.5 -21.5t23.5 -21.5q88 -66 139 -179.5t47 -238.5q-4 -117 -52 -211t-140 -154q-57 -39 -127 -59.5t-141 -20.5q-55 0 -115 14.5t-113 45t-95 82 t-65 125.5q-10 29 -12 58.5t-4 57.5q0 16 -1 29.5t-3 28.5zM166 721q4 -86 34.5 -151.5t77 -109.5t102.5 -67.5t112 -23.5q72 0 132 26.5t107 75.5q121 123 111 352q-6 121 -80 186.5t-203 65.5q-14 0 -20 -2q-82 0 -155 -29.5t-126 -85.5q-47 -49 -70.5 -110.5 t-21.5 -126.5zM383 580q0 74 6 151q2 12 3 25.5t1 27.5v4q2 10 2 19.5t2 19.5q4 23 9.5 43.5t9.5 40.5l6 25q10 -2 22.5 -3t22.5 -3q33 -4 62.5 -10.5t54.5 -22.5q35 -23 45 -63q6 -39 -17 -72q-4 -6 -10 -19l-14 -22l139 -105l-57 -81l-199 145l-2 -16q-2 -10 -3 -18.5 t-1 -16.5q-2 -16 -3 -27.5t-5 -21.5q-8 -16 -31 -35q-6 -6 -10 -8l-10 10q-8 8 -15.5 16t-7.5 17z" />
<glyph unicode="&#xb0;" horiz-adv-x="577" d="M88 1139q-14 49 3.5 109.5t60.5 115.5q45 59 102.5 92t110.5 33q41 0 66.5 -16.5t38.5 -40t18.5 -50t5.5 -49.5q4 -72 -24 -126t-89 -101q-43 -35 -75 -53.5t-60 -18.5q-23 0 -51.5 12.5t-73.5 40.5q-10 8 -19.5 21.5t-13.5 30.5zM211 1221q2 -20 22.5 -42t40.5 -26h7 q23 0 44 15.5t38.5 41t28.5 57t11 64.5v4l-4 2l-8 9q-8 10 -18.5 19t-26.5 11q-47 6 -94 -43q-23 -25 -34 -54.5t-7 -57.5z" />
<glyph unicode="&#xbb;" horiz-adv-x="989" d="M82 526q8 16 12 23q10 20 19.5 36.5t23.5 26.5q41 29 82 52.5t86 48.5q20 10 38.5 20t39.5 23l12 6l-10 8q-14 10 -27.5 20.5t-27.5 20.5q-33 23 -63.5 45.5t-59.5 46.5q-8 6 -12.5 18.5t-8.5 26.5q-4 8 -4 17q6 4 13.5 6t13.5 6q16 6 29.5 11t23.5 5q6 0 8 -2 q70 -43 131.5 -92t108.5 -90q37 -31 33 -53q0 -25 -43 -47q-47 -25 -94.5 -54.5t-92.5 -58.5q-20 -14 -39.5 -26.5t-42.5 -26.5q-4 -2 -6 -4t-6 -4q-8 -6 -15 -11.5t-14 -5.5h-4q-23 0 -43 2t-41 4q-6 2 -20 2zM463 477q2 6 1 11.5t-1 9.5q0 14 1 27.5t7 19.5q23 27 48.5 47 t53.5 41l19 14q23 16 45 31.5t45 32.5q12 8 24.5 16t26.5 18l10 7l-10 8q-16 14 -30.5 26.5t-30.5 24.5q-39 33 -75 62.5t-69 62.5q-20 16 -26 68q2 4 14 13t21 9h26q41 0 60 -12q29 -16 54 -36t50 -38q33 -25 64.5 -48.5t66.5 -43.5q23 -14 35 -23.5t14 -19.5 q0 -12 -35 -45q-29 -23 -54 -46.5t-52 -45.5q-53 -47 -107.5 -95.5t-109.5 -93.5q-10 -6 -27 -6q-8 0 -16.5 1t-16.5 1q-8 2 -26 2z" />
<glyph unicode="&#xd1;" horiz-adv-x="892" d="M84 68q74 223 115 452.5t75 483.5q2 10 2 22v23v29.5t5 25.5q4 16 12 30.5t18 30.5q2 4 3 5t3 6q2 -2 15 -11q16 -10 28.5 -22.5t16.5 -22.5q31 -98 55.5 -198.5t50.5 -210.5q10 -53 20.5 -104.5t20.5 -102.5q4 -25 9.5 -48.5t9.5 -45.5l4 -15l55 -8l2 21q2 16 4 33.5 t4 35.5q4 37 8.5 75t6.5 75q4 61 5 121.5t3 121.5q2 72 3 142.5t5 142.5q2 25 12.5 50.5t20.5 49.5l2 5q6 6 20 6q8 -4 14.5 -13.5t6.5 -15.5q4 -61 4 -118.5t-4 -112.5q-8 -115 -19.5 -227.5t-21.5 -217.5q-12 -109 -23.5 -208t-25.5 -197q-4 -41 -19.5 -49.5t-31.5 -6.5 q-35 4 -49.5 18.5t-22.5 47.5q-18 88 -41 174t-45 172q-8 29 -15.5 59.5t-15.5 59.5q-4 14 -20 18q-8 4 -15 6l-24 11l-17 -129q-8 -53 -15 -107.5t-13 -107.5q-2 -12 -3 -25.5t-1 -28.5q-4 -53 -14.5 -100t-51.5 -86q-20 -18 -45 -38.5t-47 -37.5v-20v20q-16 0 -25 8 q-18 35 -14 54zM246 1403q-2 10 3 23.5t9 25.5q4 8 6 10q4 0 12 -4q12 -4 26.5 -10t16.5 -12q10 -29 28 -51.5t48 -22.5q18 0 39 8t49 25q49 27 105.5 52.5t116.5 43.5q16 -18 45 -21q23 -4 40 -10t21 -10l-2 -2q-2 -2 -4 -3t-6 -5q-25 -14 -52.5 -24.5t-56.5 -20.5 q-25 -8 -50.5 -17.5t-53.5 -25.5l-29 -17l-68 -37q-39 -23 -79 -22q-59 0 -106.5 37t-57.5 90z" />
<glyph unicode="&#xf1;" horiz-adv-x="745" d="M82 63v38t2 38q18 121 36.5 240t37.5 235l14 95q2 6 2 12t2 10q2 16 4 32.5t10 29.5q8 14 19.5 26t23.5 25l15 14q27 -29 63 -29q16 0 35 5.5t35 13.5t33.5 13t34.5 5q100 -10 100 -108q2 -109 -1 -194t-11 -163q-17 -155 -56 -284q-6 -23 -21.5 -41.5t-33.5 -38.5 l-15.5 -15.5t-13.5 -15.5l-18 2v23q0 18 1 35.5t3 33.5q10 66 21.5 131.5t21.5 130.5q12 74 24.5 148t22.5 147q2 20 -4 48q-4 16 -4 24l-2 12l-10 -4q-45 -16 -74 -42.5t-48.5 -58.5t-31.5 -69t-25 -73l-12 -43q-10 -35 -18 -71t-17 -71q-8 -37 -16 -74.5t-18 -72.5 q-10 -27 -26.5 -50.5t-35.5 -45.5q-8 -10 -15 -19.5t-16 -19.5h-6q-8 0 -10 4v15t-2 17zM156 1085v17q0 12 1 23.5t7 19.5q16 23 59 36t96 13t87 -16q20 -8 28 -13q29 -14 57.5 -25.5t61.5 -11.5q29 0 68 15h2q10 0 21 -5.5t15 -9.5q6 -6 3 -16q0 -6 -2.5 -8t-2.5 -4 q-23 -14 -48 -27.5t-50 -25.5q-10 -4 -17 -8.5t-16 -8.5q-12 4 -24.5 8t-22.5 9q-25 10 -46 17t-42 17q-23 10 -45 18.5t-45 8.5q-35 0 -72 -25q-4 -4 -16 -4q-8 0 -16.5 1t-18.5 3q-6 0 -12 1t-10 1z" />
<glyph unicode="&#x2000;" horiz-adv-x="750" />
<glyph unicode="&#x2001;" horiz-adv-x="1501" />
<glyph unicode="&#x2002;" horiz-adv-x="750" />
<glyph unicode="&#x2003;" horiz-adv-x="1501" />
<glyph unicode="&#x2004;" horiz-adv-x="500" />
<glyph unicode="&#x2005;" horiz-adv-x="375" />
<glyph unicode="&#x2006;" horiz-adv-x="250" />
<glyph unicode="&#x2007;" horiz-adv-x="250" />
<glyph unicode="&#x2008;" horiz-adv-x="187" />
<glyph unicode="&#x2009;" horiz-adv-x="300" />
<glyph unicode="&#x200a;" horiz-adv-x="83" />
<glyph unicode="&#x2010;" d="M82 508q0 4 6 13t14.5 17.5t16.5 14.5t14 6q86 10 169 11t163 -3q23 0 53 -59q-6 -10 -21.5 -23.5t-25.5 -17.5q-33 -12 -65.5 -20.5t-65.5 -16.5q-10 -4 -18.5 -5t-18.5 -5l-2 10h-14q-12 0 -23.5 -1t-23.5 -1q-27 -2 -52 -2t-41 6q-20 8 -39.5 30.5t-25.5 45.5z" />
<glyph unicode="&#x2011;" d="M82 508q0 4 6 13t14.5 17.5t16.5 14.5t14 6q86 10 169 11t163 -3q23 0 53 -59q-6 -10 -21.5 -23.5t-25.5 -17.5q-33 -12 -65.5 -20.5t-65.5 -16.5q-10 -4 -18.5 -5t-18.5 -5l-2 10h-14q-12 0 -23.5 -1t-23.5 -1q-27 -2 -52 -2t-41 6q-20 8 -39.5 30.5t-25.5 45.5z" />
<glyph unicode="&#x2012;" d="M82 508q0 4 6 13t14.5 17.5t16.5 14.5t14 6q86 10 169 11t163 -3q23 0 53 -59q-6 -10 -21.5 -23.5t-25.5 -17.5q-33 -12 -65.5 -20.5t-65.5 -16.5q-10 -4 -18.5 -5t-18.5 -5l-2 10h-14q-12 0 -23.5 -1t-23.5 -1q-27 -2 -52 -2t-41 6q-20 8 -39.5 30.5t-25.5 45.5z" />
<glyph unicode="&#x2013;" horiz-adv-x="821" d="M0 700q-2 37 15.5 45.5t58.5 12.5h6q57 4 114.5 8t124.5 10l130 8q12 -2 26.5 -2t30.5 -2q53 -4 114.5 -9t124.5 -15q10 -2 22.5 -11.5t23.5 -19.5l8 -8q-2 -4 -11 -12q-10 -12 -22 -23.5t-23 -13.5q-43 -8 -88 -10.5t-90 -2.5h-43q-61 -2 -122.5 -2t-123.5 -2h-95 t-95 -2h-12q-37 0 -54.5 9.5t-19.5 41.5z" />
<glyph unicode="&#x2014;" horiz-adv-x="964" d="M84 700q-2 37 15.5 45.5t58.5 12.5h6q57 4 114.5 8t124.5 10l129 8q12 -2 27 -2t31 -2q53 -4 114.5 -9t124.5 -15q10 -2 22.5 -11.5t22.5 -19.5l9 -8q-2 -4 -11 -12q-10 -12 -22 -23.5t-23 -13.5q-43 -8 -88 -10.5t-90 -2.5h-43q-61 -2 -122.5 -2t-123.5 -2h-95t-95 -2 h-12q-37 0 -54.5 9.5t-19.5 41.5z" />
<glyph unicode="&#x2022;" horiz-adv-x="231" d="M-2 526q2 43 41 73t94 30q47 0 72 -35q27 -41 26 -129q-4 -37 -18 -67.5t-61 -35.5q-25 -4 -52.5 9.5t-50.5 36.5q-25 27 -39 58.5t-12 59.5z" />
<glyph unicode="&#x202f;" horiz-adv-x="300" />
<glyph unicode="&#x205f;" horiz-adv-x="375" />
<glyph unicode="&#x20ac;" horiz-adv-x="849" d="M82 725q0 10 16.5 25.5t32.5 29.5q10 8 18.5 14.5t16.5 14.5q12 12 24.5 23.5t26.5 23.5l25 23l10 12l-27 41l-10 2h-12h-17q-18 0 -24 4q-18 10 -31.5 22.5t-15.5 16.5q4 16 17 33.5t18 19.5q37 -4 62.5 5t42.5 26.5t29.5 41t24.5 48.5l10 20q78 162 189 277 q39 39 88 39q35 0 67.5 -21.5t51.5 -60.5q37 -78 51 -207q4 -39 -15.5 -52t-64.5 -22q-6 14 -13.5 39.5t-13.5 50.5q-6 18 -9 39t-7 43q-2 12 -3 23.5t-3 23.5l-4 21l-21 -6q-82 -20 -121.5 -74.5t-70.5 -116.5q-20 -39 -41 -75l-19 -27l234 -16q-18 -35 -42 -56.5 t-50.5 -33t-54 -16.5t-58.5 -7q-18 -4 -32.5 -16.5t-26.5 -28.5l-21 -21l-10 -10l29 -49l10 2q10 2 21.5 2t21.5 2q27 4 50.5 7t45.5 -1q10 -2 20.5 -10t20.5 -18q4 -2 5 -4.5t5 -4.5q-2 -4 -4 -6t-4 -6q-8 -12 -15 -23.5t-16 -15.5q-29 -10 -58.5 -17t-65.5 -16 q-16 -4 -34 -8t-38 -8l-17 -4l46 -516l20 4q51 10 82 30.5t49.5 47t25.5 56.5t11 58q0 6 1 13.5t1 15.5q4 49 15.5 79t54.5 34q68 -272 -136 -459q-45 -43 -78.5 -38t-74.5 61q-33 45 -51.5 92t-27.5 98t-12 103.5t-5 107.5v27q-2 29 0 59.5t6 58.5q0 12 1 25.5t3 28.5v10 l-14 10q-8 6 -17 10q-12 4 -22 4q-8 0 -14.5 -1t-14.5 -1q-8 -2 -23 -2h-12q-2 0 -2 2q-6 6 -6 25z" />
<glyph unicode="&#x2122;" horiz-adv-x="1196" d="M82 1368q4 4 7 8t7 8q10 14 22.5 25.5t24.5 15.5q102 29 203 35q35 4 70 2t69 -4q14 -2 27.5 -3t28.5 -1l6 -31q-8 -4 -15.5 -8t-15.5 -8q-49 -23 -86 -51q-55 -49 -100 -117q-10 -16 -17.5 -33.5t-13.5 -34.5q-8 -18 -15.5 -35.5t-17.5 -31.5q-12 -18 -29 -35t-40 -35 q-8 -6 -15.5 -12t-15.5 -14q-20 59 -9 107t29 95q10 29 19.5 56.5t13.5 58.5l2 12l-12 -2q-8 -2 -14.5 -3t-12.5 -1q-20 -6 -28 -4q-16 6 -29.5 14.5t-28.5 18.5q-4 2 -7 4t-7 4zM485 1085l21 35q41 74 86 147.5t98 139.5q55 70 90 70t80 -99q4 -8 6 -16t6 -19q2 -4 3.5 -10 t5.5 -12l4 -14l10 10q10 10 18.5 18t16.5 19l34.5 34.5t32.5 30.5q23 16 60 27q4 2 9 4t11 4q8 -20 13 -29q10 -23 18 -41t4 -36q-4 -31 -12 -63t-19 -60q-8 -25 -15 -50.5t-11 -50.5q-8 -41 -32 -63.5t-75 -32.5v203l-14 -14q-53 -47 -86 -48q-25 0 -45.5 31t-38.5 98 l-6 21l-10 -19q-10 -18 -20.5 -35.5t-20.5 -33.5q-25 -41 -47.5 -79t-49.5 -73q-16 -18 -42.5 -29.5t-49.5 -17.5q-8 6 -20.5 26.5t-12.5 26.5z" />
<glyph unicode="&#x25fc;" horiz-adv-x="870" d="M0 0v870h870v-870h-870z" />
</font>
</defs>
</svg>
